<?xml version="1.0" encoding="UTF-8"?>
<!DOCTYPE svg PUBLIC "-//W3C//DTD SVG 1.1//EN" "http://www.w3.org/Graphics/SVG/1.1/DTD/svg11.dtd">
<svg xmlns="http://www.w3.org/2000/svg" version="1.1" width="892px" height="196px" style="shape-rendering:geometricPrecision; text-rendering:geometricPrecision; image-rendering:optimizeQuality; fill-rule:evenodd; clip-rule:evenodd" xmlns:xlink="http://www.w3.org/1999/xlink">
<g><path style="opacity:0.822" fill="#f5f5f5" d="M 584.5,21.5 C 586.482,21.9954 588.482,22.4954 590.5,23C 591.725,24.563 593.225,25.7297 595,26.5C 604.665,26.5039 613.999,24.8373 623,21.5C 629.875,23.5436 633.708,28.2102 634.5,35.5C 643.173,35.3336 651.84,35.5002 660.5,36C 663.925,38.3354 666.758,37.8354 669,34.5C 670.92,31.6612 672.587,28.6612 674,25.5C 675.912,24.3081 677.912,23.3081 680,22.5C 687.392,25.7253 694.892,28.7253 702.5,31.5C 704.498,29.0382 706.832,26.8716 709.5,25C 715.026,23.8289 720.026,24.8289 724.5,28C 730.636,27.3188 735.469,29.4855 739,34.5C 741.344,31.7891 743.511,28.9557 745.5,26C 747.199,25.0419 749.033,24.5419 751,24.5C 756.894,25.3988 762.728,26.5655 768.5,28C 770.049,29.214 771.215,30.714 772,32.5C 775.111,23.3865 781.111,20.7199 790,24.5C 797.164,21.2066 802.831,22.8733 807,29.5C 809.852,27.6648 812.686,25.8315 815.5,24C 820.321,21.8999 824.821,22.3999 829,25.5C 829.903,24.2986 831.069,23.4652 832.5,23C 835.833,22.3333 839.167,22.3333 842.5,23C 844.901,25.0624 847.567,26.7291 850.5,28C 852.487,29.3189 853.654,31.1523 854,33.5C 856.98,26.7762 862.147,24.2762 869.5,26C 874.838,27.6781 877.505,31.3448 877.5,37C 876.942,42.0623 876.275,47.0623 875.5,52C 878.816,61.1947 875.65,67.028 866,69.5C 860.997,69.1705 857.331,66.8372 855,62.5C 851.36,71.7214 845.36,74.0547 837,69.5C 834.667,70.877 832.167,71.877 829.5,72.5C 826.7,71.3538 823.867,71.3538 821,72.5C 817.641,72.2169 814.807,70.8836 812.5,68.5C 804.725,72.2778 796.892,72.2778 789,68.5C 782.286,71.7738 776.119,71.1071 770.5,66.5C 762.964,70.8114 754.964,71.9781 746.5,70C 743.447,67.9486 741.614,65.1152 741,61.5C 738.736,58.4801 735.903,57.8135 732.5,59.5C 730.503,65.3325 726.503,68.8325 720.5,70C 716.296,69.7544 712.13,69.9211 708,70.5C 703.48,69.7224 699.646,67.7224 696.5,64.5C 693.949,65.7828 691.449,66.1161 689,65.5C 684.696,68.2706 680.029,70.2706 675,71.5C 667.168,69.3642 662.835,64.6976 662,57.5C 651.868,58.6306 641.701,58.7973 631.5,58C 629.094,57.6943 626.927,56.861 625,55.5C 622.865,56.1271 620.698,56.6271 618.5,57C 615.511,64.4921 610.178,69.3254 602.5,71.5C 595.812,70.3114 591.479,66.4781 589.5,60C 592.568,56.9576 592.068,54.7909 588,53.5C 582.237,62.7613 574.071,68.7613 563.5,71.5C 556.656,70.1566 552.156,66.1566 550,59.5C 545.606,65.8921 539.606,69.8921 532,71.5C 525.226,70.7268 520.893,67.0602 519,60.5C 518.771,63.4576 517.604,65.9576 515.5,68C 506.291,70.9184 496.958,71.2517 487.5,69C 484.764,67.6378 482.431,65.8044 480.5,63.5C 474.826,68.7513 468.159,70.9179 460.5,70C 459.069,69.5348 457.903,68.7014 457,67.5C 453.419,68.769 449.919,68.4357 446.5,66.5C 442.176,71.6691 437.176,72.5025 431.5,69C 429.167,67.1667 426.833,65.3333 424.5,63.5C 421.241,67.5939 417.074,70.2606 412,71.5C 409.468,70.8811 407.135,69.8811 405,68.5C 397.581,73.0315 390.081,73.3648 382.5,69.5C 376.275,73.5003 370.775,72.5003 366,66.5C 360.073,70.6483 354.406,70.315 349,65.5C 344.029,70.0236 338.862,70.3569 333.5,66.5C 328.097,69.6468 322.597,69.9801 317,67.5C 313.85,69.4084 310.517,71.0751 307,72.5C 302.677,70.8395 298.343,69.1729 294,67.5C 291.345,69.0529 288.512,70.2196 285.5,71C 278.945,70.6506 272.445,70.4839 266,70.5C 263.143,72.7554 260.143,72.7554 257,70.5C 250.99,73.5796 245.49,72.9129 240.5,68.5C 235.479,72.9193 229.979,73.586 224,70.5C 220.103,72.7563 216.27,72.4229 212.5,69.5C 208.396,72.9442 204.063,73.2775 199.5,70.5C 195.146,71.7708 190.813,71.7708 186.5,70.5C 183.586,72.9732 180.752,72.9732 178,70.5C 172.299,72.9561 167.132,71.9561 162.5,67.5C 155.806,68.4318 149.306,70.0985 143,72.5C 140.815,72.0788 138.649,71.5788 136.5,71C 134.978,69.4782 133.478,67.9782 132,66.5C 129.943,68.5437 127.443,69.7103 124.5,70C 114.453,70.8082 104.453,70.6415 94.5,69.5C 85.6208,71.51 76.6208,72.01 67.5,71C 64.6288,70.8692 62.2954,69.7025 60.5,67.5C 53.9919,71.9009 47.1585,72.5676 40,69.5C 38.2365,70.9437 36.2365,71.9437 34,72.5C 32.3052,71.8433 30.4719,71.8433 28.5,72.5C 24.4717,72.4374 21.3051,70.7707 19,67.5C 16.5983,64.0865 14.5983,60.4198 13,56.5C 12.218,53.7431 12.718,51.2431 14.5,49C 13.6064,46.9316 12.9397,44.7649 12.5,42.5C 13.685,39.6097 13.685,36.7764 12.5,34C 12.9563,30.2061 14.9563,27.5394 18.5,26C 23.0513,25.0386 27.5513,23.8719 32,22.5C 37.2344,23.2338 42.5678,23.2338 48,22.5C 50.4783,23.2446 52.9783,23.9112 55.5,24.5C 66.4133,23.8969 77.4133,23.7303 88.5,24C 93.2639,24.9297 96.2639,27.7631 97.5,32.5C 98.9488,29.6287 100.615,26.7953 102.5,24C 108.608,21.3904 114.108,22.2237 119,26.5C 119.813,28.4357 120.313,30.4357 120.5,32.5C 121.833,32.5 123.167,32.5 124.5,32.5C 124.081,29.6755 125.081,27.5088 127.5,26C 133.873,25.0146 140.206,23.8479 146.5,22.5C 155.854,25.2137 165.187,25.5471 174.5,23.5C 178.853,24.7901 183.02,24.4567 187,22.5C 190.54,23.426 194.04,24.426 197.5,25.5C 206.681,22.8981 215.848,22.8981 225,25.5C 227.46,24.4021 229.96,23.4021 232.5,22.5C 234.783,23.3209 237.116,23.9876 239.5,24.5C 248.406,23.496 257.24,22.8293 266,22.5C 269.908,22.8483 273.408,24.1817 276.5,26.5C 277.912,25.1936 279.579,24.3603 281.5,24C 290.909,23.0832 300.242,23.4165 309.5,25C 311.378,26.5429 312.878,28.3762 314,30.5C 322.798,23.9355 331.132,24.6022 339,32.5C 339.346,34.2182 339.846,35.8849 340.5,37.5C 336.78,44.2854 338.78,47.1187 346.5,46C 339.833,39.6667 339.833,33.3333 346.5,27C 353.816,25.2847 361.149,25.118 368.5,26.5C 370.115,25.846 371.782,25.346 373.5,25C 383.5,24.3333 393.5,24.3333 403.5,25C 410.619,26.0442 413.786,30.2109 413,37.5C 413.116,25.3705 418.949,20.8705 430.5,24C 431.667,25.1667 432.833,26.3333 434,27.5C 434.767,33.3224 436.1,38.9891 438,44.5C 445.348,28.2473 457.515,23.0807 474.5,29C 476.09,30.0458 477.59,31.2125 479,32.5C 479.739,29.4265 481.572,27.2598 484.5,26C 489.179,25.0843 493.679,25.5843 498,27.5C 509.614,19.0121 517.947,21.3455 523,34.5C 527.028,33.0598 531.195,32.0598 535.5,31.5C 537.593,31.4858 539.426,32.1524 541,33.5C 546.248,32.1845 551.081,33.1845 555.5,36.5C 558.548,32.8944 561.215,29.0611 563.5,25C 567.209,23.1685 570.876,23.3352 574.5,25.5C 577.932,24.1068 581.265,22.7734 584.5,21.5 Z M 517.5,51.5 C 515.668,50.8595 515.335,49.8595 516.5,48.5C 517.386,49.325 517.719,50.325 517.5,51.5 Z M 853.5,48.5 C 854.649,48.7911 855.316,49.6244 855.5,51C 855.079,53.1846 854.579,55.3513 854,57.5C 853.215,55.714 852.049,54.214 850.5,53C 852.141,51.871 853.141,50.371 853.5,48.5 Z M 518.5,54.5 C 520.273,55.3143 520.773,56.6476 520,58.5C 519.209,57.255 518.709,55.9217 518.5,54.5 Z"/></g>
<g><path style="opacity:1" fill="#0c0906" d="M 582.5,25.5 C 587.963,24.7839 591.463,27.1172 593,32.5C 593.833,31.6667 594.667,30.8333 595.5,30C 604.228,30.3973 612.562,29.064 620.5,26C 626.926,24.9123 630.259,27.7456 630.5,34.5C 630.594,36.9116 629.594,38.745 627.5,40C 639.088,39.3785 650.755,39.3785 662.5,40C 663.333,40.8333 664.167,41.6667 665,42.5C 670.714,38.5653 674.881,33.3987 677.5,27C 680.207,26.6717 682.874,27.005 685.5,28C 690.702,30.3489 695.869,32.8489 701,35.5C 703.147,34.8875 705.314,34.2208 707.5,33.5C 707.949,29.548 710.116,27.548 714,27.5C 719.321,27.0252 722.321,29.3585 723,34.5C 726.043,32.0124 729.21,31.5124 732.5,33C 735.629,36.7522 738.129,40.9188 740,45.5C 740.206,42.3771 740.873,39.3771 742,36.5C 744.326,35.1868 745.659,33.1868 746,30.5C 747.441,29.13 749.108,28.13 751,27.5C 756.046,29.0375 761.212,30.2041 766.5,31C 769.309,34.2985 770.143,38.1318 769,42.5C 772.19,45.5449 774.357,49.2115 775.5,53.5C 776.332,45.5207 776.832,37.5207 777,29.5C 781.333,25.5 785.667,25.5 790,29.5C 794.333,25.5 798.667,25.5 803,29.5C 803.494,31.1341 803.66,32.8008 803.5,34.5C 805.5,34.5 807.5,34.5 809.5,34.5C 809.33,33.1779 809.663,32.0113 810.5,31C 814.117,29.1738 817.784,27.6738 821.5,26.5C 822.833,26.6667 824.167,26.8333 825.5,27C 826.399,28.2362 827.566,29.0696 829,29.5C 831.167,27.4896 833.667,26.1563 836.5,25.5C 838.577,25.6922 840.577,26.1922 842.5,27C 843.807,29.3237 845.807,30.657 848.5,31C 850.72,34.1014 851.053,37.4347 849.5,41C 850.574,41.7387 851.241,42.7387 851.5,44C 850.634,47.5113 848.967,50.5113 846.5,53C 848.574,55.4083 850.241,58.0749 851.5,61C 848.886,68.9548 844.22,70.4548 837.5,65.5C 835.032,67.0688 832.366,68.0688 829.5,68.5C 825.641,68.2924 821.641,68.1257 817.5,68C 815.67,63.1591 813.003,62.4924 809.5,66C 802.713,68.3216 796.213,67.8216 790,64.5C 785.236,65.9219 780.403,66.4219 775.5,66C 774.15,64.2817 772.983,62.4484 772,60.5C 765.308,66.4668 757.474,68.6335 748.5,67C 745.617,65.4115 744.117,62.9115 744,59.5C 741.528,57.7015 739.861,55.3682 739,52.5C 736.358,55.0288 733.192,56.0288 729.5,55.5C 728.606,62.8948 724.439,66.5614 717,66.5C 713.181,65.5046 709.347,65.3379 705.5,66C 700.29,64.7895 698.456,61.6228 700,56.5C 701.419,54.6641 702.586,52.6641 703.5,50.5C 701.473,49.3067 699.973,47.64 699,45.5C 698.362,46.6086 697.862,47.7753 697.5,49C 699.724,54.4647 698.39,58.798 693.5,62C 691.432,62.6869 689.432,62.5202 687.5,61.5C 684.037,64.5651 680.037,66.5651 675.5,67.5C 667.32,66.0405 664.987,61.7072 668.5,54.5C 667.52,53.0186 666.353,51.6853 665,50.5C 664.535,51.9308 663.701,53.0975 662.5,54C 651.5,54.6667 640.5,54.6667 629.5,54C 628.299,53.0975 627.465,51.9308 627,50.5C 623.344,51.9694 619.511,52.9694 615.5,53.5C 613.898,60.767 609.564,65.4336 602.5,67.5C 596.487,66.6669 593.654,63.3336 594,57.5C 596.08,55.8767 598.246,54.3767 600.5,53C 593.129,54.5985 588.963,51.7652 588,44.5C 584.484,55.0382 577.651,62.5382 567.5,67C 559.477,68.6252 555.31,65.4585 555,57.5C 555.833,56.6667 556.667,55.8333 557.5,55C 555.667,53.1667 553.833,51.3333 552,49.5C 548.229,59.1034 541.396,65.4367 531.5,68.5C 524.411,66.4978 522.411,62.3311 525.5,56C 514.102,42.9594 517.102,36.1261 534.5,35.5C 540.241,35.94 545.908,36.7733 551.5,38C 552.893,39.1711 553.727,40.6711 554,42.5C 558.945,38.5546 562.778,33.7212 565.5,28C 568.951,27.5269 572.285,28.0269 575.5,29.5C 577.765,27.8726 580.099,26.5392 582.5,25.5 Z"/></g>
<g><path style="opacity:1" fill="#0c0704" d="M 116.5,30.5 C 116.5,32.5 116.5,34.5 116.5,36.5C 119.5,36.5 122.5,36.5 125.5,36.5C 127.002,34.232 128.335,31.732 129.5,29C 135.524,28.8507 141.357,28.0173 147,26.5C 152.895,27.8835 158.895,28.8835 165,29.5C 165.5,29 166,28.5 166.5,28C 171.887,27.2155 177.22,27.3822 182.5,28.5C 183.688,27.16 185.188,26.4934 187,26.5C 190.596,27.4242 194.096,28.4242 197.5,29.5C 205.307,27.5179 213.307,27.0179 221.5,28C 222.416,28.3742 223.25,28.8742 224,29.5C 226.678,28.0783 229.512,27.0783 232.5,26.5C 234.912,26.4062 236.745,27.4062 238,29.5C 238.5,29 239,28.5 239.5,28C 249.821,26.9588 260.154,26.6255 270.5,27C 273.333,28.5 275.5,30.6667 277,33.5C 277.346,31.1523 278.513,29.3189 280.5,28C 289.5,27.3333 298.5,27.3333 307.5,28C 308.333,28.8333 309.167,29.6667 310,30.5C 310.179,33.5535 310.679,36.5535 311.5,39.5C 316.436,29.862 323.769,27.362 333.5,32C 337.5,35.6667 337.5,39.3333 333.5,43C 335.487,44.3189 336.654,46.1523 337,48.5C 343.559,47.4996 347.725,50.333 349.5,57C 348.606,62.0607 345.606,64.894 340.5,65.5C 337.786,65.0596 335.62,63.7262 334,61.5C 327.256,67.0287 320.923,66.6954 315,60.5C 314.09,64.5616 311.59,67.2283 307.5,68.5C 302.963,67.2415 298.463,65.9081 294,64.5C 289.602,66.1321 285.102,67.4654 280.5,68.5C 278.617,68.1243 277.117,67.1243 276,65.5C 272.812,68.646 269.478,68.9793 266,66.5C 265.044,67.8941 263.711,68.5607 262,68.5C 260.072,68.0665 258.239,67.3998 256.5,66.5C 253.08,68.3865 249.413,68.8865 245.5,68C 241.72,62.833 238.387,62.833 235.5,68C 231.41,68.9542 227.577,68.4542 224,66.5C 219.062,69.7092 215.062,68.7092 212,63.5C 209.324,68.8691 205.491,69.8691 200.5,66.5C 195.911,68.9169 191.411,68.9169 187,66.5C 185.562,67.7185 183.895,68.3852 182,68.5C 178.667,67.1667 175.333,67.1667 172,68.5C 167.948,67.442 165.614,64.7753 165,60.5C 161.681,64.0049 157.514,65.5049 152.5,65C 148.364,68.1066 143.697,69.1066 138.5,68C 136.963,66.8904 136.297,65.3904 136.5,63.5C 132.399,63.5705 129.899,61.5705 129,57.5C 128.989,60.6592 128.155,63.4926 126.5,66C 106.167,66.7964 85.8337,67.1297 65.5,67C 64.3147,65.647 62.9814,64.4803 61.5,63.5C 57.2875,65.8629 52.7875,67.5296 48,68.5C 45.1047,68.4684 42.6047,67.4684 40.5,65.5C 35.5843,68.4159 30.251,69.2492 24.5,68C 22.697,64.8967 20.5303,62.0633 18,59.5C 15.9565,55.7502 16.1232,52.0835 18.5,48.5C 18,47.5 17.5,46.5 17,45.5C 16.9262,41.6941 16.7596,38.0275 16.5,34.5C 16.3898,32.626 17.0564,31.126 18.5,30C 22.8668,28.8944 27.2002,27.7277 31.5,26.5C 34.6974,26.8281 38.0307,26.9948 41.5,27C 42.0253,27.6924 42.6919,28.1924 43.5,28.5C 47.244,26.1336 51.0773,26.1336 55,28.5C 66.7573,27.3459 78.5907,27.1793 90.5,28C 93.1252,30.1962 94.1252,33.0295 93.5,36.5C 96.5,36.5 99.5,36.5 102.5,36.5C 101.44,26.7162 105.44,23.5496 114.5,27C 115.823,27.8159 116.489,28.9826 116.5,30.5 Z"/></g>
<g><path style="opacity:1" fill="#0c0908" d="M 482.5,44.5 C 482.5,47.1667 482.5,49.8333 482.5,52.5C 479.533,61.2885 473.366,66.2885 464,67.5C 461.497,67.01 459.497,65.6766 458,63.5C 453.594,65.1997 449.594,64.533 446,61.5C 441.765,68.4148 436.598,69.2481 430.5,64C 428.291,62.1266 426.458,59.96 425,57.5C 421.799,61.0364 418.299,64.2031 414.5,67C 410.048,67.8603 406.548,66.3603 404,62.5C 402.74,65.4281 400.573,67.2614 397.5,68C 394.167,68.6667 390.833,68.6667 387.5,68C 385.396,67.2092 384.063,65.7092 383.5,63.5C 374.226,71.5576 369.06,69.5576 368,57.5C 373.114,54.2814 375.947,49.6147 376.5,43.5C 374.659,42.7696 372.825,42.1029 371,41.5C 369.667,43.5 368.333,45.5 367,47.5C 366.339,53.1743 365.172,58.6743 363.5,64C 355.461,67.847 351.128,65.5137 350.5,57C 350.572,52.6151 351.572,48.4484 353.5,44.5C 346.322,43.48 343.822,39.48 346,32.5C 346.833,31.6667 347.667,30.8333 348.5,30C 367.488,28.7846 386.488,28.4513 405.5,29C 408.203,29.8653 409.536,31.6987 409.5,34.5C 409.353,37.1104 408.519,39.4437 407,41.5C 404.292,58.8276 407.292,59.161 416,42.5C 416.333,38.8333 416.667,35.1667 417,31.5C 419.435,26.7762 423.269,25.2762 428.5,27C 429.333,27.8333 430.167,28.6667 431,29.5C 430.803,39.5909 434.47,47.9242 442,54.5C 441.416,37.7503 449.583,29.5836 466.5,30C 474.581,31.9194 479.915,36.7528 482.5,44.5 Z"/></g>
<g><path style="opacity:1" fill="#080605" d="M 482.5,52.5 C 482.5,49.8333 482.5,47.1667 482.5,44.5C 482.334,40.1539 482.501,35.8206 483,31.5C 487.261,27.5773 491.594,27.5773 496,31.5C 496.495,33.4727 496.662,35.4727 496.5,37.5C 497.822,37.67 498.989,37.3366 500,36.5C 499.514,30.9853 502.014,27.8186 507.5,27C 512.428,25.3567 515.928,26.8567 518,31.5C 518.667,33.8333 518.667,36.1667 518,38.5C 515.485,40.1069 514.151,42.4402 514,45.5C 508.936,48.6354 503.436,50.8021 497.5,52C 502.525,52.3284 507.525,52.3284 512.5,52C 515.977,55.6847 516.477,59.8514 514,64.5C 509.688,66.0461 505.188,66.7127 500.5,66.5C 496.081,66.5637 491.748,66.0637 487.5,65C 485.667,64.5 484.5,63.3333 484,61.5C 482.851,58.6074 482.351,55.6074 482.5,52.5 Z"/></g>
<g><path style="opacity:1" fill="#0a0807" d="M 860.5,29.5 C 863.85,29.335 867.183,29.5017 870.5,30C 871.333,30.8333 872.167,31.6667 873,32.5C 872.555,40.8447 872.721,49.178 873.5,57.5C 871.909,64.9625 867.575,67.1292 860.5,64C 859.107,62.8289 858.273,61.3289 858,59.5C 858.187,50.1955 858.52,40.8621 859,31.5C 859.717,30.9558 860.217,30.2891 860.5,29.5 Z"/></g>
<g><path style="opacity:1" fill="#d98004" d="M 583.5,33.5 C 583.5,32.5 583.5,31.5 583.5,30.5C 586.321,30.3159 587.988,31.6493 588.5,34.5C 587.758,35.2868 586.925,35.9535 586,36.5C 585.623,35.0577 584.79,34.0577 583.5,33.5 Z"/></g>
<g><path style="opacity:1" fill="#d17c05" d="M 622.5,35.5 C 621.962,33.8828 621.629,32.2161 621.5,30.5C 624.321,30.3159 625.988,31.6493 626.5,34.5C 625.272,36.1759 623.939,36.5092 622.5,35.5 Z"/></g>
<g><path style="opacity:1" fill="#f07000" d="M 28.5,31.5 C 31.0217,31.1281 33.0217,31.9614 34.5,34C 33.4366,35.1882 32.1033,35.6882 30.5,35.5C 30.5,37.1667 30.5,38.8333 30.5,40.5C 31.8333,40.5 33.1667,40.5 34.5,40.5C 34.5,41.8333 34.5,43.1667 34.5,44.5C 33.1266,44.3433 31.7932,44.51 30.5,45C 31.8485,47.0104 33.1818,49.0104 34.5,51C 33.5636,53.9009 32.397,54.0676 31,51.5C 30.5012,55.4862 30.3345,59.4862 30.5,63.5C 29.1667,63.5 27.8333,63.5 26.5,63.5C 26.6653,59.8183 26.4986,56.1516 26,52.5C 25,54.5 24,56.5 23,58.5C 21.9164,57.3349 21.0831,56.0016 20.5,54.5C 22.4203,51.6612 24.0869,48.6612 25.5,45.5C 24.3112,44.5713 22.9778,44.238 21.5,44.5C 21.5,43.1667 21.5,41.8333 21.5,40.5C 23.1667,40.5 24.8333,40.5 26.5,40.5C 26.6567,39.1266 26.49,37.7932 26,36.5C 24.6439,37.3802 23.1439,37.7135 21.5,37.5C 21.238,36.0222 21.5713,34.6888 22.5,33.5C 24.6568,32.9495 26.6568,32.2829 28.5,31.5 Z"/></g>
<g><path style="opacity:1" fill="#ed6f00" d="M 49.5,36.5 C 48.9569,36.56 48.6236,36.8933 48.5,37.5C 49.325,38.3857 50.325,38.719 51.5,38.5C 51.5,42.5 51.5,46.5 51.5,50.5C 50.1667,50.5 48.8333,50.5 47.5,50.5C 47.1826,53.5719 47.5159,56.5719 48.5,59.5C 49.7576,54.4708 51.4243,54.3041 53.5,59C 53.5607,60.7106 52.8941,62.044 51.5,63C 48.9009,63.769 46.4009,63.6023 44,62.5C 43.8265,58.4592 43.3265,54.4592 42.5,50.5C 41.5934,55.4812 39.2601,59.6478 35.5,63C 30.5701,61.9188 30.4034,60.0855 35,57.5C 37.7929,53.1236 37.9596,48.6236 35.5,44C 35.6278,41.2927 36.2945,38.7927 37.5,36.5C 34.3922,33.128 35.0588,31.628 39.5,32C 40.4786,34.1373 41.8119,35.9706 43.5,37.5C 45.4547,35.4876 46.9547,33.1543 48,30.5C 51.8449,31.823 52.3449,33.823 49.5,36.5 Z"/></g>
<g><path style="opacity:1" fill="#f87900" d="M 111.5,30.5 C 111.5,34.1667 111.5,37.8333 111.5,41.5C 116.167,41.5 120.833,41.5 125.5,41.5C 125.5,42.8333 125.5,44.1667 125.5,45.5C 121.167,45.5 116.833,45.5 112.5,45.5C 112.5,49.5 112.5,53.5 112.5,57.5C 116.167,57.5 119.833,57.5 123.5,57.5C 123.5,58.8333 123.5,60.1667 123.5,61.5C 114.5,61.5 105.5,61.5 96.5,61.5C 96.5,60.1667 96.5,58.8333 96.5,57.5C 100.167,57.5 103.833,57.5 107.5,57.5C 107.5,53.5 107.5,49.5 107.5,45.5C 103.167,45.5 98.8333,45.5 94.5,45.5C 94.5,44.1667 94.5,42.8333 94.5,41.5C 99.0323,41.8182 103.366,41.4849 107.5,40.5C 107.5,37.1667 107.5,33.8333 107.5,30.5C 108.833,30.5 110.167,30.5 111.5,30.5 Z"/></g>
<g><path style="opacity:1" fill="#eb7502" d="M 144.5,31.5 C 150.36,33.0979 156.36,33.7646 162.5,33.5C 162.5,34.5 162.5,35.5 162.5,36.5C 158.167,36.5 153.833,36.5 149.5,36.5C 148.957,36.56 148.624,36.8933 148.5,37.5C 151.768,38.487 155.102,38.8204 158.5,38.5C 158.5,40.5 158.5,42.5 158.5,44.5C 155.102,44.1796 151.768,44.513 148.5,45.5C 152.107,46.4892 155.774,46.8226 159.5,46.5C 159.5,47.8333 159.5,49.1667 159.5,50.5C 160.833,50.5 162.167,50.5 163.5,50.5C 163.5,51.8333 163.5,53.1667 163.5,54.5C 162.167,54.5 160.833,54.5 159.5,54.5C 159.5,56.5 159.5,58.5 159.5,60.5C 155.879,59.6275 152.212,58.9608 148.5,58.5C 149.259,62.2403 147.759,63.907 144,63.5C 142.045,63.3594 140.545,62.526 139.5,61C 141.256,60.7978 142.922,60.2978 144.5,59.5C 141.232,58.513 137.898,58.1796 134.5,58.5C 134.5,57.5 134.5,56.5 134.5,55.5C 137.898,55.8204 141.232,55.487 144.5,54.5C 140.217,53.5078 135.884,53.1744 131.5,53.5C 131.5,52.5 131.5,51.5 131.5,50.5C 135.846,50.6657 140.179,50.499 144.5,50C 141.183,49.5017 137.85,49.335 134.5,49.5C 134.5,48.5 134.5,47.5 134.5,46.5C 137.898,46.8204 141.232,46.487 144.5,45.5C 141.572,44.5159 138.572,44.1826 135.5,44.5C 135.5,42.1667 135.5,39.8333 135.5,37.5C 138.518,37.6646 141.518,37.498 144.5,37C 140.514,36.5012 136.514,36.3345 132.5,36.5C 132.5,35.5 132.5,34.5 132.5,33.5C 136.702,33.8168 140.702,33.4834 144.5,32.5C 144.5,32.1667 144.5,31.8333 144.5,31.5 Z"/></g>
<g><path style="opacity:1" fill="#eb7600" d="M 171.5,37.5 C 173.429,37.7692 175.095,37.2692 176.5,36C 173.854,35.5026 171.187,35.3359 168.5,35.5C 168.5,34.5 168.5,33.5 168.5,32.5C 172.846,32.3343 177.179,32.501 181.5,33C 181.957,33.414 182.291,33.914 182.5,34.5C 181.167,36.1667 179.833,37.8333 178.5,39.5C 179.025,40.1924 179.692,40.6924 180.5,41C 180.167,41.3333 179.833,41.6667 179.5,42C 181.96,43.6322 184.293,43.6322 186.5,42C 184.249,42.2132 182.249,41.2132 180.5,39C 182.915,36.2577 185.415,33.7577 188,31.5C 190.241,31.6801 190.741,32.5135 189.5,34C 193.152,34.4986 196.818,34.6653 200.5,34.5C 200.5,35.8333 200.5,37.1667 200.5,38.5C 197.679,38.3159 196.012,39.6493 195.5,42.5C 196.912,43.8064 198.579,44.6397 200.5,45C 198.756,49.0226 196.256,49.5226 193,46.5C 192.5,47.5 192,48.5 191.5,49.5C 194.086,50.48 196.753,50.8134 199.5,50.5C 199.822,54.747 198.989,58.747 197,62.5C 194.619,63.435 192.119,63.7683 189.5,63.5C 189.5,62.1667 189.5,60.8333 189.5,59.5C 193.485,59.5601 195.152,57.5601 194.5,53.5C 193.167,53.5 191.833,53.5 190.5,53.5C 189.683,58.4884 186.849,61.8218 182,63.5C 180.699,62.9019 179.865,61.9019 179.5,60.5C 182.152,59.3468 184.152,57.5134 185.5,55C 184.552,54.5172 183.552,54.3505 182.5,54.5C 182.5,53.1667 182.5,51.8333 182.5,50.5C 184.167,50.5 185.833,50.5 187.5,50.5C 187.719,49.325 187.386,48.325 186.5,47.5C 185.28,48.7111 184.113,48.7111 183,47.5C 181.731,48.9047 181.231,50.5714 181.5,52.5C 180.5,52.5 179.5,52.5 178.5,52.5C 178.662,50.4727 178.495,48.4727 178,46.5C 177.829,51.8642 177.329,57.1975 176.5,62.5C 174.591,63.3482 172.591,63.6816 170.5,63.5C 170.67,62.1779 170.337,61.0113 169.5,60C 170.793,59.51 172.127,59.3433 173.5,59.5C 174.176,52.3169 173.176,51.4836 170.5,57C 168.071,56.6646 167.238,55.1646 168,52.5C 172.29,49.2338 172.123,47.2338 167.5,46.5C 167.5,45.1667 167.5,43.8333 167.5,42.5C 169.527,42.6621 171.527,42.4955 173.5,42C 171.998,41.4169 170.665,40.5836 169.5,39.5C 169.855,38.4777 170.522,37.811 171.5,37.5 Z"/></g>
<g><path style="opacity:1" fill="#ea7a00" d="M 273.5,44.5 C 271.833,44.5 270.167,44.5 268.5,44.5C 268.351,45.552 268.517,46.552 269,47.5C 269.671,46.7476 270.504,46.4142 271.5,46.5C 272.497,46.4701 273.164,46.9701 273.5,48C 272.637,50.2265 271.637,52.3932 270.5,54.5C 275.342,56.0235 275.676,58.8569 271.5,63C 269.097,63.6302 267.263,62.7969 266,60.5C 264.981,61.6872 263.814,62.6872 262.5,63.5C 260.407,62.3027 259.24,60.9694 259,59.5C 257.403,60.8847 255.57,61.5514 253.5,61.5C 253.5,56.5 253.5,51.5 253.5,46.5C 256.833,46.5 260.167,46.5 263.5,46.5C 263.335,50.1817 263.501,53.8484 264,57.5C 264.5,56.5 265,55.5 265.5,54.5C 264.583,51.2423 264.249,47.909 264.5,44.5C 260.5,44.5 256.5,44.5 252.5,44.5C 252.786,42.7231 253.453,41.0564 254.5,39.5C 254.132,38.09 253.299,37.09 252,36.5C 251.5,45.8274 251.334,55.1607 251.5,64.5C 250.167,64.5 248.833,64.5 247.5,64.5C 247.799,62.396 247.466,60.396 246.5,58.5C 244.591,59.3482 242.591,59.6816 240.5,59.5C 242.82,50.6081 243.153,41.6081 241.5,32.5C 246.679,32.198 251.679,32.8647 256.5,34.5C 256.5,33.5 256.5,32.5 256.5,31.5C 257.833,31.5 259.167,31.5 260.5,31.5C 260.5,32.5 260.5,33.5 260.5,34.5C 261.5,34.5 262.5,34.5 263.5,34.5C 262.943,36.9491 262.943,39.2825 263.5,41.5C 264.487,38.2317 264.82,34.8984 264.5,31.5C 267.718,31.9761 270.552,33.3094 273,35.5C 272.929,40.1963 271.596,40.5296 269,36.5C 268.506,38.1341 268.34,39.8008 268.5,41.5C 270.167,41.5 271.833,41.5 273.5,41.5C 273.5,42.5 273.5,43.5 273.5,44.5 Z"/></g>
<g><path style="opacity:1" fill="#e58000" d="M 421.5,31.5 C 423.167,31.5 424.833,31.5 426.5,31.5C 426.809,43.4565 431.809,52.7898 441.5,59.5C 440.788,61.0459 439.622,62.0459 438,62.5C 431.557,59.3862 427.224,54.3862 425,47.5C 422.785,52.0997 419.952,56.2664 416.5,60C 413.489,63.4178 410.823,63.2511 408.5,59.5C 418.178,52.8036 422.511,43.4703 421.5,31.5 Z"/></g>
<g><path style="opacity:1" fill="#ec930a" d="M 781.5,31.5 C 782.833,31.5 784.167,31.5 785.5,31.5C 785.5,34.8333 785.5,38.1667 785.5,41.5C 787.833,41.5 790.167,41.5 792.5,41.5C 792.5,42.8333 792.5,44.1667 792.5,45.5C 790.167,45.5 787.833,45.5 785.5,45.5C 785.335,49.1817 785.501,52.8484 786,56.5C 788.382,55.4459 790.882,54.7792 793.5,54.5C 793.5,56.1667 793.5,57.8333 793.5,59.5C 788.168,60.4995 782.835,61.4995 777.5,62.5C 777.5,60.8333 777.5,59.1667 777.5,57.5C 778.833,57.5 780.167,57.5 781.5,57.5C 781.5,48.8333 781.5,40.1667 781.5,31.5 Z"/></g>
<g><path style="opacity:1" fill="#e58f0a" d="M 798.5,31.5 C 798.177,35.226 798.511,38.8927 799.5,42.5C 800.107,42.3764 800.44,42.0431 800.5,41.5C 802.305,40.7629 803.971,39.7629 805.5,38.5C 806.382,39.7598 807.382,40.9264 808.5,42C 805.995,43.7533 803.329,45.2533 800.5,46.5C 799.509,50.4454 799.176,54.4454 799.5,58.5C 804.367,59.4669 806.534,57.4669 806,52.5C 810.502,55.369 810.669,58.5357 806.5,62C 802.789,62.8253 799.122,62.6586 795.5,61.5C 794.525,51.5527 794.192,41.5527 794.5,31.5C 795.833,31.5 797.167,31.5 798.5,31.5 Z"/></g>
<g><path style="opacity:1" fill="#693f02" d="M 798.5,31.5 C 799.167,34.8333 799.833,38.1667 800.5,41.5C 800.44,42.0431 800.107,42.3764 799.5,42.5C 798.511,38.8927 798.177,35.226 798.5,31.5 Z"/></g>
<g><path style="opacity:1" fill="#f17200" d="M 56.5,32.5 C 60.5,32.5 64.5,32.5 68.5,32.5C 68.5,33.8333 68.5,35.1667 68.5,36.5C 67.1667,36.5 65.8333,36.5 64.5,36.5C 64.5,38.5 64.5,40.5 64.5,42.5C 65.5,42.5 66.5,42.5 67.5,42.5C 67.5,43.8333 67.5,45.1667 67.5,46.5C 66.5,46.5 65.5,46.5 64.5,46.5C 64.3367,48.8568 64.5034,51.1902 65,53.5C 66.0113,52.6634 67.1779,52.33 68.5,52.5C 68.7135,54.1439 68.3802,55.6439 67.5,57C 64.129,58.0681 60.7957,59.2347 57.5,60.5C 56.0521,57.7872 56.7188,55.7872 59.5,54.5C 60.48,51.9135 60.8134,49.2469 60.5,46.5C 59.1667,46.5 57.8333,46.5 56.5,46.5C 56.5,45.1667 56.5,43.8333 56.5,42.5C 57.8333,42.5 59.1667,42.5 60.5,42.5C 60.5,40.5 60.5,38.5 60.5,36.5C 59.1667,36.5 57.8333,36.5 56.5,36.5C 56.5,35.1667 56.5,33.8333 56.5,32.5 Z"/></g>
<g><path style="opacity:1" fill="#f37400" d="M 88.5,51.5 C 88.5,52.5 88.5,53.5 88.5,54.5C 85.8333,54.5 83.1667,54.5 80.5,54.5C 80.5,56.1667 80.5,57.8333 80.5,59.5C 83.5,59.5 86.5,59.5 89.5,59.5C 89.5,60.5 89.5,61.5 89.5,62.5C 81.8333,62.5 74.1667,62.5 66.5,62.5C 66.5,61.1667 66.5,59.8333 66.5,58.5C 69.8333,58.5 73.1667,58.5 76.5,58.5C 76.5,57.5 76.5,56.5 76.5,55.5C 74.1667,55.5 71.8333,55.5 69.5,55.5C 69.5,54.1667 69.5,52.8333 69.5,51.5C 71.8333,51.5 74.1667,51.5 76.5,51.5C 76.5,50.5 76.5,49.5 76.5,48.5C 74.1667,48.5 71.8333,48.5 69.5,48.5C 69.5,43.1667 69.5,37.8333 69.5,32.5C 75.8333,32.5 82.1667,32.5 88.5,32.5C 88.5,37.8333 88.5,43.1667 88.5,48.5C 85.8333,48.5 83.1667,48.5 80.5,48.5C 80.5,49.5 80.5,50.5 80.5,51.5C 83.1667,51.5 85.8333,51.5 88.5,51.5 Z"/></g>
<g><path style="opacity:1" fill="#6e3201" d="M 144.5,32.5 C 140.702,33.4834 136.702,33.8168 132.5,33.5C 132.5,34.5 132.5,35.5 132.5,36.5C 131.566,35.4324 131.232,34.099 131.5,32.5C 135.833,32.5 140.167,32.5 144.5,32.5 Z"/></g>
<g><path style="opacity:1" fill="#713501" d="M 144.5,31.5 C 145.097,30.8614 145.93,30.528 147,30.5C 152.221,31.9136 157.388,32.9136 162.5,33.5C 156.36,33.7646 150.36,33.0979 144.5,31.5 Z"/></g>
<g><path style="opacity:1" fill="#f07a00" d="M 204.5,32.5 C 209.833,32.5 215.167,32.5 220.5,32.5C 220.5,33.8333 220.5,35.1667 220.5,36.5C 215.167,36.5 209.833,36.5 204.5,36.5C 204.5,35.1667 204.5,33.8333 204.5,32.5 Z"/></g>
<g><path style="opacity:1" fill="#ee7a00" d="M 233.5,63.5 C 232.167,63.5 230.833,63.5 229.5,63.5C 229.822,57.642 229.489,51.9753 228.5,46.5C 227.5,46.5 226.5,46.5 225.5,46.5C 225.869,53.0639 223.869,58.7306 219.5,63.5C 218.167,62.8333 217.167,61.8333 216.5,60.5C 218.194,58.4457 219.361,56.1123 220,53.5C 220.88,46.841 221.714,40.1744 222.5,33.5C 223.086,33.7093 223.586,34.0426 224,34.5C 226.709,33.2078 229.542,32.2078 232.5,31.5C 234.208,31.7028 235.541,32.5362 236.5,34C 233.319,35.6328 229.986,36.9661 226.5,38C 225.62,39.3561 225.286,40.8561 225.5,42.5C 229.167,42.5 232.833,42.5 236.5,42.5C 236.5,43.8333 236.5,45.1667 236.5,46.5C 235.5,46.5 234.5,46.5 233.5,46.5C 233.5,52.1667 233.5,57.8333 233.5,63.5 Z"/></g>
<g><path style="opacity:1" fill="#f98400" d="M 282.5,32.5 C 290.167,32.5 297.833,32.5 305.5,32.5C 305.5,35.1667 305.5,37.8333 305.5,40.5C 297.833,40.5 290.167,40.5 282.5,40.5C 282.5,37.8333 282.5,35.1667 282.5,32.5 Z"/></g>
<g><path style="opacity:1" fill="#e68704" d="M 583.5,33.5 C 584.3,46.9844 578.3,56.8177 565.5,63C 562.906,63.4493 560.906,62.4493 559.5,60C 569.092,57.2426 575.092,51.0759 577.5,41.5C 574.482,41.3354 571.482,41.502 568.5,42C 565.952,44.8851 563.118,47.3851 560,49.5C 558.274,49.0541 556.774,48.2208 555.5,47C 561.076,42.9257 565.743,38.0923 569.5,32.5C 573.75,32.7324 574.417,34.2324 571.5,37C 574.706,37.8902 577.706,37.5569 580.5,36C 579.12,34.6764 578.786,33.3431 579.5,32C 581.193,31.516 582.527,32.016 583.5,33.5 Z"/></g>
<g><path style="opacity:1" fill="#e78c07" d="M 679.5,31.5 C 681.655,31.372 683.655,31.872 685.5,33C 684.833,34 684.167,35 683.5,36C 687.167,36.3333 690.833,36.6667 694.5,37C 695.428,37.3879 696.095,38.0546 696.5,39C 695.347,43.3058 693.347,47.1392 690.5,50.5C 691.981,51.4803 693.315,52.647 694.5,54C 692.627,57.6354 690.294,58.1354 687.5,55.5C 684.301,57.8635 680.968,60.0302 677.5,62C 674.741,62.9774 672.741,62.144 671.5,59.5C 675.635,57.2631 679.635,54.7631 683.5,52C 680.827,50.6626 678.993,48.8292 678,46.5C 678.739,45.4258 679.739,44.7591 681,44.5C 682.737,45.6198 684.571,46.6198 686.5,47.5C 688.327,45.5128 689.327,43.1795 689.5,40.5C 686.482,40.3354 683.482,40.502 680.5,41C 677.833,43.6667 675.167,46.3333 672.5,49C 670.361,49.2641 668.694,48.4308 667.5,46.5C 673.166,42.8345 677.166,37.8345 679.5,31.5 Z"/></g>
<g><path style="opacity:1" fill="#ee8300" d="M 373.5,33.5 C 383.833,33.5 394.167,33.5 404.5,33.5C 404.5,34.8333 404.5,36.1667 404.5,37.5C 398.167,37.5 391.833,37.5 385.5,37.5C 385.5,39.5 385.5,41.5 385.5,43.5C 390.833,43.5 396.167,43.5 401.5,43.5C 401.717,49.2324 401.217,54.899 400,60.5C 396.699,63.5949 392.866,64.2616 388.5,62.5C 387.572,61.2322 387.405,59.8989 388,58.5C 390.333,59.8333 392.667,59.8333 395,58.5C 396.108,54.9137 396.608,51.247 396.5,47.5C 392.774,47.1774 389.107,47.5108 385.5,48.5C 383.89,54.2236 380.89,59.0569 376.5,63C 374.609,63.3087 373.275,62.4753 372.5,60.5C 379.194,54.439 382.194,46.7723 381.5,37.5C 378.833,37.5 376.167,37.5 373.5,37.5C 373.5,36.1667 373.5,34.8333 373.5,33.5 Z"/></g>
<g><path style="opacity:1" fill="#e08907" d="M 712.5,32.5 C 714.167,32.5 715.833,32.5 717.5,32.5C 717.756,34.7925 717.423,36.9592 716.5,39C 718.5,39.3333 720.5,39.6667 722.5,40C 723.667,40.5 724.5,41.3333 725,42.5C 725.667,46.8333 725.667,51.1667 725,55.5C 723.124,61.322 719.291,62.9886 713.5,60.5C 712.754,59.2638 712.421,57.9305 712.5,56.5C 714.06,56.5191 715.56,56.8524 717,57.5C 718.653,57.1802 719.653,56.1802 720,54.5C 720.667,51.1667 720.667,47.8333 720,44.5C 718.644,43.6198 717.144,43.2865 715.5,43.5C 714.109,50.2798 711.609,56.6131 708,62.5C 706.581,61.5399 705.081,60.7065 703.5,60C 706.38,55.2406 708.713,50.2406 710.5,45C 708.19,44.5034 705.857,44.3367 703.5,44.5C 703.5,42.8333 703.5,41.1667 703.5,39.5C 706.167,39.5 708.833,39.5 711.5,39.5C 711.674,37.139 712.007,34.8056 712.5,32.5 Z"/></g>
<g><path style="opacity:1" fill="#d78508" d="M 750.5,32.5 C 755.107,33.5544 759.773,34.221 764.5,34.5C 764.714,36.1439 764.38,37.6439 763.5,39C 758.785,39.1578 754.119,38.6578 749.5,37.5C 749.366,35.7085 749.699,34.0418 750.5,32.5 Z"/></g>
<g><path style="opacity:1" fill="#e87c00" d="M 321.5,34.5 C 323.857,34.3367 326.19,34.5034 328.5,35C 332.044,36.2535 332.377,38.0868 329.5,40.5C 323.159,37.7804 320.326,39.7804 321,46.5C 329.826,42.7708 333.493,45.7708 332,55.5C 328.987,60.5352 324.82,61.7019 319.5,59C 315.716,54.139 314.549,48.639 316,42.5C 317.243,39.4241 319.077,36.7574 321.5,34.5 Z"/></g>
<g><path style="opacity:1" fill="#ed8000" d="M 360.5,40.5 C 361.043,40.44 361.376,40.1067 361.5,39.5C 357.893,38.5108 354.226,38.1774 350.5,38.5C 350.5,37.1667 350.5,35.8333 350.5,34.5C 356.167,34.5 361.833,34.5 367.5,34.5C 367.116,38.6039 365.616,42.2706 363,45.5C 361.921,50.4684 361.088,55.4684 360.5,60.5C 358.833,60.5 357.167,60.5 355.5,60.5C 354.979,53.251 356.646,46.5844 360.5,40.5 Z"/></g>
<g><path style="opacity:1" fill="#e18002" d="M 509.5,30.5 C 512.109,30.8301 513.776,32.3301 514.5,35C 512.863,36.951 511.363,36.7843 510,34.5C 508.801,37.1869 508.301,40.1869 508.5,43.5C 503.276,45.5752 497.942,47.2419 492.5,48.5C 492.223,51.4475 492.556,54.2809 493.5,57C 499.157,57.0951 504.824,56.9284 510.5,56.5C 510.5,58.1667 510.5,59.8333 510.5,61.5C 504.537,62.5304 498.537,62.6971 492.5,62C 490.671,61.7265 489.171,60.8932 488,59.5C 487.5,50.8397 487.334,42.1731 487.5,33.5C 489.167,33.5 490.833,33.5 492.5,33.5C 492.18,36.8984 492.513,40.2317 493.5,43.5C 497.619,42.3041 501.619,40.8041 505.5,39C 506.354,37.119 506.021,35.2857 504.5,33.5C 506.544,32.9348 508.21,31.9348 509.5,30.5 Z"/></g>
<g><path style="opacity:1" fill="#f18f05" d="M 622.5,35.5 C 621.021,38.0456 619.521,38.0456 618,35.5C 617.517,36.448 617.351,37.448 617.5,38.5C 610.833,38.5 604.167,38.5 597.5,38.5C 597.5,37.1667 597.5,35.8333 597.5,34.5C 603.509,34.6662 609.509,34.4995 615.5,34C 616.354,32.9783 617.354,32.1449 618.5,31.5C 619.84,32.8665 621.173,34.1999 622.5,35.5 Z"/></g>
<g><path style="opacity:1" fill="#9a6005" d="M 868.5,34.5 C 866.833,34.5 865.167,34.5 863.5,34.5C 863.5,38.5 863.5,42.5 863.5,46.5C 862.515,42.3656 862.182,38.0323 862.5,33.5C 864.735,33.2053 866.735,33.5386 868.5,34.5 Z"/></g>
<g><path style="opacity:1" fill="#e8930b" d="M 868.5,34.5 C 868.666,39.5111 868.499,44.5111 868,49.5C 866.951,51.1066 865.451,51.7733 863.5,51.5C 863.5,49.8333 863.5,48.1667 863.5,46.5C 863.5,42.5 863.5,38.5 863.5,34.5C 865.167,34.5 866.833,34.5 868.5,34.5 Z"/></g>
<g><path style="opacity:1" fill="#ababab" d="M 116.5,30.5 C 117.451,31.9187 117.784,33.5853 117.5,35.5C 120.385,35.1936 123.052,35.5269 125.5,36.5C 122.5,36.5 119.5,36.5 116.5,36.5C 116.5,34.5 116.5,32.5 116.5,30.5 Z"/></g>
<g><path style="opacity:1" fill="#773905" d="M 168.5,32.5 C 168.5,33.5 168.5,34.5 168.5,35.5C 171.187,35.3359 173.854,35.5026 176.5,36C 175.095,37.2692 173.429,37.7692 171.5,37.5C 170.432,36.5655 169.099,36.2322 167.5,36.5C 167.232,34.901 167.566,33.5676 168.5,32.5 Z"/></g>
<g><path style="opacity:1" fill="#0d0500" d="M 286.5,35.5 C 291.214,35.1734 295.88,35.5067 300.5,36.5C 298.167,36.8333 295.833,37.1667 293.5,37.5C 290.731,37.4714 288.397,36.8048 286.5,35.5 Z"/></g>
<g><path style="opacity:1" fill="#e48101" d="M 458.5,34.5 C 471.522,33.6902 477.689,39.6902 477,52.5C 474.443,59.515 469.61,62.515 462.5,61.5C 461.833,60.5 461.167,59.5 460.5,58.5C 471.435,57.0149 474.602,51.3482 470,41.5C 468.445,39.8542 466.779,39.5209 465,40.5C 464.148,47.2304 461.648,53.2304 457.5,58.5C 452.612,61.5326 449.112,60.1992 447,54.5C 445.145,44.5294 448.978,37.8627 458.5,34.5 Z"/></g>
<g><path style="opacity:1" fill="#000000" d="M 73.5,36.5 C 74.675,36.281 75.675,36.6143 76.5,37.5C 74.9483,38.7979 73.9483,38.4646 73.5,36.5 Z"/></g>
<g><path style="opacity:1" fill="#000000" d="M 80.5,36.5 C 81.9778,36.238 83.3112,36.5713 84.5,37.5C 83.8333,37.8333 83.1667,38.1667 82.5,38.5C 81.2867,38.2528 80.62,37.5862 80.5,36.5 Z"/></g>
<g><path style="opacity:1" fill="#643409" d="M 246.5,36.5 C 248.465,36.9483 248.798,37.9483 247.5,39.5C 246.614,38.675 246.281,37.675 246.5,36.5 Z"/></g>
<g><path style="opacity:1" fill="#8a4200" d="M 149.5,36.5 C 152.625,37.4794 155.958,37.8128 159.5,37.5C 159.802,40.0593 159.468,42.3926 158.5,44.5C 158.5,42.5 158.5,40.5 158.5,38.5C 155.102,38.8204 151.768,38.487 148.5,37.5C 148.624,36.8933 148.957,36.56 149.5,36.5 Z"/></g>
<g><path style="opacity:1" fill="#602f03" d="M 188.5,37.5 C 189.978,37.238 191.311,37.5713 192.5,38.5C 190.537,41.1939 189.203,40.8606 188.5,37.5 Z"/></g>
<g><path style="opacity:1" fill="#000000" d="M 257.5,37.5 C 258.376,37.3691 259.043,37.7025 259.5,38.5C 257.993,42.3548 257.326,42.0214 257.5,37.5 Z"/></g>
<g><path style="opacity:1" fill="#dc8708" d="M 727.5,36.5 C 729.592,36.5614 731.092,37.5614 732,39.5C 733.557,42.172 734.724,45.0053 735.5,48C 734.831,49.8475 733.497,51.0142 731.5,51.5C 729.881,46.9684 727.881,42.635 725.5,38.5C 726.243,37.8182 726.909,37.1515 727.5,36.5 Z"/></g>
<g><path style="opacity:1" fill="#9d6204" d="M 835.5,30.5 C 835.5,32.1667 835.5,33.8333 835.5,35.5C 833.167,35.5 830.833,35.5 828.5,35.5C 828.5,36.5 828.5,37.5 828.5,38.5C 826.833,38.5 825.167,38.5 823.5,38.5C 824.568,37.5655 825.901,37.2322 827.5,37.5C 827.5,36.5 827.5,35.5 827.5,34.5C 829.833,34.5 832.167,34.5 834.5,34.5C 834.232,32.901 834.566,31.5676 835.5,30.5 Z"/></g>
<g><path style="opacity:1" fill="#703101" d="M 49.5,36.5 C 50.209,37.404 51.209,37.7373 52.5,37.5C 52.8182,42.0323 52.4849,46.3656 51.5,50.5C 51.5,46.5 51.5,42.5 51.5,38.5C 50.325,38.719 49.325,38.3857 48.5,37.5C 48.6236,36.8933 48.9569,36.56 49.5,36.5 Z"/></g>
<g><path style="opacity:1" fill="#673400" d="M 350.5,38.5 C 354.226,38.1774 357.893,38.5108 361.5,39.5C 361.376,40.1067 361.043,40.44 360.5,40.5C 357.167,39.8333 353.833,39.1667 350.5,38.5 Z"/></g>
<g><path style="opacity:1" fill="#ef7a00" d="M 205.5,38.5 C 210.167,38.5 214.833,38.5 219.5,38.5C 219.5,42.8333 219.5,47.1667 219.5,51.5C 216.167,51.5 212.833,51.5 209.5,51.5C 209.459,55.6163 208.793,59.6163 207.5,63.5C 205.052,63.9153 203.719,62.9153 203.5,60.5C 205.113,53.2568 205.779,45.9235 205.5,38.5 Z"/></g>
<g><path style="opacity:1" fill="#0a0300" d="M 457.5,39.5 C 458.497,39.4701 459.164,39.9701 459.5,41C 458.74,46.1383 456.74,50.6383 453.5,54.5C 450.071,48.3411 451.405,43.3411 457.5,39.5 Z"/></g>
<g><path style="opacity:1" fill="#e38c08" d="M 749.5,60.5 C 752.203,58.89 755.203,57.89 758.5,57.5C 762.933,56.9349 764.599,54.6015 763.5,50.5C 757.778,48.0117 752.778,49.1784 748.5,54C 747.207,54.49 745.873,54.6567 744.5,54.5C 744.687,49.1554 745.02,43.8221 745.5,38.5C 746.93,38.4208 748.264,38.7542 749.5,39.5C 750.432,42.1727 750.598,44.8394 750,47.5C 754.404,44.6706 759.238,43.8373 764.5,45C 770.758,49.5609 771.091,54.5609 765.5,60C 759.994,62.972 754.661,63.1387 749.5,60.5 Z"/></g>
<g><path style="opacity:1" fill="#703201" d="M 107.5,40.5 C 103.366,41.4849 99.0323,41.8182 94.5,41.5C 94.5,42.8333 94.5,44.1667 94.5,45.5C 93.5489,44.0813 93.2155,42.4147 93.5,40.5C 98.1667,40.5 102.833,40.5 107.5,40.5 Z"/></g>
<g><path style="opacity:1" fill="#793700" d="M 111.5,30.5 C 112.479,33.6248 112.813,36.9581 112.5,40.5C 117.032,40.1818 121.366,40.5151 125.5,41.5C 120.833,41.5 116.167,41.5 111.5,41.5C 111.5,37.8333 111.5,34.1667 111.5,30.5 Z"/></g>
<g><path style="opacity:1" fill="#db7e03" d="M 533.5,39.5 C 534.675,39.281 535.675,39.6143 536.5,40.5C 540.148,45.1599 539.148,47.8266 533.5,48.5C 533.613,45.9512 532.946,43.6179 531.5,41.5C 532.243,40.8182 532.909,40.1515 533.5,39.5 Z"/></g>
<g><path style="opacity:1" fill="#000000" d="M 39.5,41.5 C 42.1667,41.5 44.8333,41.5 47.5,41.5C 47.5,43.1667 47.5,44.8333 47.5,46.5C 44.8333,46.5 42.1667,46.5 39.5,46.5C 39.5,44.8333 39.5,43.1667 39.5,41.5 Z"/></g>
<g><path style="opacity:1" fill="#e28303" d="M 543.5,40.5 C 545.971,40.233 547.638,41.233 548.5,43.5C 546.322,53.8349 540.322,60.3349 530.5,63C 529.5,62 528.5,61 527.5,60C 537.09,56.9165 542.424,50.4165 543.5,40.5 Z"/></g>
<g><path style="opacity:1" fill="#000000" d="M 73.5,42.5 C 74.675,42.281 75.675,42.6143 76.5,43.5C 74.9483,44.7979 73.9483,44.4646 73.5,42.5 Z"/></g>
<g><path style="opacity:1" fill="#211101" d="M 80.5,41.5 C 81.8333,41.5 83.1667,41.5 84.5,41.5C 84.5,42.5 84.5,43.5 84.5,44.5C 83.1667,44.5 81.8333,44.5 80.5,44.5C 80.5,43.5 80.5,42.5 80.5,41.5 Z"/></g>
<g><path style="opacity:1" fill="#000000" d="M 209.5,42.5 C 211.5,42.5 213.5,42.5 215.5,42.5C 215.5,44.1667 215.5,45.8333 215.5,47.5C 213.5,47.5 211.5,47.5 209.5,47.5C 209.5,45.8333 209.5,44.1667 209.5,42.5 Z"/></g>
<g><path style="opacity:1" fill="#da7405" d="M 281.5,41.5 C 289.833,41.5 298.167,41.5 306.5,41.5C 306.5,46.8333 306.5,52.1667 306.5,57.5C 305.448,57.3505 304.448,57.5172 303.5,58C 306.032,58.6189 308.365,59.6189 310.5,61C 309.226,62.2208 307.726,63.0541 306,63.5C 302.652,62.5753 299.485,61.242 296.5,59.5C 296.709,58.914 297.043,58.414 297.5,58C 295.167,57.3333 292.833,57.3333 290.5,58C 291.815,59.3946 291.481,60.3946 289.5,61C 286.828,61.8344 284.161,62.6677 281.5,63.5C 280.3,62.4688 278.966,61.6355 277.5,61C 280.006,59.7015 282.673,58.7015 285.5,58C 284.207,57.51 282.873,57.3433 281.5,57.5C 281.5,52.1667 281.5,46.8333 281.5,41.5 Z"/></g>
<g><path style="opacity:1" fill="#da7e03" d="M 524.5,41.5 C 525.978,41.238 527.311,41.5713 528.5,42.5C 529.601,44.6416 530.601,46.8083 531.5,49C 529.919,49.7065 528.419,50.5399 527,51.5C 525.132,48.2013 524.299,44.868 524.5,41.5 Z"/></g>
<g><path style="opacity:1" fill="#683b01" d="M 593.5,43.5 C 603.653,42.5058 613.986,42.1724 624.5,42.5C 624.784,44.4147 624.451,46.0813 623.5,47.5C 623.5,46.1667 623.5,44.8333 623.5,43.5C 613.5,43.5 603.5,43.5 593.5,43.5 Z"/></g>
<g><path style="opacity:1" fill="#783d07" d="M 245.5,42.5 C 246.5,42.5 247.5,42.5 248.5,42.5C 248.5,43.8333 248.5,45.1667 248.5,46.5C 247.5,46.5 246.5,46.5 245.5,46.5C 245.5,45.1667 245.5,43.8333 245.5,42.5 Z"/></g>
<g><path style="opacity:1" fill="#ec8c05" d="M 593.5,43.5 C 603.5,43.5 613.5,43.5 623.5,43.5C 623.5,44.8333 623.5,46.1667 623.5,47.5C 619.5,47.5 615.5,47.5 611.5,47.5C 611.626,54.5813 608.626,59.9147 602.5,63.5C 601.167,62.5 599.833,61.5 598.5,60.5C 603.462,57.5748 606.129,53.2414 606.5,47.5C 602.167,47.5 597.833,47.5 593.5,47.5C 593.5,46.1667 593.5,44.8333 593.5,43.5 Z"/></g>
<g><path style="opacity:1" fill="#522902" d="M 273.5,44.5 C 272.833,45.1667 272.167,45.8333 271.5,46.5C 270.504,46.4142 269.671,46.7476 269,47.5C 268.517,46.552 268.351,45.552 268.5,44.5C 270.167,44.5 271.833,44.5 273.5,44.5 Z"/></g>
<g><path style="opacity:1" fill="#000000" d="M 285.5,44.5 C 291.206,44.1712 296.872,44.5046 302.5,45.5C 299.667,45.8333 296.833,46.1667 294,46.5C 290.748,46.4809 287.915,45.8142 285.5,44.5 Z"/></g>
<g><path style="opacity:1" fill="#f39207" d="M 631.5,44.5 C 641.167,44.5 650.833,44.5 660.5,44.5C 660.5,46.1667 660.5,47.8333 660.5,49.5C 650.833,49.5 641.167,49.5 631.5,49.5C 631.5,47.8333 631.5,46.1667 631.5,44.5 Z"/></g>
<g><path style="opacity:1" fill="#e5900a" d="M 835.5,30.5 C 836.833,30.5 838.167,30.5 839.5,30.5C 839.5,31.8333 839.5,33.1667 839.5,34.5C 841.833,34.5 844.167,34.5 846.5,34.5C 846.5,35.8333 846.5,37.1667 846.5,38.5C 845.127,38.3433 843.793,38.51 842.5,39C 844.087,40.8448 845.421,42.8448 846.5,45C 843.397,47.6049 841.397,50.9383 840.5,55C 841.829,57.5089 843.829,59.3422 846.5,60.5C 846.023,61.4776 845.357,62.3109 844.5,63C 841.728,62.9476 839.394,61.781 837.5,59.5C 835.37,60.4672 833.37,61.6338 831.5,63C 829.339,63.7216 827.672,63.0549 826.5,61C 829.524,59.4866 832.191,57.4866 834.5,55C 833.214,52.9777 832.214,50.8111 831.5,48.5C 830.672,47.5853 829.672,46.9186 828.5,46.5C 827.534,48.396 827.201,50.396 827.5,52.5C 826.022,52.238 824.689,52.5713 823.5,53.5C 825.045,54.4519 826.712,54.7852 828.5,54.5C 828.5,55.8333 828.5,57.1667 828.5,58.5C 826.833,58.5 825.167,58.5 823.5,58.5C 823.5,60.1667 823.5,61.8333 823.5,63.5C 822.167,63.5 820.833,63.5 819.5,63.5C 819.5,61.8333 819.5,60.1667 819.5,58.5C 817.5,58.5 815.5,58.5 813.5,58.5C 813.5,57.1667 813.5,55.8333 813.5,54.5C 815.604,54.7989 817.604,54.4656 819.5,53.5C 817.955,52.5481 816.288,52.2148 814.5,52.5C 814.5,48.1667 814.5,43.8333 814.5,39.5C 816.199,39.6602 817.866,39.4935 819.5,39C 817.527,38.5045 815.527,38.3379 813.5,38.5C 813.5,37.1667 813.5,35.8333 813.5,34.5C 815.5,34.5 817.5,34.5 819.5,34.5C 819.5,33.5 819.5,32.5 819.5,31.5C 820.833,31.5 822.167,31.5 823.5,31.5C 823.5,32.5 823.5,33.5 823.5,34.5C 824.833,34.5 826.167,34.5 827.5,34.5C 827.5,35.5 827.5,36.5 827.5,37.5C 825.901,37.2322 824.568,37.5655 823.5,38.5C 824.568,39.4345 825.901,39.7678 827.5,39.5C 827.34,41.1992 827.506,42.8659 828,44.5C 829.292,42.7513 830.458,40.918 831.5,39C 830.552,38.5172 829.552,38.3505 828.5,38.5C 828.5,37.5 828.5,36.5 828.5,35.5C 830.833,35.5 833.167,35.5 835.5,35.5C 835.5,33.8333 835.5,32.1667 835.5,30.5 Z"/></g>
<g><path style="opacity:1" fill="#000000" d="M 822.5,42.5 C 824.337,42.6395 824.67,43.3061 823.5,44.5C 822.702,44.0431 822.369,43.3764 822.5,42.5 Z"/></g>
<g><path style="opacity:1" fill="#000000" d="M 817.5,42.5 C 819.337,42.6395 819.67,43.3061 818.5,44.5C 817.702,44.0431 817.369,43.3764 817.5,42.5 Z"/></g>
<g><path style="opacity:1" fill="#0f0700" d="M 834.5,39.5 C 835.946,38.3871 837.613,38.2204 839.5,39C 839.167,39.3333 838.833,39.6667 838.5,40C 839.376,41.586 840.376,43.086 841.5,44.5C 839.379,46.0205 837.879,48.0205 837,50.5C 836.297,48.2199 835.131,46.2199 833.5,44.5C 834.167,43.1667 834.833,41.8333 835.5,40.5C 835.376,39.8933 835.043,39.56 834.5,39.5 Z"/></g>
<g><path style="opacity:1" fill="#0a0400" d="M 823.5,38.5 C 825.167,38.5 826.833,38.5 828.5,38.5C 829.552,38.3505 830.552,38.5172 831.5,39C 830.458,40.918 829.292,42.7513 828,44.5C 827.506,42.8659 827.34,41.1992 827.5,39.5C 825.901,39.7678 824.568,39.4345 823.5,38.5 Z"/></g>
<g><path style="opacity:1" fill="#6e3500" d="M 228.5,46.5 C 229.489,51.9753 229.822,57.642 229.5,63.5C 230.833,63.5 232.167,63.5 233.5,63.5C 232.081,64.4511 230.415,64.7845 228.5,64.5C 228.5,58.5 228.5,52.5 228.5,46.5 Z"/></g>
<g><path style="opacity:1" fill="#000000" d="M 817.5,47.5 C 819.337,47.6395 819.67,48.3061 818.5,49.5C 817.702,49.0431 817.369,48.3764 817.5,47.5 Z"/></g>
<g><path style="opacity:1" fill="#000000" d="M 822.5,47.5 C 824.337,47.6395 824.67,48.3061 823.5,49.5C 822.702,49.0431 822.369,48.3764 822.5,47.5 Z"/></g>
<g><path style="opacity:1" fill="#0d0500" d="M 322.5,48.5 C 327.068,48.0826 328.568,50.0826 327,54.5C 323.264,57.5227 321.097,56.5227 320.5,51.5C 321.193,50.4822 321.859,49.4822 322.5,48.5 Z"/></g>
<g><path style="opacity:1" fill="#000000" d="M 257.5,49.5 C 259.337,49.6395 259.67,50.3061 258.5,51.5C 257.702,51.0431 257.369,50.3764 257.5,49.5 Z"/></g>
<g><path style="opacity:1" fill="#ebebeb" d="M 93.5,50.5 C 96.5719,50.1826 99.5719,50.5159 102.5,51.5C 99.8434,52.2592 97.1767,52.9258 94.5,53.5C 93.6143,52.675 93.281,51.675 93.5,50.5 Z"/></g>
<g><path style="opacity:1" fill="#e7e7e7" d="M 116.5,50.5 C 119.833,50.5 123.167,50.5 126.5,50.5C 126.719,51.675 126.386,52.675 125.5,53.5C 122.039,53.2325 119.039,52.2325 116.5,50.5 Z"/></g>
<g><path style="opacity:1" fill="#783d07" d="M 245.5,49.5 C 246.5,49.5 247.5,49.5 248.5,49.5C 248.5,50.8333 248.5,52.1667 248.5,53.5C 247.5,53.5 246.5,53.5 245.5,53.5C 245.5,52.1667 245.5,50.8333 245.5,49.5 Z"/></g>
<g><path style="opacity:1" fill="#f7f7f7" d="M 388.5,52.5 C 389.675,52.281 390.675,52.6143 391.5,53.5C 389.948,54.7979 388.948,54.4646 388.5,52.5 Z"/></g>
<g><path style="opacity:1" fill="#552904" d="M 148.5,53.5 C 150.924,53.1924 153.257,53.5258 155.5,54.5C 154.333,54.8333 153.167,55.1667 152,55.5C 150.319,55.3917 149.152,54.7251 148.5,53.5 Z"/></g>
<g><path style="opacity:1" fill="#000000" d="M 257.5,54.5 C 259.337,54.6395 259.67,55.3061 258.5,56.5C 257.702,56.0431 257.369,55.3764 257.5,54.5 Z"/></g>
<g><path style="opacity:1" fill="#de7700" d="M 339.5,53.5 C 344.328,53.3852 345.661,55.5519 343.5,60C 337.738,60.4178 336.404,58.2511 339.5,53.5 Z"/></g>
<g><path style="opacity:1" fill="#ea950b" d="M 863.5,54.5 C 868.159,54.0146 869.492,55.848 867.5,60C 862.728,60.8104 861.395,58.9771 863.5,54.5 Z"/></g>
<g><path style="opacity:1" fill="#7e4b02" d="M 758.5,57.5 C 755.203,57.89 752.203,58.89 749.5,60.5C 748.596,59.791 748.263,58.791 748.5,57.5C 751.833,57.5 755.167,57.5 758.5,57.5 Z"/></g>
<g><path style="opacity:1" fill="#b75700" d="M 88.5,51.5 C 89.4345,52.5676 89.7678,53.901 89.5,55.5C 86.8333,55.5 84.1667,55.5 81.5,55.5C 81.5,56.5 81.5,57.5 81.5,58.5C 84.5,58.5 87.5,58.5 90.5,58.5C 90.7678,60.099 90.4345,61.4324 89.5,62.5C 89.5,61.5 89.5,60.5 89.5,59.5C 86.5,59.5 83.5,59.5 80.5,59.5C 80.5,57.8333 80.5,56.1667 80.5,54.5C 83.1667,54.5 85.8333,54.5 88.5,54.5C 88.5,53.5 88.5,52.5 88.5,51.5 Z"/></g>
<g><path style="opacity:1" fill="#703301" d="M 96.5,57.5 C 96.5,58.8333 96.5,60.1667 96.5,61.5C 105.5,61.5 114.5,61.5 123.5,61.5C 123.5,60.1667 123.5,58.8333 123.5,57.5C 124.451,58.9187 124.784,60.5853 124.5,62.5C 114.833,62.5 105.167,62.5 95.5,62.5C 95.2155,60.5853 95.5489,58.9187 96.5,57.5 Z"/></g>
<g><path style="opacity:0.83" fill="#f4f4f4" d="M 655.5,93.5 C 661.338,93.4964 665.504,96.163 668,101.5C 669.312,103.955 670.478,106.455 671.5,109C 673.751,108.793 676.085,108.627 678.5,108.5C 678.313,99.6884 682.647,95.6884 691.5,96.5C 701.81,96.471 706.477,101.471 705.5,111.5C 716.837,108.46 726.671,111.127 735,119.5C 739.077,113.188 744.91,110.855 752.5,112.5C 750.765,103.563 754.265,98.5634 763,97.5C 767.23,98.0562 771.397,98.8896 775.5,100C 778.788,103.428 780.122,107.262 779.5,111.5C 784.906,107.53 790.906,105.697 797.5,106C 800.333,107.5 802.5,109.667 804,112.5C 807.881,119.595 811.215,126.929 814,134.5C 817.5,131.667 821,128.833 824.5,126C 819.907,123.22 817.907,119.053 818.5,113.5C 818.236,109.03 819.569,105.196 822.5,102C 834.644,100.888 846.81,100.054 859,99.5C 866.565,101.454 871.065,106.287 872.5,114C 872.5,118.333 870.5,121.333 866.5,123C 880.175,132.363 883.342,144.53 876,159.5C 868.626,168.534 858.96,173.201 847,173.5C 834.785,173.246 826.452,167.58 822,156.5C 817.354,153.847 813.354,150.514 810,146.5C 806.064,148.366 802.064,150.033 798,151.5C 796.667,150.833 795.333,150.167 794,149.5C 790.017,169.657 778.35,176.324 759,169.5C 757.237,170.944 755.237,171.944 753,172.5C 746.964,171.149 741.63,168.482 737,164.5C 736.5,163 736,161.5 735.5,160C 739.019,153.298 742.352,146.465 745.5,139.5C 743.994,138.253 742.494,138.253 741,139.5C 737.852,157.976 726.852,168.31 708,170.5C 705.739,170.135 703.573,169.469 701.5,168.5C 695.019,172.75 688.019,173.583 680.5,171C 678.372,169.333 677.039,167.166 676.5,164.5C 669.426,161.358 664.926,156.025 663,148.5C 658.754,151.201 654.254,151.868 649.5,150.5C 645.976,169.941 634.643,176.607 615.5,170.5C 608.57,173.041 602.07,172.041 596,167.5C 592.578,174.296 587.411,176.129 580.5,173C 577.577,170.955 574.743,168.788 572,166.5C 562.936,174.54 552.436,177.04 540.5,174C 536.933,170.286 534.933,165.786 534.5,160.5C 530.514,163.086 526.681,162.753 523,159.5C 517.259,160.475 511.425,160.808 505.5,160.5C 506.465,170.197 502.132,175.197 492.5,175.5C 482.396,175.667 478.063,170.667 479.5,160.5C 471.826,160.334 464.159,160.5 456.5,161C 455.46,165.745 453.127,169.745 449.5,173C 436.89,174.586 424.224,174.92 411.5,174C 406.525,173.424 401.859,171.924 397.5,169.5C 392.065,175.329 386.398,175.662 380.5,170.5C 378.242,173.046 375.408,174.379 372,174.5C 367.737,173.968 363.737,172.635 360,170.5C 351.556,174.849 342.723,176.016 333.5,174C 328.737,170.299 323.403,169.466 317.5,171.5C 311.785,171.575 308.285,168.909 307,163.5C 306.667,160.833 306.333,158.167 306,155.5C 297.663,167.089 286.497,172.255 272.5,171C 270.291,169.127 268.458,166.96 267,164.5C 255.76,169.605 246.76,166.938 240,156.5C 240.593,163.811 237.427,168.311 230.5,170C 218.99,172.686 207.99,171.353 197.5,166C 196.333,164.833 195.167,163.667 194,162.5C 192.245,169.79 187.745,172.624 180.5,171C 172.942,170.428 168.108,166.595 166,159.5C 163.139,167.322 157.972,169.655 150.5,166.5C 140.415,174.519 129.748,175.352 118.5,169C 115.48,166.977 113.146,164.31 111.5,161C 105.859,159.429 100.693,156.929 96,153.5C 88.731,167.716 77.231,173.883 61.5,172C 60.3147,170.647 58.9814,169.48 57.5,168.5C 54.5,169.833 51.5,169.833 48.5,168.5C 33.9745,172.398 25.3078,166.898 22.5,152C 23.4943,143.013 27.1609,135.346 33.5,129C 25.8884,124.093 23.7218,117.26 27,108.5C 28.1667,107.333 29.3333,106.167 30.5,105C 34.4295,104.118 38.4295,103.618 42.5,103.5C 43.6983,100.802 45.6983,98.9688 48.5,98C 53.1667,97.3333 57.8333,97.3333 62.5,98C 64.8333,99 66.5,100.667 67.5,103C 71.8169,103.621 75.9836,103.121 80,101.5C 85,102.5 88,105.5 89,110.5C 89.6267,114.783 89.1267,118.949 87.5,123C 89.6525,125.822 91.8192,128.656 94,131.5C 95.308,134.73 96.308,138.064 97,141.5C 98.8333,138.5 100.667,135.5 102.5,132.5C 97.0059,129.802 94.6726,125.302 95.5,119C 94.9004,114.869 96.2337,111.536 99.5,109C 103.468,108.058 107.468,107.225 111.5,106.5C 112.182,101.652 114.849,98.4851 119.5,97C 126.098,95.8489 131.932,97.3489 137,101.5C 137.309,102.766 137.809,103.933 138.5,105C 142.176,105.816 145.843,106.482 149.5,107C 154.992,109.579 160.325,112.412 165.5,115.5C 166.898,113.203 168.564,111.037 170.5,109C 174.142,108.086 177.808,107.252 181.5,106.5C 182.46,101.04 185.627,97.7069 191,96.5C 194.411,97.2931 197.911,97.7931 201.5,98C 205.524,98.5263 208.191,100.693 209.5,104.5C 216.174,106.155 219.174,110.489 218.5,117.5C 223.57,117.925 228.57,118.759 233.5,120C 235.359,121.558 236.859,123.391 238,125.5C 245.335,109.988 257.669,101.988 275,101.5C 290.815,102.065 302.148,109.398 309,123.5C 310.264,121.393 312.097,120.393 314.5,120.5C 314.183,114.091 314.683,107.757 316,101.5C 317.167,100.333 318.333,99.1667 319.5,98C 328.095,96.8771 336.761,96.3771 345.5,96.5C 354.239,96.3771 362.905,96.8771 371.5,98C 374.268,99.762 375.768,102.262 376,105.5C 376.499,110.489 376.666,115.489 376.5,120.5C 379.208,121.449 381.874,121.449 384.5,120.5C 373.469,108.795 375.802,100.795 391.5,96.5C 394.71,97.3543 397.876,98.3543 401,99.5C 409.326,98.8076 417.326,97.1409 425,94.5C 429.149,93.9087 432.649,95.0754 435.5,98C 449.033,95.5532 455.866,101.053 456,114.5C 459.445,109.945 462.112,104.945 464,99.5C 469.355,93.6743 475.521,92.841 482.5,97C 484.455,97.9533 486.122,99.2866 487.5,101C 498.225,101.097 508.891,101.763 519.5,103C 521.81,104.637 523.31,106.804 524,109.5C 526.181,103.917 530.347,101.584 536.5,102.5C 538.015,96.4115 542.015,93.7449 548.5,94.5C 552.33,94.4514 555.663,95.6181 558.5,98C 567.5,98.3333 576.5,98.6667 585.5,99C 594.577,99.5773 598.911,104.411 598.5,113.5C 601.758,112.583 605.091,112.249 608.5,112.5C 607.133,104.223 610.467,99.2226 618.5,97.5C 622.861,98.1518 627.195,98.9851 631.5,100C 633.049,101.214 634.215,102.714 635,104.5C 635.118,107.371 635.784,110.038 637,112.5C 635.865,108.662 636.365,104.995 638.5,101.5C 644.029,98.4401 649.696,95.7734 655.5,93.5 Z M 167.5,129.5 C 170.183,131.336 173.183,132.336 176.5,132.5C 174.578,139.683 172.078,146.683 169,153.5C 168,151.167 167,148.833 166,146.5C 162.588,143.877 159.088,141.377 155.5,139C 161.736,138.592 165.736,135.426 167.5,129.5 Z M 454.5,133.5 C 458.06,135.283 458.06,136.283 454.5,136.5C 454.5,135.5 454.5,134.5 454.5,133.5 Z M 592.5,133.5 C 594.727,137.118 598.06,138.951 602.5,139C 600.799,143.574 598.465,147.741 595.5,151.5C 592.659,149.914 589.993,148.08 587.5,146C 589.857,142.093 591.524,137.927 592.5,133.5 Z M 670.5,133.5 C 673.001,133.511 673.168,134.178 671,135.5C 670.536,134.906 670.369,134.239 670.5,133.5 Z M 282.5,142.5 C 282.523,140.073 283.023,137.74 284,135.5C 284.826,138.212 284.326,140.545 282.5,142.5 Z M 707.5,135.5 C 709.833,135.5 712.167,135.5 714.5,135.5C 715.041,138.652 714.041,141.152 711.5,143C 708.568,144.145 705.568,144.978 702.5,145.5C 702.337,143.143 702.503,140.81 703,138.5C 704.652,137.601 706.152,136.601 707.5,135.5 Z M 235.5,145.5 C 229.205,145.434 222.872,145.101 216.5,144.5C 222.644,144.029 228.644,143.029 234.5,141.5C 235.429,142.689 235.762,144.022 235.5,145.5 Z M 310.5,142.5 C 311.147,143.274 311.48,144.274 311.5,145.5C 311.923,148.182 310.923,149.348 308.5,149C 309.397,146.913 310.064,144.746 310.5,142.5 Z M 380.5,143.5 C 381.708,144.234 383.041,144.567 384.5,144.5C 383.923,148.578 381.59,150.744 377.5,151C 379.202,148.765 380.202,146.265 380.5,143.5 Z"/></g>
<g><path style="opacity:1" fill="#090705" d="M 606.5,136.5 C 607.043,136.44 607.376,136.107 607.5,135.5C 604.572,134.516 601.572,134.183 598.5,134.5C 597.034,133.653 596.2,132.32 596,130.5C 595.333,126.5 595.333,122.5 596,118.5C 596.5,118 597,117.5 597.5,117C 600.482,116.502 603.482,116.335 606.5,116.5C 608.5,116.5 610.5,116.5 612.5,116.5C 612.5,114.167 612.5,111.833 612.5,109.5C 611.959,106.348 612.959,103.848 615.5,102C 620.19,101.668 624.857,102.002 629.5,103C 630.899,104.062 631.899,105.395 632.5,107C 630.029,113.948 632.362,116.614 639.5,115C 640.574,114.261 641.241,113.261 641.5,112C 640.483,109.213 640.316,106.38 641,103.5C 647.048,99.8141 653.548,97.9808 660.5,98C 665.316,102.124 667.483,107.291 667,113.5C 664.705,115.938 661.872,117.438 658.5,118C 663.491,125.13 666.324,132.963 667,141.5C 662.756,146.043 657.589,147.877 651.5,147C 649.811,144.443 648.644,141.609 648,138.5C 647.388,146.408 645.721,154.074 643,161.5C 641.167,163.333 639.333,165.167 637.5,167C 631.569,168.471 625.569,168.804 619.5,168C 617.714,167.215 616.214,166.049 615,164.5C 614.06,167.442 612.06,168.775 609,168.5C 603.901,168.117 599.567,166.117 596,162.5C 593.46,164.705 591.293,167.205 589.5,170C 588.391,170.638 587.225,171.138 586,171.5C 580.47,169.399 575.804,166.066 572,161.5C 564.102,170.159 554.269,173.326 542.5,171C 541.299,170.097 540.465,168.931 540,167.5C 539.501,163.848 539.335,160.182 539.5,156.5C 536.038,156.566 532.705,157.233 529.5,158.5C 526.699,158.536 524.865,157.203 524,154.5C 522.829,155.893 521.329,156.727 519.5,157C 513.509,157.499 507.509,157.666 501.5,157.5C 503.424,170.403 498.091,174.903 485.5,171C 485,170.5 484.5,170 484,169.5C 483.501,165.514 483.334,161.514 483.5,157.5C 474.494,157.666 465.494,157.5 456.5,157C 452.695,152.909 451.528,148.076 453,142.5C 455.984,139.9 459.484,138.9 463.5,139.5C 463.5,137.833 463.5,136.167 463.5,134.5C 460.86,134.046 458.527,132.879 456.5,131C 453.71,128.79 452.877,125.956 454,122.5C 459.949,116.54 464.283,109.54 467,101.5C 469.21,98.7104 472.044,97.877 475.5,99C 477.878,99.5112 480.212,100.178 482.5,101C 484.037,102.11 484.703,103.61 484.5,105.5C 495.505,105.333 506.505,105.5 517.5,106C 519.995,108.219 520.995,111.052 520.5,114.5C 520.995,117.948 519.995,120.781 517.5,123C 518,123.5 518.5,124 519,124.5C 519.667,127.833 519.667,131.167 519,134.5C 518.535,135.931 517.701,137.097 516.5,138C 511.5,138.333 506.5,138.667 501.5,139C 507.833,139.333 514.167,139.667 520.5,140C 522.699,141.583 525.032,141.75 527.5,140.5C 527.333,129.828 527.5,119.161 528,108.5C 528.5,108 529,107.5 529.5,107C 532.817,106.502 536.15,106.335 539.5,106.5C 539.319,100.35 542.319,97.6838 548.5,98.5C 550.5,98.6667 552.5,98.8333 554.5,99C 555.357,99.6891 556.023,100.522 556.5,101.5C 566.483,102.332 576.483,102.832 586.5,103C 593.33,103.488 595.83,106.988 594,113.5C 592.197,125.046 588.697,136.046 583.5,146.5C 587.54,150.542 591.873,154.209 596.5,157.5C 600.985,151.043 604.318,144.043 606.5,136.5 Z M 592.5,133.5 C 591.524,137.927 589.857,142.093 587.5,146C 589.993,148.08 592.659,149.914 595.5,151.5C 598.465,147.741 600.799,143.574 602.5,139C 598.06,138.951 594.727,137.118 592.5,133.5 Z"/></g>
<g><path style="opacity:1" fill="#0d0804" d="M 419.5,97.5 C 423.605,97.2338 427.605,97.7338 431.5,99C 432.337,100.011 432.67,101.178 432.5,102.5C 437.844,102.334 443.177,102.501 448.5,103C 449.333,103.833 450.167,104.667 451,105.5C 451.019,121.022 450.519,136.522 449.5,152C 451.572,153.47 452.906,155.47 453.5,158C 452.209,161.887 450.543,165.554 448.5,169C 434.928,170.63 421.261,170.963 407.5,170C 403.75,169.025 400.25,167.525 397,165.5C 394.888,166.608 393.054,168.108 391.5,170C 385.585,171.106 382.085,168.606 381,162.5C 379.096,166.68 376.096,169.68 372,171.5C 367.88,170.106 363.88,168.44 360,166.5C 351.319,171.267 342.319,172.267 333,169.5C 332.517,168.552 332.351,167.552 332.5,166.5C 325.856,167.443 319.189,167.609 312.5,167C 309.76,163.276 308.926,159.109 310,154.5C 311.264,152.393 313.097,151.393 315.5,151.5C 315.5,147.5 315.5,143.5 315.5,139.5C 313.61,139.703 312.11,139.037 311,137.5C 310.333,133.833 310.333,130.167 311,126.5C 312.848,123.959 315.348,122.959 318.5,123.5C 318.334,116.825 318.5,110.158 319,103.5C 319.833,102.667 320.667,101.833 321.5,101C 337.5,100.333 353.5,100.333 369.5,101C 370.333,101.833 371.167,102.667 372,103.5C 372.5,110.158 372.666,116.825 372.5,123.5C 375.588,123.377 378.255,124.377 380.5,126.5C 381.308,126.192 381.975,125.692 382.5,125C 386.167,124.667 389.833,124.333 393.5,124C 389.721,120.221 385.887,116.387 382,112.5C 381.333,110.167 381.333,107.833 382,105.5C 387.653,99.4215 393.487,99.0882 399.5,104.5C 400.308,104.192 400.975,103.692 401.5,103C 406.533,102.829 411.533,102.329 416.5,101.5C 417.524,100.148 418.524,98.8149 419.5,97.5 Z M 380.5,143.5 C 380.202,146.265 379.202,148.765 377.5,151C 381.59,150.744 383.923,148.578 384.5,144.5C 383.041,144.567 381.708,144.234 380.5,143.5 Z"/></g>
<g><path style="opacity:1" fill="#0c0806" d="M 118.5,100.5 C 122.514,100.334 126.514,100.501 130.5,101C 133.941,102.318 135.275,104.818 134.5,108.5C 137.325,108.081 139.491,109.081 141,111.5C 143.153,109.556 145.653,109.056 148.5,110C 154.582,113.123 160.415,116.623 166,120.5C 166.667,122.5 166.667,124.5 166,126.5C 164.667,128.5 163.333,130.5 162,132.5C 158.535,135.128 155.035,135.128 151.5,132.5C 150.217,135.372 150.217,138.205 151.5,141C 156.1,143.215 160.266,146.048 164,149.5C 164.695,155.188 162.862,160.022 158.5,164C 155.044,165.123 152.21,164.29 150,161.5C 142.961,169.052 134.461,171.218 124.5,168C 118.459,166.462 115.125,162.629 114.5,156.5C 109.003,156.757 104.003,155.257 99.5,152C 98.1459,148.791 98.3125,145.624 100,142.5C 102.75,138.668 105.25,134.668 107.5,130.5C 104.822,129.445 102.322,128.112 100,126.5C 99.3333,122.167 99.3333,117.833 100,113.5C 100.5,113 101,112.5 101.5,112C 106.155,111.501 110.821,111.334 115.5,111.5C 114.807,107.247 115.807,103.581 118.5,100.5 Z"/></g>
<g><path style="opacity:1" fill="#0b0807" d="M 188.5,100.5 C 193.504,100.889 198.504,101.389 203.5,102C 205.229,103.789 205.896,105.956 205.5,108.5C 208.685,108.02 211.519,108.686 214,110.5C 214.499,114.152 214.665,117.818 214.5,121.5C 219.511,121.334 224.511,121.501 229.5,122C 233.48,123.478 235.146,126.312 234.5,130.5C 234.888,133.861 233.888,136.694 231.5,139C 224.833,139.333 218.167,139.667 211.5,140C 212.451,143.057 212.784,146.223 212.5,149.5C 219.518,149.254 226.518,149.087 233.5,149C 234,149.5 234.5,150 235,150.5C 235.667,154.833 235.667,159.167 235,163.5C 234.167,164.333 233.333,165.167 232.5,166C 223.467,167.847 214.467,167.847 205.5,166C 198.333,163.831 194.499,158.997 194,151.5C 192.609,157.009 190.443,162.176 187.5,167C 181.613,168.387 176.113,167.221 171,163.5C 170.333,161.167 170.333,158.833 171,156.5C 175.485,148.034 178.985,139.201 181.5,130C 178.833,129.667 176.167,129.333 173.5,129C 172.667,128.167 171.833,127.333 171,126.5C 170.333,122.167 170.333,117.833 171,113.5C 171.5,113 172,112.5 172.5,112C 176.821,111.501 181.154,111.334 185.5,111.5C 184.807,107.247 185.807,103.581 188.5,100.5 Z"/></g>
<g><path style="opacity:1" fill="#0b0806" d="M 684.5,100.5 C 689.179,100.334 693.845,100.501 698.5,101C 699.333,101.833 700.167,102.667 701,103.5C 701.041,107.43 701.207,111.263 701.5,115C 713.52,111.152 724.02,113.652 733,122.5C 740.075,136.026 738.242,148.193 727.5,159C 720.665,164.168 712.998,166.501 704.5,166C 702.014,162.863 700.181,159.363 699,155.5C 698.289,157.899 698.456,160.232 699.5,162.5C 698.966,164.614 697.966,166.448 696.5,168C 691.833,168.667 687.167,168.667 682.5,168C 680.845,165.493 680.011,162.659 680,159.5C 678.274,160.576 676.441,160.743 674.5,160C 669.412,156.335 667.245,151.502 668,145.5C 671.713,140.576 675.546,135.742 679.5,131C 676.833,130.667 674.167,130.333 671.5,130C 664.392,117.074 668.059,111.241 682.5,112.5C 681.99,108.187 682.657,104.187 684.5,100.5 Z M 707.5,135.5 C 706.152,136.601 704.652,137.601 703,138.5C 702.503,140.81 702.337,143.143 702.5,145.5C 705.568,144.978 708.568,144.145 711.5,143C 714.041,141.152 715.041,138.652 714.5,135.5C 712.167,135.5 709.833,135.5 707.5,135.5 Z"/></g>
<g><path style="opacity:1" fill="#0c0908" d="M 49.5,100.5 C 53.9362,100.21 58.2695,100.71 62.5,102C 64.1554,103.444 64.822,105.278 64.5,107.5C 69.7022,107.162 74.8689,106.495 80,105.5C 82.151,105.643 83.8176,106.643 85,108.5C 85.6667,111.833 85.6667,115.167 85,118.5C 84.8032,120.861 83.6365,122.528 81.5,123.5C 96.4083,135.525 97.4083,148.691 84.5,163C 78.1593,167.335 71.1593,169.335 63.5,169C 61.9782,167.478 60.4782,165.978 59,164.5C 56.6667,165.167 54.3333,165.833 52,166.5C 50.7387,166.241 49.7387,165.574 49,164.5C 36.6009,169.052 29.1009,164.885 26.5,152C 27.7521,140.42 33.4188,131.754 43.5,126C 31.9231,127.087 27.4231,121.92 30,110.5C 31.3333,108.167 33.3333,107.167 36,107.5C 39.1429,108.107 42.3095,108.441 45.5,108.5C 45.2776,104.944 46.6109,102.277 49.5,100.5 Z"/></g>
<g><path style="opacity:1" fill="#0c0a08" d="M 758.5,101.5 C 763.566,101.34 768.566,101.84 773.5,103C 775.733,106.442 776.067,110.108 774.5,114C 776.5,114.5 778.5,115 780.5,115.5C 785.265,110.967 790.932,109.134 797.5,110C 803.485,118.636 808.151,127.969 811.5,138C 811.01,139.982 810.01,141.649 808.5,143C 805.056,145.056 801.389,146.556 797.5,147.5C 795.971,147.471 794.804,146.804 794,145.5C 793.333,143.5 792.667,141.5 792,139.5C 790.97,146.311 789.304,152.978 787,159.5C 785.167,162.667 782.667,165.167 779.5,167C 771.96,169.666 764.96,168.833 758.5,164.5C 756.526,168.17 753.526,169.337 749.5,168C 745.963,166.719 742.796,164.886 740,162.5C 739.333,160.833 739.333,159.167 740,157.5C 744.302,150.562 747.802,143.229 750.5,135.5C 747.553,134.679 744.553,134.179 741.5,134C 734.631,119.35 739.298,113.517 755.5,116.5C 755.491,111.191 756.491,106.191 758.5,101.5 Z"/></g>
<g><path style="opacity:1" fill="#e08706" d="M 656.5,101.5 C 657.496,101.414 658.329,101.748 659,102.5C 660.3,105.295 661.8,107.961 663.5,110.5C 661.999,111.752 660.332,112.752 658.5,113.5C 656.302,110.467 654.302,107.3 652.5,104C 653.858,103.066 655.192,102.232 656.5,101.5 Z"/></g>
<g><path style="opacity:1" fill="#f38800" d="M 446.5,107.5 C 446.5,109.5 446.5,111.5 446.5,113.5C 443.615,113.194 440.948,113.527 438.5,114.5C 438.461,115.583 438.127,116.583 437.5,117.5C 440.086,118.48 442.753,118.813 445.5,118.5C 445.812,129.885 445.478,141.218 444.5,152.5C 438.781,157.306 434.448,156.472 431.5,150C 426.396,149.521 421.396,150.021 416.5,151.5C 416.5,146.833 416.5,142.167 416.5,137.5C 418.735,137.795 420.735,137.461 422.5,136.5C 422.5,135.5 422.5,134.5 422.5,133.5C 419.833,133.5 417.167,133.5 414.5,133.5C 414.5,131.833 414.5,130.167 414.5,128.5C 417.167,128.5 419.833,128.5 422.5,128.5C 422.5,127.167 422.5,125.833 422.5,124.5C 419.167,124.5 415.833,124.5 412.5,124.5C 412.5,134.5 412.5,144.5 412.5,154.5C 410.167,154.5 407.833,154.5 405.5,154.5C 405.5,142.5 405.5,130.5 405.5,118.5C 407.924,118.808 410.257,118.474 412.5,117.5C 411.754,116.264 411.421,114.93 411.5,113.5C 408.833,113.5 406.167,113.5 403.5,113.5C 403.5,111.5 403.5,109.5 403.5,107.5C 409.167,107.5 414.833,107.5 420.5,107.5C 420.5,105.833 420.5,104.167 420.5,102.5C 423.167,102.5 425.833,102.5 428.5,102.5C 428.5,104.167 428.5,105.833 428.5,107.5C 434.5,107.5 440.5,107.5 446.5,107.5 Z"/></g>
<g><path style="opacity:1" fill="#f38b02" d="M 515.5,110.5 C 515.5,112.833 515.5,115.167 515.5,117.5C 508.978,117.177 502.645,117.51 496.5,118.5C 496.5,121.167 496.5,123.833 496.5,126.5C 502.5,126.5 508.5,126.5 514.5,126.5C 514.5,129.167 514.5,131.833 514.5,134.5C 508.5,134.5 502.5,134.5 496.5,134.5C 496.5,137.833 496.5,141.167 496.5,144.5C 504.167,144.5 511.833,144.5 519.5,144.5C 519.5,147.167 519.5,149.833 519.5,152.5C 511.833,152.5 504.167,152.5 496.5,152.5C 496.5,157.167 496.5,161.833 496.5,166.5C 493.833,166.5 491.167,166.5 488.5,166.5C 488.5,161.833 488.5,157.167 488.5,152.5C 478.167,152.5 467.833,152.5 457.5,152.5C 457.5,149.833 457.5,147.167 457.5,144.5C 461.167,144.5 464.833,144.5 468.5,144.5C 468.666,138.824 468.499,133.157 468,127.5C 466.981,128.687 465.814,129.687 464.5,130.5C 461.991,129.079 459.657,127.412 457.5,125.5C 463.757,118.654 468.757,110.987 472.5,102.5C 474.5,103.167 476.5,103.833 478.5,104.5C 479.681,106.135 479.681,107.802 478.5,109.5C 490.815,110.499 503.149,110.832 515.5,110.5 Z"/></g>
<g><path style="opacity:1" fill="#f58f04" d="M 552.5,158.5 C 552.5,159.167 552.5,159.833 552.5,160.5C 552.5,162.5 552.5,164.5 552.5,166.5C 549.833,166.5 547.167,166.5 544.5,166.5C 544.666,160.824 544.499,155.157 544,149.5C 539.045,151.531 533.878,152.864 528.5,153.5C 527.841,150.545 527.508,147.545 527.5,144.5C 528.833,144.5 530.167,144.5 531.5,144.5C 532.495,133.679 532.828,122.679 532.5,111.5C 534.833,111.5 537.167,111.5 539.5,111.5C 539.334,121.839 539.5,132.172 540,142.5C 541.356,141.62 542.856,141.286 544.5,141.5C 544.5,128.833 544.5,116.167 544.5,103.5C 547.167,103.5 549.833,103.5 552.5,103.5C 552.5,121.833 552.5,140.167 552.5,158.5 Z"/></g>
<g><path style="opacity:1" fill="#0b0906" d="M 855.5,103.5 C 864.751,103.585 868.917,108.252 868,117.5C 865.094,120.037 861.927,122.204 858.5,124C 869.767,126.676 875.767,133.843 876.5,145.5C 874.969,159.864 866.969,167.698 852.5,169C 842.988,170.649 834.821,168.149 828,161.5C 826.698,158.625 825.865,155.625 825.5,152.5C 819.232,151.739 815.232,148.239 813.5,142C 814.675,138.81 816.675,136.143 819.5,134C 824.167,130.333 828.833,126.667 833.5,123C 830.5,122.667 827.5,122.333 824.5,122C 824,121.5 823.5,121 823,120.5C 822.333,115.833 822.333,111.167 823,106.5C 823.5,106 824,105.5 824.5,105C 835.008,104.83 845.341,104.33 855.5,103.5 Z"/></g>
<g><path style="opacity:1" fill="#f17500" d="M 120.5,104.5 C 123.518,104.704 126.518,105.037 129.5,105.5C 129.296,108.518 128.963,111.518 128.5,114.5C 131.127,113.908 133.794,113.575 136.5,113.5C 136.5,116.167 136.5,118.833 136.5,121.5C 132.454,121.81 128.621,122.81 125,124.5C 121.721,133.724 117.388,142.391 112,150.5C 108.226,151.709 105.059,150.709 102.5,147.5C 107.63,140.688 111.963,133.355 115.5,125.5C 111.878,124.675 108.211,124.175 104.5,124C 103.565,121.619 103.232,119.119 103.5,116.5C 108.628,116.888 113.628,116.388 118.5,115C 119.54,111.6 120.206,108.1 120.5,104.5 Z"/></g>
<g><path style="opacity:1" fill="#f17900" d="M 175.5,124.5 C 175.5,121.833 175.5,119.167 175.5,116.5C 176.833,116.5 178.167,116.5 179.5,116.5C 182.833,116.5 186.167,116.5 189.5,116.5C 189.942,112.846 190.276,109.179 190.5,105.5C 193.833,105.5 197.167,105.5 200.5,105.5C 200.296,108.518 199.963,111.518 199.5,114.5C 202.833,114.167 206.167,113.833 209.5,113.5C 209.5,116.5 209.5,119.5 209.5,122.5C 205.426,122.701 201.426,123.368 197.5,124.5C 194.24,137.448 190.073,150.115 185,162.5C 181.274,163.158 177.774,162.325 174.5,160C 180.308,149.077 184.642,137.577 187.5,125.5C 183.555,124.509 179.555,124.176 175.5,124.5 Z"/></g>
<g><path style="opacity:1" fill="#0d0a08" d="M 266.5,105.5 C 298.165,103.986 310.998,118.653 305,149.5C 298.666,161.92 288.499,168.086 274.5,168C 271.727,165.617 269.561,162.783 268,159.5C 256.201,166.785 247.201,164.118 241,151.5C 235.683,128.465 244.183,113.132 266.5,105.5 Z M 282.5,142.5 C 284.326,140.545 284.826,138.212 284,135.5C 283.023,137.74 282.523,140.073 282.5,142.5 Z"/></g>
<g><path style="opacity:1" fill="#f98700" d="M 323.5,105.5 C 338.167,105.5 352.833,105.5 367.5,105.5C 367.5,112.167 367.5,118.833 367.5,125.5C 352.833,125.5 338.167,125.5 323.5,125.5C 323.5,118.833 323.5,112.167 323.5,105.5 Z"/></g>
<g><path style="opacity:1" fill="#ee8300" d="M 390.5,104.5 C 394.905,107.396 398.905,110.896 402.5,115C 400.612,117.19 398.445,119.023 396,120.5C 392.869,116.367 389.369,112.534 385.5,109C 387.24,107.483 388.906,105.983 390.5,104.5 Z"/></g>
<g><path style="opacity:1" fill="#e98c07" d="M 648.5,104.5 C 651.644,106.907 653.978,110.073 655.5,114C 654.328,114.419 653.328,115.085 652.5,116C 656.712,123.424 660.379,131.09 663.5,139C 660.531,140.484 657.531,141.984 654.5,143.5C 651.629,134.102 647.962,125.102 643.5,116.5C 645.484,116.617 647.15,115.95 648.5,114.5C 647.42,112.004 646.086,109.67 644.5,107.5C 645.901,106.479 647.235,105.479 648.5,104.5 Z"/></g>
<g><path style="opacity:1" fill="#ec9108" d="M 693.5,105.5 C 694.5,105.5 695.5,105.5 696.5,105.5C 696.784,108.777 696.451,111.943 695.5,115C 696.804,115.804 697.471,116.971 697.5,118.5C 696.06,120.694 695.227,123.027 695,125.5C 704.429,117.673 714.596,116.506 725.5,122C 732.037,127.755 734.203,134.922 732,143.5C 727.282,154.788 718.782,161.121 706.5,162.5C 706.076,159.646 705.076,156.979 703.5,154.5C 708.802,153.011 713.802,150.845 718.5,148C 721.765,144.726 723.432,140.726 723.5,136C 722.198,130.203 718.531,127.036 712.5,126.5C 705.06,126.971 698.893,129.971 694,135.5C 693.598,144.84 693.765,154.173 694.5,163.5C 691.5,163.5 688.5,163.5 685.5,163.5C 685.5,159.833 685.5,156.167 685.5,152.5C 685.664,149.813 685.497,147.146 685,144.5C 682.333,148.5 679.667,152.5 677,156.5C 675.167,154 673.333,151.5 671.5,149C 676.699,142.768 681.532,136.268 686,129.5C 686.49,128.207 686.657,126.873 686.5,125.5C 682.143,125.586 677.81,125.92 673.5,126.5C 673.5,123.5 673.5,120.5 673.5,117.5C 677.842,117.261 682.176,116.927 686.5,116.5C 687.482,113.038 687.815,109.371 687.5,105.5C 689.5,105.5 691.5,105.5 693.5,105.5 Z M 707.5,135.5 C 706.152,136.601 704.652,137.601 703,138.5C 702.503,140.81 702.337,143.143 702.5,145.5C 705.568,144.978 708.568,144.145 711.5,143C 714.041,141.152 715.041,138.652 714.5,135.5C 712.167,135.5 709.833,135.5 707.5,135.5 Z"/></g>
<g><path style="opacity:1" fill="#f17200" d="M 58.5,110.5 C 57.596,111.209 57.2627,112.209 57.5,113.5C 59.7354,113.795 61.7354,113.461 63.5,112.5C 69.1667,111.833 74.8333,111.167 80.5,110.5C 80.5,113.167 80.5,115.833 80.5,118.5C 72.5458,119.587 64.5458,120.253 56.5,120.5C 56.3379,122.527 56.5045,124.527 57,126.5C 60.3936,125.544 63.8936,125.211 67.5,125.5C 67.5,124.167 67.5,122.833 67.5,121.5C 70.5176,121.704 73.5176,122.037 76.5,122.5C 76.67,123.822 76.3366,124.989 75.5,126C 88.8535,132.543 92.0202,142.376 85,155.5C 79.8255,161.507 73.3255,164.34 65.5,164C 64.1667,162 62.8333,160 61.5,158C 68.1246,157.244 73.6246,154.41 78,149.5C 79.4833,146.298 79.8166,142.964 79,139.5C 77.9872,137.154 76.3206,135.487 74,134.5C 70.0752,141.336 65.4085,147.67 60,153.5C 59.9219,155.657 59.7552,157.657 59.5,159.5C 56.3546,161.732 53.3546,161.732 50.5,159.5C 34.5574,165.055 28.724,159.722 33,143.5C 36.36,137.307 41.1934,132.64 47.5,129.5C 48.4841,126.572 48.8174,123.572 48.5,120.5C 43.8333,120.5 39.1667,120.5 34.5,120.5C 34.5,117.833 34.5,115.167 34.5,112.5C 39.5,112.5 44.5,112.5 49.5,112.5C 49.3184,110.409 49.6518,108.409 50.5,106.5C 53.4281,105.516 56.4281,105.183 59.5,105.5C 59.634,107.292 59.3007,108.958 58.5,110.5 Z"/></g>
<g><path style="opacity:1" fill="#e98b06" d="M 600.5,126.5 C 600.5,124.833 600.5,123.167 600.5,121.5C 604.371,121.815 608.038,121.482 611.5,120.5C 613.451,120.773 614.951,120.107 616,118.5C 616.392,114.472 616.892,110.472 617.5,106.5C 620.833,106.5 624.167,106.5 627.5,106.5C 627.091,110.876 626.425,115.21 625.5,119.5C 637.841,117.485 643.841,122.652 643.5,135C 643.423,143.13 641.923,150.963 639,158.5C 636.348,162.668 632.514,164.668 627.5,164.5C 624.824,164.163 622.157,163.83 619.5,163.5C 618.841,160.545 618.508,157.545 618.5,154.5C 621.219,154.397 623.885,154.731 626.5,155.5C 628.187,155.24 629.687,154.573 631,153.5C 633.735,145.575 634.402,137.575 633,129.5C 629.738,126.923 626.405,126.923 623,129.5C 620.195,142.099 615.362,153.766 608.5,164.5C 605.711,163.352 603.044,162.019 600.5,160.5C 606.384,151.183 610.718,141.183 613.5,130.5C 609.208,129.726 604.875,129.726 600.5,130.5C 600.5,129.167 600.5,127.833 600.5,126.5 Z"/></g>
<g><path style="opacity:1" fill="#6d4002" d="M 693.5,105.5 C 691.5,105.5 689.5,105.5 687.5,105.5C 687.815,109.371 687.482,113.038 686.5,116.5C 686.5,112.5 686.5,108.5 686.5,104.5C 689.059,104.198 691.393,104.532 693.5,105.5 Z"/></g>
<g><path style="opacity:1" fill="#e99109" d="M 760.5,105.5 C 764.119,106.244 767.785,106.577 771.5,106.5C 770.731,110.743 769.731,114.909 768.5,119C 772.167,119.333 775.833,119.667 779.5,120C 782.333,121.5 784.5,123.667 786,126.5C 787.782,138.399 786.116,149.733 781,160.5C 775.539,163.412 769.706,164.245 763.5,163C 762.568,159.915 761.901,156.748 761.5,153.5C 765.476,154.331 769.476,154.497 773.5,154C 774.893,152.829 775.727,151.329 776,149.5C 777.378,142.882 777.711,136.215 777,129.5C 773.757,127.737 770.257,127.071 766.5,127.5C 764.042,139.754 759.876,151.421 754,162.5C 750.31,163.438 747.144,162.438 744.5,159.5C 749.993,150.029 754.326,140.029 757.5,129.5C 756.667,129.167 755.833,128.833 755,128.5C 751.226,129.569 747.393,130.236 743.5,130.5C 743.5,127.167 743.5,123.833 743.5,120.5C 748.833,120.5 754.167,120.5 759.5,120.5C 760.164,115.527 760.497,110.527 760.5,105.5 Z"/></g>
<g><path style="opacity:1" fill="#ed8b04" d="M 552.5,160.5 C 552.5,159.833 552.5,159.167 552.5,158.5C 558.489,156.331 563.156,152.497 566.5,147C 561.569,137.376 558.569,127.21 557.5,116.5C 559.199,116.66 560.866,116.494 562.5,116C 559.854,115.503 557.187,115.336 554.5,115.5C 554.5,112.833 554.5,110.167 554.5,107.5C 565.885,107.188 577.218,107.522 588.5,108.5C 588.56,122.091 585.226,134.925 578.5,147C 579.083,149.499 580.416,151.499 582.5,153C 585.5,155.167 588.5,157.333 591.5,159.5C 589.727,162.06 587.727,164.393 585.5,166.5C 580.823,163.15 576.49,159.483 572.5,155.5C 567.809,159.359 562.975,163.025 558,166.5C 556.669,164.004 554.836,162.004 552.5,160.5 Z"/></g>
<g><path style="opacity:1" fill="#ef7d00" d="M 270.5,109.5 C 293.368,109.531 303.868,120.864 302,143.5C 297.863,156.632 289.03,162.965 275.5,162.5C 274.041,160.417 272.708,158.25 271.5,156C 291.396,152.371 297.063,141.538 288.5,123.5C 286.046,121.19 283.212,119.523 280,118.5C 277.584,129.903 273.918,140.903 269,151.5C 264.021,160.021 257.521,161.521 249.5,156C 239.396,139.29 242.396,125.29 258.5,114C 262.432,111.972 266.432,110.472 270.5,109.5 Z M 282.5,142.5 C 284.326,140.545 284.826,138.212 284,135.5C 283.023,137.74 282.523,140.073 282.5,142.5 Z"/></g>
<g><path style="opacity:1" fill="#000000" d="M 331.5,110.5 C 340.857,110.168 350.19,110.502 359.5,111.5C 354.833,111.833 350.167,112.167 345.5,112.5C 340.449,112.493 335.783,111.827 331.5,110.5 Z"/></g>
<g><path style="opacity:1" fill="#965501" d="M 539.5,111.5 C 537.167,111.5 534.833,111.5 532.5,111.5C 532.828,122.679 532.495,133.679 531.5,144.5C 531.5,133.167 531.5,121.833 531.5,110.5C 534.385,110.194 537.052,110.527 539.5,111.5 Z"/></g>
<g><path style="opacity:1" fill="#8f4000" d="M 58.5,110.5 C 59.5521,112.256 61.2188,112.923 63.5,112.5C 61.7354,113.461 59.7354,113.795 57.5,113.5C 57.2627,112.209 57.596,111.209 58.5,110.5 Z"/></g>
<g><path style="opacity:1" fill="#703b00" d="M 419.5,114.5 C 423.351,113.191 427.351,113.191 431.5,114.5C 431.376,115.107 431.043,115.44 430.5,115.5C 427.038,114.518 423.371,114.185 419.5,114.5 Z"/></g>
<g><path style="opacity:1" fill="#753f01" d="M 446.5,107.5 C 447.468,109.607 447.802,111.941 447.5,114.5C 444.5,114.5 441.5,114.5 438.5,114.5C 440.948,113.527 443.615,113.194 446.5,113.5C 446.5,111.5 446.5,109.5 446.5,107.5 Z"/></g>
<g><path style="opacity:1" fill="#010000" d="M 419.5,114.5 C 423.371,114.185 427.038,114.518 430.5,115.5C 430.196,116.15 429.863,116.817 429.5,117.5C 426.572,118.484 423.572,118.817 420.5,118.5C 420.567,117.041 420.234,115.708 419.5,114.5 Z"/></g>
<g><path style="opacity:1" fill="#e6900a" d="M 792.5,113.5 C 794.592,113.561 796.092,114.561 797,116.5C 800.854,123.373 804.02,130.539 806.5,138C 804.427,140.123 801.927,141.623 799,142.5C 795.39,133.947 791.223,125.613 786.5,117.5C 788.397,115.983 790.397,114.65 792.5,113.5 Z"/></g>
<g><path style="opacity:1" fill="#ee7600" d="M 144.5,114.5 C 150.441,116.221 155.941,118.887 161,122.5C 160.797,125.574 159.463,128.241 157,130.5C 151.758,126.934 146.258,123.767 140.5,121C 142.058,118.948 143.392,116.781 144.5,114.5 Z"/></g>
<g><path style="opacity:1" fill="#080604" d="M 565.5,115.5 C 570.167,115.5 574.833,115.5 579.5,115.5C 578.705,123.354 576.372,130.687 572.5,137.5C 568.627,130.678 566.293,123.345 565.5,115.5 Z"/></g>
<g><path style="opacity:1" fill="#848484" d="M 612.5,109.5 C 612.5,111.833 612.5,114.167 612.5,116.5C 610.5,116.5 608.5,116.5 606.5,116.5C 607.919,115.549 609.585,115.216 611.5,115.5C 611.205,113.265 611.539,111.265 612.5,109.5 Z"/></g>
<g><path style="opacity:1" fill="#853f00" d="M 179.5,116.5 C 178.167,116.5 176.833,116.5 175.5,116.5C 175.5,119.167 175.5,121.833 175.5,124.5C 174.523,121.713 174.19,118.713 174.5,115.5C 176.415,115.216 178.081,115.549 179.5,116.5 Z"/></g>
<g><path style="opacity:1" fill="#000000" d="M 331.5,117.5 C 340.833,117.5 350.167,117.5 359.5,117.5C 359.5,118.5 359.5,119.5 359.5,120.5C 350.167,120.5 340.833,120.5 331.5,120.5C 331.5,119.5 331.5,118.5 331.5,117.5 Z"/></g>
<g><path style="opacity:1" fill="#be6c02" d="M 515.5,110.5 C 516.473,112.948 516.806,115.615 516.5,118.5C 509.833,118.5 503.167,118.5 496.5,118.5C 502.645,117.51 508.978,117.177 515.5,117.5C 515.5,115.167 515.5,112.833 515.5,110.5 Z"/></g>
<g><path style="opacity:1" fill="#714403" d="M 829.5,109.5 C 827.631,111.635 826.964,114.302 827.5,117.5C 828.833,117.5 830.167,117.5 831.5,117.5C 830.081,118.451 828.415,118.784 826.5,118.5C 826.5,115.167 826.5,111.833 826.5,108.5C 827.791,108.263 828.791,108.596 829.5,109.5 Z"/></g>
<g><path style="opacity:1" fill="#673600" d="M 405.5,118.5 C 405.5,130.5 405.5,142.5 405.5,154.5C 407.833,154.5 410.167,154.5 412.5,154.5C 410.5,155.167 408.5,155.833 406.5,156.5C 405.5,156.167 404.833,155.5 404.5,154.5C 404.172,142.322 404.505,130.322 405.5,118.5 Z"/></g>
<g><path style="opacity:1" fill="#0d0600" d="M 473.5,118.5 C 478.5,118.5 483.5,118.5 488.5,118.5C 488.5,121.167 488.5,123.833 488.5,126.5C 481.825,126.666 475.158,126.5 468.5,126C 470.797,123.901 472.464,121.401 473.5,118.5 Z"/></g>
<g><path style="opacity:1" fill="#0a0604" d="M 265.5,119.5 C 266.873,119.343 268.207,119.51 269.5,120C 267.983,129.229 265.149,138.062 261,146.5C 258.28,149.319 255.947,148.986 254,145.5C 251.023,133.79 254.856,125.123 265.5,119.5 Z"/></g>
<g><path style="opacity:1" fill="#efefef" d="M 571.5,120.5 C 572.586,120.62 573.253,121.287 573.5,122.5C 573.167,123.167 572.833,123.833 572.5,124.5C 571.571,123.311 571.238,121.978 571.5,120.5 Z"/></g>
<g><path style="opacity:1" fill="#734202" d="M 611.5,120.5 C 608.038,121.482 604.371,121.815 600.5,121.5C 600.5,123.167 600.5,124.833 600.5,126.5C 599.539,124.735 599.205,122.735 599.5,120.5C 603.5,120.5 607.5,120.5 611.5,120.5 Z"/></g>
<g><path style="opacity:1" fill="#000000" d="M 428.5,124.5 C 431.5,124.5 434.5,124.5 437.5,124.5C 437.5,132.5 437.5,140.5 437.5,148.5C 436.5,148.5 435.5,148.5 434.5,148.5C 434.5,144.5 434.5,140.5 434.5,136.5C 432.5,136.5 430.5,136.5 428.5,136.5C 428.5,135.5 428.5,134.5 428.5,133.5C 431.167,133.5 433.833,133.5 436.5,133.5C 436.5,131.833 436.5,130.167 436.5,128.5C 433.833,128.5 431.167,128.5 428.5,128.5C 428.5,127.167 428.5,125.833 428.5,124.5 Z"/></g>
<g><path style="opacity:1" fill="#894100" d="M 145.5,127.5 C 142.833,127.5 140.167,127.5 137.5,127.5C 137.5,130.167 137.5,132.833 137.5,135.5C 136.523,132.713 136.19,129.713 136.5,126.5C 139.713,126.19 142.713,126.523 145.5,127.5 Z"/></g>
<g><path style="opacity:1" fill="#ee7900" d="M 204.5,126.5 C 212.833,126.5 221.167,126.5 229.5,126.5C 229.5,129.5 229.5,132.5 229.5,135.5C 221.164,134.233 212.83,134.233 204.5,135.5C 204.5,132.5 204.5,129.5 204.5,126.5 Z"/></g>
<g><path style="opacity:0.888" fill="#ededed" d="M 282.5,125.5 C 285.452,126.359 287.285,128.359 288,131.5C 289.833,139.667 286.999,145.501 279.5,149C 278.167,149.667 276.833,149.667 275.5,149C 279.135,141.561 281.468,133.728 282.5,125.5 Z M 282.5,142.5 C 284.326,140.545 284.826,138.212 284,135.5C 283.023,137.74 282.523,140.073 282.5,142.5 Z"/></g>
<g><path style="opacity:0.997" fill="#e9e9e9" d="M 130.5,126.5 C 132.402,129.337 133.069,132.671 132.5,136.5C 129.801,136.466 127.301,137.133 125,138.5C 124.833,138.167 124.667,137.833 124.5,137.5C 126.143,133.509 128.143,129.843 130.5,126.5 Z"/></g>
<g><path style="opacity:1" fill="#f37800" d="M 145.5,127.5 C 145.334,132.844 145.501,138.177 146,143.5C 151.432,145.796 156.265,148.963 160.5,153C 158.943,155.296 157.276,157.462 155.5,159.5C 152.754,157.377 149.921,155.377 147,153.5C 146.592,158.478 144.092,161.978 139.5,164C 134.411,164.826 129.411,164.492 124.5,163C 118.458,159.252 116.958,154.085 120,147.5C 124.612,142.111 130.445,140.111 137.5,141.5C 137.5,139.5 137.5,137.5 137.5,135.5C 137.5,132.833 137.5,130.167 137.5,127.5C 140.167,127.5 142.833,127.5 145.5,127.5 Z"/></g>
<g><path style="opacity:1" fill="#f38300" d="M 315.5,128.5 C 335.5,128.5 355.5,128.5 375.5,128.5C 375.5,130.5 375.5,132.5 375.5,134.5C 364.986,134.172 354.653,134.506 344.5,135.5C 344.334,143.507 344.5,151.507 345,159.5C 348.122,158.296 350.956,156.629 353.5,154.5C 351.302,151.467 349.302,148.3 347.5,145C 349.932,143.913 349.598,143.413 346.5,143.5C 346.5,141.5 346.5,139.5 346.5,137.5C 355.221,137.196 363.888,137.529 372.5,138.5C 372.327,144.705 369.994,150.205 365.5,155C 369.098,156.925 372.764,158.758 376.5,160.5C 375.299,162.909 373.633,164.909 371.5,166.5C 367.221,165.027 363.221,163.027 359.5,160.5C 355.993,162.754 352.327,164.754 348.5,166.5C 347.139,164.972 345.972,163.305 345,161.5C 344.506,163.134 344.34,164.801 344.5,166.5C 341.833,166.5 339.167,166.5 336.5,166.5C 336.5,164.833 336.5,163.167 336.5,161.5C 329.191,162.248 321.858,162.582 314.5,162.5C 314.5,160.167 314.5,157.833 314.5,155.5C 316.5,155.5 318.5,155.5 320.5,155.5C 320.5,148.833 320.5,142.167 320.5,135.5C 319.081,134.549 317.415,134.216 315.5,134.5C 315.5,132.5 315.5,130.5 315.5,128.5 Z"/></g>
<g><path style="opacity:1" fill="#8a4900" d="M 400.5,129.5 C 395.5,129.5 390.5,129.5 385.5,129.5C 385.5,131.833 385.5,134.167 385.5,136.5C 384.527,134.052 384.194,131.385 384.5,128.5C 390.026,128.179 395.36,128.512 400.5,129.5 Z"/></g>
<g><path style="opacity:1" fill="#ea940b" d="M 831.5,117.5 C 830.167,117.5 828.833,117.5 827.5,117.5C 826.964,114.302 827.631,111.635 829.5,109.5C 839.827,108.755 850.161,108.588 860.5,109C 862.213,110.378 863.547,112.045 864.5,114C 858.653,118.091 852.987,122.424 847.5,127C 857.902,126.614 865.735,130.781 871,139.5C 873.046,152.244 867.879,160.41 855.5,164C 848.615,165.098 841.949,164.431 835.5,162C 828.833,156 828.833,150 835.5,144C 845.803,140.319 853.136,143.485 857.5,153.5C 864.056,147.999 864.056,142.499 857.5,137C 849.5,133.386 841.834,134.053 834.5,139C 830.701,141.797 827.201,144.964 824,148.5C 822.333,146.833 820.667,145.167 819,143.5C 818.251,142.365 818.417,141.365 819.5,140.5C 828.689,132.81 838.022,125.31 847.5,118C 842.177,117.501 836.844,117.334 831.5,117.5 Z"/></g>
<g><path style="opacity:1" fill="#ea8100" d="M 400.5,129.5 C 400.334,136.841 400.5,144.174 401,151.5C 401.422,153.426 402.589,154.426 404.5,154.5C 404.833,155.5 405.5,156.167 406.5,156.5C 420.437,157.15 434.437,157.817 448.5,158.5C 447.423,160.729 446.756,163.063 446.5,165.5C 432.407,167.197 418.407,166.697 404.5,164C 401.438,162.939 398.938,161.106 397,158.5C 394.533,162.013 391.366,164.179 387.5,165C 386.236,163.139 385.236,161.139 384.5,159C 386.642,156.532 389.142,154.365 392,152.5C 392.499,147.177 392.666,141.844 392.5,136.5C 390.167,136.5 387.833,136.5 385.5,136.5C 385.5,134.167 385.5,131.833 385.5,129.5C 390.5,129.5 395.5,129.5 400.5,129.5 Z"/></g>
<g><path style="opacity:1" fill="#e5e5e5" d="M 261.5,128.5 C 262.097,128.735 262.43,129.235 262.5,130C 261.424,134.318 259.924,138.485 258,142.5C 256.743,137.18 257.91,132.513 261.5,128.5 Z"/></g>
<g><path style="opacity:0.834" fill="#f7f7f7" d="M 707.5,131.5 C 719.194,131.181 721.527,135.681 714.5,145C 709.271,147.182 704.104,149.349 699,151.5C 698.333,146.833 698.333,142.167 699,137.5C 701.637,135.109 704.47,133.109 707.5,131.5 Z M 707.5,135.5 C 706.152,136.601 704.652,137.601 703,138.5C 702.503,140.81 702.337,143.143 702.5,145.5C 705.568,144.978 708.568,144.145 711.5,143C 714.041,141.152 715.041,138.652 714.5,135.5C 712.167,135.5 709.833,135.5 707.5,135.5 Z"/></g>
<g><path style="opacity:1" fill="#0d0400" d="M 61.5,132.5 C 62.5,132.5 63.5,132.5 64.5,132.5C 63.4281,136.756 61.2614,140.422 58,143.5C 56.5432,140.634 56.2099,137.634 57,134.5C 58.6225,133.901 60.1225,133.234 61.5,132.5 Z"/></g>
<g><path style="opacity:0.997" fill="#e9e9e9" d="M 626.5,132.5 C 627.5,132.5 628.5,132.5 629.5,132.5C 629.732,138.616 629.066,144.616 627.5,150.5C 625.396,150.799 623.396,150.466 621.5,149.5C 623.374,143.88 625.041,138.213 626.5,132.5 Z"/></g>
<g><path style="opacity:0.994" fill="#f0f0f0" d="M 770.5,132.5 C 771.805,134.397 772.471,136.731 772.5,139.5C 772.355,142.867 772.022,146.201 771.5,149.5C 769.5,149.5 767.5,149.5 765.5,149.5C 767.294,143.862 768.96,138.195 770.5,132.5 Z"/></g>
<g><path style="opacity:1" fill="#844400" d="M 315.5,128.5 C 315.5,130.5 315.5,132.5 315.5,134.5C 317.415,134.216 319.081,134.549 320.5,135.5C 318.5,135.5 316.5,135.5 314.5,135.5C 314.198,132.941 314.532,130.607 315.5,128.5 Z"/></g>
<g><path style="opacity:1" fill="#904c00" d="M 375.5,128.5 C 376.468,130.607 376.802,132.941 376.5,135.5C 365.833,135.5 355.167,135.5 344.5,135.5C 354.653,134.506 364.986,134.172 375.5,134.5C 375.5,132.5 375.5,130.5 375.5,128.5 Z"/></g>
<g><path style="opacity:1" fill="#030303" d="M 476.5,134.5 C 480.167,134.5 483.833,134.5 487.5,134.5C 487.5,137.833 487.5,141.167 487.5,144.5C 483.833,144.5 480.167,144.5 476.5,144.5C 476.5,141.167 476.5,137.833 476.5,134.5 Z"/></g>
<g><path style="opacity:1" fill="#794201" d="M 476.5,134.5 C 480.298,133.517 484.298,133.183 488.5,133.5C 488.815,137.371 488.482,141.038 487.5,144.5C 487.5,141.167 487.5,137.833 487.5,134.5C 483.833,134.5 480.167,134.5 476.5,134.5 Z"/></g>
<g><path style="opacity:1" fill="#828282" d="M 598.5,134.5 C 601.572,134.183 604.572,134.516 607.5,135.5C 607.376,136.107 607.043,136.44 606.5,136.5C 603.833,135.833 601.167,135.167 598.5,134.5 Z"/></g>
<g><path style="opacity:1" fill="#000000" d="M 328.5,135.5 C 331.247,135.187 333.914,135.52 336.5,136.5C 335.167,136.833 333.833,137.167 332.5,137.5C 330.667,137.415 329.334,136.748 328.5,135.5 Z"/></g>
<g><path style="opacity:1" fill="#b8b8b8" d="M 198.5,135.5 C 201.962,137.193 201.962,138.193 198.5,138.5C 198.5,137.5 198.5,136.5 198.5,135.5 Z"/></g>
<g><path style="opacity:1" fill="#955100" d="M 422.5,136.5 C 420.735,137.461 418.735,137.795 416.5,137.5C 416.5,142.167 416.5,146.833 416.5,151.5C 415.513,146.695 415.179,141.695 415.5,136.5C 417.833,136.5 420.167,136.5 422.5,136.5 Z"/></g>
<g><path style="opacity:1" fill="#080200" d="M 46.5,138.5 C 48.3,141.704 49.3,145.37 49.5,149.5C 49.1822,150.647 48.5156,151.481 47.5,152C 40.4318,154.246 38.2651,152.079 41,145.5C 42.6665,143.004 44.4998,140.671 46.5,138.5 Z"/></g>
<g><path style="opacity:0.881" fill="#f5f5f5" d="M 379.5,137.5 C 380.962,138.458 382.295,139.624 383.5,141C 384.793,141.49 386.127,141.657 387.5,141.5C 387.817,144.572 387.484,147.572 386.5,150.5C 384.241,152.545 381.741,154.211 379,155.5C 376.645,155.041 374.479,154.208 372.5,153C 375.506,148.149 377.84,142.982 379.5,137.5 Z M 380.5,143.5 C 380.202,146.265 379.202,148.765 377.5,151C 381.59,150.744 383.923,148.578 384.5,144.5C 383.041,144.567 381.708,144.234 380.5,143.5 Z"/></g>
<g><path style="opacity:1" fill="#ebebeb" d="M 557.5,138.5 C 558.662,140.986 559.996,143.486 561.5,146C 560.333,147.167 559.167,148.333 558,149.5C 557.501,145.848 557.335,142.182 557.5,138.5 Z"/></g>
<g><path style="opacity:1" fill="#000000" d="M 421.5,141.5 C 423.833,141.5 426.167,141.5 428.5,141.5C 428.5,142.5 428.5,143.5 428.5,144.5C 426.167,144.5 423.833,144.5 421.5,144.5C 421.5,143.5 421.5,142.5 421.5,141.5 Z"/></g>
<g><path style="opacity:1" fill="#c8c8c8" d="M 74.5,141.5 C 75.5522,144.758 74.5522,147.591 71.5,150C 70.8333,150.667 70.1667,150.667 69.5,150C 71.5564,147.386 73.2231,144.553 74.5,141.5 Z"/></g>
<g><path style="opacity:1" fill="#f07a00" d="M 229.5,153.5 C 230.473,155.948 230.806,158.615 230.5,161.5C 223.345,162.655 216.012,162.822 208.5,162C 204.934,161.3 202.1,159.467 200,156.5C 199.333,152.167 199.333,147.833 200,143.5C 202.774,142.477 205.607,142.477 208.5,143.5C 207.382,146.628 207.549,149.628 209,152.5C 209.75,153.126 210.584,153.626 211.5,154C 217.495,154.168 223.495,154.002 229.5,153.5 Z"/></g>
<g><path style="opacity:1" fill="#000000" d="M 328.5,143.5 C 331.247,143.187 333.914,143.52 336.5,144.5C 335.167,144.833 333.833,145.167 332.5,145.5C 330.667,145.415 329.334,144.748 328.5,143.5 Z"/></g>
<g><path style="opacity:1" fill="#0b0400" d="M 355.5,143.5 C 358.187,143.336 360.854,143.503 363.5,144C 362.12,145.925 360.62,147.759 359,149.5C 357.053,147.937 355.886,145.937 355.5,143.5 Z"/></g>
<g><path style="opacity:1" fill="#080200" d="M 129.5,148.5 C 132.206,148.575 134.873,148.908 137.5,149.5C 137.771,156.199 134.771,158.199 128.5,155.5C 127.585,154.672 126.919,153.672 126.5,152.5C 127.524,151.148 128.524,149.815 129.5,148.5 Z"/></g>
<g><path style="opacity:1" fill="#0a0500" d="M 839.5,149.5 C 845.188,148.531 848.188,150.864 848.5,156.5C 844.151,157.423 840.817,156.09 838.5,152.5C 839.127,151.583 839.461,150.583 839.5,149.5 Z"/></g>
<g><path style="opacity:1" fill="#000000" d="M 328.5,151.5 C 331.167,151.5 333.833,151.5 336.5,151.5C 336.5,152.5 336.5,153.5 336.5,154.5C 333.833,154.5 331.167,154.5 328.5,154.5C 328.5,153.5 328.5,152.5 328.5,151.5 Z"/></g>
<g><path style="opacity:1" fill="#703700" d="M 229.5,153.5 C 229.56,152.957 229.893,152.624 230.5,152.5C 231.803,155.645 231.803,158.645 230.5,161.5C 230.806,158.615 230.473,155.948 229.5,153.5 Z"/></g>
<g><path style="opacity:1" fill="#643a02" d="M 685.5,152.5 C 685.5,156.167 685.5,159.833 685.5,163.5C 688.5,163.5 691.5,163.5 694.5,163.5C 691.375,164.479 688.042,164.813 684.5,164.5C 684.183,160.298 684.517,156.298 685.5,152.5 Z"/></g>
</svg>
