<svg height="20" viewBox="0 0 20 20" width="20" xmlns="http://www.w3.org/2000/svg"><path d="m380.872728 808.94c0 1.105-.895 2-2 2-1.105 0-2-.895-2-2 0-1.105.895-2 2-2 1.105 0 2 .895 2 2m-5 0c0 1.105-.895 2-2 2-1.105 0-2-.895-2-2 0-1.105.895-2 2-2 1.105 0 2 .895 2 2m-5 0c0 1.105-.895 2-2 2-1.105 0-2-.895-2-2 0-1.105.895-2 2-2 1.105 0 2 .895 2 2m10.569 8.06c0 0-2.616-.743-4.423-.743-1.474 0-1.81.261-3.061.261-4.08 0-7.376-3.01-7.882-6.667-.672-4.854 3.193-8.852 7.882-8.851 3.943 0 7.045 2.703 7.775 6.083.268 1.235.241 2.461-.078 3.643-.38 1.405-.363 2.985.049 4.568.211.809.599 1.706-.262 1.706m2.476-1.141c0 0-.277-1.065-.278-1.069-.303-1.16-.368-2.385-.055-3.542.386-1.426.451-2.98.103-4.588-.92-4.255-4.826-7.66-9.73-7.66-5.958-.001-10.693 5.127-9.863 11.125.642 4.641 4.776 8.393 9.863 8.393 1.469 0 1.765-.261 3.062-.261 1.564 0 3.776.662 3.776.662 1.888.473 3.604-1.209 3.122-3.06" fill="#fff" fill-rule="evenodd" transform="translate(-364 -799)"/></svg>
