<svg xmlns="http://www.w3.org/2000/svg" viewBox="0 0 20 19.33" width="22" height="22"><path d="M20 7.8c0 1.87-.54 3.24-1.46 4.47-.62.83-1.35 1.57-2.13 2.25-1.67 1.45-3.48 2.71-5.38 3.84-.39.23-.81.42-1.22.61-.09.05-.2.07-.31.07-.26.01-.4-.12-.37-.43.03-.29.08-.57.13-.86.05-.32.09-.65.05-.97-.03-.23-.16-.37-.36-.47-.26-.14-.55-.2-.84-.24-.88-.13-1.74-.36-2.57-.69-1-.4-1.93-.93-2.75-1.63C1.46 12.62.53 11.24.14 9.52.02 8.91-.03 8.3.02 7.69.12 6.2.67 4.88 1.6 3.72 2.59 2.48 3.84 1.59 5.29.96 6.58.4 7.93.09 9.33.02c2.18-.11 4.25.29 6.18 1.32 1.49.8 2.71 1.88 3.56 3.36.61 1.06.93 2.19.93 3.1zm-10.03.04c.67.92 1.32 1.8 1.97 2.69.11.15.24.25.43.26.33.02.58-.24.58-.6V6.33v-.09c-.03-.22-.14-.39-.35-.47-.2-.08-.4-.04-.56.11-.14.12-.18.29-.18.47V8.67c-.04-.05-.06-.08-.08-.1-.43-.58-.85-1.16-1.28-1.74-.2-.28-.41-.56-.61-.84-.14-.2-.32-.3-.56-.26-.2.04-.35.16-.41.36-.03.1-.04.2-.04.29v3.75c0 .09.01.19.04.28.08.25.34.41.58.37.25-.04.47-.28.47-.55V8.82v-.98zm4.74-1.04h1.46c.29 0 .52-.24.52-.54 0-.3-.22-.54-.52-.54h-2.02c-.28 0-.51.23-.51.51v4.02c0 .29.23.52.52.52h2.02c.27 0 .51-.25.51-.52 0-.31-.2-.55-.49-.56-.44-.01-.89 0-1.33-.01h-.15v-.91H16.15c.3 0 .54-.23.54-.51.01-.33-.2-.56-.52-.56-.43-.01-.87 0-1.3 0h-.15c-.01-.29-.01-.59-.01-.9zM4.64 9.71v-.18-3.24c0-.33-.25-.57-.57-.56-.3.01-.51.25-.51.58V10.3c.02.26.25.48.51.48.68 0 1.36.01 2.05 0 .32 0 .57-.35.49-.66-.07-.26-.25-.41-.54-.41-.47-.01-.94 0-1.43 0zm3.53-1.45V6.31c0-.26-.14-.47-.37-.55-.37-.14-.73.14-.73.56-.01 1.29 0 2.58 0 3.87 0 .1.03.21.07.3.1.22.37.34.58.29.26-.06.44-.29.44-.56.01-.65.01-1.3.01-1.96z" fill-rule="evenodd" clip-rule="evenodd" fill="#fff"/></svg>