<svg xmlns="http://www.w3.org/2000/svg" width="28" height="28" viewBox="0 0 28 28">
  <defs>
    <style>
      .cls-1 {
        fill: #59abb6;
        fill-rule: evenodd;
      }
    </style>
  </defs>
  <path id="icon_point" data-name="icon_point" class="cls-1" d="M788.589,2157.86a1.264,1.264,0,0,0-.459-1.72,1.282,1.282,0,0,0-1.718.46l-5.658,9.8,0.364,0.21a2.546,2.546,0,0,1,1.171,1.53l0.116,0.43Zm-9.635,4.12a1.264,1.264,0,0,1,1.718-.46,1.25,1.25,0,0,1,.46,1.71l-1.467,2.55-1.088-.63a2.5,2.5,0,0,0-1.259-.34Zm-5.612-.34a1.258,1.258,0,0,0-2.178-1.26l-1.467,2.54a1.258,1.258,0,1,0,2.178,1.26Zm3.895,0.8a1.274,1.274,0,0,0-.461-1.72,1.256,1.256,0,0,0-1.717.46l-2.095,3.63a1.264,1.264,0,0,0,.459,1.72,1.282,1.282,0,0,0,1.718-.46Zm1.619,12.55-2.952.79a6.913,6.913,0,0,1-7.786-10.12l0.49-.85a4.528,4.528,0,0,1,4.187,2.81,2.492,2.492,0,0,1,3.267,1.88l1.639,0.95,0.223,0.84a0.63,0.63,0,0,0,1.215-.33l-0.359-1.34-2.09-1.21a1.254,1.254,0,1,1,1.257-2.17l2.541,1.46a1.259,1.259,0,0,1,.585.77l0.491,1.83A3.823,3.823,0,0,1,778.856,2174.99Zm-7.825-22.43a0.716,0.716,0,0,1-.69-0.52l-0.913-3.08a0.72,0.72,0,1,1,1.38-.41l0.913,3.09a0.714,0.714,0,0,1-.486.89A0.725,0.725,0,0,1,771.031,2152.56Zm-6.191,6.6h-0.053l-3.2-.23a0.722,0.722,0,0,1,.105-1.44l3.2,0.23A0.721,0.721,0,0,1,764.84,2159.16Zm2.147-3.96a0.718,0.718,0,0,1-.5-0.19l-2.331-2.21a0.722,0.722,0,0,1,.99-1.05l2.33,2.21a0.723,0.723,0,0,1,.028,1.02A0.711,0.711,0,0,1,766.987,2155.2Zm12.829-.47a0.732,0.732,0,0,1-.574-0.28,0.721,0.721,0,0,1,.14-1.01l2.562-1.94a0.72,0.72,0,0,1,.867,1.15l-2.561,1.94A0.77,0.77,0,0,1,779.816,2154.73Zm-3.953-2.15a0.974,0.974,0,0,1-.169-0.02,0.717,0.717,0,0,1-.53-0.87l0.755-3.12a0.72,0.72,0,1,1,1.4.34l-0.756,3.12A0.719,0.719,0,0,1,775.863,2152.58Z" transform="translate(-760.906 -2148.03)"/>
</svg>
