<svg xmlns="http://www.w3.org/2000/svg" version="1.1" xmlns:xlink="http://www.w3.org/1999/xlink" xmlns:svgjs="http://svgjs.com/svgjs" width="512" height="512" x="0" y="0" viewBox="0 0 512 512" style="enable-background:new 0 0 512 512" xml:space="preserve" class=""><g><path d="m256 0c-141.159 0-256 114.841-256 256s114.841 256 256 256 256-114.841 256-256-114.841-256-256-256zm0 488c-127.925 0-232-104.075-232-232s104.075-232 232-232 232 104.075 232 232-104.075 232-232 232zm12-225.899v39.601h93c6.627 0 12 5.373 12 12s-5.373 12-12 12h-93v95.316c0 6.628-5.373 12-12 12s-12-5.372-12-12v-95.316h-93c-6.627 0-12-5.373-12-12s5.373-12 12-12h93v-39.601h-93c-6.627 0-12-5.373-12-12s5.373-12 12-12h76.614l-82.06-110.13c-3.96-5.314-2.862-12.833 2.453-16.792 5.313-3.96 12.832-2.862 16.792 2.453l91.201 122.398 91.201-122.399c3.96-5.314 11.479-6.412 16.792-2.453 5.314 3.96 6.413 11.478 2.453 16.792l-82.06 110.13h76.614c6.627 0 12 5.373 12 12s-5.373 12-12 12h-93z" fill="#f77809" data-original="#000000" class=""></path></g></svg>