<svg xmlns="http://www.w3.org/2000/svg" version="1.1" xmlns:xlink="http://www.w3.org/1999/xlink" xmlns:svgjs="http://svgjs.com/svgjs" width="512" height="512" x="0" y="0" viewBox="0 0 512 512" style="enable-background:new 0 0 512 512" xml:space="preserve" class=""><g><g><g id="Layer_2_16_"><g id="Layer_1-2_17_"><g id="legal_document"><path d="m406.835 420.571c-5.048-.002-9.141 4.089-9.143 9.136v.006 36.571c-.023 15.139-12.29 27.405-27.429 27.429h-310.857c-15.139-.023-27.405-12.29-27.429-27.429v-420.57c.023-15.139 12.29-27.405 27.429-27.429h310.857c15.139.023 27.405 12.29 27.429 27.429-.005 5.049 4.084 9.147 9.134 9.152 5.049.005 9.147-4.084 9.152-9.134 0-.006 0-.012 0-.018-.031-25.234-20.48-45.684-45.715-45.714h-310.857c-25.235.03-45.684 20.48-45.714 45.714v420.571c.03 25.235 20.48 45.684 45.714 45.714h310.857c25.235-.03 45.684-20.48 45.714-45.714v-36.571c.002-5.048-4.089-9.141-9.136-9.143-.002 0-.004 0-.006 0z" fill="#f77809" data-original="#000000" class=""></path><path d="m461.692 329.143h-18.286v-27.429c0-5.049-4.093-9.143-9.143-9.143v-19.304c.125-12.467 6.841-23.937 17.652-30.147 20.277-11.812 44.767-34.354 46.277-74.684 2.288-45.451-29.482-85.552-74.251-93.723-49.659-9.401-97.537 23.234-106.938 72.893-1.059 5.593-1.593 11.272-1.597 16.964 0 42.405 25.008 66.004 45.983 78.333 11.011 6.171 17.883 17.757 18.017 30.379v19.281c-5.048-.002-9.141 4.089-9.143 9.136v.006 27.429h-18.286c-15.139.023-27.405 12.29-27.429 27.429v36.571c-.002 5.048 4.089 9.141 9.136 9.143h.007 146.286c5.049 0 9.143-4.093 9.143-9.143v-36.565c-.023-15.136-12.289-27.403-27.428-27.426zm-91.038-102.006c-16.864-9.906-36.962-28.805-36.962-62.565-.065-40.401 32.633-73.205 73.034-73.271s73.205 32.633 73.271 73.034c.002 1.138-.023 2.277-.074 3.414-1.205 32.024-20.9 50.068-37.205 59.569-16.43 9.493-26.604 26.976-26.74 45.95v19.304h-18.286v-19.282c-.097-19.116-10.41-36.721-27.038-46.153zm17.895 83.72h36.571v18.286h-36.571zm82.286 73.143h-128v-27.429c.004-5.048 4.095-9.139 9.143-9.143h109.714c5.048.004 9.139 4.095 9.143 9.143z" fill="#f77809" data-original="#000000" class=""></path><path d="m105.12 128h146.286c5.049 0 9.143-4.093 9.143-9.143 0-5.049-4.093-9.143-9.143-9.143h-146.286c-5.049 0-9.143 4.093-9.143 9.143.001 5.05 4.094 9.143 9.143 9.143z" fill="#f77809" data-original="#000000" class=""></path><path d="m105.12 164.571h146.286c5.049 0 9.143-4.093 9.143-9.143 0-5.049-4.093-9.143-9.143-9.143h-146.286c-5.049 0-9.143 4.093-9.143 9.143.001 5.05 4.094 9.143 9.143 9.143z" fill="#f77809" data-original="#000000" class=""></path><path d="m105.12 201.143h146.286c5.049 0 9.143-4.093 9.143-9.143 0-5.049-4.093-9.143-9.143-9.143h-146.286c-5.049 0-9.143 4.093-9.143 9.143.001 5.049 4.094 9.143 9.143 9.143z" fill="#f77809" data-original="#000000" class=""></path><path d="m205.692 438.857c40.396-.009 73.136-32.763 73.127-73.159s-32.763-73.136-73.159-73.127c-14.726.003-29.108 4.451-41.265 12.762-4.075 2.982-4.961 8.703-1.979 12.778 2.855 3.901 8.254 4.906 12.321 2.292 24.996-17.044 59.076-10.598 76.12 14.399 17.044 24.996 10.598 59.076-14.399 76.12s-59.076 10.598-76.12-14.399c-10.348-15.176-12.401-34.529-5.468-51.539 1.933-4.665-.282-10.013-4.946-11.946-4.665-1.933-10.013.281-11.946 4.946-3.629 8.793-5.48 18.217-5.446 27.729.047 40.384 32.777 73.107 73.16 73.144z" fill="#f77809" data-original="#000000" class=""></path><path d="m195.531 393.143c2.821-.001 5.483-1.305 7.213-3.532l28.44-36.571c3.125-3.964 2.445-9.711-1.519-12.836s-9.711-2.445-12.836 1.519c-.024.031-.048.061-.072.092l-21.233 27.293-.911-1.17c-3.035-4.034-8.765-4.844-12.798-1.809s-4.844 8.765-1.809 12.798c.059.078.119.155.18.232l8.125 10.452c1.732 2.229 4.397 3.533 7.22 3.532z" fill="#f77809" data-original="#000000" class=""></path></g></g></g></g></g></svg>