<svg xmlns="http://www.w3.org/2000/svg" width="176.7mm" height="45.18mm" viewBox="0 0 500.89 128.06"><defs><style>.a{fill:#231815}.b{fill:#db650f}</style></defs><path class="a" d="M182.24 108.61v8.64a2.17 2.17 0 01-.61 1.56 2.13 2.13 0 01-1.52.61h-6.51v8.64h-4.31v-21.59h10.82a2.1 2.1 0 012.13 2.14zm-8.64 6.51h4.34v-4.34h-4.34zM195.67 117.25a2.1 2.1 0 011.53.65 2.07 2.07 0 01.61 1.52v8.64h-4.31v-8.64h-4.33v8.64h-4.31v-21.59h10.81a2.1 2.1 0 012.14 2.14v6.51a2.08 2.08 0 01-2.14 2.13zm-2.17-2.13v-4.34h-4.33v4.34zM204.74 110.78v4.34h6.5v4.3h-6.5v4.34h8.64v4.3h-12.95v-21.59h12.95v4.31zM224.64 113v-2.17h-4.34v4.34h6.51a2.1 2.1 0 012.14 2.13v8.65a2.15 2.15 0 01-2.14 2.16h-8.64a2.19 2.19 0 01-2.17-2.21v-4.31h4.3v2.17h4.34v-4.34h-6.47a2.07 2.07 0 01-1.53-.61 2.12 2.12 0 01-.64-1.56v-8.64a2.15 2.15 0 012.17-2.14h8.64a2.12 2.12 0 012.14 2.14V113zM235.87 110.78v4.34h6.51v4.3h-6.51v4.34h8.65v4.3h-13v-21.59h13v4.31zM260.08 108.61v19.45h-4.3v-17.28h-4.34v17.28h-4.31v-21.59h10.81a2.1 2.1 0 012.14 2.14zM275.65 110.78h-4.31v17.28H267v-17.28h-4.3v-4.31h12.95zM282.58 110.78v4.34h6.5v4.3h-6.5v4.34h8.64v4.3h-13v-21.59h13v4.31zM306.79 108.61v17.29a2.15 2.15 0 01-2.14 2.16h-10.81v-21.59h10.81a2.12 2.12 0 012.14 2.14zm-8.65 15.15h4.34v-13h-4.34v13zM335.32 117.25a2.09 2.09 0 011.52.65 2.07 2.07 0 01.61 1.52v6.48a2.13 2.13 0 01-2.13 2.16H324.5v-21.59h10.82a2.1 2.1 0 012.13 2.14v6.51a2.08 2.08 0 01-2.13 2.13zm-6.51-2.13h4.34v-4.34h-4.34zm0 8.64h4.34v-4.34h-4.34zM355.66 106.47q-4 7.92-5.92 11.87v9.72h-4.34v-9.72c-3-5.94-4.94-9.89-5.91-11.87h4.83c1.62 3.5 2.71 5.83 3.25 7l3.25-7zM386.18 106.47v19.43a2.15 2.15 0 01-2.14 2.16h-8.64a2.19 2.19 0 01-2.17-2.16v-19.43h4.31v17.29h4.33v-17.29zM401.75 106.47v4.31l-7.88 13h7.88v4.3H388.8v-4.3q5.91-9.74 7.88-13h-7.88v-4.31zM417.31 106.47v19.43a2.13 2.13 0 01-2.13 2.16h-8.65a2.2 2.2 0 01-2.17-2.16v-19.43h4.31v17.29H413v-17.29zM432.88 106.47v4.31q-5.24 8.64-7.88 13h7.88v4.3h-12.95v-4.3q5.93-9.74 7.88-13h-7.88v-4.31z"/><path class="b" d="M71.61 61a17.07 17.07 0 00-.43-1.88 8.08 8.08 0 01-.39-3 1.47 1.47 0 000-.21 2.82 2.82 0 01.07-.31c.19-.64.4-1.27.57-1.91a1 1 0 000-.52c-.44-1.71-1-3.38-1.54-5a19.19 19.19 0 00-1.32-2.88 9.33 9.33 0 01-.44-1c-.33-.92-.64-1.84-1-2.76-.13-.53-.37-1.06-.61-1.53s-.53-1-.81-1.47a4.24 4.24 0 00-.48-.76c-.55-.6-1.12-1.18-1.69-1.76a2.73 2.73 0 00-.43-.33c-.23-.14-.47-.25-.69-.39a9.77 9.77 0 00-4.61-1.38h-1.96a24.92 24.92 0 01-2.72.22l-1.75-.05c-.8 0-1.6 0-2.4-.1s-1.72-.17-2.57-.24a1.76 1.76 0 00-.65.07c-.56.17-1.1.36-1.65.56a3.91 3.91 0 00-.67.27c-.66.36-1.31.73-2 1.1a1.23 1.23 0 00-.29.22c-1.07 1.16-2.14 2.33-3.19 3.5a28.06 28.06 0 00-3.53 4.74 6.23 6.23 0 00-.6 1.25 18 18 0 00-.74 2.55 15.51 15.51 0 01-.43 1.91 10.23 10.23 0 00-.47 2.84h-.49c-2.57 0-4.66 1.61-4.66 3.6s2.09 3.59 4.66 3.59a5.73 5.73 0 00.84-.06 5.55 5.55 0 000 1.35 2.69 2.69 0 010 1 19.57 19.57 0 00-.46 2.15c-.22 1.47-.48 2.93-.68 4.39a3.25 3.25 0 000 1.39 4.61 4.61 0 00-3.54.07c-2.83 1.35-3.54 5.74-1.6 9.82s5.81 6.29 8.63 5a5.16 5.16 0 002.65-4.4c.24.55.48 1.11.71 1.66.15.34.31.67.46 1l.76-.21.74-.22-.13-.44c-.18-.51-.37-1-.54-1.51a2.94 2.94 0 01-.12-.59c-.06-.48-.08-1-.15-1.45-.17-1.21-.4-2.41-.68-3.6a15.25 15.25 0 01-.54-4.61v-.49c.07-.51.12-1 .21-1.52a5.8 5.8 0 01.76-2.45 6.81 6.81 0 00.77-1.61c.21-.62.43-1.23.69-1.84a14.8 14.8 0 00.69-2.17c.06-.26.13-.53.21-.79a.82.82 0 01.1-.26 20.07 20.07 0 012.07-3.09 5.86 5.86 0 01.66-.8c.53-.43 1.11-.81 1.71-1.24.08.27.13.5.21.72a.44.44 0 01-.13.54c-.37.39-.75.8-1.12 1.21a1.57 1.57 0 00-.33.49c-.29.86-.55 1.73-.84 2.58a3.87 3.87 0 01-.37.8c-.59.94-1.22 1.86-1.75 2.84a8.24 8.24 0 00-.85 2A13.1 13.1 0 0140 68a4.89 4.89 0 00-.44 1.5 3 3 0 01-.06.42 19.64 19.64 0 00-.3 3.25 9.07 9.07 0 00.11 1.27c.12 1 .19 1.92.4 2.85a38.41 38.41 0 001.43 5.14 48.48 48.48 0 002 4.83A29.25 29.25 0 0145 91.64a3.11 3.11 0 001 1.63.31.31 0 01.07.09 3.6 3.6 0 001.33 1c.55.22 1.09.48 1.61.75a1.34 1.34 0 00.94.13 2.56 2.56 0 011.29-.1c.36.09.74.12 1.1.22a.62.62 0 00.66-.16c.24-.22.52-.41.82-.65l.13.48c0 .11.07.2.2.22l1 .18.46-.69.84.29a.52.52 0 00.51 0l1.29-.8a.72.72 0 00.23-.26c.18-.4.36-.8.53-1.21s.41-1.07.66-1.58c.46-.94 1-1.86 1.43-2.8a6 6 0 00.77-2.53 1.13 1.13 0 01.18-.57 9.11 9.11 0 001.2-2.42 1.17 1.17 0 00.05-.69c-.23-.91-.23-.61.19-1.47 0-.05.05-.09.07-.13a1.75 1.75 0 00.09-.38v-2c0-1.24 0-2.48.12-3.73a12.36 12.36 0 00-.21-3.64 8.15 8.15 0 00-.26-1.11c-.51-1.29-1.07-2.56-1.6-3.85a12 12 0 00-1.7-3.14 10.32 10.32 0 01-1.06-1.78c-.27-.55-.54-1.09-.85-1.61-.59-1-1.21-2-1.82-3-.14-.23-.27-.46-.42-.73l.76-.23.23.26c.58.72 1.15 1.45 1.73 2.16a23.27 23.27 0 012.35 3.33 31.34 31.34 0 011.53 3 29.4 29.4 0 011.5 3.69 9.29 9.29 0 01.4 1.55c0 .59.15 1.17.2 1.76.07.82.18 1.63.18 2.45s-.12 1.65-.18 2.48c0 .66-.12 1.32-.12 2v6a2.29 2.29 0 000 .25.85.85 0 00.23 0c.43-.07.86-.17 1.29-.23a.41.41 0 00.36-.28c.23-.55.47-1.1.72-1.64.4-.89.85-1.76 1.21-2.66.55-1.4 1.14-2.77 1.79-4.13a25 25 0 002.14-6.51c.1-.6.25-1.19.29-1.79.06-.79 0-1.59 0-2.38a4.46 4.46 0 00-.37-1.87 8.54 8.54 0 01-.48-1.81zm-27.9-6.78c-.7-.94-2.91-1.4-5.42-1-.42.06-.82.15-1.21.24h-1.69a5.12 5.12 0 01.25-.57.52.52 0 01.26-.17 12.57 12.57 0 013.55-.54c1 0 2 0 3-.08a2.37 2.37 0 001.19-.25c.3-.17.63-.29.93-.49l-1.49.39.93-.87c-.27-.08-.49-.14-.7-.22a11.23 11.23 0 00-2.93-.49c-.45 0-.9-.09-1.34-.11a6 6 0 00-.73 0l-1.12.07a.92.92 0 00-.28.09l-1.4.59a1.93 1.93 0 01-.52.15c-.46 0-.92.08-1.47.12a8.25 8.25 0 01.91-1.36c.19-.2.38-.4.56-.61a.57.57 0 01.37-.2c.35 0 .69-.14 1-.18a1.57 1.57 0 00.67-.26 9.84 9.84 0 012.55-1.12.54.54 0 01.31 0l1.32.26.79-1.32a4 4 0 01.39.54 1.78 1.78 0 001.23.89c.73.19 1.44.47 2.21.73l.62-.51L47.58 49l1-1a2.12 2.12 0 01.2.81c0 .25 0 .5.08.74a.57.57 0 01-.16.49c-.28.28-.52.59-.81.86a2.13 2.13 0 00-.69 1.14 1.13 1.13 0 01-.89.91 11 11 0 00-2.6 1.29zm1.48 6l1.53.32a2.42 2.42 0 011.48.68l1 .78.26.16v-.49l.87.71a3.53 3.53 0 01-2.65-.52l-.74.54-2.3-1.4zM54 90.56l.38.19c-.48.09-.9.15-1.3.25a14.53 14.53 0 01-3.16.15.54.54 0 01-.3-.1c-.95-.64-1.92-1.25-2.82-2a13.29 13.29 0 01-2.34-2.46.89.89 0 01-.14-.25 15.49 15.49 0 01-1-3 3.75 3.75 0 01-.11-.6 1.33 1.33 0 01.14.19c.57 1 1.14 2 1.7 2.94a3.94 3.94 0 01.26.55 5.93 5.93 0 001.34 1.88c.14.15.26.31.4.46a1 1 0 00.21.19l1.25.74a.66.66 0 00.26.11l1.09.05a.79.79 0 00.31-.08c.39-.17.78-.34 1.16-.53a.38.38 0 01.49.05 1.57 1.57 0 00.3.2 1.42 1.42 0 001.5.34h.58l.64-.07c-.26.37-.63.5-.84.8zm3.94-21a8.87 8.87 0 011.75 1.54c.29.29.57.59.84.89a2.32 2.32 0 01.35.53c.25.55.49 1.11.72 1.67a1.29 1.29 0 01.08.55c-.06.57-.15 1.13-.23 1.69a1.6 1.6 0 01-.05.21c-.8 2.17-1.56 4.36-2.54 6.36a4.07 4.07 0 01-.69.94h-.09l.07-1.5h-.06l-.47.7-1.57 2.19a1.2 1.2 0 01-.26.24c-.52.37-1 .74-1.58 1.1a1.41 1.41 0 01-.45.2l-1.85.4a.87.87 0 01-.36 0L49.68 87a1.21 1.21 0 01-.5-.19c-.57-.38-1.14-.78-1.69-1.18a1 1 0 01-.28-.35c-.23-.48-.44-1-.64-1.44a1.06 1.06 0 00-.44-.54c-.39-.25-.75-.52-1.13-.78a.88.88 0 01-.34-.4c-.27-.64-.58-1.26-.83-1.9a9.13 9.13 0 00-1.06-1.81 2.25 2.25 0 01-.28-.61 11.11 11.11 0 01-.31-1.13 9.42 9.42 0 00-.75-1.93 2 2 0 01-.18-1c0-.34.07-.68.06-1a1.86 1.86 0 01.22-.92c.2-.37.37-.77.57-1.15a.76.76 0 01.18-.26l1.5-1.24.15-.09.27.63c.23-.13.44-.23.64-.36a5 5 0 011.53-.63 11.87 11.87 0 002.47-.94 7.15 7.15 0 011.1-.38.45.45 0 01.28 0c.35.09.7.18 1 .3a4.12 4.12 0 001.25.19c.63 0 1.26.11 1.89.18a7.07 7.07 0 013 1.19c.22.08.39.22.58.33zM56.32 61v.08l-.76.67c-.26-.24-.52-.46-.76-.69a.46.46 0 00-.41-.14 10.16 10.16 0 01-1.57.06l.25-.11 1.5-.55a.5.5 0 01.34 0c.51.21.96.45 1.41.68zm12.14-11c0 .14 0 .28-.07.45a2 2 0 01-1.34-.26c-.21-.16-.45-.29-.67-.43a1.43 1.43 0 00-.34-.14 19.2 19.2 0 00-2.29-.39 5.78 5.78 0 00-1.44.15l-2.44.35a2.73 2.73 0 00-.56.15c-.38.15-.76.31-1.13.49a4.71 4.71 0 00-.57.34l1.38.85a.47.47 0 00.24 0h3.7a11.08 11.08 0 012.56.32 4.49 4.49 0 01.81.17 4.89 4.89 0 001.75.13 2.15 2.15 0 00-1 1 .65.65 0 01-.21 0 18.68 18.68 0 00-3.16-.47 11.21 11.21 0 00-1.53-.08c-.59 0-1.18.13-1.77.2a.7.7 0 00-.46.29l1.72.24v.06h-1.2a.52.52 0 00.43.29l1.61.27a4.54 4.54 0 01.53.12 17.13 17.13 0 01-3.48-.53 1.39 1.39 0 00.87.51c.55 0 1.09.13 1.63.2a3.12 3.12 0 01.31.07l-.07.7-.55.06c-.4 0-.8.07-1.2.08a1.17 1.17 0 01-.49-.07c-.62-.23-1.26-.45-1.86-.73a12.06 12.06 0 01-1.34-.79l-2.5-1.6a.84.84 0 01-.32-.38c-.12-.29-.26-.58-.43-.94l1.06.26-.57-1.24.33-.15.56-.33a.48.48 0 00.22-.45V47c.54.27 1.08.43 1.27 1a1.82 1.82 0 00.31 0 14.88 14.88 0 012.64-.53h.25a2.26 2.26 0 011.43 0 .4.4 0 00.38-.05c.26-.24.54-.47.83-.73.11.19.24.38.35.59a.47.47 0 00.36.26c.22 0 .43.09.64.12a6.64 6.64 0 012.15.66c.59.32 1.18.66 1.76 1 .24.13.47.29.72.42a.35.35 0 01.19.26z"/><path class="b" d="M53 68.62s-.05-.07-.09-.13l-2.16.34.16.21a3.58 3.58 0 01-1.14.24l-1.42-.07a1.45 1.45 0 00-.84.17c-.29.16-.61.29-.91.45a.72.72 0 01-.52.07c-.27-.07-.55-.11-.84-.16l-1.64 2.87h1.14a5.3 5.3 0 001.72-.24 9.05 9.05 0 011.05-.3 3.82 3.82 0 01.68-.06H50.92c.74 0 1.55-.11 2.32-.17a6.39 6.39 0 011.23-.07c.83.09 1.65.25 2.48.37l1.31.19c-.15-.51-.28-.94-.39-1.37a1.77 1.77 0 010-.56.63.63 0 00-.11-.5c-.09-.1-.14-.23-.23-.32a.7.7 0 00-.29-.19 9.22 9.22 0 00-2.76-.4h-.62a.67.67 0 01-.86-.37zM42.2 76.24l.42-.21.06-1.15h-.08zM55.7 76.39A.8.8 0 0055 76h-1.13a6.33 6.33 0 00-1.62.17l-1.07.18-.67-.85-1.07.5a1.56 1.56 0 00-.39.26c-.39.39-.77.79-1.15 1.19a.43.43 0 00-.09.22c0 .22 0 .45-.05.67 0 .57-.07 1.14-.09 1.7a12.28 12.28 0 00.2 2.9 15.43 15.43 0 00.62 2 1 1 0 001 .8.75.75 0 00.49-.07 1.54 1.54 0 01.8-.3.58.58 0 00.17-.06c.09-.54.17-1.06.26-1.59a1.06 1.06 0 01.33-.7c0 .1 0 .16.05.22.06.34.15.67.18 1a1.69 1.69 0 00.76 1.37.37.37 0 00.36.12l.9-.07a.43.43 0 00.36-.2c.21-.31.45-.6.65-.91a1 1 0 00.15-.42 6.09 6.09 0 01.42-1.83c.26-.58.5-1.18.73-1.78a4.12 4.12 0 00.23-.78c.09-.53.16-1.07.21-1.61a.72.72 0 00-.08-.41c-.24-.4-.52-.86-.76-1.33z"/><path class="b" d="M53.06 2.39c-29.3 0-53 23.16-53 51.73s23.75 51.72 53.05 51.72 53-23.16 53-51.72S82.35 2.39 53.06 2.39zM65 5.63c.6-.2.6-.2.74.07h-.2v.31h-.18l-.55-.23.19.03zM15.18 20.45a2.55 2.55 0 01.48-1 2.7 2.7 0 011.55-1.05 1.36 1.36 0 00.38-.24 1 1 0 01.41-.26v.5a5.8 5.8 0 00.73 2.78 9.24 9.24 0 00-2-.22 9.67 9.67 0 00-1.88.19.7.7 0 01.14-.27.89.89 0 00.19-.43zM5.91 31.52l-.06.11v-.06s.05-.04.06-.05zM8 68.64l-.54.28c0-.27-.31-.28-.52-.37l.06-.19-.35-.07c.2-.51.37-1 .57-1.45a.39.39 0 00-.12-.52c.06-.31.11-.63.18-.93s.14-.55.18-.83a9.25 9.25 0 003.3.61h.61a8.12 8.12 0 00-2.76 4.22H8.4c-.2-.23-.09-.58-.4-.75zm89.1.24a.74.74 0 01-.44-.36c.15-.16.39 0 .49-.16h.26zm2.69-16.49v.27c-.18.07-.24-.12-.37-.16a3.46 3.46 0 00-.82.55c-.08.17.13.27.21.43-.26.31-.72.32-1 .65.12.16.26.27.23.48s.08.14.14.19c.3.21.59.43.9.62a.32.32 0 00.27 0 .57.57 0 01.61.12q.69.49 1.35 1a.42.42 0 01.14.27v1.34a2.91 2.91 0 01-.74.1c-.19 0-.42.19-.59 0a2.57 2.57 0 00-.33.17l-.31-.14a4 4 0 00-.63.29 2.21 2.21 0 00-.35.39l-.54.57c-.13.13-.22.32-.47.25-.06 0-.14.08-.19.19h.23v.07a4.58 4.58 0 00-.88 1.88.48.48 0 000 .24 2.31 2.31 0 01.24.76c0 .22.22.29.17.5a1.52 1.52 0 000 .56c0 .25.12.5.17.76s.13.66.2 1a.68.68 0 00-.09.14.44.44 0 000 .43c.2.44.35.9.53 1.4l-.35.06.07.17c-.17.13-.49.1-.52.39l-.52-.27c-.34.25-.34.62-.42 1 0 .11 0 .24-.14.32-.17-.18.16-.38-.06-.58a1 1 0 01-.35.59c.33.1.5.28.45.58 0 .06-.07.16-.1.16a.32.32 0 01-.2-.1 1.3 1.3 0 01-.14-.29c-.09.16-.09.16 0 .35-.12.13-.39.16-.35.43 0 0 0 .05-.08.07-.24.11-.26.31-.19.59l-.58-.09c-.3-.06-.6-.08-.8.26.38.19.32.51.23.82a1.71 1.71 0 00-.08.74.33.33 0 010 .17c-.17.51-.35 1-.53 1.53-.16 0-.15-.11-.18-.2s-.28-.25-.35-.1-.22 0-.37.07c-.23.48-.71.5-1.19.51-.22-.29.2-.36.22-.58l-.34-.2c.1-.19.25 0 .37-.09l.18-.21v-.07c0-.01-.14.06-.23.1l-.22-.2.31-.14-.41-.31a.64.64 0 00-.22.14 5.07 5.07 0 00-.5 1 7.8 7.8 0 01-.34 1 77.2 77.2 0 01-.7 1.6.9.9 0 01-.56.52h-.07c-.05.35-.47.39-.61.7s-.4.4-.61.59A8.39 8.39 0 0186 79.82l-.66.37a5.44 5.44 0 00-.55.39c-.29.26-.58.53-.85.82s-.3.3-.52.26a2 2 0 01-.45-.2l-.14.29-.54.14a9.37 9.37 0 01-.8 2.62L80.91 86a.49.49 0 01-.1.19c-.26.22-.52.43-.79.63-.11.09-.23.21-.41.1a.27.27 0 00-.22.08c-.14.25-.4.3-.62.42a3.69 3.69 0 01-1.25.46 3.64 3.64 0 00-.67.16 1.15 1.15 0 01-1-.13.48.48 0 00-.49 0 11.67 11.67 0 00-1.3.72 1.13 1.13 0 01-.18.07v-.19a.51.51 0 00-.88-.41h-.06a1.77 1.77 0 01-1.24.34h-.47a2.63 2.63 0 00-1.6.4c-.35.23-.65 0-1 0 0 0-.07-.11-.09-.16l-.9.73a1.13 1.13 0 01-.18.12 1.32 1.32 0 00-.77.8v.1a2.31 2.31 0 00-.62 1c-.07.18-.17.36-.26.54a3 3 0 01-.18.3 1.18 1.18 0 00-.31.85.34.34 0 01-.21.35 1.13 1.13 0 00-.65.92s0 .11-.06.12a1.09 1.09 0 00-.42.65.4.4 0 01-.13.16 1 1 0 00-.39.84.65.65 0 01-.23.57 1.12 1.12 0 00-.31.86l-.22.12a.92.92 0 00-.6.85 3.33 3.33 0 01-.16.64 1 1 0 00-.62.53.5.5 0 01-.4.27c-.27 0-.33.13-.49.54a.76.76 0 00-.68.3s-.13.07-.2.07a.58.58 0 00-.59.4l-.67.31-.27.08c-.3.09-.57.23-.61.58a.36.36 0 01-.35.31 4.9 4.9 0 01-.54 0c-.55 0-.72.13-.84.64a1.58 1.58 0 01-.07.16l-.24-.15a.76.76 0 00-1.07.12c-.07.08-.15.21-.24.22a.75.75 0 01-.49-.08 2 2 0 00-.86-.22 2.06 2.06 0 01-1-.21.7.7 0 00-.24-.09.55.55 0 01-.38-.25.78.78 0 00-1-.35.52.52 0 01-.21 0l-1.16-.17a6 6 0 00-.59-.82c-.25-.27-.59-.11-.9 0a1.13 1.13 0 00-.83-.47.29.29 0 01-.17-.16.7.7 0 00-.49-.39.34.34 0 01-.3-.3 2.33 2.33 0 00-.14-.33.76.76 0 00-.79-.46h-.95a.49.49 0 01-.51-.3 2.25 2.25 0 00-.68-.91.8.8 0 01-.15-.2 4.23 4.23 0 01-.5-.72 1.25 1.25 0 00-.59-.65.23.23 0 01-.13-.1.89.89 0 00-.72-.72l-.19-.08a1 1 0 00-1-1 3.85 3.85 0 00-.27-.68 1.73 1.73 0 01-.33-.95 2.13 2.13 0 00-.23-.59 1.83 1.83 0 01-.33-1 1.83 1.83 0 00-.43-1.08 1.24 1.24 0 01-.23-.83 2.18 2.18 0 00-.16-1 1.25 1.25 0 00-.53-.65 3.43 3.43 0 01-.53-.48c-.16-.14-.31-.22-.52-.08a2 2 0 01-.4.1c-.29 0-.61-.12-.93-.15a3.14 3.14 0 00-.75 0c-.25 0-.23-.21-.37-.31a.92.92 0 00-.49.39 1.25 1.25 0 01-.74.54c-.46.16-.93.28-1.39.41-.29.08-.41 0-.44-.29s0-.31-.21-.39c-.14.38 0 .78-.11 1.21a3.52 3.52 0 01-.52-.2.39.39 0 00-.47 0 1.28 1.28 0 01-1.14.13c-.31-.09-.62-.13-.92-.22a5.09 5.09 0 01-.84-.34c-.26-.14-.58-.21-.74-.5a.18.18 0 00-.16 0c-.32.12-.48-.13-.68-.27a3.55 3.55 0 01-.47-.4.57.57 0 01-.16-.22c-.29-.74-.56-1.49-.84-2.23a7.13 7.13 0 00-.29-.69 1.38 1.38 0 00-.23-.26c.13-.23 0-.48-.05-.73 0-.07-.12-.12-.17-.16l-.48.9h-.7a.32.32 0 01-.32-.19c-.06-.12-.1-.24-.16-.36s-.12 0-.13 0c-.18-.23-.54-.21-.68-.5a.34.34 0 00-.19-.14.92.92 0 01-.54-.5c-.13-.23-.25-.47-.37-.7s-.14-.24.1-.47l.81.4v-.08a3.12 3.12 0 00-1.32-.63c0-.24-.22-.38-.4-.53l-.38-.32A8.18 8.18 0 1017 63.17h-.61a8 8 0 003-6.19 8.42 8.42 0 00-8.65-8.18 8.68 8.68 0 00-8 5l-.2-.08a.67.67 0 01.13-.22.86.86 0 00.21-.76.83.83 0 01.16-.64c.19-.23.25-.52.43-.73a6.57 6.57 0 00.71-1.49c.2-.47.3-1 .46-1.45a2.61 2.61 0 00.06-.27c.08-.37.11-.77.6-.89L5.18 47a.66.66 0 00.09-.88c-.27.06-.45-.13-.64-.28l-1-.9c.06-.12.12-.25.19-.37l1.06-1.82c.12-.1.27-.18.33-.3s0-.3 0-.43a2.92 2.92 0 01.25-.5 8.46 8.46 0 01.43-.85c.17-.27.43-.49.58-.77a.41.41 0 01.07-.11 8.78 8.78 0 007.15 3.57 8.42 8.42 0 008.64-8 8 8 0 003-6.19 7.8 7.8 0 00-.82-3.5 17.2 17.2 0 005.7.94c5.34 0 9.88-2.27 11.57-5.44h.71c4.2 0 7.91-1.41 10.12-3.55a20.6 20.6 0 005 .6h.77A15.75 15.75 0 0066.9 21a6 6 0 000 .61c0 4.52 5.5 8.18 12.28 8.18 4.57 0 8.56-1.67 10.67-4.14a2.24 2.24 0 00.89.06c.28 0 .37 0 .48.3a1.17 1.17 0 00.16.21l.09-.26c.15.26.39.3.6.4s.48.09.62.34a.23.23 0 00.23.06c.2-.09.32 0 .44.14.47-.15.5-.13 1 .53h-.21c.17.2.17.2.49 0a3.67 3.67 0 01.23.29c.08.11.17.11.3.13a1.82 1.82 0 01.58.28 1.64 1.64 0 01.4.29c.14.16.35.29.3.56 0 .09.07.19.12.3s-.24.11-.14.29c.25-.06.25-.06.41.06l.34-.21.3.1v.06h-.1l-.25.06c0 .06.07.11.09.11.21 0 .29.13.26.3a.23.23 0 00.19.31l-.12.33a.64.64 0 01.59-.1 5.54 5.54 0 01.52.29 2.84 2.84 0 010 .41c0 .14-.06.27-.24.31s-.23.15-.11.33l.27-.18c.17.15 0 .35.13.5-.19.1-.35.2-.52.28s-.44.06-.49-.21a.55.55 0 00-.57-.51 3.09 3.09 0 01-.53-.09 1.08 1.08 0 00-.75 0 .29.29 0 01-.22 0 .26.26 0 00-.36.08c-.1.13 0 .23.13.31l1.29.89-.61.91.48.33s0 .13-.06.16a.91.91 0 00-.38.58 2 2 0 01-.38.63c-.22.28-.24.27 0 .6l.21-.06c.17.21.08.44 0 .66a4.1 4.1 0 00-.14.5c0 .15-.2.29-.32.44a1.17 1.17 0 01.61.32c.07.1.28.12.43.15a.38.38 0 01.35.34c.15-.07.26 0 .4.07a1.65 1.65 0 01.94.71 7.19 7.19 0 01.58.86 6.63 6.63 0 01.29.6.42.42 0 000 .1.88.88 0 01.22.89c.41.13.45.53.64.81s.51.84.76 1.26c.07.12.13.25.22.41-.45.38-.89.76-1.35 1.12-.08.07-.22.05-.34.08a.62.62 0 00.11.85l-.14.24v.08a.64.64 0 01.47.56c.09.38.22.75.28 1.14s.31.76.42 1.16c0 .08 0 .16.08.23a1.73 1.73 0 00.32.67 4.08 4.08 0 01.36.61 2 2 0 00.17.27 1 1 0 01.27.68 1.19 1.19 0 00.27 1v.11l-.39.17a.64.64 0 01-.7-.08 2.13 2.13 0 00-.59-.27l-.16-.07c.16-.3.16-.3-.26-.43z"/><path d="M99.4 69.4a.82.82 0 00.45.38l.32-.53h-.26c-.11.2-.36-.03-.51.15zM7 70.38a.65.65 0 00.38-.38c-.15-.12-.38.08-.48-.13h-.28zM8.05 70.82a.7.7 0 000-.14l-.09-.1.08.23zM53.66 68.7a4.41 4.41 0 01-1.3-.2c-.35-.13-.72-.22-1.08-.32a.48.48 0 00-.29 0 7.71 7.71 0 00-1.14.4 11.67 11.67 0 01-2.56 1 4.94 4.94 0 00-1.59.67c-.2.13-.43.24-.66.36l-.28-.65-.16.04-1.55 1.3a.83.83 0 00-.19.27c-.2.4-.38.81-.59 1.21a1.87 1.87 0 00-.23 1c0 .36 0 .71-.06 1.07a2.13 2.13 0 00.18 1.08 9.1 9.1 0 01.78 2c.09.4.2.8.32 1.19a2.4 2.4 0 00.29.63 9.49 9.49 0 011.1 1.9c.27.67.59 1.32.87 2a.85.85 0 00.35.42c.39.27.77.56 1.17.82a1.2 1.2 0 01.46.56q.31.77.66 1.5a1 1 0 00.29.37c.57.43 1.16.84 1.75 1.24a1.36 1.36 0 00.52.19c.64.11 1.29.19 1.94.27A1.15 1.15 0 0053 89l2-.44a1.65 1.65 0 00.47-.21l1.63-1.15a1.07 1.07 0 00.27-.25c.55-.76 1.09-1.52 1.63-2.29.17-.24.32-.48.49-.73h.07c0 .52 0 1-.08 1.57h.09a4.67 4.67 0 00.72-1c1-2.16 1.81-4.41 2.63-6.65a.83.83 0 00.06-.21c.08-.59.17-1.18.23-1.77a1.26 1.26 0 00-.08-.57c-.24-.59-.48-1.17-.75-1.75a2.27 2.27 0 00-.36-.55q-.42-.48-.87-.93a9.38 9.38 0 00-1.82-1.62c-.19-.11-.36-.26-.55-.38a7.25 7.25 0 00-3.12-1.24c-.66-.02-1.35-.1-2-.13zm-10.27 8.55l-.43.22.42-1.47h.08zm14.45 2.27c-.06.57-.13 1.13-.23 1.69a3.84 3.84 0 01-.23.82c-.24.62-.49 1.25-.76 1.86a6.32 6.32 0 00-.44 1.91.86.86 0 01-.15.44c-.21.33-.46.63-.67.94a.46.46 0 01-.37.22l-.94.07a.35.35 0 01-.37-.13 1.74 1.74 0 01-.79-1.44 9.65 9.65 0 00-.19-1c0-.06 0-.12-.05-.23a1.09 1.09 0 00-.35.73c-.08.55-.17 1.1-.26 1.66a.51.51 0 01-.18.07 1.64 1.64 0 00-.83.3.76.76 0 01-.51.08 1 1 0 01-1-.83 18.86 18.86 0 01-.64-2.1 13.36 13.36 0 01-.21-3c0-.59.06-1.18.1-1.77 0-.24 0-.47.05-.71a.46.46 0 01.09-.23c.39-.42.79-.83 1.19-1.24a2.23 2.23 0 01.41-.27l1.13-.64.7.88 1.1-.18a6.89 6.89 0 011.69-.18h1.17a.82.82 0 01.7.43c.26.5.54 1 .79 1.48a.76.76 0 01.05.37zm.7-9.19a.88.88 0 01.3.2 4 4 0 01.23.34.65.65 0 01.13.52 1.68 1.68 0 000 .59c.12.45.26.9.41 1.43l-1.36-.19c-.86-.14-1.71-.3-2.57-.4a7.93 7.93 0 00-1.28.08c-.8.06-1.6.14-2.4.17s-1.54 0-2.31 0h-.52a2.8 2.8 0 00-.71.06 8 8 0 00-1.09.31 5.41 5.41 0 01-1.78.26h-1.16l1.71-3c.3.06.59.1.87.17a.78.78 0 00.54-.07c.31-.17.64-.3.94-.48a1.65 1.65 0 01.87-.18l1.47.08a3.9 3.9 0 001.17-.28l-.17-.22 2.24-.36c0 .06.08.1.1.14a.68.68 0 00.83.5 4.48 4.48 0 01.64 0 9.56 9.56 0 012.9.33zM48.11 52.18a2.17 2.17 0 01.71-1.18c.3-.28.55-.61.84-.91a.57.57 0 00.17-.5c0-.26 0-.52-.08-.78a2.34 2.34 0 00-.21-.85l-1 1.08-1.22-1.15-.65.54c-.79-.28-1.52-.57-2.29-.77a1.83 1.83 0 01-1.27-.93 4.43 4.43 0 00-.41-.57l-.78 1.31c-.47-.1-.91-.2-1.36-.28a.62.62 0 00-.33 0 10.23 10.23 0 00-2.64 1.17 1.5 1.5 0 01-.69.27c-.36.05-.72.13-1.08.19a.56.56 0 00-.38.21c-.19.22-.39.43-.58.64a7.14 7.14 0 00-.94 1.42c.56 0 1-.07 1.51-.12a2 2 0 00.57-.17l1.46-.62a.76.76 0 01.28-.09c.39 0 .78-.06 1.17-.08a6.28 6.28 0 01.75 0c.47 0 .93.07 1.39.11a12 12 0 013 .52l.72.23-1 .9v.06l1.56-.41c-.32.21-.66.34-1 .52a2.69 2.69 0 01-1.24.26c-1 0-2.07.06-3.1.08a12.73 12.73 0 00-3.68.57.5.5 0 00-.27.17 5.68 5.68 0 00-.26.6H39.21a1.73 1.73 0 01.87.19.67.67 0 00.39.1l1.84-.18h.35l.38.77-1.19.5a3 3 0 00-1.3.64h1.74l-.23.74a4.37 4.37 0 00.67-.46c.54-.43 1.05-.9 1.62-1.29a11.5 11.5 0 012.83-1.46 1.18 1.18 0 00.93-.99zM68.64 53.44a2.25 2.25 0 011.08-1 5 5 0 01-1.81-.14 6.44 6.44 0 00-.85-.18 11.33 11.33 0 00-2.66-.33h-3.79a.45.45 0 01-.26-.05c-.46-.27-.91-.56-1.42-.89.23-.14.39-.26.58-.35.39-.18.78-.35 1.18-.51a2.82 2.82 0 01.57-.15l2.54-.37a5.32 5.32 0 011.49-.16 19.09 19.09 0 012.38.41.87.87 0 01.34.15 6.33 6.33 0 01.7.44 2.07 2.07 0 001.39.27c0-.17.06-.32.08-.47a.36.36 0 00-.21-.42c-.26-.14-.5-.3-.75-.45-.61-.35-1.21-.71-1.83-1a6.6 6.6 0 00-2.22-.69c-.22 0-.44-.09-.67-.12a.48.48 0 01-.37-.27c-.11-.22-.25-.43-.36-.62l-.87.76a.37.37 0 01-.39 0 2.41 2.41 0 00-1.48 0 2 2 0 01-.26.05 15 15 0 00-2.73.55 2.57 2.57 0 01-.33.05c-.2-.62-.76-.78-1.32-1.06V48.74a.52.52 0 01-.23.48l-.58.34c-.1.06-.21.1-.33.16.19.43.37.83.59 1.3l-1.11-.28c.18.38.33.68.45 1a.84.84 0 00.33.39c.87.58 1.72 1.17 2.59 1.74a13.12 13.12 0 001.4.82c.62.29 1.28.53 1.92.77a1.53 1.53 0 00.52.08l1.24-.09.56-.06.08-.74a3.34 3.34 0 00-.33-.07c-.56-.07-1.12-.17-1.68-.21a1.39 1.39 0 01-.9-.53 17.6 17.6 0 003.61.55 5.59 5.59 0 00-.56-.12L62.32 54a.52.52 0 01-.44-.3H63v-.06l-1.77-.25a.69.69 0 01.48-.3c.61-.08 1.22-.19 1.83-.21a11.86 11.86 0 011.58.08 19.1 19.1 0 013.28.49.68.68 0 00.24-.01z"/><path d="M54.77 91.76a1.52 1.52 0 01-1.56-.35 3.3 3.3 0 01-.3-.22.39.39 0 00-.51 0c-.39.2-.8.38-1.2.55a.73.73 0 01-.32.09c-.38 0-.76 0-1.13-.06a.61.61 0 01-.28-.11l-1.29-.77a.83.83 0 01-.22-.2c-.14-.15-.27-.32-.41-.48a6.19 6.19 0 01-1.39-2q-.12-.28-.27-.57l-1.76-3.08a1.39 1.39 0 00-.15-.19 3.09 3.09 0 00.12.62 15.54 15.54 0 001.06 3.1 2.15 2.15 0 00.14.26 13.8 13.8 0 002.44 2.57c.93.74 1.94 1.38 2.92 2a.58.58 0 00.31.11 15 15 0 003.28-.16c.42-.1.84-.17 1.35-.27l-.4-.2c.22-.3.6-.44.84-.8l-.67.08zM48.69 62.51a3.67 3.67 0 002.74.54l-.89-.74v.5a1.48 1.48 0 01-.26-.16l-1-.81a2.51 2.51 0 00-1.54-.71l-1.59-.33-.57.74 2.43 1.53zM55.85 60.83c-.53.18-1 .37-1.56.57l-.26.11a8.83 8.83 0 001.63-.06.48.48 0 01.43.15l.78.72.79-.7v-.08c-.47-.25-.93-.49-1.41-.72a.53.53 0 00-.4.01zM37.68 55.34a11.86 11.86 0 004.25-.75 23.5 23.5 0 00-4.25.75zM37.79 54.41l-1.88.59c.19.18.34.23.54.12s.47-.22.71-.33l.66-.32z"/><path d="M106.1 53.05a52.85 52.85 0 00-4.61-21.65c0-.12 0-.26-.1-.37l-.09-.2c.17 0 .21-.17.23-.31a3.16 3.16 0 000-.43 4.23 4.23 0 00-.54-.3.52.52 0 00-.21 0c-.17-.35-.34-.69-.52-1l-.06-.06a53.05 53.05 0 10-47.15 77.37h1.83a.86.86 0 00.39 0 .18.18 0 00.09 0 53.05 53.05 0 0050.74-53.05zm-6 12.37c0-.27-.13-.53-.18-.79a1.69 1.69 0 010-.59c0-.22-.19-.29-.17-.52a2.42 2.42 0 00-.25-.79.43.43 0 010-.25 4.74 4.74 0 01.91-2v-.08h-.23c0-.12.14-.21.2-.2.26.07.35-.12.49-.27l.55-.59a2.45 2.45 0 01.37-.41 4.22 4.22 0 01.65-.3l.32.15a49.79 49.79 0 01-2 9.53c-.16-.43-.3-.85-.47-1.25a.43.43 0 010-.44c0-.07.08-.12.1-.15-.19-.35-.25-.7-.32-1.05zM98 31.08l.18.37h-.05c-.13-.12-.27-.22-.13-.37zm1.09 2.39l-.26-.18.11-.16zm-.41 2.16l-.22.07c-.22-.35-.21-.34 0-.63a2.21 2.21 0 00.39-.66.92.92 0 01.36-.58A48.73 48.73 0 01101 39a1.69 1.69 0 00-1-.74c-.14 0-.26-.15-.42-.07a.4.4 0 00-.36-.36c-.16 0-.37 0-.45-.15a1.1 1.1 0 00-.62-.34c.12-.16.3-.3.32-.46a4 4 0 01.15-.52.75.75 0 00.03-.73zm4.22 20.22a.6.6 0 00-.63-.12.34.34 0 01-.28 0c-.32-.2-.63-.43-.94-.65-.06 0-.15-.14-.14-.2 0-.21-.11-.34-.25-.5.25-.34.74-.36 1-.68-.09-.16-.31-.27-.22-.45a3.52 3.52 0 01.85-.57c.13 0 .2.23.38.16v-.28c.26.08.37.12.4.22v.31c0 1 0 1.9-.08 2.85zm-.12-8.2l-.12-.46a.66.66 0 00-.49-.59v-.08l.14-.25a.64.64 0 01-.12-.89 1.14 1.14 0 00.33-.07q.11 1.17.23 2.34zm-8.15-22.37a1.14 1.14 0 01-.62-.41l-.09.27a1.19 1.19 0 01-.16-.22c-.12-.29-.21-.33-.5-.32a2.28 2.28 0 01-.94-.06.46.46 0 00-.47 0 .86.86 0 01-.46-.61s-.06-.07-.1-.1a5.24 5.24 0 01-.5-.44.63.63 0 00-.49-.31c-.07-.15-.09-.29-.18-.35a.88.88 0 01-.38-.61c-.16.07-.25.24-.49.17l.4-.47a1.54 1.54 0 01-.15-.34 7.29 7.29 0 00-.39-2.06.87.87 0 01-.06-.32c0-.31-.17-.44-.41-.55a.75.75 0 01-.24-.1c-.07-.05-.15-.16-.13-.2s-.06-.23-.16-.33a.85.85 0 00.46-.05 49.59 49.59 0 016.06 7.41zm-6.8-8.14a.31.31 0 01-.23.21.4.4 0 00-.23.19c-.07.2-.22.23-.4.27s-.11.08-.17.13l.22.14c-.1.14-.19.05-.28.05s-.17.09-.27.13v-.2a1.3 1.3 0 01-.31-.22c-.18-.2-.32-.43-.48-.64a.64.64 0 00-.52-.59s-.14-.09-.13-.14-.08-.16-.17-.2-.34-.12-.39-.32a.17.17 0 00-.14-.1c-.13 0-.14-.11-.2-.19-.22-.31-.38-.72-.91-.6-.09 0-.19 0-.29-.05a.79.79 0 00-.34 0 .76.76 0 01-.67-.14l-.38-.25c-.33-.22-.33-.21-.68-.12v-.25c-.27-.21-.51-.4-.76-.57a1.55 1.55 0 00-.49-.29c-.32-.07-.4-.34-.56-.55a.21.21 0 010-.14c0-.11.07-.22.11-.35h.31l-.69-.65c-.22-.2-.55-.26-.7-.54l.45-.5c-.1 0-.19-.13-.24-.12a.31.31 0 01-.41-.15.59.59 0 00-.24-.17 6.71 6.71 0 00-.75-.27 3.12 3.12 0 00-.57-.06 2.91 2.91 0 00-.72-1.05c-.38.21-.76.42-1.13.66a.62.62 0 00-.21.29.46.46 0 01-.38.28c-.1-.25.2-.2.22-.34-.21-.31-.42-.31-.7 0-.16-.12-.31-.27-.54-.19a.07.07 0 01-.07 0c-.14-.18-.37-.16-.54-.17-.52 0-1.07 0-1.42.5a.3.3 0 01-.28.07 3.82 3.82 0 01-.55-.56 2.65 2.65 0 00-1.22-1 .36.36 0 01-.16-.14c-.08-.09-.15-.2-.24-.31l-.58.2c0 .18.3.31 0 .45a1.4 1.4 0 00-.21-.34 6.55 6.55 0 00-.85-.73.94.94 0 01-.36-1 .47.47 0 00-.07-.36c.42 0 .48-.35.68-.54l-.08-.29h.51a1.5 1.5 0 01-.15-.23A50.9 50.9 0 0172.51 7a50 50 0 0115.32 10.14zm-13.07-6.49v-.2zM66.1 72.11c-.06-.62-.15-1.23-.21-1.85a8.86 8.86 0 00-.42-1.61 30 30 0 00-1.55-3.87c-.47-1.07-1-2.11-1.58-3.13a25.4 25.4 0 00-2.44-3.49c-.61-.74-1.2-1.5-1.8-2.25l-.23-.27-.79.23c.16.29.29.53.44.78.62 1 1.26 2.08 1.88 3.14.32.54.6 1.11.89 1.68a10 10 0 001.09 1.86 12.54 12.54 0 011.75 3.24c.54 1.35 1.12 2.68 1.65 4a8.89 8.89 0 01.27 1.16 13.17 13.17 0 01.22 3.81c-.08 1.3-.15 2.59-.13 3.9v2.08a1.83 1.83 0 01-.09.39s0 .09-.07.13c-.44.91-.44.59-.2 1.54a1.26 1.26 0 010 .72 9.39 9.39 0 01-1.25 2.54 1.13 1.13 0 00-.18.59 6.48 6.48 0 01-.8 2.65c-.47 1-1 1.94-1.48 2.93-.26.53-.46 1.1-.69 1.65s-.36.84-.55 1.26a.63.63 0 01-.24.27c-.44.29-.89.56-1.34.84a.51.51 0 01-.53 0c-.27-.11-.56-.2-.87-.3-.16.24-.3.47-.47.72l-1-.18c-.14 0-.18-.12-.21-.24s-.09-.3-.14-.5c-.31.25-.6.45-.85.68a.64.64 0 01-.68.18c-.37-.11-.77-.14-1.15-.23a2.72 2.72 0 00-1.33.1 1.31 1.31 0 01-1-.13 18.13 18.13 0 00-1.67-.79 3.44 3.44 0 01-1.38-1.06l-.07-.09a3.17 3.17 0 01-1-1.7A31.91 31.91 0 0043.93 89a49.47 49.47 0 01-2.12-5 40.44 40.44 0 01-1.48-5.38 29.26 29.26 0 01-.41-3 8.43 8.43 0 01-.12-1.33 21.47 21.47 0 01.31-3.39c0-.15 0-.3.07-.44a5.43 5.43 0 01.45-1.57 14 14 0 00.9-2.6 8 8 0 01.88-2c.54-1 1.2-2 1.81-3a4.28 4.28 0 00.39-.84c.29-.9.56-1.8.86-2.7a1.59 1.59 0 01.35-.52c.38-.43.77-.85 1.16-1.26a.49.49 0 00.14-.57 5.64 5.64 0 01-.22-.75c-.63.45-1.23.85-1.78 1.3a6.14 6.14 0 00-.68.83A20.84 20.84 0 0042.29 60a1.62 1.62 0 00-.11.28c-.07.28-.15.55-.21.83a14.24 14.24 0 01-.72 2.27c-.27.63-.5 1.27-.71 1.92a7 7 0 01-.8 1.68 6.17 6.17 0 00-.74 2.56c-.09.52-.15 1-.21 1.58v.52a16 16 0 00.55 4.82c.29 1.24.53 2.49.71 3.76.07.5.09 1 .15 1.51a2.63 2.63 0 00.13.62c.17.52.37 1.05.55 1.58 0 .13.09.28.14.46l-.76.23-.79.22c-.16-.37-.33-.71-.48-1.07-.48-1.14-1-2.28-1.46-3.43a2.55 2.55 0 00-.27-.48l-3.32-4.29a1.38 1.38 0 01-.17-.25 25.05 25.05 0 01-1.43-2.95c-.11-.32-.2-.64-.34-1a3.09 3.09 0 01-.16-1.75c.22-1.53.48-3.06.71-4.59a21.42 21.42 0 01.45-2.2 3 3 0 000-1.07 9.19 9.19 0 01.32-3.34c.12-.55.22-1.09.34-1.64a.81.81 0 00-.09-.57c-.26-.58-.54-1.15-.79-1.73a2 2 0 01-.15-.64 10.7 10.7 0 01.44-3.84 14.83 14.83 0 00.44-2 19.5 19.5 0 01.81-2.7 6.83 6.83 0 01.62-1.31A29.11 29.11 0 0138.61 39c1.09-1.24 2.2-2.45 3.31-3.67a1.11 1.11 0 01.3-.22c.67-.39 1.34-.78 2-1.16a4.26 4.26 0 01.7-.28c.57-.2 1.14-.41 1.72-.58a1.64 1.64 0 01.66-.08c.89.07 1.78.19 2.67.25s1.66.08 2.49.11h1.81a24 24 0 002.82-.24h2.04a8.65 8.65 0 011.6.2 9.5 9.5 0 013.18 1.24c.23.15.48.27.72.41a2.87 2.87 0 01.44.34c.59.61 1.19 1.22 1.76 1.85a4.54 4.54 0 01.49.79c.29.5.59 1 .84 1.53s.46 1.08.66 1.63c.34.95.66 1.92 1 2.88a9.35 9.35 0 00.46 1 19.88 19.88 0 011.37 3c.58 1.75 1.14 3.49 1.59 5.27a1.14 1.14 0 010 .55c-.19.67-.4 1.33-.6 2a1.91 1.91 0 00-.06.33v.22a8.63 8.63 0 00.42 3.22 16.33 16.33 0 01.44 2A9 9 0 0074 63.4a4.57 4.57 0 01.38 2v2.49a17.72 17.72 0 01-.3 1.87 26.5 26.5 0 01-2.22 6.81 65.72 65.72 0 00-1.85 4.31c-.38 1-.85 1.86-1.26 2.78-.26.57-.51 1.14-.74 1.72a.43.43 0 01-.38.29c-.45.07-.89.17-1.34.25a1.76 1.76 0 01-.23 0 2.6 2.6 0 010-.26v-6.29c0-.69.08-1.39.13-2.08.06-.86.18-1.72.18-2.59s-.19-1.7-.27-2.59zm-13-69a50.8 50.8 0 019 .8l-.31.09-.41.29a1.65 1.65 0 00-.31.2c-.21.25-.42.52-.61.79a.64.64 0 00-.06.31c0 .21 0 .43-.08.68-.23 0-.39-.09-.56-.11a4.68 4.68 0 00-.54 0l-.22.31-.56-.18a2.82 2.82 0 00-.68 1.21.38.38 0 01-.39.27c-.08-.12-.13-.3-.21-.31-.29 0-.33-.3-.54-.43l.27-.34a.29.29 0 00-.07-.12.67.67 0 00-.14-.09c.16-.37.07-.5-.43-.58l-.25.21c-.19-.32-.21-.32-.56 0-.16-.08-.31-.23-.48-.24a1.55 1.55 0 00-.56.13c-.25.07-.31.06-.43-.16a.43.43 0 00-.44-.27l-.13.26-.22-.34h-.33c-.07.44-.12.87-.21 1.29a1.1 1.1 0 000 .51 1.34 1.34 0 01-.09 1 1.25 1.25 0 00-.22.73c0 .15 0 .35-.09.42a1.84 1.84 0 00-.46 1 2 2 0 01-.48.78c-.14-.11-.3-.16-.2-.36 0 0 0-.1-.05-.13-.26-.24-.31-.6-.49-.88a.35.35 0 01-.06-.17 3.12 3.12 0 00-.14-1.09.61.61 0 01-.06-.39c.09-.26-.06-.38-.23-.5v-.06h.24l-.21-.5a6.26 6.26 0 00-.75 0 .9.9 0 00-.4.18 2.62 2.62 0 00-.55.43c-.14.17-.42.23-.37.59-.15-.16-.24-.26-.32-.36s0-.11-.09-.16a2.16 2.16 0 00-.29-.43c-.27-.29-.4-.27-.65 0a.73.73 0 01-.13.1l-.26-.26c-.19.06-.4 0-.55.08a1 1 0 01-.88-.08 3.37 3.37 0 000-.55.36.36 0 00-.17-.25.34.34 0 01-.2-.45s0-.11-.05-.17l-.08.24c-.24.07-.33-.13-.39-.25s-.15-.33-.4-.29h-.06a2.38 2.38 0 00-1.06-.27c-.07.12-.1.25-.16.27a.77.77 0 00-.47.46l-.45.82c-.17-.19-.37-.28-.37-.55l-.2-.2-.8 1.25h.07c.17 0 .33.07.39.27s.11.13.18.18l.48.41h.07l.1-.2c.34.05.18.24.13.38l.24.15c-.13.16-.2.34-.46.26-.05 0-.14 0-.2.07l-.35.19c-.06-.23-.14-.33-.37-.32s-.7-.06-1.05-.07a2.79 2.79 0 00-.47 0l-.12-.07a2.1 2.1 0 01-.22.2c-.19-.12-.3.1-.49.07l-.08-1-.37.21a1.35 1.35 0 00-.89-.6.38.38 0 01-.21-.13v-.24c-.21 0-.44-.13-.56.18h-.3c-.09 0-.17.09-.26 0s-.09 0-.13 0l-.27.07a2.28 2.28 0 00-1 .47l.2.25a4.31 4.31 0 00-1 1.38c-.06.14-.15.21-.29.13a2.24 2.24 0 00-.89-.1c-.13 0-.2.06-.25.18a.68.68 0 01-.38.46 1.85 1.85 0 00-.7.58c-.1 0-.25 0-.32-.1s-.31-.11-.48-.05l-.51.18v-.08l.28-.34c-.07-.06-.17-.18-.21-.16a2.92 2.92 0 00-.47.25l-.52-.16v-.18c-.33 0-.33 0-.47.3h-.23c-.05.27 0 .6-.33.69l-.17-.38-.11.38-.29-.32-.17.14.46.67c.16.21.46.32.42.67a.23.23 0 01-.28.06.94.94 0 00-.47 0 1.46 1.46 0 00-.33.22l-.35-.16-.1.05c.22.3-.09.67.29 1a1.26 1.26 0 01-.4.08.44.44 0 00-.46.18 1.45 1.45 0 01-.72.07.44.44 0 00-.5.22s-.06 0-.09.06l-.16-.31-.3.09c.2.23-.19.47.11.67-.16.09-.25.08-.32-.08s-.14-.34-.35-.39v-.07l.09-.06.06-.07a.59.59 0 00-.42-.44A49.75 49.75 0 0153.05 3.06zM25.28 14.83L25 15l.17.18a.85.85 0 01-.79.41 2.73 2.73 0 00-.49.06c-.2 0-.39.15-.61 0-.05 0-.18.06-.25.12l-.68.58-.29-.09-.07.4a.42.42 0 01-.26-.48c-.37-.07-.37-.07-.27-.35.11 0 .24.06.32 0s.32 0 .43.14.08 0 .16.06l-.09-.33a.45.45 0 00.54-.15l-.47-.44c-.12.07-.29.13-.44.23-.4.26-.45.26-.81-.09a1.66 1.66 0 00-.24-.16.62.62 0 00-.06.14c.08.3.16.59.25.88s0 .43-.24.5-.31-.07-.41-.19-.37-.48-.56-.73h-.09q1.13-1 2.31-2a3.44 3.44 0 00.5.74c.17-.13.31-.08.48 0a.69.69 0 00.4.14 1.75 1.75 0 00.59-.22c.19-.09.47 0 .53-.32l.28.23a.59.59 0 01.88.41c-.13.09-.24.07-.3-.08a.18.18 0 00-.24-.11v.05zm-10.06 9v.13-.13zm-.29-2.14c-.27-.07-.37 0-.31.26a.77.77 0 00-.86.32.6.6 0 01-.4.43h-.06c.47-.61.95-1.21 1.45-1.8.06.27.12.52.18.79zm-6.69 10a.28.28 0 00.23 0 .28.28 0 01.37.08c.09.12 0 .24-.11.31L8 32.5l-.63.44.65 1-.51.32c0 .12 0 .24.2.23h.09c.06.17.11.33.16.5s0 .13.08.15 0 .3.25.3c0 0 0 .18.07.25.24.29.24.29 0 .63l-.29-.08a2.33 2.33 0 00.42 1.53l-.49.42a.6.6 0 01-.16.08c-.24.1-.52.13-.67.39 0 0-.11 0-.16.06-.38.21-.85.25-1.08.7-.15.29-.42.52-.6.81s-.29.59-.44.88a4.3 4.3 0 00-.27.52v.46c0 .13-.22.21-.33.31l-.07.13a49.22 49.22 0 012.82-9c.29-.69.6-1.37.92-2a.75.75 0 01.28.11zM4 45.66c.19.17.38.36.66.3a.67.67 0 01-.1.91l.15.3c-.51.13-.54.54-.62.92a2.46 2.46 0 01-.07.29 15.54 15.54 0 01-.47 1.51c-.17.37-.28.76-.46 1.12a52.9 52.9 0 01.54-5.66zm-.94 8.28h.14l.57-.24c-.07-.4-.07-.4.39-.51v.33l.37-.23a5 5 0 01.88.61l-.24.43c.26.32.75.32 1 .64-.08.17-.2.3-.2.43a.38.38 0 01-.2.33c-.28.21-.58.41-.88.6a.33.33 0 01-.27 0 .69.69 0 00-.76.19l-.65.48c-.08-1-.13-2-.14-3.06zm10.1-30.8c.48.58.84 1.27 1.6 1.61-.14.2-.24.45-.57.36h-.22a1.22 1.22 0 01-.54.05.29.29 0 00-.35.26.36.36 0 01-.27.3l-.07-.2c-.12.09-.2.21-.31.24a1.92 1.92 0 00-.95.46.18.18 0 01-.17 0c-.23-.11-.38 0-.52.15h-.08c.76-1.2 1.56-2.36 2.41-3.48a.19.19 0 00.05.25zm9.4-9.49l-.22-.06.17-.13zM17.7 88.4a49.75 49.75 0 01-14.25-29h.18c.23-.28.3 0 .44.1l.36-.16c.23.1.44.18.63.28a.55.55 0 01.12.14 1.9 1.9 0 00.19.21 3.74 3.74 0 01.65.67c.1.17.23.33.48.27s.18.08.2.21h-.35a3.77 3.77 0 01.9 1.61 1.84 1.84 0 01.12.61 1.39 1.39 0 01-.14.42 1.87 1.87 0 00-.14.44c0 .14 0 .27-.14.34v.1a4.66 4.66 0 01-.22 1.57c-.07.32-.12.65-.19 1a.41.41 0 01.13.54c-.2.48-.38 1-.59 1.52l.36.06-.06.21c.22.09.5.1.54.39l.56-.3c.36.17.24.55.42.79h.22l.34.62c-.33.07-.5.24-.47.57 0 .15.09.19.24.17l.24-.43h.07v.42a.36.36 0 01.29.35.13.13 0 00.08.1c.27.13.25.36.21.64l.58-.11a.74.74 0 01.85.25s-.06.08-.1.1a.41.41 0 00-.19.51 3.11 3.11 0 01.08.44c0 .14 0 .29.05.43s0 .42.09.62a6 6 0 00.2.6c.09.25.19.5.3.78.07-.07.14-.11.14-.16s0-.26.2-.26a1.37 1.37 0 01.36.17h.22c.25.54.75.5 1.22.53.22-.31-.22-.38-.22-.61l.38-.21c-.24-.11-.55 0-.6-.31.14-.28.18.12.33 0l.15-.16-.31-.18.39-.33c.09.12.2.19.23.28.13.44.39.82.54 1.25.28.83.66 1.63 1 2.43a.79.79 0 00.63.52c.08.13.12.26.22.32a.82.82 0 01.43.48c0 .07.09.12.14.17.37.32.73.63 1.11.94.19.16.4.3.41.56a3.06 3.06 0 011.38.66v.08l-.84-.43c-.25.25-.25.25-.11.5s.26.49.39.73a1 1 0 00.56.52.43.43 0 01.2.15c.14.3.52.28.7.52h.14c.05 0 .11.26.17.38a.32.32 0 00.33.2l.72-.06.5-.94c.05 0 .17.1.18.17 0 .26.18.52 0 .77a1.2 1.2 0 01.24.27 5.78 5.78 0 01.31.72c.29.77.57 1.55.86 2.33a.68.68 0 00.18.23 3.21 3.21 0 00.48.42c.21.14.38.41.71.28a.19.19 0 01.17.06c.16.3.49.37.76.51a4.7 4.7 0 00.87.36c.31.1.64.14.95.23a1.32 1.32 0 001.2-.27.39.39 0 01.48 0 2.89 2.89 0 00.54.21c.12-.44 0-.86.12-1.26.21.08.2.25.22.41s.15.39.45.3c.48-.13 1-.26 1.44-.43A1.22 1.22 0 0033 89a1 1 0 01.51-.4c.14.1.12.35.38.32a3.39 3.39 0 01.78 0c.34 0 .67.11 1 .16a1.51 1.51 0 00.42-.11.39.39 0 01.54.09 4.21 4.21 0 00.54.5 1.27 1.27 0 01.55.68 2.12 2.12 0 01.17 1 1.35 1.35 0 00.25.88 2 2 0 01.44 1.13 1.89 1.89 0 00.34 1.08 1.72 1.72 0 01.23.62 2 2 0 00.35 1 3.5 3.5 0 01.28.71 1 1 0 011 1.09l.19.08a1 1 0 01.75.76.23.23 0 00.09.14 1.31 1.31 0 01.61.68 5.3 5.3 0 00.52.75s.08.16.15.2a2.28 2.28 0 01.7 1 .51.51 0 00.54.31h1a.77.77 0 01.81.48 1.14 1.14 0 01.15.34.38.38 0 00.09.19A49.69 49.69 0 0117.7 88.4zm54.81 10.72a50.32 50.32 0 01-9.77 3l.06-.08a1.1 1.1 0 01.64-.56 3.66 3.66 0 00.17-.67 1 1 0 01.63-.89l.22-.12a1.17 1.17 0 01.33-.9.7.7 0 00.21-.6 1 1 0 01.4-.88.38.38 0 00.14-.17 1.15 1.15 0 01.44-.68.17.17 0 000-.13 1.19 1.19 0 01.68-1 .35.35 0 00.22-.36 1.23 1.23 0 01.32-.89 2 2 0 00.18-.32 3.29 3.29 0 00.27-.57 2.51 2.51 0 01.65-1v-.1a1.38 1.38 0 01.8-.84.8.8 0 00.19-.13l.92-.75s.06.16.11.16c.33 0 .63.26 1 0a2.59 2.59 0 011.66-.42h.49a1.84 1.84 0 001.28-.36h.06a.53.53 0 01.81.45v.2l.18-.08a13.5 13.5 0 011.34-.75.51.51 0 01.52 0 1.18 1.18 0 001.08.14 4.2 4.2 0 01.7-.17 3.67 3.67 0 001.29-.49c.23-.12.51-.17.65-.43 0-.05.18-.11.22-.08.2.1.32 0 .44-.11s.54-.43.81-.66c0 0 .07-.13.1-.19.2-.54.41-1.07.6-1.61a9.59 9.59 0 00.83-2.73l.57-.16.14-.3a1.66 1.66 0 00.47.22.63.63 0 00.54-.28c.28-.3.57-.58.88-.86a5.81 5.81 0 01.57-.4l.68-.39a9.07 9.07 0 001.49-1.12c.22-.21.51-.38.63-.63s.58-.37.63-.73h.08a1 1 0 00.57-.55c.25-.56.49-1.11.73-1.67a7.09 7.09 0 00.35-1 5 5 0 01.52-1.07c0-.06.14-.09.23-.14l.33.32-.33.15.24.21c.09 0 .09-.24.24-.11s0 0 0 .08l-.18.21c-.12 0-.28-.1-.39.1l.35.18c0 .23-.45.3-.23.6.5 0 1 0 1.24-.53.15 0 .27.14.38-.08s.31-.07.36.11 0 .2.19.21c.18-.53.37-1.06.55-1.6a.36.36 0 000-.18 1.85 1.85 0 01.08-.77c.09-.32.16-.66-.24-.86.21-.35.52-.33.83-.27l.61.1c-.08-.3-.06-.5.19-.63 0 0 .08 0 .08-.07 0-.28.24-.31.37-.45-.06-.2-.06-.2 0-.36a1.43 1.43 0 00.16.3.31.31 0 00.2.11s.1-.11.1-.17c.06-.31-.12-.5-.46-.61a1 1 0 00.36-.61c.23.21-.11.42.06.61.14-.09.12-.22.15-.34.08-.35.08-.73.43-1l.54.28c0-.31.37-.27.54-.41l-.07-.18h.21c-.43 1.32-.92 2.63-1.46 3.92a50.25 50.25 0 01-26.38 26.59zM188.41 92.98h63.65l3.22-12.02h-63.65l-3.22 12.02zM266.34 24.75h-55.65l-3.22 12.02h55.65l3.22-12.02zM301.25 64.72h-25.43l-7.56 28.19h25.43l5.9-22h2.25l-5.9 22h10.82l5.9-22 1.65-6.19h-13.06zm-16.72 22h-3.79L285 70.91h3.79zM455.23 18.61l-15.37-5.25-3.18 10.93L452 29.53l3.23-10.92zM449.88 38.59l-15.37-5.25-3.18 10.94 15.32 5.23 3.23-10.92zM432.59 59.91l-16.95 32.17 10.84.31 16.98-32.23-10.87-.25zM487.1 21.86l13.79-2.39L499 9.51 461.61 16l1.8 10 12.35-2.14-3.06 11.4h-16.1l-2.07 7.72h16.1l-3.42 12.77h-13.85l-1.12 4.2h-.14l-8.71 32.51h38.78l8.18-30.53.54-2 1.12-4.2H478l3.42-12.77h16.11l2.07-7.72h-16.08zm-7.56 40L473 86.24h-17.14l6.53-24.35h17.15zM139.02 19.54h6.83l-4.44 16.6h10.81l4.45-16.6h2.68l1.66-6.18h-20.33l1.61-5.99h-10.82l-6.43 24h10.82l3.16-11.83zM169.85 31.37l3.17-11.83h6.83l-4.45 16.6h10.82l4.45-16.6h2.68l1.65-6.18h-20.32l1.6-5.99h-10.82l-6.43 24h10.82zM182.24 53.07l2.48-9.27 1.66-6.18h-63.66l-1.65 6.18h26.44L145 53.07h-26.37L117 59.25l-2.13 8-1.65 6.18h26.42l-5.14 18.92h10.81l5.08-18.95H166l-5.1 18.95h10.81l5.08-18.95 1.66-6.18h-26.4l2.13-8h26.44l1.66-6.18zm-41 14.15h-15.59l2.14-8h15.58zm30.19-14.15h-15.59l2.48-9.27h15.59z"/><path d="M127.71 92.35l6.49-18.95-28.38 18.95h21.89z"/><path class="a" d="M417.61 27.4c3.51-3.2 4.47-7.94 2.1-10.74s-7.17-2.66-10.87.34zM368.12 21.04h10.46l2.07-7.73h-10.46l1.61-5.99h-10.82l-1.61 5.99h-10.46l-2.07 7.73h21.28zM332.19 65.13l-7.3 27.24h10.82l7.3-27.24h-10.82zM358.36 65.13l-7.3 27.24h10.81l7.3-27.24h-10.81z"/><path class="a" d="M369.51 54.63l1.55-5.78h.06l5.8-21.63h-31.85l-1.66 6.18-4 15.05-.11.4-1.55 5.78h10.5l-10.1 37.74H349l10.11-37.74zM354.27 33.4h10.17l-4 15.05h-10.2zM392.86 48.5l-9.61-3.09-.01.01 9.62 3.09v-.01zM396.59 49.61h-4.21l-1.17 2.68h-.01l-1.53 3.5h5.27l-9.79 36.51h10.82l11.44-42.69h-10.82zM410.84 7.57l-10.86-.25 10.86.25zM401.71 28.37l-.55 1.24-1.66 3.78-.51 1.16h12.46l1.65-6.18h-11.39zM389.86 30.29l.84-1.92h-12.2l-1.66 6.18h11.14l.22-.48 1.66-3.78zM397.84 37.17l-9.64-3.1 9.64 3.1zM379.55 78.82l1.66-3.78-1.66 3.78zM371.56 71.94l-1.66 3.78h.03l1.66-3.77-.03-.01z"/><path class="a" d="M371.59 71.95l-1.66 3.77 9.62 3.1 1.66-3.78-9.62-3.09zM376.23 86.37l1.66-3.78-1.66 3.78zM368.24 79.49l-1.66 3.78.03.01 1.66-3.78-.03-.01z"/><path class="a" d="M368.27 79.5l-1.66 3.78 9.62 3.09 1.66-3.78-9.62-3.09zM367.86 92.44l.42-.25-.53-.02.11.27z"/><path class="a" d="M367.75 92.17l.53.02 4.37-2.66-6.78-2.18 1.88 4.82zM391.54 26.52l-.03-.01-.81 1.86h.03l.81-1.85z"/><path class="a" d="M399.5 33.39l1.66-3.78-9.62-3.09-.81 1.85h-.03l-.84 1.92 9.64 3.1zM381.56 49.19v-.01l-1.66 3.77.03.02 1.65-3.77-.02-.01zM389.55 56.06l.12-.27h-.01l-.11.27z"/><path class="a" d="M381.58 49.2l-1.65 3.77 9.62 3.09.11-.27h.01l1.53-3.5-9.62-3.09zM399.98 7.32h-.04l-.13.3.03.01.14-.31zM409.46 10.72l1.39-3.15h-.01l-1.38 3.15z"/><path class="a" d="M409.46 10.72l1.38-3.15-10.86-.25-.14.31 9.62 3.09zM384.88 41.62l-1.66 3.78.03.01 1.66-3.78-.03-.01zM392.87 48.5l1.66-3.77-.01-.01-1.66 3.78h.01z"/><path class="a" d="M394.52 44.72l-9.61-3.09-1.66 3.78 9.61 3.09 1.66-3.78zM394.83 18.96l-1.66 3.77.03.01 1.66-3.77-.03-.01zM402.82 25.84l1.66-3.78-1.66 3.78zM404.48 22.06l-9.62-3.09-1.66 3.77 9.62 3.1 1.66-3.78zM396.19 40.95l1.66-3.78h-.01l-1.66 3.78h.01zM387.98 34.55l-1.44 3.29.03.01 1.45-3.3h-.04z"/><path class="a" d="M387.98 34.55h.04l-1.45 3.3 9.61 3.1 1.66-3.78-9.64-3.1-.22.48zM406.14 18.28l1.66-3.78-1.66 3.78zM398.18 11.41l-.03-.01-1.66 3.78.03.01 1.66-3.78zM406.14 18.28l1.66-3.78-9.62-3.09-1.66 3.78 9.62 3.09zM386.23 63.61l1.66-3.77v-.01l-1.66 3.78zM378.24 56.73l-1.66 3.78.03.01 1.66-3.78-.03-.01z"/><path class="a" d="M387.89 59.83l-9.62-3.09-1.66 3.78 9.62 3.09 1.66-3.78zM382.87 71.26l1.7-3.87-1.7 3.87zM374.92 64.29l-1.7 3.87.03.01 1.7-3.87-.03-.01z"/><path class="a" d="M374.95 64.3l-1.7 3.87 9.62 3.09 1.7-3.87-9.62-3.09zM389.86 30.29l9.64 3.1-9.64-3.1zM381.58 49.2l.01-.01-.03-.01v.01l.02.01z"/><path class="a" d="M381.59 49.19l-.01.01 9.62 3.09.01-.01-9.62-3.09z"/></svg>