<svg xmlns="http://www.w3.org/2000/svg" width="454" height="113" viewBox="0 0 453.42 116.03"><defs><style>.a{fill:#fff}</style></defs><path class="a" d="M38.21 69l.38-.18.06-1h-.08zM90.46 62.69l.01-.01h-.01v.01zM90 62.84a.78.78 0 00.41.34l.3-.48h-.25c-.09.18-.32-.02-.46.14zM6.24 63.23h.01v-.01h-.01v.01zM6.3 63.73a.58.58 0 00.38-.38c-.14-.11-.34.07-.44-.12H6zM7.29 64.12a.53.53 0 000-.12l-.08-.09.07.2z"/><path class="a" d="M48.59 62.2a3.64 3.64 0 01-1.18-.2c-.32-.11-.65-.2-1-.29a.57.57 0 00-.26 0 6 6 0 00-1 .37 10.66 10.66 0 01-2.32.88 4.7 4.7 0 00-1.44.61 6.73 6.73 0 01-.6.33l-.25-.59a.68.68 0 00-.14.09c-.47.39-1 .77-1.41 1.17a.76.76 0 00-.18.25c-.18.36-.34.73-.53 1.09a1.62 1.62 0 00-.2.87c0 .32 0 .64-.06 1a2 2 0 00.17 1 8.36 8.36 0 01.7 1.82c.08.36.18.72.29 1.07a2.3 2.3 0 00.27.57 8.92 8.92 0 011 1.72c.24.61.53 1.2.78 1.8a.91.91 0 00.32.38c.36.24.7.5 1.06.74a1 1 0 01.42.51c.19.46.38.91.59 1.36a1 1 0 00.27.33c.52.38 1.05.76 1.59 1.12a1.23 1.23 0 00.46.18l1.76.24a1.29 1.29 0 00.34 0l1.73-.38a1.52 1.52 0 00.43-.19c.5-.34 1-.69 1.48-1a1.37 1.37 0 00.25-.23l1.47-2.07.44-.66h.06l-.06 1.41h.07a4.32 4.32 0 00.65-.89c.92-2 1.64-4 2.39-6a1.17 1.17 0 000-.2c.07-.53.16-1.06.21-1.6a1 1 0 00-.08-.51c-.21-.54-.43-1.07-.67-1.59a2.06 2.06 0 00-.33-.5c-.25-.29-.52-.57-.79-.84a8.17 8.17 0 00-1.64-1.46c-.18-.1-.33-.24-.51-.35a6.5 6.5 0 00-2.82-1.12c-.55-.13-1.14-.21-1.73-.24zm-9.3 7.8l-.39.19c.14-.48.26-.89.37-1.3h.08zm13.08 2c0 .51-.12 1-.2 1.53a4.79 4.79 0 01-.21.74q-.33.84-.69 1.68a5.73 5.73 0 00-.4 1.73.84.84 0 01-.14.4c-.19.29-.41.56-.61.85a.38.38 0 01-.33.2c-.29 0-.57 0-.85.07a.36.36 0 01-.34-.12 1.58 1.58 0 01-.72-1.29c0-.33-.11-.64-.17-1a1.49 1.49 0 000-.21 1.06 1.06 0 00-.31.66l-.24 1.51c-.06 0-.11.06-.16.06a1.35 1.35 0 00-.75.28.81.81 0 01-.46.07.92.92 0 01-.92-.76 17.91 17.91 0 01-.58-1.89 12.69 12.69 0 01-.29-2.73c0-.54.06-1.07.09-1.61 0-.21 0-.42.05-.63a.3.3 0 01.08-.21c.36-.38.71-.76 1.08-1.13a1.57 1.57 0 01.4-.2l1-.59.64.81 1-.17a6 6 0 011.52-.16c.35 0 .71 0 1.06.05a.71.71 0 01.63.38c.24.45.49.89.72 1.34a.74.74 0 01.1.34zm.63-8.31a.68.68 0 01.27.18c.08.09.13.2.21.3a.61.61 0 01.11.47 1.56 1.56 0 000 .53c.11.41.23.82.37 1.3l-1.23-.17c-.78-.12-1.55-.28-2.33-.36a6.35 6.35 0 00-1.15.07c-.73 0-1.45.13-2.18.16s-1.39 0-2.09 0h-.47a3.49 3.49 0 00-.65.06 6.82 6.82 0 00-1 .28 4.9 4.9 0 01-1.61.23h-1.08L41.78 64c.27.05.53.09.78.15a.69.69 0 00.49-.06c.28-.15.58-.28.86-.43a1.34 1.34 0 01.78-.16l1.34.06a3.41 3.41 0 001.07-.22l-.16-.2 2-.32s.07.08.08.12a.62.62 0 00.78.42 5.46 5.46 0 01.57 0 8.48 8.48 0 012.63.33zM43.56 47.25a1.94 1.94 0 01.65-1.08c.27-.26.49-.56.76-.82a.57.57 0 00.15-.46c0-.23 0-.47-.07-.7a2.27 2.27 0 00-.19-.77l-.9 1-1.11-1-.59.49c-.71-.25-1.38-.52-2.07-.7A1.63 1.63 0 0139 42.3a2.94 2.94 0 00-.37-.51L38 43c-.43-.09-.83-.18-1.23-.25a.51.51 0 00-.3 0A9.13 9.13 0 0034 43.78a1.43 1.43 0 01-.63.24l-1 .17a.57.57 0 00-.34.2c-.17.2-.35.38-.53.57a7.79 7.79 0 00-.85 1.29c.51 0 .95-.06 1.38-.11a2 2 0 00.48-.14l1.32-.57a1.12 1.12 0 01.26-.08l1.05-.07a5.23 5.23 0 01.68 0c.43 0 .84.06 1.26.1a10.78 10.78 0 012.76.47l.65.2-.87.82 1.4-.37c-.28.19-.59.31-.88.47a2.41 2.41 0 01-1.12.24c-.93 0-1.87.06-2.8.07a11.36 11.36 0 00-3.33.52.4.4 0 00-.24.15 3.82 3.82 0 00-.24.54h3.1a1.55 1.55 0 01.79.17.63.63 0 00.35.09c.56 0 1.11-.11 1.67-.16h.32l.34.7c-.39.12-.79.25-1.18.39a2.59 2.59 0 00-1.19.58h1.58l-.21.66a3.12 3.12 0 00.61-.42c.49-.39 1-.8 1.46-1.16a10.77 10.77 0 012.57-1.32 1.09 1.09 0 00.94-.77zM62.16 48.39a2 2 0 011-1 4.28 4.28 0 01-1.64-.12 5 5 0 00-.77-.16 9.74 9.74 0 00-2.4-.3h-3.42a.56.56 0 01-.23 0c-.42-.25-.83-.52-1.3-.81a5.75 5.75 0 01.53-.32c.35-.16.71-.32 1.07-.46a2.21 2.21 0 01.52-.14l2.3-.33a5.09 5.09 0 011.35-.15 17.24 17.24 0 012.15.37 1.09 1.09 0 01.31.14 4.49 4.49 0 01.63.4 1.94 1.94 0 001.26.25c0-.16 0-.3.07-.43a.33.33 0 00-.19-.39c-.23-.12-.45-.27-.67-.4-.55-.32-1.1-.64-1.66-.94A6 6 0 0059 43c-.21 0-.4-.09-.61-.12a.43.43 0 01-.34-.24c-.1-.2-.22-.39-.32-.56l-.79.69a.32.32 0 01-.35 0 2.19 2.19 0 00-1.34 0h-.24a13.87 13.87 0 00-2.47.5 2.18 2.18 0 01-.29.05c-.19-.56-.7-.71-1.2-1V44a.48.48 0 01-.21.43l-.52.31-.31.14c.18.39.34.75.54 1.17l-1-.24c.16.34.29.61.41.89a.78.78 0 00.29.36l2.35 1.57a10.65 10.65 0 001.26.74c.56.27 1.16.48 1.74.7a1.49 1.49 0 00.47.07l1.12-.08.52-.05.06-.67-.29-.07c-.51-.06-1-.15-1.53-.19a1.22 1.22 0 01-.81-.48 15.68 15.68 0 003.26.5l-.4.03-1.52-.26a.47.47 0 01-.4-.28h1l-1.61-.24a.68.68 0 01.43-.35c.55-.07 1.11-.16 1.66-.19a9.72 9.72 0 011.43.08 17.45 17.45 0 013 .44.62.62 0 00.17.06z"/><path class="a" d="M49.6 83.09a1.37 1.37 0 01-1.42-.32 2.69 2.69 0 01-.27-.2.38.38 0 00-.47 0c-.35.19-.71.34-1.08.51a.73.73 0 01-.29.07h-1a.46.46 0 01-.25-.1c-.39-.23-.79-.46-1.17-.7a.67.67 0 01-.2-.17c-.13-.15-.25-.3-.38-.44a6 6 0 01-1.26-1.78 3.08 3.08 0 00-.24-.52L40 76.55a1.15 1.15 0 00-.14-.17 3.27 3.27 0 00.11.56 13.82 13.82 0 001 2.8c0 .08.08.16.13.24a12.44 12.44 0 002.2 2.33c.85.67 1.76 1.24 2.65 1.85a.5.5 0 00.28.1 14.06 14.06 0 003-.14c.38-.1.77-.16 1.22-.24L50 83.7c.2-.28.54-.41.76-.73l-.6.07c-.16.02-.38.02-.56.05zM44.08 56.6a3.37 3.37 0 002.49.49l-.81-.67v.46a2.08 2.08 0 01-.24-.15l-.98-.73a2.26 2.26 0 00-1.39-.65l-1.44-.3-.52.67 2.2 1.39zM50.57 55.08c-.48.16-1 .34-1.41.51l-.23.11a9 9 0 001.47-.06.41.41 0 01.38.14c.23.22.47.42.71.65l.72-.63s0-.07-.05-.08c-.42-.22-.84-.45-1.27-.65a.44.44 0 00-.32.01zM34.12 50.11a10.72 10.72 0 003.88-.68 20.88 20.88 0 00-3.88.68zM34.22 49.26l-1.7.54c.17.16.3.21.49.11s.42-.2.64-.3l.59-.29z"/><path class="a" d="M96.07 48a47.87 47.87 0 00-4.17-19.57.38.38 0 00-.09-.33.89.89 0 00-.08-.17.32.32 0 00.21-.29 2.54 2.54 0 000-.39 3.38 3.38 0 00-.48-.27.46.46 0 00-.19 0l-.52-.98h-.01A48 48 0 1048 96.07h1.65a.83.83 0 00.35 0 .18.18 0 00.09 0A48 48 0 0096.07 48zm-5.46 11.23c0-.24-.12-.47-.16-.71a1.41 1.41 0 010-.54c0-.19-.17-.26-.16-.47s-.15-.47-.22-.71a.36.36 0 010-.23 4.22 4.22 0 01.83-1.78v-.07h-.21c0-.1.12-.19.18-.17.23.06.32-.12.44-.25l.5-.54a1.91 1.91 0 01.33-.36 4.53 4.53 0 01.59-.28l.29.14a43.82 43.82 0 01-1.86 8.63c-.14-.39-.26-.77-.42-1.13a.41.41 0 010-.4 1.16 1.16 0 01.09-.14c-.1-.35-.15-.67-.22-.99zm-1.9-31.08c.05.12.11.23.16.34-.15-.12-.26-.21-.16-.34zm1 2.16l-.24-.17.1-.15c.04.11.09.21.13.32zm-.37 1.95l-.2.07c-.21-.32-.19-.31 0-.57a2.14 2.14 0 00.35-.6.89.89 0 01.34-.53 46.42 46.42 0 011.65 4.68 1.53 1.53 0 00-.88-.67c-.13 0-.23-.14-.38-.07a.36.36 0 00-.32-.33c-.15 0-.34 0-.41-.13a1 1 0 00-.57-.31c.11-.14.28-.27.3-.41a2.15 2.15 0 01.14-.47.72.72 0 00-.03-.66zm3.82 18.31a.54.54 0 00-.57-.11.34.34 0 01-.26 0c-.29-.19-.57-.39-.85-.59-.06-.05-.14-.13-.13-.18 0-.2-.1-.31-.22-.46.23-.31.67-.32.91-.61-.08-.15-.28-.24-.2-.41a3.37 3.37 0 01.77-.52c.12 0 .18.21.35.15v-.26c.25.08.34.11.37.2v.28c0 .87 0 1.73-.07 2.58zM93 43.15c0-.14-.07-.28-.11-.42a.61.61 0 00-.44-.53v-.08l.13-.22a.6.6 0 01-.1-.81 1.33 1.33 0 00.3-.06c.09.7.22 1.41.22 2.12zm-7.31-20.26a1 1 0 01-.57-.37l-.08.25a1 1 0 01-.14-.21c-.11-.26-.2-.29-.46-.28a2 2 0 01-.85-.06.41.41 0 00-.43 0 .79.79 0 01-.41-.55s0-.07-.09-.1a3.41 3.41 0 01-.45-.39.59.59 0 00-.45-.28c-.06-.14-.08-.26-.16-.32a.76.76 0 01-.34-.56c-.14.07-.23.23-.45.16l.36-.43a1.43 1.43 0 01-.13-.3 7 7 0 00-.35-1.86.8.8 0 01-.06-.3c0-.28-.15-.4-.37-.49a.74.74 0 01-.22-.1c-.06 0-.13-.14-.11-.17s-.06-.21-.15-.31a.72.72 0 00.42 0 45.5 45.5 0 015.49 6.67zm-6.16-7.37a.29.29 0 01-.21.19.4.4 0 00-.21.17c-.06.18-.2.21-.36.25s-.1.07-.15.12l.2.12c-.1.13-.18.05-.26.05s-.16.07-.24.12v-.19a1.34 1.34 0 01-.29-.2c-.15-.18-.29-.38-.43-.58a.56.56 0 00-.47-.53S77 15 77 14.92s-.07-.15-.15-.19-.31-.11-.35-.29a.18.18 0 00-.13-.09c-.12 0-.13-.1-.18-.17-.2-.28-.35-.65-.82-.54a.65.65 0 01-.27-.05.79.79 0 00-.3 0 .66.66 0 01-.61-.13l-.34-.22c-.3-.2-.31-.19-.62-.11v-.23l-.69-.52a1.39 1.39 0 00-.44-.25c-.29-.07-.37-.31-.51-.5a.19.19 0 010-.13c0-.1.07-.2.11-.32h.27c-.23-.22-.42-.41-.62-.59s-.5-.23-.64-.49l.41-.45c-.09 0-.17-.12-.22-.1a.3.3 0 01-.37-.14.6.6 0 00-.22-.16c-.22-.09-.44-.18-.67-.25a3.67 3.67 0 00-.52 0 2.69 2.69 0 00-.65-1c-.34.2-.69.39-1 .6a.65.65 0 00-.2.26.39.39 0 01-.34.25c-.09-.22.18-.17.2-.3-.19-.28-.38-.28-.63 0-.14-.1-.28-.24-.49-.16a.07.07 0 01-.06 0 .56.56 0 00-.5-.15c-.47 0-1 0-1.28.45a.3.3 0 01-.26.06 4 4 0 01-.56-.52 2.47 2.47 0 00-1.11-.91c-.05 0-.1-.07-.14-.12a3.42 3.42 0 01-.22-.28l-.53.18c0 .17.28.28 0 .41a1.33 1.33 0 00-.18-.31 7 7 0 00-.78-.66.86.86 0 01-.32-.87.45.45 0 00-.07-.33c.38 0 .44-.31.62-.48l-.08-.27h.47a1.28 1.28 0 01-.14-.21 43 43 0 014.77 1.7 45.12 45.12 0 0113.89 9.18zM67.69 9.64v-.17zm-7.84 55.65c-.05-.56-.14-1.11-.19-1.67a7.29 7.29 0 00-.38-1.46 24.61 24.61 0 00-1.41-3.5c-.42-1-.91-1.91-1.42-2.84a23.76 23.76 0 00-2.21-3.15l-1.63-2-.21-.25-.72.21.4.7c.57 1 1.15 1.89 1.7 2.84.29.5.55 1 .81 1.53a9 9 0 001 1.69 11.52 11.52 0 011.58 2.93c.49 1.22 1 2.43 1.5 3.65A8.91 8.91 0 0158.9 65a11.68 11.68 0 01.2 3.44C59 69.6 59 70.78 59 72v1.89a2 2 0 01-.09.35.52.52 0 01-.06.13c-.4.81-.4.53-.18 1.39a1.11 1.11 0 01-.05.65 8.63 8.63 0 01-1.13 2.3 1.1 1.1 0 00-.16.53 5.79 5.79 0 01-.73 2.4c-.42.89-.9 1.76-1.33 2.65-.24.49-.42 1-.63 1.5s-.32.76-.5 1.14a.57.57 0 01-.21.25c-.4.26-.81.5-1.22.76a.47.47 0 01-.47 0l-.79-.28-.43.66-.9-.17c-.13 0-.16-.1-.19-.21l-.13-.45c-.28.22-.53.41-.77.62a.59.59 0 01-.61.16c-.34-.1-.7-.13-1-.22a2.61 2.61 0 00-1.21.1 1.23 1.23 0 01-.88-.12 16 16 0 00-1.51-.71 3.3 3.3 0 01-1.25-1l-.06-.08a2.91 2.91 0 01-.91-1.54 27.81 27.81 0 00-1.75-4.13A48.1 48.1 0 0137.86 76a35.43 35.43 0 01-1.34-4.87c-.2-.88-.26-1.79-.38-2.69a8.23 8.23 0 01-.1-1.21 18.54 18.54 0 01.28-3.07c0-.13 0-.27.06-.4a4.72 4.72 0 01.41-1.42A12.32 12.32 0 0037.6 60a7.05 7.05 0 01.8-1.85c.49-.93 1.08-1.8 1.64-2.69a4 4 0 00.35-.75c.27-.82.51-1.64.78-2.44a1.64 1.64 0 01.31-.48l1.06-1.14a.43.43 0 00.12-.51c-.08-.21-.12-.43-.2-.68-.57.41-1.11.76-1.6 1.17a5.13 5.13 0 00-.62.76 18.34 18.34 0 00-2 2.92 1.3 1.3 0 00-.1.25c-.06.25-.13.5-.19.75a12.62 12.62 0 01-.65 2.06c-.24.57-.45 1.15-.64 1.74a6.09 6.09 0 01-.66 1.53 5.5 5.5 0 00-.73 2.36c-.09.48-.14 1-.19 1.44v.47a14.26 14.26 0 00.5 4.36c.26 1.13.47 2.26.64 3.4.07.46.08.92.14 1.38a2.68 2.68 0 00.11.55c.16.48.34 1 .51 1.43 0 .13.07.26.12.42-.24.07-.46.15-.69.21l-.71.2c-.15-.33-.3-.65-.44-1-.44-1-.87-2.07-1.32-3.1a2.16 2.16 0 00-.25-.44l-3-3.89a1.12 1.12 0 01-.16-.22 23.44 23.44 0 01-1.29-2.67 8.82 8.82 0 00-.31-.86 2.7 2.7 0 01-.14-1.59c.19-1.38.43-2.76.64-4.15a20 20 0 01.43-2 2.39 2.39 0 000-1 8.37 8.37 0 01.29-3c.11-.5.2-1 .31-1.48a.81.81 0 00-.08-.53c-.24-.52-.49-1-.72-1.56a1.63 1.63 0 01-.13-.58 9.55 9.55 0 01.47-3.56 15.78 15.78 0 00.4-1.81 16 16 0 01.68-2.42 5.79 5.79 0 01.56-1.18A26.45 26.45 0 0135 35.3c1-1.11 2-2.21 3-3.32a1.11 1.11 0 01.27-.2c.61-.35 1.21-.71 1.83-1.05a4.91 4.91 0 01.63-.26c.52-.18 1-.36 1.56-.52a1.52 1.52 0 01.6-.07c.81.07 1.61.17 2.42.23s1.5.07 2.25.1h1.64a22.08 22.08 0 002.52-.21h1.84a6.47 6.47 0 011.45.18 8.51 8.51 0 012.88 1.12c.21.13.43.24.65.37a2.38 2.38 0 01.4.31c.53.55 1.07 1.1 1.59 1.67a4 4 0 01.44.71c.27.46.54.92.77 1.4s.41 1 .59 1.47c.31.86.6 1.74.91 2.61a8.42 8.42 0 00.42.92 18.7 18.7 0 011.24 2.73c.52 1.58 1 3.16 1.44 4.77a1 1 0 010 .49c-.17.61-.36 1.21-.54 1.81a1.59 1.59 0 00-.06.3 1.33 1.33 0 000 .2 7.47 7.47 0 00.38 2.94 15.59 15.59 0 01.4 1.77 7.53 7.53 0 00.48 1.64 4.3 4.3 0 01.34 1.77v2.25a16.68 16.68 0 01-.27 1.7 24 24 0 01-2 6.16 70.75 70.75 0 00-1.68 3.91c-.34.86-.76 1.68-1.14 2.52-.23.51-.45 1-.67 1.55a.37.37 0 01-.34.27c-.41 0-.81.15-1.21.22h-.21a1.94 1.94 0 010-.24v-5.69c0-.63.07-1.25.11-1.88.06-.78.17-1.56.17-2.35s-.18-1.54-.25-2.31zM48 2.77a45.08 45.08 0 018.15.73 1.58 1.58 0 00-.24.15l-.37.26c-.09.07-.21.1-.28.18-.2.23-.38.47-.56.72a.61.61 0 00-.05.28c0 .19 0 .39-.07.62-.21 0-.36-.09-.51-.11h-.49l-.25.26-.5-.17a2.76 2.76 0 00-.62 1.1.34.34 0 01-.31.21c-.07-.11-.12-.28-.19-.29-.26 0-.29-.27-.49-.38l.25-.31a.39.39 0 00-.06-.02.46.46 0 00-.13-.08c.14-.34.06-.45-.39-.53l-.21.19c-.17-.29-.19-.29-.51 0a1.39 1.39 0 00-.43-.23 1.72 1.72 0 00-.48.13c-.23.07-.29.06-.39-.14a.42.42 0 00-.4-.25l-.12.24-.2-.33h-.29c-.07.4-.12.79-.2 1.17a1.19 1.19 0 000 .46 1.17 1.17 0 01-.08 1 1.13 1.13 0 00-.19.66c0 .13 0 .31-.09.38a1.58 1.58 0 00-.41.9 1.77 1.77 0 01-.44.7c-.12-.09-.27-.14-.18-.32v-.12c-.24-.21-.29-.54-.45-.79a.33.33 0 01-.05-.16 2.73 2.73 0 00-.13-1 .52.52 0 01-.05-.36c.08-.24-.06-.34-.21-.45l.21-.05-.18-.45h-.68a1 1 0 00-.37.17 2.71 2.71 0 00-.56.26c-.13.15-.39.2-.34.53l-.29-.32-.08-.15a2 2 0 00-.26-.39c-.25-.26-.37-.24-.59 0l-.12.09-.23-.24c-.18.06-.37 0-.5.07a.82.82 0 01-.8-.07 4 4 0 000-.49.38.38 0 00-.16-.23.31.31 0 01-.19-.4v-.16h-.06l-.06.22c-.23.06-.3-.12-.35-.23s-.18-.23-.4-.23h-.06a2 2 0 00-1-.24c-.06.1-.08.22-.14.24a.75.75 0 00-.43.41l-.4.75c-.07-.16-.29-.25-.26-.49 0 0-.09-.1-.18-.18l-.67 1.11.06.05c.15 0 .3.06.35.24s.11.11.17.17l.44.36h.06l.09-.19c.3 0 .16.22.11.35l.22.13c-.12.15-.18.32-.41.24 0 0-.13 0-.19.06l-.32.13c-.05-.21-.13-.3-.34-.29s-.63-.05-.95-.07a3.65 3.65 0 00-.42 0l-.1-.02c-.08.08-.18.2-.19.19-.17-.11-.27.09-.45.07l-.07-.92-.33.19a1.25 1.25 0 00-.81-.54.41.41 0 01-.19-.12v-.22c-.19 0-.4-.11-.5.16h-.28c-.08 0-.16.08-.24 0s-.07 0-.11 0l-.25.06a2.11 2.11 0 00-.95.43l.18.22a4 4 0 00-.88 1.25c-.05.13-.13.2-.26.13a2 2 0 00-.8-.1.21.21 0 00-.23.17.61.61 0 01-.34.41 1.52 1.52 0 00-.63.53c-.1 0-.23 0-.3-.09s-.28-.11-.43-.05l-.46.16v-.07l.25-.31c-.06 0-.15-.16-.18-.14a4.26 4.26 0 00-.43.22l-.52-.09v-.16c-.3 0-.3 0-.42.27h-.21c0 .25.05.54-.3.62l-.15-.34-.1.34-.26-.29-.16.1c.15.22.28.42.42.61s.41.29.38.6a.21.21 0 01-.26.06.76.76 0 00-.42 0 1.12 1.12 0 00-.3.2l-.26-.21h-.09c.2.27-.08.61.26.91a1 1 0 01-.37.07.42.42 0 00-.41.16 1.19 1.19 0 01-.65.07.4.4 0 00-.46.2h-.08l-.14-.28-.27.08c.18.21-.17.43.1.61-.14.09-.22.07-.29-.07s-.13-.31-.32-.36v-.06h.07s0-.05.06-.07a.51.51 0 00-.38-.39A45 45 0 0148 2.77zM22.89 13.43l-.22.1.15.17a.73.73 0 01-.71.37 2.22 2.22 0 00-.44.06c-.18 0-.36.14-.55 0s-.16.06-.23.11-.41.35-.61.53L20 14.7l-.06.37a.38.38 0 01-.24-.44c-.33-.06-.33-.06-.24-.31h.29c.07 0 .29 0 .39.13s.07 0 .14.06l-.08-.3c.22 0 .39 0 .49-.14l-.42-.4a3.1 3.1 0 00-.4.21c-.36.24-.41.24-.74-.08a1.91 1.91 0 00-.21-.15 1 1 0 00-.06.13c.07.27.14.54.23.8a.31.31 0 01-.22.45c-.18.05-.28-.06-.38-.17s-.33-.44-.5-.66h-.08c.68-.61 1.38-1.2 2.09-1.76a2.79 2.79 0 00.46.66c.14-.11.28-.06.43 0a.57.57 0 00.36.13 1.74 1.74 0 00.54-.19c.16-.09.42 0 .47-.3l.26.21a.54.54 0 01.8.37c-.12.08-.22.07-.27-.07s-.13-.11-.23-.1zm-9.11 8.15v.12-.12zm-.26-1.94c-.24-.06-.34 0-.29.24a.68.68 0 00-.77.29.51.51 0 01-.36.38h-.06c.43-.56.86-1.1 1.31-1.64.06.26.11.48.17.73zm-6.06 9a.24.24 0 00.21 0 .24.24 0 01.33.08c.09.11 0 .21-.1.28l-.67.46-.57.39.59.88-.46.27c0 .11 0 .22.19.21h.07l.15.45c.05.15 0 .13.07.14s0 .27.23.27c0 0 0 .17.06.23.21.26.22.26 0 .57l-.26-.07a2.09 2.09 0 00.38 1.38l-.47.4-.14.07c-.22.09-.47.12-.6.35 0 0-.1 0-.15.06-.34.19-.77.23-1 .64-.14.26-.38.47-.54.72a8.69 8.69 0 00-.4.81 2.6 2.6 0 00-.24.47v.41c0 .12-.2.19-.3.29l-.07.12a45.66 45.66 0 012.56-8.13c.27-.63.55-1.24.84-1.85a.56.56 0 01.29.11zm-3.83 12.7c.17.15.34.33.6.27a.62.62 0 01-.09.83l.14.27c-.47.11-.49.49-.57.84a1.1 1.1 0 01-.06.26c-.15.45-.23.92-.43 1.37s-.25.68-.41 1a45.92 45.92 0 01.49-5.13zm-.85 7.5h.12l.53-.22c-.07-.36-.07-.36.34-.47v.3l.34-.2a3.41 3.41 0 01.79.55l-.21.39c.23.28.68.29.87.58-.08.16-.18.27-.18.39a.34.34 0 01-.18.3c-.26.19-.52.37-.8.54a.32.32 0 01-.25 0c-.28-.13-.48 0-.68.17s-.38.28-.56.43c-.07-.91-.12-1.83-.13-2.76zM11.92 21c.44.52.76 1.16 1.45 1.46-.13.19-.21.4-.51.33h-.2a1.14 1.14 0 01-.49.05.26.26 0 00-.32.23.33.33 0 01-.24.28l-.07-.19c-.1.09-.18.2-.27.22a1.62 1.62 0 00-.86.42.2.2 0 01-.16 0c-.21-.1-.34 0-.48.14h-.06a45.25 45.25 0 012.18-3.15.17.17 0 00.03.21zm8.52-8.59l-.2-.06.15-.11zM16 80A45.09 45.09 0 013.12 53.76h.17c.2-.25.27 0 .4.09l.31-.17.58.26s.06.08.1.13.11.13.18.19a3.06 3.06 0 01.58.61c.09.14.21.29.44.23s.16.08.18.19h-.32a3.44 3.44 0 01.81 1.46 1.5 1.5 0 01.11.55 1.05 1.05 0 01-.12.38 1.69 1.69 0 00-.13.4c0 .13 0 .25-.12.31s0 .06 0 .09a4.56 4.56 0 01-.2 1.42c-.07.29-.12.59-.17.88a.38.38 0 01.11.49c-.18.45-.35.9-.53 1.38l.33.06-.06.19c.2.08.45.08.49.35l.5-.27c.33.16.23.49.38.72h.2l.32.57c-.31.06-.46.22-.43.51s.08.18.22.16l.21-.39h.07v.39a.31.31 0 01.27.26.23.23 0 00.07.1c.25.11.24.32.2.57l.53-.1a.67.67 0 01.76.23s-.05.07-.09.09a.37.37 0 00-.17.46c0 .13 0 .26.07.4s0 .26.05.39 0 .38.08.56a5.05 5.05 0 00.18.55c.08.22.17.44.27.7.06-.06.12-.1.13-.14s0-.24.18-.24a1.24 1.24 0 01.32.15h.21c.22.5.68.46 1.1.49.2-.28-.2-.34-.2-.55l.35-.2c-.22-.1-.5 0-.55-.27.12-.26.16.1.29 0l.15-.14-.29-.17.36-.29c.08.1.17.16.2.25.13.39.36.74.49 1.13.26.75.6 1.48.93 2.21a.78.78 0 00.57.47c.07.11.11.23.2.28a.77.77 0 01.39.44.27.27 0 00.13.15l1 .85c.18.15.37.27.38.51a2.9 2.9 0 011.25.59v.08l-.76-.39c-.22.23-.22.23-.09.46s.23.43.35.65a.83.83 0 00.5.47.32.32 0 01.18.14c.13.27.47.25.64.47h.13a3.68 3.68 0 00.15.35.28.28 0 00.29.18l.66-.05.45-.86c.05 0 .15.09.16.16 0 .23.17.47.05.69.07.09.17.15.21.25a5.3 5.3 0 01.28.65l.73 2.08a.54.54 0 00.16.21 3.89 3.89 0 00.43.38c.19.13.35.37.65.25a.2.2 0 01.15 0c.15.28.45.34.69.47a4.51 4.51 0 00.79.32c.28.09.58.13.86.21a1.18 1.18 0 001.08-.12.33.33 0 01.43 0c.15.08.32.12.49.19.11-.41 0-.78.11-1.15.19.08.18.23.2.37s.13.35.4.28c.44-.12.88-.24 1.31-.39a1.2 1.2 0 00.7-.51.82.82 0 01.46-.37c.13.09.11.31.34.29a2.81 2.81 0 01.71 0c.3 0 .6.1.87.15a1.31 1.31 0 00.38-.11.35.35 0 01.48.09 4.23 4.23 0 00.5.45 1.22 1.22 0 01.5.62 2.05 2.05 0 01.15.92 1.25 1.25 0 00.22.79 1.78 1.78 0 01.4 1 1.8 1.8 0 00.31 1 1.58 1.58 0 01.21.56 1.71 1.71 0 00.32.89 4.74 4.74 0 01.25.64.89.89 0 01.9 1l.18.08a.83.83 0 01.67.68.26.26 0 00.09.14 1.11 1.11 0 01.55.6 4.43 4.43 0 00.47.69.9.9 0 00.15.19 2.14 2.14 0 01.63.86.45.45 0 00.48.28h.89a.7.7 0 01.74.43 1.2 1.2 0 01.13.31.34.34 0 00.09.17A45 45 0 0116 80zm49.62 9.71a44.44 44.44 0 01-8.84 2.7v-.06a1 1 0 01.58-.51 2.47 2.47 0 00.15-.61.88.88 0 01.57-.8l.21-.11a1.05 1.05 0 01.29-.82.63.63 0 00.22-.53.87.87 0 01.36-.8.38.38 0 00.12-.16 1 1 0 01.4-.61s.05-.07.05-.11a1.07 1.07 0 01.62-.88.32.32 0 00.19-.32 1.14 1.14 0 01.29-.81 1.38 1.38 0 00.17-.29 4.74 4.74 0 00.24-.51 2.15 2.15 0 01.59-.92v-.1a1.27 1.27 0 01.73-.76.82.82 0 00.17-.11l.84-.69s0 .15.09.15c.3 0 .58.24.91 0a2.43 2.43 0 011.5-.38h.44a1.6 1.6 0 001.16-.32h.06a.48.48 0 01.73.41v.18a1 1 0 00.17-.07 13.13 13.13 0 011.37-.66.44.44 0 01.46 0 1.1 1.1 0 001 .13 3.64 3.64 0 01.63-.16 3.3 3.3 0 001.18-.44c.2-.11.45-.15.58-.39a.25.25 0 01.21-.08c.17.1.28 0 .39-.09s.49-.39.73-.6a.34.34 0 00.09-.18c.19-.48.37-1 .55-1.45a8.8 8.8 0 00.75-2.48l.51-.13.13-.28a1.45 1.45 0 00.42.2.58.58 0 00.5-.25c.25-.27.52-.53.79-.78s.34-.24.52-.37l.61-.36a7.48 7.48 0 001.35-1c.2-.18.47-.33.57-.56s.53-.33.58-.66h.06a.88.88 0 00.53-.49c.22-.5.44-1 .65-1.51a5.89 5.89 0 00.32-.92 5.07 5.07 0 01.48-1c0-.06.12-.08.2-.13l.3.29-.29.14.21.18c.08 0 .08-.21.21-.1s0 0 0 .07l-.17.2c-.11 0-.25-.09-.35.08l.31.17c0 .21-.41.27-.2.55.45 0 .9 0 1.12-.49.14 0 .24.13.34-.06s.29-.07.33.09 0 .18.17.19l.5-1.44a1.11 1.11 0 000-.17 1.47 1.47 0 01.07-.69c.08-.3.14-.61-.21-.79.18-.32.46-.29.75-.24l.54.09c-.07-.27 0-.46.18-.57 0 0 .07 0 .07-.06 0-.25.22-.29.34-.41-.06-.18-.06-.18 0-.33a1 1 0 00.13.27.27.27 0 00.19.1s.08-.09.09-.15c0-.28-.11-.45-.41-.55a.92.92 0 00.32-.55c.2.19-.11.37 0 .55.13-.09.11-.21.13-.31.08-.31.08-.66.4-.9l.49.26c0-.28.33-.25.48-.38l-.06-.16h.19a45.69 45.69 0 01-1.32 3.54 45.53 45.53 0 01-24.1 24.1zM170.48 84.19h57.64l2.91-10.88h-57.64l-2.91 10.88zM241.04 22.41h-50.38l-2.92 10.88h50.39l2.91-10.88zM272.65 58.61h-23l-6.84 25.52h23l5.34-19.93h2l-5.34 19.93h9.79L283 64.2l1.5-5.59h-11.85zm-15.14 19.92h-3.43l3.84-14.33h3.43zM412.08 16.85l-13.92-4.75-2.88 9.9 13.88 4.74 2.92-9.89zM407.23 34.94l-13.92-4.75-2.87 9.9 13.87 4.74 2.92-9.89zM391.58 54.24l-15.35 29.14 9.82.27 15.37-29.18-9.84-.23zM440.93 19.79l12.49-2.16-1.68-9-33.89 5.87 1.63 9 11.18-1.93-2.76 10.32h-14.59l-1.87 7H426l-3.09 11.56h-12.52l-1 3.81h-.12l-7.89 29.44h35.11l7.39-27.7.48-1.79 1-3.81h-12.64l3.1-11.56h14.58l1.88-7h-14.59zM434.09 56l-5.91 22.05h-15.53L418.56 56h15.53zM125.76 17.7h6.19l-4.03 15.03h9.79l4.03-15.03h2.43l1.5-5.6h-18.41l1.46-5.43h-9.8L113.1 28.4h9.79l2.87-10.7zM153.68 28.4l2.86-10.7h6.19l-4.03 15.03h9.79l4.03-15.03h2.43l1.5-5.6h-18.41l1.46-5.43h-9.8l-5.82 21.73h9.8zM164.89 48.05l2.25-8.39 1.5-5.6H111l-1.5 5.6h23.94l-2.25 8.39h-23.9l-1.5 5.6-1.93 7.21-1.5 5.6h23.92l-4.6 17.16h9.8l4.6-17.16h14.1l-4.59 17.16h9.79L160 66.46l1.5-5.6h-23.94l1.93-7.21h23.94l1.5-5.6zm-37.13 12.81h-14.11l1.94-7.21h14.1zm27.34-12.81H141l2.25-8.39h14.11z"/><path class="a" d="M115.51 83.62l5.89-17.16-25.71 17.16h19.82zM378 24.81c3.17-2.89 4-7.19 1.89-9.73s-6.49-2.36-9.84.33zM333.2 19.05h9.48l1.87-7h-9.47l1.45-5.42h-9.79l-1.46 5.42h-9.47l-1.88 7h19.27zM300.67 58.97l-6.61 24.67h9.79l6.61-24.67h-9.79zM324.36 58.97l-6.61 24.67h9.8l6.6-24.67h-9.79z"/><path class="a" d="M334.46 49.47l1.4-5.24h.06l5.25-19.59h-28.84l-1.5 5.6-3.66 13.63-.09.36-1.41 5.24h9.51l-9.16 34.17h9.79L325 49.47zm-13.8-19.23h9.21l-3.65 13.63H317zM355.61 43.92l-8.71-2.8-.01.01 8.71 2.79h.01zM358.98 44.92h-3.81l-1.06 2.43-.01-.01-1.39 3.18h4.77l-8.86 33.06h9.8l10.36-38.66H358.98zM371.88 6.85l-9.83-.22 9.83.22zM363.61 25.69l-.49 1.12-1.5 3.42-.47 1.06h11.28l1.5-5.6h-10.32zM352.88 27.43l.76-1.74H342.6l-1.5 5.6h10.09l.19-.44 1.5-3.42z"/><path class="a" d="M360.11 33.66v-.01l-8.73-2.8 8.73 2.81zM343.55 71.37l1.51-3.42-.01-.01-1.5 3.43zM336.32 65.14l-1.5 3.42.02.01 1.51-3.42-.03-.01z"/><path class="a" d="M336.35 65.15l-1.51 3.42 8.71 2.8 1.5-3.43-8.7-2.79zM340.55 78.21l1.5-3.42-1.5 3.42zM333.31 71.98l-1.5 3.42.03.01 1.5-3.42-.03-.01z"/><path class="a" d="M333.34 71.99l-1.5 3.42 8.71 2.8 1.5-3.42-8.71-2.8zM332.97 83.7l.38-.23-.48-.01.1.24z"/><path class="a" d="M332.87 83.46l.48.01 3.95-2.4-6.14-1.98 1.71 4.37zM354.41 24.01h-.03l-.74 1.68h.04l.73-1.68z"/><path class="a" d="M361.62 30.23l1.5-3.42-8.71-2.8-.73 1.68h-.04l-.76 1.74 8.74 2.8zM345.37 44.54v-.01l-1.5 3.42.02.01 1.5-3.41-.02-.01zM352.6 50.76h.01l.1-.24-.11.24z"/><path class="a" d="M345.39 44.55l-1.5 3.41 8.71 2.8.11-.24 1.39-3.18-8.71-2.79zM362.05 6.63h-.03l-.12.27.02.01.13-.28zM370.63 9.71l1.26-2.86h-.01l-1.25 2.86z"/><path class="a" d="M370.63 9.71l1.25-2.86-9.83-.22-.13.28 8.71 2.8zM348.37 37.69l-1.5 3.42.03.01 1.5-3.42-.03-.01zM355.61 43.92l1.5-3.42-1.5 3.42zM357.11 40.5l-8.71-2.8-1.5 3.42 8.71 2.8 1.5-3.42zM357.39 17.16l-1.5 3.43h.02l1.51-3.42-.03-.01zM364.62 23.39l1.51-3.42h-.01l-1.5 3.42zM366.12 19.97l-8.7-2.8-1.51 3.42 8.71 2.8 1.5-3.42zM358.61 37.08l1.51-3.42h-.01l-1.5 3.42zM351.19 31.29l-1.31 2.98.02.01 1.32-2.99h-.03z"/><path class="a" d="M351.19 31.29h.03l-1.32 2.99 8.71 2.8 1.5-3.42-8.73-2.81-.19.44zM367.63 16.55l1.5-3.42-1.5 3.42zM360.42 10.33l-.03-.01-1.5 3.42.03.01 1.5-3.42zM367.63 16.55l1.5-3.42-8.71-2.8-1.5 3.42 8.71 2.8zM349.6 57.6l1.5-3.42-1.5 3.42zM342.37 51.37l-1.51 3.42.03.01 1.5-3.42-.02-.01zM351.1 54.18l-8.71-2.8-1.5 3.42 8.71 2.8 1.5-3.42zM346.56 64.53l1.54-3.51h-.01l-1.53 3.51zM339.36 58.21l-1.54 3.51.03.01 1.54-3.51-.03-.01z"/><path class="a" d="M339.39 58.22l-1.54 3.51 8.71 2.8 1.53-3.51-8.7-2.8zM352.88 27.43l8.74 2.8-8.74-2.8zM345.39 44.55l.01-.01-.03-.01v.01l.02.01z"/><path class="a" d="M345.4 44.54l-.01.01 8.71 2.79h.01l-8.71-2.8zM169.4 98.82v7.64a1.86 1.86 0 01-1.89 1.92h-5.76V116h-3.81V96.92h9.57a1.9 1.9 0 011.34.55 1.87 1.87 0 01.55 1.35zm-7.65 5.75h3.84v-3.84h-3.84zM181.28 106.46a1.85 1.85 0 011.35.57 1.86 1.86 0 01.54 1.35V116h-3.81v-7.65h-3.83V116h-3.82V96.92h9.57a1.86 1.86 0 011.89 1.9v5.75a1.85 1.85 0 01-1.89 1.89zm-1.92-1.89v-3.84h-3.83v3.84zM189.3 100.73v3.84h5.76v3.81h-5.76v3.84h7.7V116h-11.51V96.92H197v3.81zM206.91 102.65v-1.92h-3.83v3.84h5.75a1.87 1.87 0 011.35.55 1.89 1.89 0 01.54 1.34v7.65a1.89 1.89 0 01-1.89 1.92h-7.65a1.95 1.95 0 01-1.91-1.92v-3.81h3.81v1.92h3.83v-3.84h-5.73a1.82 1.82 0 01-1.34-.54 1.88 1.88 0 01-.57-1.38v-7.64a1.91 1.91 0 011.91-1.9h7.65a1.86 1.86 0 011.89 1.9v3.83zM216.85 100.73v3.84h5.76v3.81h-5.76v3.84h7.65V116H213V96.92h11.5v3.81zM238.27 98.82V116h-3.81v-15.3h-3.83V116h-3.81V96.92h9.56a1.86 1.86 0 011.89 1.9zM252.05 100.73h-3.81V116h-3.84v-15.3h-3.81v-3.78h11.46zM258.18 100.73v3.84h5.75v3.81h-5.75v3.84h7.64V116h-11.45V96.92h11.45v3.81zM279.6 98.82v15.29a1.89 1.89 0 01-1.89 1.92h-9.57V96.92h9.57a1.86 1.86 0 011.89 1.9zm-7.6 13.4h3.84v-11.49H272v11.49zM304.84 106.46a1.85 1.85 0 011.35.57 1.87 1.87 0 01.55 1.35v5.73a1.91 1.91 0 01-1.9 1.92h-9.56V96.92h9.56a1.88 1.88 0 011.9 1.9v5.75a1.86 1.86 0 01-1.9 1.89zm-5.75-1.89h3.83v-3.84h-3.83zm0 7.65h3.83v-3.84h-3.83zM322.84 96.92q-3.49 7-5.23 10.5V116h-3.84v-8.61q-3.94-7.87-5.24-10.5h4.28c1.44 3.1 2.39 5.16 2.88 6.2q2.15-4.64 2.88-6.2zM349.85 96.92v17.19A1.89 1.89 0 01348 116h-7.65a1.95 1.95 0 01-1.92-1.92V96.92h3.81v15.3H346v-15.3zM363.63 96.92v3.81l-7 11.49h7V116h-11.46v-3.81q5.24-8.61 7-11.49h-7v-3.78zM377.4 96.92v17.19a1.89 1.89 0 01-1.89 1.92h-7.65a1.95 1.95 0 01-1.92-1.92V96.92h3.81v15.3h3.84v-15.3zM391.18 96.92v3.81l-7 11.49h7V116h-11.46v-3.81q5.23-8.61 7-11.49h-7v-3.78z"/></svg>