<svg xmlns="http://www.w3.org/2000/svg" version="1.1" xmlns:xlink="http://www.w3.org/1999/xlink" xmlns:svgjs="http://svgjs.com/svgjs" width="512" height="512" x="0" y="0" viewBox="0 0 64 64" style="enable-background:new 0 0 512 512" xml:space="preserve" class=""><g transform="matrix(-1,0,0,1,64,0)"><g id="_30-match_tournament" data-name="30-match tournament"><path d="M63,27H55V15a1,1,0,0,0-1-1H41V11a1,1,0,0,0-1-1H32V5a1,1,0,0,0-1-1H20V1a1,1,0,0,0-1-1H1A1,1,0,0,0,0,1V9a1,1,0,0,0,1,1H19a1,1,0,0,0,1-1V6H30v4H22a1,1,0,0,0-1,1v8a1,1,0,0,0,1,1h8v4H20V21a1,1,0,0,0-1-1H1a1,1,0,0,0-1,1v8a1,1,0,0,0,1,1H19a1,1,0,0,0,1-1V26H31a1,1,0,0,0,1-1V20h8a1,1,0,0,0,1-1V16H53V27H45a1,1,0,0,0-1,1v8a1,1,0,0,0,1,1h8V48H41V45a1,1,0,0,0-1-1H32V39a1,1,0,0,0-1-1H20V35a1,1,0,0,0-1-1H1a1,1,0,0,0-1,1v8a1,1,0,0,0,1,1H19a1,1,0,0,0,1-1V40H30v4H22a1,1,0,0,0-1,1v8a1,1,0,0,0,1,1h8v4H20V55a1,1,0,0,0-1-1H1a1,1,0,0,0-1,1v8a1,1,0,0,0,1,1H19a1,1,0,0,0,1-1V60H31a1,1,0,0,0,1-1V54h8a1,1,0,0,0,1-1V50H54a1,1,0,0,0,1-1V37h8a1,1,0,0,0,1-1V28A1,1,0,0,0,63,27ZM18,8H2V2H18Zm0,20H2V22H18ZM39,18H23V12H39ZM18,42H2V36H18Zm0,20H2V56H18ZM39,52H23V46H39ZM62,35H46V29H62Z" fill="#f77809" data-original="#000000" class=""></path></g></g></svg>