<svg xmlns="http://www.w3.org/2000/svg" version="1.1" xmlns:xlink="http://www.w3.org/1999/xlink" xmlns:svgjs="http://svgjs.com/svgjs" width="512" height="512" x="0" y="0" viewBox="0 0 64 64" style="enable-background:new 0 0 512 512" xml:space="preserve" class=""><g><path d="m21 18h12c.552 0 1-.448 1-1v-6c0-.552-.448-1-1-1h-12c-.552 0-1 .448-1 1v6c0 .552.448 1 1 1zm1-6h10v4h-10zm15 6h6c.552 0 1-.448 1-1v-6c0-.552-.448-1-1-1h-6c-.552 0-1 .448-1 1v6c0 .552.448 1 1 1zm1-6h4v4h-4zm-17 16h12c.552 0 1-.448 1-1v-6c0-.552-.448-1-1-1h-12c-.552 0-1 .448-1 1v6c0 .552.448 1 1 1zm1-6h10v4h-10zm15 6h6c.552 0 1-.448 1-1v-6c0-.552-.448-1-1-1h-6c-.552 0-1 .448-1 1v6c0 .552.448 1 1 1zm1-6h4v4h-4zm-17 16h12c.552 0 1-.448 1-1v-6c0-.552-.448-1-1-1h-12c-.552 0-1 .448-1 1v6c0 .552.448 1 1 1zm1-6h10v4h-10zm15 6h6c.552 0 1-.448 1-1v-6c0-.552-.448-1-1-1h-6c-.552 0-1 .448-1 1v6c0 .552.448 1 1 1zm1-6h4v4h-4zm-27 24v-29c0-.552.448-1 1-1s1 .448 1 1v29c0 .553-.448 1-1 1s-1-.447-1-1zm40 0v-29c0-.552.447-1 1-1s1 .448 1 1v29c0 .553-.447 1-1 1s-1-.447-1-1zm9 4h-2v-37c0-.552-.447-1-1-1h-9v-15c0-.552-.447-1-1-1h-8v-3c0-.552-.447-1-1-1h-12c-.552 0-1 .448-1 1v3h-8c-.552 0-1 .448-1 1v15h-9c-.552 0-1 .448-1 1v37h-2c-.552 0-1 .447-1 1s.448 1 1 1h56c.553 0 1-.447 1-1s-.447-1-1-1zm-44 0h-8v-36h8zm11-56h10v2h-10zm10 56h-10v-17h10zm9 0h-7v-17h1c.553 0 1-.447 1-1s-.447-1-1-1h-16c-.552 0-1 .447-1 1s.448 1 1 1h1v17h-7v-52h28zm10 0h-8v-36h8z" fill="#f77809" data-original="#000000" class=""></path></g></svg>