<svg id="Capa_1" enable-background="new 0 0 512 512" height="512" viewBox="0 0 512 512" width="512" xmlns="http://www.w3.org/2000/svg"><g id="_56_Repeat_Audio_history"><path d="m432 387.84-5.76-23.2c-36.743 59.318-100.521 96.542-170.24 99.36-106.039 0-192-85.961-192-192h32c0 88.366 71.634 160 160 160 60.429-2.648 115.381-35.789 145.92-88l-30.08 8-7.68-32 64-16c8.57-2.114 17.233 3.113 19.36 11.68l16 64zm-348.16-179.84 64-16-7.68-32-30.08 7.52c30.655-52.027 85.587-84.974 145.92-87.52 88.366 0 160 71.634 160 160h32c0-106.039-85.961-192-192-192-69.891 2.661-133.883 39.905-170.72 99.36l-5.28-23.2-32 7.68 16 64c.363 1.23 2.109 6.64 7.761 10.01 5.42 3.231 10.76 2.395 12.079 2.15z"/></g></svg>