<svg xmlns="http://www.w3.org/2000/svg" version="1.1" xmlns:xlink="http://www.w3.org/1999/xlink" xmlns:svgjs="http://svgjs.com/svgjs" width="512" height="512" x="0" y="0" viewBox="0 0 48 48" style="enable-background:new 0 0 512 512" xml:space="preserve" class=""><g><path d="m13.12 29.48-2.22 12.98c-.06.38.09.75.4.98.31.22.72.25 1.05.08l11.65-6.14 11.65 6.13c.15.08.31.11.47.11.21 0 .41-.06.59-.19.31-.22.46-.6.4-.98l-2.22-12.98 9.43-9.19c.27-.27.37-.66.25-1.03-.12-.36-.43-.63-.81-.68l-13.03-1.89-5.83-11.79c-.34-.68-1.46-.68-1.79 0l-5.83 11.8-13.03 1.9c-.38.05-.69.32-.81.68s-.02.76.25 1.03zm4.96-10.88c.33-.05.61-.25.75-.55l5.17-10.46 5.16 10.46c.15.3.43.5.75.55l11.54 1.68-8.35 8.14c-.24.23-.34.56-.29.89l1.97 11.5-10.32-5.43c-.15-.08-.31-.11-.47-.11s-.32.04-.47.11l-10.31 5.42 1.97-11.5c.06-.32-.05-.66-.29-.89l-8.35-8.14z" fill="#f77809" data-original="#000000" class=""></path></g></svg>