<svg xmlns="http://www.w3.org/2000/svg" version="1.1" xmlns:xlink="http://www.w3.org/1999/xlink" xmlns:svgjs="http://svgjs.com/svgjs" width="512" height="512" x="0" y="0" viewBox="0 0 64 64" style="enable-background:new 0 0 512 512" xml:space="preserve" class=""><g><path d="m54 64h-44a1 1 0 0 1 -1-1v-62a1 1 0 0 1 1-1h34a1 1 0 0 1 .707.293l10 10a1 1 0 0 1 .293.707v52a1 1 0 0 1 -1 1zm-43-2h42v-50.586l-9.414-9.414h-32.586z" fill="#ffffff" data-original="#000000" class=""></path><path d="m54 12h-10a1 1 0 0 1 -1-1v-10a1 1 0 0 1 2 0v9h9a1 1 0 0 1 0 2z" fill="#ffffff" data-original="#000000" class=""></path><path d="m47 19h-30a1 1 0 0 1 0-2h30a1 1 0 0 1 0 2z" fill="#ffffff" data-original="#000000" class=""></path><path d="m47 27h-30a1 1 0 0 1 0-2h30a1 1 0 0 1 0 2z" fill="#ffffff" data-original="#000000" class=""></path><path d="m47 35h-30a1 1 0 0 1 0-2h30a1 1 0 0 1 0 2z" fill="#ffffff" data-original="#000000" class=""></path><path d="m47 43h-30a1 1 0 0 1 0-2h30a1 1 0 0 1 0 2z" fill="#ffffff" data-original="#000000" class=""></path><path d="m47 51h-30a1 1 0 0 1 0-2h30a1 1 0 0 1 0 2z" fill="#ffffff" data-original="#000000" class=""></path></g></svg>