<svg xmlns="http://www.w3.org/2000/svg" version="1.1" xmlns:xlink="http://www.w3.org/1999/xlink" xmlns:svgjs="http://svgjs.com/svgjs" width="512" height="512" x="0" y="0" viewBox="0 0 48 48" style="enable-background:new 0 0 512 512" xml:space="preserve" class=""><g><g id="Icon" fill="rgb(0,0,0)"><path d="m24 47a1 1 0 0 1 -.49-.13c-.17-.09-16.51-9.51-16.51-28.87a17 17 0 0 1 34 0c0 19.36-16.34 28.78-16.51 28.87a1 1 0 0 1 -.49.13zm0-44a15 15 0 0 0 -15 15c0 16.31 12.36 25.13 15 26.83 2.64-1.7 15-10.52 15-26.83a15 15 0 0 0 -15-15z" fill="#ffffff" data-original="#000000"></path><path d="m24 27a9 9 0 1 1 9-9 9 9 0 0 1 -9 9zm0-16a7 7 0 1 0 7 7 7 7 0 0 0 -7-7z" fill="#ffffff" data-original="#000000"></path></g></g></svg>