<svg id="レイヤー_1" data-name="レイヤー 1" xmlns="http://www.w3.org/2000/svg" viewBox="0 0 84.66 32.84"><defs><style>.cls-1{fill:#333;stroke:#333;stroke-miterlimit:10;stroke-width:0.25px;}</style></defs><path class="cls-1" d="M9.35,2.17H8.77a.09.09,0,0,0-.09.09V34.63a.09.09,0,0,0,.09.09h.58a.09.09,0,0,0,.09-.09V2.26a.09.09,0,0,0-.09-.09" transform="translate(-1.61 -2)"/><path class="cls-1" d="M20.18,2.13h-.7s0,0,0,0L18,7,16.13,2.16s0,0,0,0H16s0,0,0,0L14,7,12.61,2.16a.05.05,0,0,0,0,0h-.71s0,0,0,0,0,0,0,0l2,6.9a0,0,0,0,0,0,0h.13s0,0,0,0L16,4l2,5.12s0,0,0,0h.13a0,0,0,0,0,0,0l2-6.9s0,0,0,0,0,0,0,0" transform="translate(-1.61 -2)"/><path class="cls-1" d="M31.7,2.13a0,0,0,0,0-.05,0V5H28.23V2.17a0,0,0,0,0,0,0H27.5a0,0,0,0,0-.05,0v6.9a0,0,0,0,0,.05,0h.69a0,0,0,0,0,0,0V5.79h3.42V9.07a0,0,0,0,0,.05,0h.69a0,0,0,0,0,0,0V2.17a0,0,0,0,0,0,0Z" transform="translate(-1.61 -2)"/><path class="cls-1" d="M41.91.13h.69a0,0,0,0,1,0,0v6.9a0,0,0,0,1,0,0h-.69a0,0,0,0,1,0,0V.17A0,0,0,0,1,41.91.13Z"/><path class="cls-1" d="M57.39,2.89V9.07a0,0,0,0,0,0,0h.7a0,0,0,0,0,0,0V2.89h1.5a0,0,0,0,0,0,0V2.17a0,0,0,0,0,0,0H55.9a0,0,0,0,0,0,0v.68a0,0,0,0,0,0,0Z" transform="translate(-1.61 -2)"/><path class="cls-1" d="M73.67,9.12a0,0,0,0,0,0,0V8.4a0,0,0,0,0,0-.05H70.48V5.73h3.19a0,0,0,0,0,0,0V5a0,0,0,0,0,0,0H70.48V2.89h3.21a0,0,0,0,0,0,0V2.17a0,0,0,0,0,0,0h-4a0,0,0,0,0,0,0v6.9a0,0,0,0,0,0,0Z" transform="translate(-1.61 -2)"/><path class="cls-1" d="M1.78,15.4a0,0,0,0,0-.05,0v6.9a0,0,0,0,0,.05,0H5.7a0,0,0,0,0,0,0v-.68a0,0,0,0,0,0,0H2.51V19H5.7a0,0,0,0,0,0,0v-.68a0,0,0,0,0,0-.05H2.51V16.16H5.73a0,0,0,0,0,0,0v-.68a0,0,0,0,0,0,0Z" transform="translate(-1.61 -2)"/><path class="cls-1" d="M30.34,18.41c-.5-.37-.79-.6-.88-.69a1.56,1.56,0,0,1-.34-.45,1,1,0,0,1-.09-.41.79.79,0,0,1,.26-.59.88.88,0,0,1,.65-.24,1.13,1.13,0,0,1,.57.15,3,3,0,0,1,.65.67l0,0h0l.57-.43s0,0,0-.06a3.33,3.33,0,0,0-.92-.9,1.88,1.88,0,0,0-.93-.25,1.84,1.84,0,0,0-.87.22,1.59,1.59,0,0,0-.85,1.45A1.83,1.83,0,0,0,28.6,18a6.05,6.05,0,0,0,1.09,1A5.8,5.8,0,0,1,30.86,20a1.12,1.12,0,0,1,.23.65,1.1,1.1,0,0,1-.16.55,1.05,1.05,0,0,1-.44.42,1.4,1.4,0,0,1-.63.16c-.52,0-1-.38-1.39-1.12l0,0h0l-.58.36a0,0,0,0,0,0,.06,3.11,3.11,0,0,0,1,1.14,2.15,2.15,0,0,0,1.16.34A2,2,0,0,0,31.34,22a1.77,1.77,0,0,0,.58-1.33,1.93,1.93,0,0,0-.34-1.07,5.07,5.07,0,0,0-1.24-1.18" transform="translate(-1.61 -2)"/><path class="cls-1" d="M41.89,15.4a0,0,0,0,0,0,0v6.9a0,0,0,0,0,0,0h3.92a0,0,0,0,0,0,0v-.68a0,0,0,0,0,0,0H42.62V19h3.19a0,0,0,0,0,0,0v-.68a0,0,0,0,0,0-.05H42.62V16.16h3.22a0,0,0,0,0,0,0v-.68a0,0,0,0,0,0,0Z" transform="translate(-1.61 -2)"/><path class="cls-1" d="M59.82,15.4a0,0,0,0,0,0,0v5.17l-4.51-5.2h-.18a0,0,0,0,0,0,0v6.9a0,0,0,0,0,0,0h.71a0,0,0,0,0,0,0v-5.1l4.48,5.13h.19a0,0,0,0,0,0,0v-6.9a0,0,0,0,0,0,0Z" transform="translate(-1.61 -2)"/><path class="cls-1" d="M74.56,20.69s0,0-.06,0a3,3,0,0,1-2.39,1.12A3,3,0,0,1,70,21a2.79,2.79,0,0,1-.85-2.08,2.94,2.94,0,0,1,.38-1.48,2.84,2.84,0,0,1,1.07-1.05A3.14,3.14,0,0,1,72.07,16a3,3,0,0,1,2.43,1.18s0,0,.06,0l.54-.41s0,0,0-.06a3.34,3.34,0,0,0-1.29-1.09,3.89,3.89,0,0,0-1.76-.39,3.72,3.72,0,0,0-2.69,1,3.44,3.44,0,0,0-1.08,2.58,3.71,3.71,0,0,0,.89,2.49,3.63,3.63,0,0,0,2.89,1.22,4,4,0,0,0,1.74-.37,3.52,3.52,0,0,0,1.3-1s0,0,0,0l0,0Z" transform="translate(-1.61 -2)"/><path class="cls-1" d="M86.09,16.16a0,0,0,0,0,0,0v-.68a0,0,0,0,0,0,0h-4a0,0,0,0,0,0,0v6.9a0,0,0,0,0,0,0h3.93a0,0,0,0,0,0,0v-.68a0,0,0,0,0,0,0H82.88V19h3.19a0,0,0,0,0,0,0v-.68a0,0,0,0,0,0-.05H82.88V16.16Z" transform="translate(-1.61 -2)"/><path class="cls-1" d="M16.42,18.41c-.5-.37-.8-.6-.89-.69a1.51,1.51,0,0,1-.33-.45,1,1,0,0,1-.09-.41.82.82,0,0,1,.25-.59A.92.92,0,0,1,16,16a1.17,1.17,0,0,1,.58.15,3.19,3.19,0,0,1,.65.67l0,0h0l.56-.43a0,0,0,0,0,0-.06,3.06,3.06,0,0,0-.91-.9,1.91,1.91,0,0,0-.93-.25,1.81,1.81,0,0,0-.87.22,1.59,1.59,0,0,0-.85,1.45A1.77,1.77,0,0,0,14.68,18a6.25,6.25,0,0,0,1.08,1A5.92,5.92,0,0,1,16.94,20a1.11,1.11,0,0,1,.22.65,1.08,1.08,0,0,1-.15.55,1,1,0,0,1-.45.42,1.34,1.34,0,0,1-.63.16c-.52,0-1-.38-1.39-1.12a0,0,0,0,0,0,0h0L13.9,21s0,0,0,.06a3.11,3.11,0,0,0,1,1.14,2.1,2.1,0,0,0,1.16.34A2,2,0,0,0,17.42,22,1.81,1.81,0,0,0,18,20.66a1.93,1.93,0,0,0-.34-1.07,5.07,5.07,0,0,0-1.24-1.18" transform="translate(-1.61 -2)"/><path class="cls-1" d="M37.19,2.17h-.58a.09.09,0,0,0-.09.09V34.63a.09.09,0,0,0,.09.09h.58a.09.09,0,0,0,.09-.09V2.26a.09.09,0,0,0-.09-.09" transform="translate(-1.61 -2)"/><path class="cls-1" d="M51.11,2.17h-.57a.09.09,0,0,0-.09.09V34.63a.09.09,0,0,0,.09.09h.57a.09.09,0,0,0,.09-.09V2.26a.09.09,0,0,0-.09-.09" transform="translate(-1.61 -2)"/><path class="cls-1" d="M65,2.17h-.58a.09.09,0,0,0-.09.09V34.63a.09.09,0,0,0,.09.09H65a.09.09,0,0,0,.09-.09V2.26A.09.09,0,0,0,65,2.17" transform="translate(-1.61 -2)"/><path class="cls-1" d="M79,2.17h-.58a.09.09,0,0,0-.09.09V34.63a.09.09,0,0,0,.09.09H79a.09.09,0,0,0,.09-.09V2.26A.09.09,0,0,0,79,2.17" transform="translate(-1.61 -2)"/><path class="cls-1" d="M23.27,2.17h-.58a.09.09,0,0,0-.09.09V34.63a.09.09,0,0,0,.09.09h.58a.09.09,0,0,0,.09-.09V2.26a.09.09,0,0,0-.09-.09" transform="translate(-1.61 -2)"/></svg>