<svg xmlns="http://www.w3.org/2000/svg" xmlns:xlink="http://www.w3.org/1999/xlink" width="100" height="100" viewBox="0 0 100 100">
  <defs>
    <clipPath id="clip-path">
      <rect id="長方形_1" data-name="長方形 1" width="100" height="100" transform="translate(694 716)" fill="#fff" stroke="#707070" stroke-width="1"/>
    </clipPath>
  </defs>
  <g id="マスクグループ_1" data-name="マスクグループ 1" transform="translate(-694 -716)" clip-path="url(#clip-path)">
    <g id="_レイヤー_1-2" transform="translate(710 723)">
      <path id="パス_1" data-name="パス 1" d="M12.75,17.53A6.13,6.13,0,1,0,6.62,11.4a6.13,6.13,0,0,0,6.13,6.13Z" fill="#fff"/>
      <path id="パス_2" data-name="パス 2" d="M14.66,72.55a3.418,3.418,0,0,0,3.07-2.59l1.92-19.3h1.53c1.99,0,2.11-2.49,2.11-2.49l.96-19.36c-.38-7.47-6.71-7.47-6.71-7.47H7.96s-6.33,0-6.71,7.47l.96,19.36s-.03,2.49,2.11,2.49H5.85l1.92,19.3a3.429,3.429,0,0,0,3.07,2.59h3.83Z" fill="#fff"/>
      <path id="パス_3" data-name="パス 3" d="M56.95,17.53a6.13,6.13,0,1,0-6.13-6.13,6.13,6.13,0,0,0,6.13,6.13Z" fill="#fff"/>
      <path id="パス_4" data-name="パス 4" d="M58.86,72.55a3.418,3.418,0,0,0,3.07-2.59l1.92-19.3h1.53c1.99,0,2.11-2.49,2.11-2.49l.96-19.36c-.38-7.47-6.71-7.47-6.71-7.47H52.16s-6.33,0-6.71,7.47l.96,19.36s-.03,2.49,2.11,2.49h1.53l1.92,19.3a3.429,3.429,0,0,0,3.07,2.59h3.83Z" fill="#fff"/>
      <path id="パス_5" data-name="パス 5" d="M12.75,18.78a7.38,7.38,0,1,1,7.38-7.38,7.38,7.38,0,0,1-7.38,7.38Zm0-12.26a4.88,4.88,0,1,0,4.88,4.88,4.88,4.88,0,0,0-4.88-4.88Z" fill="#002846"/>
      <path id="パス_6" data-name="パス 6" d="M14.66,73.8H10.83a1.087,1.087,0,0,1-.18-.01,4.653,4.653,0,0,1-4.12-3.61.277.277,0,0,0-.01-.09L4.72,51.92h-.4a3.12,3.12,0,0,1-2.29-.91,4.227,4.227,0,0,1-1.07-2.8L0,28.88v-.13c.44-8.56,7.88-8.66,7.96-8.66h9.58a1.25,1.25,0,1,1,0,2.5H7.96c-.52,0-5.12.24-5.45,6.22L3.46,48.1v.08c0,.36.09,1.23.86,1.23H5.85A1.265,1.265,0,0,1,7.1,50.54L9.01,69.77a2.181,2.181,0,0,0,1.92,1.52h3.64a2.166,2.166,0,0,0,1.92-1.52l.87-9.74a1.255,1.255,0,1,1,2.5.22l-.88,9.81a.459.459,0,0,1-.01.1,4.643,4.643,0,0,1-4.12,3.61c-.06,0-.12.01-.18.01Z" fill="#002846"/>
      <path id="パス_7" data-name="パス 7" d="M56.95,18.78a7.38,7.38,0,1,1,7.38-7.38,7.38,7.38,0,0,1-7.38,7.38Zm0-12.26a4.88,4.88,0,1,0,4.88,4.88,4.88,4.88,0,0,0-4.88-4.88Z" fill="#002846"/>
      <path id="パス_8" data-name="パス 8" d="M58.86,73.8H55.03a1.087,1.087,0,0,1-.18-.01,4.653,4.653,0,0,1-4.12-3.61.277.277,0,0,0-.01-.09l-.97-9.81a1.251,1.251,0,1,1,2.49-.25l.97,9.74a2.181,2.181,0,0,0,1.92,1.52h3.64a2.173,2.173,0,0,0,1.92-1.52L62.6,50.53a1.251,1.251,0,0,1,1.25-1.13h1.53c.77,0,.86-1.26.86-1.31l.95-19.28c-.34-5.99-4.94-6.22-5.46-6.22H52.16a1.25,1.25,0,0,1,0-2.5h9.58c.08,0,7.52.1,7.96,8.66v.13l-.96,19.36c-.06,1.27-.84,3.68-3.36,3.68h-.4l-1.8,18.17a.387.387,0,0,1-.01.09,4.643,4.643,0,0,1-4.12,3.61c-.06,0-.12.01-.18.01Z" fill="#002846"/>
      <path id="パス_10" data-name="パス 10" d="M34.85,17.75a8.79,8.79,0,1,1,8.79-8.79,8.79,8.79,0,0,1-8.79,8.79Zm0-15.08a6.29,6.29,0,1,0,6.29,6.29A6.29,6.29,0,0,0,34.85,2.67Z" fill="#b29468"/>
      <path id="パス_12" data-name="パス 12" d="M37.2,83.78a4.206,4.206,0,0,0,3.77-3.18l2.36-23.37h1.89c2.45,0,2.59-3.06,2.59-3.06l1.18-23.8c-.47-9.19-8.25-9.19-8.25-9.19H28.96s-7.78,0-8.25,9.19l1.18,23.8s-.03,3.06,2.59,3.06h1.89L28.73,80.6a4.206,4.206,0,0,0,3.77,3.18h4.71Z" fill="#fff"/>
      <path id="パス_13" data-name="パス 13" d="M37.2,85.03H32.49a1.087,1.087,0,0,1-.18-.01,5.447,5.447,0,0,1-4.83-4.21.277.277,0,0,0-.01-.09L25.23,58.48h-.75a3.6,3.6,0,0,1-2.61-1.03,4.991,4.991,0,0,1-1.24-3.25L19.45,30.43V30.3c.52-10.26,9.41-10.38,9.5-10.38H40.73c.09,0,8.97.12,9.5,10.38v.13l-1.18,23.8c-.07,1.47-.96,4.25-3.84,4.25h-.75L42.22,80.72a.387.387,0,0,1-.01.09,5.443,5.443,0,0,1-4.83,4.21c-.06,0-.12.01-.18.01Zm-4.61-2.5h4.52a2.969,2.969,0,0,0,2.63-2.12l2.35-23.3a1.251,1.251,0,0,1,1.25-1.13h1.88c1.2,0,1.33-1.69,1.34-1.88l1.17-23.73c-.18-3.28-1.39-5.61-3.58-6.91a7.66,7.66,0,0,0-3.41-1.03H28.97a7.724,7.724,0,0,0-3.41,1.03c-2.2,1.3-3.4,3.63-3.58,6.91L23.15,54.1v.08c0,.42.1,1.8,1.34,1.8h1.89a1.265,1.265,0,0,1,1.25,1.13l2.35,23.3a2.955,2.955,0,0,0,2.62,2.12Z" fill="#b29468"/>
      <path id="パス_14" data-name="パス 14" d="M37.2,85.2H32.49a1.339,1.339,0,0,1-.2-.01,5.632,5.632,0,0,1-4.97-4.34c0-.03-.01-.07-.01-.1L25.08,58.66h-.6a3.716,3.716,0,0,1-2.72-1.08,5.176,5.176,0,0,1-1.29-3.37L19.29,30.45v-.14c.53-10.41,9.57-10.53,9.66-10.53H40.73c.09,0,9.13.12,9.66,10.53v.14l-1.18,23.8c-.07,1.53-1,4.41-4.01,4.41h-.6L42.37,80.75a.459.459,0,0,1-.01.1,5.6,5.6,0,0,1-4.97,4.34c-.07,0-.13.01-.2.01ZM28.96,20.1c-.09,0-8.82.14-9.33,10.22v.11L20.81,54.2A4.762,4.762,0,0,0,22,57.34a3.432,3.432,0,0,0,2.49.98h.9l2.26,22.39a.322.322,0,0,0,.01.08,5.268,5.268,0,0,0,4.69,4.07c.05,0,.1.01.15.01h4.71a.757.757,0,0,0,.15-.01,5.279,5.279,0,0,0,4.69-4.07.22.22,0,0,1,.01-.08l2.26-22.39h.9c2.75,0,3.61-2.68,3.68-4.1l1.18-23.8v-.11c-.52-10.08-9.24-10.22-9.33-10.22H28.97Zm3.63,62.6h-.03a3.116,3.116,0,0,1-2.76-2.24L27.45,57.13a1.085,1.085,0,0,0-1.08-.98H24.48c-1.1,0-1.5-1.02-1.51-1.96v-.07L21.79,30.39c.18-3.36,1.42-5.73,3.67-7.06a8,8,0,0,1,3.49-1.06H40.73a7.754,7.754,0,0,1,3.5,1.06c2.25,1.33,3.48,3.7,3.67,7.04L46.73,54.11c-.01.21-.16,2.04-1.51,2.04H43.34a1.085,1.085,0,0,0-1.08.98l-2.35,23.3a3.114,3.114,0,0,1-2.76,2.27H32.6Zm.01-.33h4.51a2.777,2.777,0,0,0,2.46-1.99L41.92,57.1a1.413,1.413,0,0,1,1.41-1.28h1.88c1.04,0,1.17-1.55,1.18-1.72l1.17-23.72c-.18-3.21-1.36-5.49-3.5-6.76a7.588,7.588,0,0,0-3.33-1.01H28.96a7.342,7.342,0,0,0-3.32,1.01c-2.15,1.27-3.33,3.55-3.5,6.77L23.31,54.1v.08c0,.38.09,1.63,1.17,1.63h1.89a1.413,1.413,0,0,1,1.41,1.28l2.35,23.3a2.793,2.793,0,0,0,2.47,1.97Z" fill="#b29468"/>
    </g>
  </g>
</svg>
