<svg xmlns="http://www.w3.org/2000/svg" xmlns:xlink="http://www.w3.org/1999/xlink" width="100" height="100" viewBox="0 0 100 100">
  <defs>
    <clipPath id="clip-path">
      <rect id="長方形_4" data-name="長方形 4" width="100" height="100" transform="translate(685 685)" fill="#fff" stroke="#707070" stroke-width="1"/>
    </clipPath>
  </defs>
  <g id="マスクグループ_1" data-name="マスクグループ 1" transform="translate(-685 -685)" clip-path="url(#clip-path)">
    <g id="_レイヤー_1-2" transform="translate(695 694.002)">
      <rect id="長方形_1" data-name="長方形 1" width="30.92" height="33.87" transform="translate(1.25 47.47)" fill="#fff"/>
      <path id="パス_1" data-name="パス 1" d="M29.31,5.49l-5.78.83V80.86h36.4V1.25Z" fill="#fff"/>
      <path id="パス_2" data-name="パス 2" d="M59.93,1.25V80.86H78.58V7.04Z" fill="#fff"/>
      <path id="パス_3" data-name="パス 3" d="M59.93,82.11a1.25,1.25,0,0,1-1.25-1.25V2.69L35.2,5.92a1.252,1.252,0,0,1-.34-2.48L59.76.01a1.232,1.232,0,0,1,.99.3,1.261,1.261,0,0,1,.43.94V80.86A1.25,1.25,0,0,1,59.93,82.11Z" fill="#002846"/>
      <path id="パス_4" data-name="パス 4" d="M22.61,82.17a1.314,1.314,0,0,1-1.31-1.31V6.32a1.308,1.308,0,0,1,1.15-1.3l4.94-.61a1.31,1.31,0,1,1,.32,2.6l-3.79.47V80.87a1.308,1.308,0,0,1-1.31,1.31Z" fill="#002846"/>
      <path id="パス_5" data-name="パス 5" d="M79.51,82.11a1.25,1.25,0,0,1-1.25-1.25V7.98L61.18,2.93V80.86a1.25,1.25,0,0,1-2.5,0V1.25a1.26,1.26,0,0,1,.5-1,1.246,1.246,0,0,1,1.1-.2L79.86,5.84a1.263,1.263,0,0,1,.9,1.2V80.86A1.25,1.25,0,0,1,79.51,82.11Z" fill="#002846"/>
      <path id="パス_6" data-name="パス 6" d="M28,17.62a1.962,1.962,0,0,1-.22-3.91L53.16,10.7a1.959,1.959,0,1,1,.46,3.89L28.24,17.6c-.08,0-.16.01-.23.01Z" fill="#b29468"/>
      <path id="パス_7" data-name="パス 7" d="M28,28.55a1.96,1.96,0,0,1-.19-3.91l25.38-2.49a1.959,1.959,0,0,1,.38,3.9L28.19,28.54H28Z" fill="#b29468"/>
      <path id="パス_8" data-name="パス 8" d="M28,39.49a1.963,1.963,0,0,1-.15-3.92l25.38-1.96a1.961,1.961,0,1,1,.31,3.91L28.16,39.48h-.15Z" fill="#b29468"/>
      <path id="パス_9" data-name="パス 9" d="M28,50.43a1.961,1.961,0,0,1-.11-3.92l25.38-1.43A1.963,1.963,0,1,1,53.49,49L28.11,50.43H28Z" fill="#b29468"/>
      <path id="パス_10" data-name="パス 10" d="M28,61.36a1.961,1.961,0,0,1-.07-3.92l25.38-.91a1.961,1.961,0,0,1,.14,3.92l-25.38.91H28Z" fill="#b29468"/>
      <path id="パス_11" data-name="パス 11" d="M28,72.3a1.96,1.96,0,0,1-.03-3.92L53.35,68h.03a1.96,1.96,0,0,1,.03,3.92l-25.38.38H28Z" fill="#b29468"/>
      <path id="パス_12" data-name="パス 12" d="M74.4,17.61a1.792,1.792,0,0,1-.51-.07l-9.16-2.49a1.959,1.959,0,1,1,1.03-3.78l9.16,2.49a1.959,1.959,0,0,1-.51,3.85Z" fill="#b29468"/>
      <path id="パス_13" data-name="パス 13" d="M74.4,28.55a2.1,2.1,0,0,1-.43-.05l-9.16-2.05a1.958,1.958,0,0,1,.86-3.82l9.16,2.05a1.959,1.959,0,0,1-.43,3.87Z" fill="#b29468"/>
      <path id="パス_14" data-name="パス 14" d="M74.4,39.49a1.305,1.305,0,0,1-.34-.03L64.9,37.84a1.96,1.96,0,0,1,.68-3.86l9.16,1.62a1.96,1.96,0,0,1-.34,3.89Z" fill="#b29468"/>
      <path id="パス_15" data-name="パス 15" d="M74.4,50.42a1.055,1.055,0,0,1-.25-.02l-9.16-1.18a1.956,1.956,0,0,1,.5-3.88l9.16,1.18a1.958,1.958,0,0,1-.25,3.9Z" fill="#b29468"/>
      <path id="パス_16" data-name="パス 16" d="M74.4,61.36h-.16l-9.16-.75a1.957,1.957,0,0,1,.32-3.9l9.16.75a1.958,1.958,0,0,1-.16,3.91Z" fill="#b29468"/>
      <path id="パス_17" data-name="パス 17" d="M74.4,72.3h-.07l-9.16-.31a1.961,1.961,0,1,1,.14-3.92l9.16.31a1.961,1.961,0,0,1-.07,3.92Z" fill="#b29468"/>
      <path id="パス_18" data-name="パス 18" d="M1.25,82.11A1.25,1.25,0,0,1,0,80.86V47.47a1.25,1.25,0,0,1,1.25-1.25H17.5a1.25,1.25,0,1,1,0,2.5H2.5V80.85A1.25,1.25,0,0,1,1.25,82.1Z" fill="#002846"/>
      <path id="パス_19" data-name="パス 19" d="M16.19,56.25H6.52a1.31,1.31,0,0,1,0-2.62h9.66a1.31,1.31,0,0,1,0,2.62Z" fill="#002846"/>
      <path id="パス_20" data-name="パス 20" d="M16.19,63.72H6.52a1.31,1.31,0,0,1,0-2.62h9.66a1.31,1.31,0,0,1,0,2.62Z" fill="#002846"/>
      <path id="パス_21" data-name="パス 21" d="M16.19,71.18H6.52a1.31,1.31,0,1,1,0-2.62h9.66a1.31,1.31,0,1,1,0,2.62Z" fill="#002846"/>
      <path id="パス_22" data-name="パス 22" d="M16.19,78.65H6.52a1.31,1.31,0,1,1,0-2.62h9.66a1.31,1.31,0,1,1,0,2.62Z" fill="#002846"/>
    </g>
  </g>
</svg>
