<svg xmlns="http://www.w3.org/2000/svg" xmlns:xlink="http://www.w3.org/1999/xlink" width="100" height="100" viewBox="0 0 100 100">
  <defs>
    <clipPath id="clip-path">
      <rect id="長方形_5" data-name="長方形 5" width="100" height="100" transform="translate(884 677)" fill="#fff" stroke="#707070" stroke-width="1"/>
    </clipPath>
  </defs>
  <g id="マスクグループ_2" data-name="マスクグループ 2" transform="translate(-884 -677)" clip-path="url(#clip-path)">
    <g id="_レイヤー_1-2" transform="translate(887.002 694.004)">
      <path id="パス_23" data-name="パス 23" d="M76.72,40.93l-3.34-3.8.03-.03-1.92-2.11-.28-.32a.927.927,0,0,0-.14-.14L55.39,17.29,42.74,10.61a18.411,18.411,0,0,0-8.63-2.14H19.78L13.79,28.01,43.65,58.18l3.37,3.73.51.58a4.762,4.762,0,0,0,6.24.86,4.658,4.658,0,0,0,1.97-4.42l.25.28a4.755,4.755,0,0,0,6.27.84,4.667,4.667,0,0,0,1.59-5.68,4.667,4.667,0,0,0,6.38-.67,4.74,4.74,0,0,0-.14-6.2l-.17-.19a4.667,4.667,0,0,0,6.37.21h0a4.684,4.684,0,0,0,.42-6.58Z" fill="#fff"/>
      <path id="パス_24" data-name="パス 24" d="M51.14,65.42c-.13,0-.26,0-.39-.01a5.869,5.869,0,0,1-3.99-1.91l-.62-.51a1.251,1.251,0,1,1,1.58-1.94l.7.57a1.921,1.921,0,0,1,.15.14,3.4,3.4,0,0,0,5.93-2.69,1.256,1.256,0,0,1,.73-1.3,1.242,1.242,0,0,1,1.45.31l.34.38a3.414,3.414,0,0,0,4.81.31,3.458,3.458,0,0,0,.87-3.93,1.259,1.259,0,0,1,.38-1.49,1.246,1.246,0,0,1,1.53,0,3.408,3.408,0,0,0,4.64-4.95l-.26-.29a1.249,1.249,0,0,1,1.82-1.71,3.416,3.416,0,0,0,4.66.16,3.422,3.422,0,0,0,.3-4.81l-3.34-3.8a1.271,1.271,0,0,1-.18-.27L54.46,18.11a1.253,1.253,0,0,1,1.85-1.69L71.99,33.66a1.137,1.137,0,0,1,.15.16l.28.32,1.91,2.1a1.208,1.208,0,0,1,.2.3l3.12,3.54a5.905,5.905,0,0,1-5.12,9.77,5.906,5.906,0,0,1-7.05,6.58,5.91,5.91,0,0,1-8.76,4.96,5.957,5.957,0,0,1-1.69,2.55,5.864,5.864,0,0,1-3.89,1.47Z" fill="#b29468"/>
      <path id="パス_25" data-name="パス 25" d="M16.73,32.22a1.249,1.249,0,0,1-.89-.37l-2.93-2.96a1.28,1.28,0,0,1-.31-1.25L18.59,8.1a1.237,1.237,0,0,1,1.24-.88l13.23.45a1.251,1.251,0,0,1,1.21,1.29,1.239,1.239,0,0,1-1.29,1.21L20.71,9.75l-5.49,17.9,2.4,2.43a1.258,1.258,0,0,1,0,1.77,1.241,1.241,0,0,1-.88.36Z" fill="#b29468"/>
      <path id="パス_26" data-name="パス 26" d="M75.25,8.47H62.02L46.22,5l-11.8,8.58a4.431,4.431,0,1,0,5.66,6.82l4.23-3.35,4.47-3.54,24.63,23.6,7.82-8.79L75.24,8.47Z" fill="#fff"/>
      <path id="パス_27" data-name="パス 27" d="M76.97,34.36a1.2,1.2,0,0,1-.83-.32,1.251,1.251,0,0,1-.1-1.77L79.84,28,74.32,9.71H62.02a.831.831,0,0,1-.27-.03L46.5,6.33,35.19,14.55a3.184,3.184,0,0,0,4.09,4.88L48,12.52a1.253,1.253,0,1,1,1.56,1.96l-8.7,6.9a5.686,5.686,0,0,1-7.24-8.77c.02-.02.04-.03.06-.05l11.8-8.58a1.239,1.239,0,0,1,1-.21L62.14,7.21h13.1a1.254,1.254,0,0,1,1.2.89l5.99,19.85a1.227,1.227,0,0,1-.26,1.19l-4.27,4.8a1.247,1.247,0,0,1-.94.42Z" fill="#002846"/>
      <path id="パス_28" data-name="パス 28" d="M14.53,44.8h0a4.111,4.111,0,0,1,.08-5.79l7.54-6.86a4.111,4.111,0,0,1,5.79.08h0a4.111,4.111,0,0,1-.08,5.79l-7.54,6.86A4.111,4.111,0,0,1,14.53,44.8Z" fill="#fff"/>
      <path id="パス_29" data-name="パス 29" d="M17.47,47.29h-.08a5.336,5.336,0,0,1-3.65-9.17l7.57-6.89a5.254,5.254,0,0,1,3.77-1.48,5.336,5.336,0,0,1,3.65,9.17l-7.57,6.89a5.259,5.259,0,0,1-3.7,1.48Zm7.54-15.05a2.8,2.8,0,0,0-1.98.8l-7.57,6.89a2.843,2.843,0,0,0,3.99,4.05l7.57-6.89a2.84,2.84,0,0,0-1.97-4.85h-.04Z" fill="#002846"/>
      <path id="パス_30" data-name="パス 30" d="M20.52,51.42h0a4.111,4.111,0,0,1,.08-5.79l7.54-6.86a4.111,4.111,0,0,1,5.79.08h0a4.111,4.111,0,0,1-.08,5.79L26.31,51.5a4.111,4.111,0,0,1-5.79-.08Z" fill="#fff"/>
      <path id="パス_31" data-name="パス 31" d="M23.46,53.9h-.08a5.309,5.309,0,0,1-3.76-1.61h0a5.342,5.342,0,0,1,.11-7.56l7.57-6.89a5.347,5.347,0,0,1,7.43,7.69l-7.57,6.89a5.259,5.259,0,0,1-3.7,1.48Zm-2.04-3.36a2.849,2.849,0,0,0,4.02.06l7.57-6.89a2.843,2.843,0,0,0-3.99-4.05l-7.57,6.89a2.843,2.843,0,0,0-.03,3.99h0Z" fill="#002846"/>
      <path id="パス_32" data-name="パス 32" d="M26.11,57.71h0a4.111,4.111,0,0,1,.08-5.79l7.54-6.86a4.111,4.111,0,0,1,5.79.08h0a4.111,4.111,0,0,1-.08,5.79L31.9,57.79a4.111,4.111,0,0,1-5.79-.08Z" fill="#fff"/>
      <path id="パス_33" data-name="パス 33" d="M29.05,60.2h-.08a5.346,5.346,0,0,1-3.66-9.17l7.57-6.89a5.347,5.347,0,0,1,7.43,7.69l-7.57,6.89a5.259,5.259,0,0,1-3.7,1.48Zm7.54-15.04a2.8,2.8,0,0,0-1.98.8l-7.57,6.89a2.84,2.84,0,0,0,1.97,4.85h.04a2.8,2.8,0,0,0,1.98-.8l7.57-6.89a2.84,2.84,0,0,0-1.97-4.85h-.04Z" fill="#002846"/>
      <path id="パス_34" data-name="パス 34" d="M33.19,62.56h0a3.8,3.8,0,0,1,.08-5.37l5.93-5.6a3.8,3.8,0,0,1,5.37.08h0a3.8,3.8,0,0,1-.08,5.37l-5.93,5.6A3.8,3.8,0,0,1,33.19,62.56Z" fill="#fff"/>
      <path id="パス_35" data-name="パス 35" d="M35.91,64.96h-.07a5.04,5.04,0,0,1-3.55-1.52h0a4.989,4.989,0,0,1-1.42-3.59,5.04,5.04,0,0,1,1.52-3.55l5.95-5.61a5.046,5.046,0,0,1,7.02,7.25l-5.95,5.61A4.98,4.98,0,0,1,35.91,64.96Zm5.93-13.18a2.522,2.522,0,0,0-1.77.72l-5.95,5.61a2.559,2.559,0,0,0-.03,3.59h0a2.555,2.555,0,0,0,1.79.77,2.465,2.465,0,0,0,1.81-.71l5.95-5.61a2.54,2.54,0,0,0-1.78-4.35Z" fill="#002846"/>
      <path id="パス_36" data-name="パス 36" d="M70.63,49.32a1.258,1.258,0,0,1-.91-.39l-8.4-8.82a1.252,1.252,0,0,1,1.81-1.73l8.4,8.82a1.255,1.255,0,0,1-.9,2.12Z" fill="#b29468"/>
      <path id="パス_37" data-name="パス 37" d="M64.11,56.04a1.252,1.252,0,0,1-.92-.4L54.11,45.9a1.252,1.252,0,1,1,1.83-1.71l9.08,9.74a1.259,1.259,0,0,1-.06,1.77,1.228,1.228,0,0,1-.85.34Z" fill="#b29468"/>
      <path id="パス_38" data-name="パス 38" d="M56.74,61.39a1.249,1.249,0,0,1-.9-.38l-6.64-6.9A1.252,1.252,0,1,1,51,52.37l6.64,6.9a1.25,1.25,0,0,1-.9,2.12Z" fill="#b29468"/>
      <rect id="長方形_2" data-name="長方形 2" width="11.97" height="27.94" transform="translate(71.47 5.772) rotate(-22.18)" fill="#fff"/>
      <path id="パス_39" data-name="パス 39" d="M82.02,32.9a1.194,1.194,0,0,1-.49-.1,1.21,1.21,0,0,1-.67-.68L70.31,6.25A1.252,1.252,0,0,1,71,4.62L82.08.09a1.276,1.276,0,0,1,.96,0,1.21,1.21,0,0,1,.67.68L94.26,26.64a1.252,1.252,0,0,1-.69,1.63L82.48,32.79a1.267,1.267,0,0,1-.47.09ZM73.1,6.46l9.6,23.55,8.77-3.58L81.87,2.88,73.1,6.46Z" fill="#002846"/>
      <rect id="長方形_3" data-name="長方形 3" width="11.97" height="27.94" transform="translate(12.346 31.648) rotate(-157.82)" fill="#fff"/>
      <path id="パス_40" data-name="パス 40" d="M12.34,32.9a1.267,1.267,0,0,1-.47-.09L.78,28.28a1.252,1.252,0,0,1-.69-1.63L10.64.78A1.274,1.274,0,0,1,11.31.1a1.23,1.23,0,0,1,.96,0L23.36,4.62a1.252,1.252,0,0,1,.69,1.63L13.5,32.12a1.274,1.274,0,0,1-.67.68,1.194,1.194,0,0,1-.49.1ZM2.88,26.44l8.77,3.58L21.26,6.46,12.49,2.88,2.88,26.44Z" fill="#b29468"/>
      <path id="パス_41" data-name="パス 41" d="M76.72,42.19a1.268,1.268,0,0,1-.93-.41L54.62,18.31,52.63,17.3a1.25,1.25,0,0,1,1.13-2.23l2.2,1.12a1.1,1.1,0,0,1,.36.28L77.64,40.12a1.261,1.261,0,0,1-.09,1.77,1.229,1.229,0,0,1-.84.32Z" fill="#b29468"/>
    </g>
  </g>
</svg>
