<?xml version="1.0" encoding="UTF-8"?><svg id="_レイヤー_2" xmlns="http://www.w3.org/2000/svg" viewBox="0 0 33 33"><defs><style>.cls-1{fill:#002846;}.cls-2{fill:#fff;}</style></defs><g id="_レイヤー_1-2"><rect class="cls-1" width="33" height="33"/><path class="cls-2" d="m12.41,11.35v-1.93h8.33v1.66l-3.51,3.6c.48.06.95.17,1.4.33.45.16.85.38,1.19.67.34.28.62.63.82,1.05.2.42.31.92.31,1.51s-.11,1.12-.32,1.61c-.22.49-.52.91-.9,1.26-.38.35-.85.63-1.4.83-.55.2-1.14.3-1.79.3-1.1,0-2.05-.21-2.83-.62-.79-.41-1.45-.95-1.99-1.59l1.55-1.44c.46.54.95.95,1.47,1.23.52.28,1.14.42,1.84.42.62,0,1.14-.17,1.56-.52.41-.35.62-.82.62-1.4,0-.64-.26-1.12-.77-1.46-.52-.34-1.22-.5-2.12-.5h-1.03l-.36-1.39,3.4-3.62h-5.45Z"/></g></svg>