<?xml version="1.0" encoding="UTF-8"?><svg id="_レイヤー_2" xmlns="http://www.w3.org/2000/svg" viewBox="0 0 20 20"><defs><style>.cls-1{fill:none;opacity:.5;}.cls-2{fill:#fff;}.cls-3{fill:#222;}</style></defs><g id="_レイヤー_1-2"><circle class="cls-2" cx="10" cy="10" r="10"/><g class="cls-1"><path class="cls-3" d="m7.43,5.67h4.83v.88h-4l-.18,2.69c.25-.11.5-.2.75-.27s.55-.1.91-.1c.41,0,.79.06,1.14.18.35.12.66.29.92.51.26.22.47.49.61.81.15.32.22.68.22,1.08s-.07.79-.22,1.13c-.15.34-.35.63-.61.88-.26.24-.58.43-.94.56-.37.13-.77.2-1.21.2-.6,0-1.15-.13-1.66-.38-.51-.25-.95-.57-1.34-.95l.62-.68c.37.36.75.64,1.15.85s.81.31,1.24.31c.3,0,.57-.05.82-.14.25-.09.47-.22.64-.39.18-.17.31-.37.41-.59s.15-.48.15-.75-.05-.5-.15-.72-.24-.4-.43-.56c-.18-.16-.4-.28-.66-.37s-.54-.13-.85-.13c-.36,0-.68.05-.97.14-.28.09-.55.21-.8.34l-.64-.42.24-4.09Z"/></g></g></svg>