<?xml version="1.0" encoding="UTF-8"?><svg id="_レイヤー_2" xmlns="http://www.w3.org/2000/svg" viewBox="0 0 20 20"><defs><style>.cls-1{fill:none;opacity:.5;}.cls-2{fill:#fff;}.cls-3{fill:#222;}</style></defs><g id="_レイヤー_1-2"><circle class="cls-2" cx="10" cy="10" r="10"/><g class="cls-1"><path class="cls-3" d="m7.47,6.51v-.84h5.35v.7l-2.63,2.93c.37.03.72.1,1.06.2.34.1.63.25.88.44s.45.43.6.72c.15.29.23.62.23,1.01s-.07.72-.22,1.03c-.15.31-.34.58-.59.8-.25.22-.54.4-.88.52-.34.12-.71.19-1.1.19-.7,0-1.32-.14-1.84-.41s-.95-.64-1.3-1.09l.68-.61c.33.4.69.71,1.09.92s.85.32,1.37.32c.26,0,.5-.04.72-.11s.42-.19.58-.33.29-.32.39-.52.14-.43.14-.68c0-.53-.22-.93-.65-1.21-.44-.28-1-.42-1.7-.42h-.54l-.19-.57,2.65-3h-4.1Z"/></g></g></svg>