<?xml version="1.0" encoding="UTF-8"?><svg id="_レイヤー_2" xmlns="http://www.w3.org/2000/svg" viewBox="0 0 20 20"><defs><style>.cls-1{fill:#fff;}.cls-2{fill:#b29468;}</style></defs><g id="_レイヤー_1-2"><circle class="cls-2" cx="10" cy="10" r="10"/><path class="cls-1" d="m8.96,6.75c-.34.24-.68.6-1.02,1.07l-.7-.5c.19-.28.39-.53.59-.75.2-.22.42-.41.65-.56.24-.15.5-.26.79-.34.29-.08.62-.12.99-.12s.73.06,1.05.18c.32.12.59.29.82.5s.41.46.54.76.19.61.19.95c0,.31-.04.6-.13.85-.08.26-.21.51-.39.76-.18.25-.4.51-.66.78s-.58.56-.95.88l-2.24,1.99h4.45v.86h-5.87v-.73l3.05-2.69c.32-.29.59-.55.82-.78s.41-.45.55-.65c.14-.2.24-.4.3-.6s.09-.4.09-.61c0-.25-.05-.47-.14-.67-.09-.2-.21-.36-.37-.5-.15-.14-.33-.25-.54-.32s-.42-.11-.65-.11c-.48,0-.89.12-1.24.37Z"/></g></svg>