<?xml version="1.0" encoding="UTF-8"?><svg id="_レイヤー_2" xmlns="http://www.w3.org/2000/svg" viewBox="0 0 33 33"><defs><style>.cls-1{fill:#002846;}.cls-2{fill:#fff;}</style></defs><g id="_レイヤー_1-2"><rect class="cls-1" width="33" height="33"/><path class="cls-2" d="m15,11.71c-.44.31-.9.79-1.4,1.42l-1.57-1.22c.3-.42.61-.8.92-1.13s.65-.61,1.02-.84c.37-.22.77-.4,1.21-.52.44-.12.94-.18,1.5-.18.62,0,1.19.09,1.71.27.52.18.95.44,1.31.77.36.34.64.74.84,1.2.2.46.3.98.3,1.54,0,.5-.07.95-.2,1.35-.13.4-.33.78-.6,1.15-.27.37-.61.75-1.03,1.13-.41.38-.9.8-1.45,1.26l-2.59,2.16h5.99v1.94h-9.11v-1.74l4.34-3.68c.43-.36.8-.69,1.1-.98s.54-.57.73-.84c.19-.26.32-.52.41-.77.08-.25.13-.52.13-.81,0-.62-.2-1.1-.58-1.45-.39-.34-.87-.51-1.45-.51s-1.08.16-1.52.47Z"/></g></svg>