<?xml version="1.0" encoding="UTF-8"?><svg id="_レイヤー_2" xmlns="http://www.w3.org/2000/svg" viewBox="0 0 20 20"><defs><style>.cls-1{fill:none;opacity:.5;}.cls-2{fill:#fff;}.cls-3{fill:#222;}</style></defs><g id="_レイヤー_1-2"><circle class="cls-2" cx="10" cy="10" r="10"/><g class="cls-1"><path class="cls-3" d="m11.95,7.21c-.31-.26-.62-.47-.94-.61s-.66-.22-1.04-.22-.73.09-1.03.28c-.3.18-.56.44-.77.77-.21.33-.37.72-.49,1.17-.11.45-.17.95-.17,1.49.11-.17.24-.33.39-.49.15-.16.32-.29.52-.41.2-.12.42-.21.66-.28.24-.07.52-.11.82-.11.39,0,.76.06,1.12.18.35.12.66.29.92.52s.47.5.63.82c.16.32.23.68.23,1.07s-.08.78-.23,1.13c-.16.34-.37.64-.64.89-.27.25-.59.44-.95.58-.37.14-.76.21-1.19.21-.46,0-.88-.08-1.25-.23-.37-.15-.69-.36-.95-.62-.17-.17-.32-.35-.45-.55-.13-.2-.24-.43-.33-.68s-.16-.55-.2-.88c-.05-.33-.07-.71-.07-1.15,0-.64.08-1.24.23-1.79.16-.56.38-1.04.68-1.45.3-.41.67-.74,1.1-.97s.92-.35,1.48-.35c.5,0,.95.08,1.34.25s.77.4,1.14.71l-.55.73Zm-.27,3.5c-.1-.22-.24-.41-.42-.57-.18-.16-.4-.29-.65-.38-.25-.09-.53-.14-.83-.14s-.6.05-.86.16c-.26.1-.48.24-.67.41-.18.17-.33.37-.43.59-.1.22-.15.45-.15.69,0,.27.05.52.16.76s.25.43.44.6.41.3.67.4c.26.1.55.14.86.14s.59-.05.84-.15c.25-.1.46-.24.64-.41s.31-.38.41-.61c.1-.24.14-.49.14-.76s-.05-.51-.15-.73Z"/></g></g></svg>