<?xml version="1.0" encoding="UTF-8"?><svg id="_レイヤー_2" xmlns="http://www.w3.org/2000/svg" viewBox="0 0 449.61 199.66"><defs><style>.cls-1{fill:#002846;}</style></defs><g id="_レイヤー_1-2"><path class="cls-1" d="m0,16.91c0-.1.1-.22.36-.41,4.27-2.52,7.13-6.24,7.13-7.46,0-.29-.19-.55-.58-.74-.36-.14-.6-.24-.6-.36,0-.36,1.03-.46,1.58-.46.6,0,1.25.17,1.85.62.62.48.86.96.86,1.39,0,.38-.31.74-.6,1.08-2.04,2.5-5.52,5.06-9.5,6.34-.12.05-.26.1-.36.1s-.14-.05-.14-.1Zm18.65-2.42c-1.03-2.42-2.57-4.9-5.23-6.62-.12-.1-.22-.17-.22-.26,0-.07.05-.12.14-.12.07,0,.17.02.26.07,3.02.98,7.71,4.06,7.71,6.43,0,1.06-.72,1.8-1.42,1.8-.58,0-.94-.55-1.25-1.3Z"/><path class="cls-1" d="m40.68,3.69c0,.46-.55.34-1.01.91-.91,1.2-1.94,2.38-3.05,3.48.41.12.84.26,1.13.41.26.14.41.36.41.67,0,.36-.31.79-.34,1.7,0,.24-.02,1.1-.02,2.26,0,1.92.02,4.75.17,5.59.05.34.07.62.07.89,0,.94-.31,1.54-.96,1.54-.89,0-1.39-.65-1.39-1.82,0-1.44.22-3.34.22-5.09,0-1.22-.02-2.4-.02-3.53,0-.7-.07-1.2-.34-1.58-2.47,2.26-5.23,4.18-7.94,5.35-.22.1-.38.14-.48.14s-.14-.02-.14-.07c0-.12.19-.29.48-.48,6.46-4.97,10.1-9.82,10.1-11.02,0-.34-.14-.65-.43-.96-.19-.19-.34-.22-.34-.31,0-.12.19-.22.6-.22.7,0,1.58.22,2.33.79.43.34.96.94.96,1.34Z"/><path class="cls-1" d="m67.71,7.26c0,.86-1.22.94-1.85,1.9-4.39,6.67-9.89,10.03-15.89,11.35-.14.02-.19.02-.26.02-.14,0-.19-.05-.19-.12,0-.1.1-.17.31-.24,5.14-2.16,10.25-5.59,14.31-12.79.1-.19.14-.34.14-.43,0-.14-.1-.19-.24-.19-.1,0-.17,0-.34.05-1.1.38-1.94.62-2.69.62-.41,0-.79-.1-1.18-.26-2.45,2.71-5.81,5.02-7.8,5.78-.14.05-.26.1-.34.1-.05,0-.1-.02-.1-.07,0-.07.1-.14.36-.34,3.19-2.28,6.79-7.01,6.79-8.4,0-.53-.46-.89-1.06-1.08-.22-.07-.29-.14-.29-.22s.12-.14.29-.22c.29-.1.65-.17,1.03-.17,1.39,0,2.88,1.27,2.88,2.02,0,.19-.1.36-.24.6-.29.43-.6.86-.94,1.27h.07c.94,0,2.23-.31,3.24-.89.58-.34.91-.55,1.34-.55.62,0,2.62,1.37,2.62,2.26Z"/><path class="cls-1" d="m75.07,20.7c0-.07.07-.12.19-.17,5.57-2.45,9.75-5.83,12.55-11.69.07-.22.14-.34.14-.41,0-.12-.07-.17-.24-.17-.34,0-4.03.7-5.93,1.2-1.18.31-1.56.62-1.92.84-.29.19-.6.24-.79.24-.77,0-1.85-.65-2.57-1.63-.14-.19-.22-.55-.22-.84,0-.31.07-.5.19-.5.07,0,.22.12.46.26.43.24,1.06.46,2.04.46.26,0,.53-.02.82-.05.84-.1,6.98-1.1,7.68-1.27.55-.12.89-.62,1.25-.62.77,0,2.59,1.49,2.59,2.09,0,.5-1.01.84-1.58,1.82-3.05,5.52-7.3,8.66-14.33,10.49-.12.05-.17.05-.22.05s-.12-.05-.12-.1Zm4.22-16.03c-.55-.36-.96-.74-1.25-1.3-.05-.1-.07-.22-.07-.29s.05-.14.14-.14c.14,0,.36.12.7.22.29.07.77.22,1.42.22.24,0,.55-.02.86-.07,1.1-.17,2.86-.48,3.84-.79.82-.22.86-.53,1.44-.53,1.03,0,2.52,1.03,2.52,1.8,0,.36-.29.5-1.2.5-.38,0-1.32-.07-2.02-.07-1.42,0-3.41.31-4.34.58-.43.1-.74.19-1.1.19-.29,0-.58-.1-.94-.31Z"/><path class="cls-1" d="m115.51,17.2c0,.86-.65,1.39-1.22,1.39s-1.1-.46-1.46-1.27c-.98-2.11-2.47-3.96-4.03-4.99-2.64,2.93-6.02,5.54-10.73,7.44-.14.05-.19.05-.24.05-.1,0-.14-.02-.14-.1s.07-.14.29-.26c5.42-2.93,10.66-9.34,11.86-12.48.05-.14.07-.24.07-.31,0-.1-.07-.12-.19-.12-.46,0-3.79.89-5.02,1.44-.41.17-.72.41-1.08.41-1.3,0-2.52-1.8-2.52-2.66,0-.22.07-.34.17-.34.14,0,.29.26.74.48.31.14.7.26,1.27.26.67,0,5.52-.82,6.36-1.03.6-.12,1.13-.67,1.44-.67.65,0,2.38,1.39,2.38,2.06,0,.48-1.01.82-1.39,1.44-.86,1.37-1.82,2.71-2.93,3.98,2.52.98,6.38,3.12,6.38,5.28Z"/><path class="cls-1" d="m129.29,16.02c.31-.41.55-.82.74-.82.26,0,1.85,1.32,2.11,1.8.02.1.02.14-.02.24-.1.17-.29.26-.55.26h-4.25v1.42c.05,1.34.05,1.82.12,2.57,0,.1,0,.14-.07.22-.22.26-.84.62-1.78.62-.38,0-.53-.24-.53-.48.07-.91.1-1.37.14-2.74v-1.61h-1.39c-.82.02-1.54.12-2.28.29-.12.02-.19.02-.24-.1l-.41-.84c-.07-.12,0-.22.14-.22.94.1,1.85.14,2.76.17h1.42v-2.78h-1.51v.62c0,.19-.79.6-1.56.6-.26,0-.43-.24-.43-.48.1-.96.12-1.44.17-2.88v-1.7c0-1.54-.07-3.34-.26-4.66-.02-.14.05-.19.19-.14l2.02.86h1.39v-2.09h-1.34c-.77.02-1.46.12-2.18.29-.12.02-.19.02-.24-.1l-.43-.84c-.07-.12,0-.22.17-.22.86.1,1.73.14,2.64.17h1.39c0-1.06-.07-2.35-.19-3.29,0-.14.07-.22.22-.17,2.09.5,2.62.74,2.62.96,0,.07-.07.14-.17.22l-.36.26v2.02h1.15l.55-.82c.29-.41.53-.84.72-.84.26,0,1.78,1.34,2.04,1.85.02.1.02.14-.02.24-.1.17-.29.26-.55.26h-3.89v2.09h1.25l.43-.53c.24-.26.41-.53.6-.53.26,0,1.66,1.01,1.92,1.49.05.07.02.14-.05.22-.17.14-.43.29-.77.34v2.38c.05,2.28.07,3.1.17,4.44,0,.1-.02.17-.1.24-.29.29-1.1.67-1.66.67h-.12c-.12,0-.19-.07-.19-.19v-.74h-1.49v2.78h1.42l.55-.79Zm-3.94-9.07h-1.66v2.74h1.66v-2.74Zm-1.66,3.43v2.95h1.66v-2.95h-1.66Zm5.11-3.43h-1.61v2.74h1.61v-2.74Zm-1.61,6.38h1.61v-2.95h-1.61v2.95Zm12.31-4.9c.31-.46.58-.91.77-.91.26,0,1.97,1.49,2.23,1.99.05.1.05.14,0,.24-.1.17-.29.26-.58.26h-4.54c-1.03,2.95-2.52,6.62-3.84,9,1.73-.12,3.84-.31,6-.5-.5-1.46-1.18-2.9-1.85-4.08-.07-.12-.02-.19.05-.24.07-.05.17-.05.26.02,3.26,2.14,4.37,4.56,4.37,6.14,0,1.06-.48,1.75-1.13,1.75-.29,0-.58-.12-.91-.38-.07-.07-.1-.14-.1-.24-.07-.82-.26-1.68-.55-2.57-1.73.67-4.13,1.51-7.54,2.59-.12.24-.26.38-.43.46-.1.05-.19-.02-.24-.12l-1.06-2.4c-.05-.12,0-.22.14-.22.58-.05,1.34-.07,2.26-.14.62-2.47,1.42-6.31,1.82-9.07h-1.03c-.55.02-1.06.12-1.56.29-.12.02-.19,0-.24-.12l-.43-.82c-.07-.12,0-.22.17-.22.96.1,1.92.14,2.9.17h4.44l.6-.89Zm-.6-6.53c.31-.43.58-.86.77-.86.26,0,1.92,1.39,2.18,1.9.05.1.05.14,0,.24-.1.17-.31.26-.58.26h-4.9c-1.2.02-2.3.14-3.43.31-.12.02-.19,0-.24-.12l-.43-.84c-.07-.12,0-.22.14-.22.98.1,1.94.14,2.93.17h2.98l.58-.84Z"/><path class="cls-1" d="m166.68,9.14c-.1.17-.29.26-.55.26h-4.03c.07,1.7.22,3.29.46,4.68.5-1.22.91-2.78.98-3.94.02-.14.12-.19.24-.14,1.87.58,2.4.86,2.4,1.06,0,.07-.1.12-.22.17l-.46.14c-.53,1.7-1.32,3.43-2.4,5.06.38,1.13.89,2.06,1.54,2.76.12.14.19.24.26.24.1,0,.17-.12.26-.36.26-.58.6-1.63.89-2.62.02-.1.12-.17.19-.14.07.02.1.1.1.22l-.34,3.6c.36.7.55,1.2.55,1.54,0,.17-.07.31-.17.41-.22.22-.46.31-.74.31-.72,0-1.61-.6-2.14-1.2-.72-.82-1.3-1.82-1.75-2.98-1.42,1.56-3.17,2.95-5.38,3.91-.12.05-.22.02-.26-.07-.05-.1-.05-.17.07-.24,2.16-1.34,3.79-3.14,5.04-5.18-.58-2.04-.84-4.49-.98-7.22h-4.37c-1.2.02-2.3.14-3.43.31-.12.02-.19,0-.24-.12l-.34-.7v7.13c.05,2.81.1,3.79.19,5.5,0,.1-.02.17-.07.24-.26.29-.82.62-1.66.62-.29,0-.46-.24-.46-.48.1-1.06.12-1.61.17-3.22v-1.87c-1.06.65-2.4,1.46-4.01,2.35-.07.24-.22.41-.36.5-.12.07-.22.02-.24-.1l-.65-2.21c-.02-.12.02-.19.14-.22.34-.07.82-.14,1.32-.26V2.49h-.43c-.12.02-.24.07-.36.17-.12.1-.22.07-.26-.05l-.38-.77c-.07-.12,0-.22.14-.22.98.1,1.94.14,2.93.17h2.81l.55-.77c.29-.38.53-.77.72-.77.26,0,1.78,1.25,2.04,1.73.02.1.02.14,0,.24-.1.17-.31.26-.58.26h-1.56v6.05c.98.1,1.99.14,3,.17h1.63c.43-1.37.7-3.14.65-4.37h-.82c-.94.02-1.85.1-2.74.22,1.46.91,1.97,1.92,1.97,2.71,0,.72-.43,1.2-.96,1.2-.24,0-.48-.1-.72-.34-.07-.07-.1-.14-.1-.24.02-1.03-.24-2.26-.5-3.12-.02-.12-.02-.17-.02-.17l-.36.05c-.1.02-.19,0-.24-.12l-.41-.82c-.07-.14,0-.24.17-.22.55.1,1.1.12,1.68.14h.91c0-1.01-.07-2.28-.19-3.19,0-.14.07-.22.22-.17,1.97.5,2.47.74,2.47.96,0,.07-.07.14-.17.22l-.38.24v1.94h.7l.86-1.25c.07-.12.17-.12.26-.02.26.24.84.77,1.3,1.27,0-1.06-.07-2.4-.19-3.38,0-.14.07-.22.22-.17,2.02.55,2.57.82,2.57,1.03,0,.1-.07.17-.19.24l-.41.26v7.08h1.39l.53-.79c.29-.38.53-.79.72-.79.26,0,1.73,1.3,1.99,1.78.02.1.02.14-.02.24Zm-16.63-2.64V2.49h-1.99v4.01h1.99Zm0,4.9v-4.2h-1.99v4.2h1.99Zm0,.67h-1.99v4.44c.62-.14,1.3-.29,1.99-.46v-3.98Zm4.9,6.48v.41c.02.29.02.46.05.58,0,.1.02.17-.02.24-.19.29-.84.6-1.49.6-.29,0-.46-.24-.46-.48.1-1.03.12-1.56.17-3.12v-1.8c0-1.54-.07-3.34-.26-4.66-.02-.14.05-.19.19-.14l1.92.82h2.18l.38-.55c.22-.26.38-.55.58-.55.26,0,1.49,1.01,1.7,1.49.05.07.02.14-.05.22-.14.12-.41.24-.7.29v2.3c.05,2.23.07,3.02.17,4.32,0,.1-.02.17-.1.24-.29.26-1.01.58-1.51.58h-.1c-.12,0-.19-.07-.19-.19v-.58h-2.47Zm0-6.86v2.59h2.47v-2.59h-2.47Zm0,3.29v2.9h2.47v-2.9h-2.47Zm5.26-6.26c-.07-1.39-.1-2.88-.1-4.42-.07.02-.17.05-.29.05h-2.57c1.94.43,2.5.67,2.5.84,0,.07-.1.14-.22.19l-.41.19c-.43.98-1.2,2.16-2.04,3.14h3.12Zm3.58-2.9c-.12-1.06-.6-2.33-1.03-3.24-.07-.1-.02-.22.05-.24.1-.05.17-.02.24.02,1.87.89,2.52,2.02,2.52,2.83,0,.67-.41,1.15-.96,1.15-.22,0-.46-.1-.72-.29-.07-.07-.1-.14-.1-.24Z"/><path class="cls-1" d="m177.17,14.82c0-6.67-1.18-8.42-1.18-10.56,0-1.13.58-1.87,1.58-1.87s1.58.74,1.58,1.87c0,2.14-1.18,3.89-1.18,10.56,0,.41-.22.58-.41.58s-.41-.17-.41-.58Zm-1.15,4.27c0-.86.7-1.56,1.56-1.56s1.56.7,1.56,1.56-.7,1.56-1.56,1.56-1.56-.7-1.56-1.56Z"/><path class="cls-1" d="m202.13,19.19c-2.18-2.14-5.5-3.67-8.45-4.63-.31-.1-.43-.12-.43-.22s.26-.14.5-.14c.38,0,11.14.62,11.14,4.75,0,.84-.46,1.22-1.06,1.22-.5,0-1.15-.46-1.7-.98Zm-2.81-7.99c-1.06-1.01-2.4-2.21-4.9-2.62-.19-.02-.41-.05-.41-.19,0-.17.62-.19.96-.19,1.78,0,7.2.41,7.2,2.95,0,.67-.46,1.06-.98,1.06-.48,0-1.15-.31-1.87-1.01Zm1.58-5.42c-1.15-1.03-2.78-1.87-4.87-2.14-.26-.05-.36-.07-.36-.17.02-.26,1.44-.38,2.21-.38,2.47,0,5.81.77,5.81,2.69,0,.6-.38.96-.96.96-.48,0-1.1-.29-1.82-.96Z"/><path class="cls-1" d="m231.24,17.2c0,.86-.65,1.39-1.22,1.39s-1.1-.46-1.46-1.27c-.98-2.11-2.47-3.96-4.03-4.99-2.64,2.93-6.02,5.54-10.73,7.44-.14.05-.19.05-.24.05-.1,0-.14-.02-.14-.1s.07-.14.29-.26c5.42-2.93,10.66-9.34,11.86-12.48.05-.14.07-.24.07-.31,0-.1-.07-.12-.19-.12-.46,0-3.79.89-5.02,1.44-.41.17-.72.41-1.08.41-1.3,0-2.52-1.8-2.52-2.66,0-.22.07-.34.17-.34.14,0,.29.26.74.48.31.14.7.26,1.27.26.67,0,5.52-.82,6.36-1.03.6-.12,1.13-.67,1.44-.67.65,0,2.38,1.39,2.38,2.06,0,.48-1.01.82-1.39,1.44-.86,1.37-1.82,2.71-2.93,3.98,2.52.98,6.38,3.12,6.38,5.28Z"/><path class="cls-1" d="m256.51,9.14c0,.48-.62.62-1.25.7-.62.02-.79.1-1.56.62-1.78,1.25-3.77,2.66-5.11,3.26,1.34.79,2.42,1.8,2.42,3.02,0,.74-.5,1.44-1.22,1.44-.6,0-1.13-.48-1.58-1.49-.6-1.27-2.14-3.22-3.94-4.2-.41-.24-.55-.31-.55-.43,0-.07.07-.1.14-.1.36.02,2.54.58,4.42,1.58,1.66-1.44,3.82-4.18,3.82-5.28,0-.12-.07-.24-.31-.24s-5.66.74-8.18,1.27c-2.06.41-2.86,1.01-3.48,1.01-.98,0-2.21-1.25-2.45-2.02-.07-.24-.1-.41-.1-.55,0-.19.07-.26.14-.26.1,0,.24.1.48.24.48.24.94.38,1.42.38.53,0,.86-.05,1.39-.1,2.02-.17,9.82-.96,11.04-1.32.46-.14.58-.5.96-.5.53,0,3.5,2.06,3.5,2.95Z"/><path class="cls-1" d="m266.28,12.9c-.17-.89-.48-1.9-1.44-2.66-.14-.1-.24-.19-.24-.29,0-.07.07-.14.24-.14.74,0,3.55,1.18,3.55,2.98,0,.55-.31,1.34-1.08,1.34-.6,0-.91-.58-1.03-1.22Zm-1.18,8.06c0-.1.12-.19.46-.31,4.44-1.56,8.74-6.62,9.62-10.32.1-.38.19-.72.19-1.06,0-.36-.12-.65-.38-.86-.26-.22-.48-.31-.48-.46s.19-.22.46-.22c.24,0,.62,0,1.2.22.72.26,1.85,1.34,1.85,2.18,0,.48-.43.55-.67.96-.98,1.54-3.77,8.18-11.55,9.94-.17.02-.34.05-.43.05-.17,0-.26-.05-.26-.12Zm4.92-10.25c-.19-1.13-.65-2.04-1.46-2.78-.14-.1-.26-.22-.26-.29,0-.1.12-.14.24-.14.89,0,3.55,1.27,3.55,3.05,0,.79-.41,1.32-1.06,1.32-.53,0-.89-.55-1.01-1.15Z"/><path class="cls-1" d="m304.9,9.88c0,.48-.29.62-.74.62-.55,0-3.38-.55-5.57-.55-.6,0-1.22.02-1.8.05-.65,6.41-4.92,9.7-9.67,11.14-.14.05-.22.07-.29.07s-.14-.05-.14-.1c0-.1.1-.17.24-.24,5.09-2.69,7.25-6.29,7.7-10.68-1.7.22-3.24.53-4.34.89-.77.26-1.39.6-2.04.6-.58,0-2.14-.43-3.14-2.21-.12-.22-.14-.38-.14-.46s.02-.12.07-.12.14.05.26.1c1.13.46,1.85.62,2.74.62.62,0,1.3-.07,2.14-.19.67-.1,2.64-.31,4.56-.5v-.65c0-1.06-.17-1.78-.86-2.35-2.11.48-4.82.98-6.91,1.03-.14,0-.29-.05-.29-.14s.17-.14.29-.17c4.44-.84,7.15-2.16,8.93-3.5.22-.17.38-.36.38-.55,0-.29-.5-.41-.5-.5,0-.14.24-.19.55-.19.38,0,.89.07,1.37.19,1.22.31,2.57,1.3,2.57,1.99,0,.22-.24.34-1.06.41-.82.07-1.27.19-2.23.58-.29.12-.84.29-1.56.48.43.19.89.48,1.37.89.29.26.46.55.46.94,0,.29-.07.58-.22.96-.05.12-.1.26-.12.38l1.85-.14c1.03-.07,1.85-.19,2.3-.38.43-.14.7-.29,1.01-.29.7,0,2.86,1.13,2.86,1.99Z"/><path class="cls-1" d="m328.83,11.78c0,6.98-7.3,8.83-11.74,8.83-.26,0-.6-.02-.6-.12,0-.12.58-.22.94-.29,4.85-.79,9.05-3.46,9.05-8.57,0-6.12-4.68-7.34-6.91-7.34-.17,0-.34,0-.5.02.36.77.72,2.18.72,3.31,0,.96-.19,2.69-.89,4.42-1.58,4.1-4.1,6.6-5.35,6.6-1.82,0-3.48-3.24-3.48-6.14,0-5.62,5.09-8.98,9.79-8.98,3.84,0,8.98,2.14,8.98,8.26Zm-10.18-7.44c-3.82.46-6.84,3.65-6.84,7.51,0,2.9,1.39,4.08,1.87,4.08.82,0,2.04-1.54,2.88-2.86,1.66-2.54,2.33-4.56,2.33-6.96,0-.72-.12-1.32-.24-1.78Z"/><path class="cls-1" d="m340.66,6.14c-.89,2.47-3.12,8.33-3.55,9.36-.31.67-.89.98-1.37.98-.67,0-.84-.79-.84-1.8,0-.74.24-.72.94-1.85,1.13-1.8,2.26-3.79,3.1-6.22-.14.02-.26.02-.38.02-1.92,0-2.74-1.58-2.95-2.04-.1-.17-.14-.34-.14-.43s.05-.12.1-.12c.07,0,.17.07.34.24.46.38,1.27.65,2.06.65.31,0,.89-.1,1.49-.22.05-.34.1-.67.1-.98,0-.58-.14-1.13-.5-1.46-.46-.41-.84-.46-.84-.62s.31-.29.79-.29c.29,0,.62.05.98.17.82.26,1.22.65,1.37,1.2.1-.02.26,0,.46-.02.34,0,1.1-.07,1.27-.07.31,0,.5-.05.82.1.34.12.5.41.5.72,0,.5-.41.98-.74,1.25-.77.53-1.92,1.08-2.98,1.44Zm5.35,4.56c0,1.63.38,3.46.62,5.11,1.27.31,2.59.79,3.36,1.39.6.41.86.94.86,1.37,0,.48-.36.96-.86.96s-1.13-.38-1.8-.84c-.43-.29-.89-.53-1.34-.74v.19c0,1.97-1.78,3.1-3.72,3.1-1.68,0-3.6-.94-3.6-2.76,0-2.02,2.28-3,4.63-3,.17,0,.36,0,.58.02-.02-1.18-.05-2.42,0-3.48.14-2.81.86-4.03,3.82-4.99.29-.1.38-.26.38-.41,0-.48-.82-1.18-1.18-1.51-.14-.07-.24-.17-.24-.22,0-.07.1-.1.26-.1.22,0,.58.07.84.14,1.42.36,3.17,1.51,3.17,2.81,0,.77-.55,1.3-1.22,1.3-.53,0-.86-.26-1.32-.6-.48-.31-.86-.53-1.32-.53-1.18,0-1.92,1.01-1.92,2.78Zm-1.27,6.55c-.65-.12-1.25-.19-1.78-.19-1.18,0-2.45.29-2.45,1.25s1.1,1.37,2.14,1.37c1.82,0,2.06-1.13,2.09-2.42Zm-3.36-14.02c0,.26-.05.58-.12.91.14-.05.26-.12.36-.17.29-.17.46-.31.46-.46,0-.1-.1-.19-.29-.29l-.41-.19v.19Z"/><path class="cls-1" d="m361.66,18.21c-1.85-1.63-2.38-4.27-2.38-6.72,0-1.44.26-2.57.26-3.6s-.22-2.02-1.01-2.57c-.17-.14-.24-.19-.24-.26,0-.12.36-.17.65-.17,1.49,0,3.12.98,3.12,2.45,0,1.15-.94,2.66-.94,4.82,0,2.33,1.42,4.32,2.4,4.32.17,0,.34-.12.43-.46.48-1.78.79-2.71,1.01-3.14.12-.26.26-.48.38-.48.05,0,.07.07.07.14,0,.12-.07.34-.1.48-.22.89-.29,1.68-.29,2.33,0,.6.07,1.03.22,1.46.24.84.67,1.37.67,2.02s-.43,1.01-1.06,1.01c-.74,0-1.92-.5-3.22-1.63Zm12.07-5.57c-.26-1.08-.62-3.12-1.92-3.79-.5-.29-1.1-.31-1.58-.31h-.55c-.12,0-.19-.05-.19-.1,0-.07.07-.12.17-.19.07-.05.12-.05.22-.07.31-.1.91-.26,1.68-.26.89,0,1.99.22,3.1,1.08,1.39,1.13,1.78,2.62,1.78,3.24,0,.96-.7,1.68-1.34,1.68-.74,0-1.15-.5-1.34-1.27Z"/><path class="cls-1" d="m389.02,16.02c.31-.41.55-.82.74-.82.26,0,1.85,1.32,2.11,1.8.02.1.02.14-.02.24-.1.17-.29.26-.55.26h-4.25v1.42c.05,1.34.05,1.82.12,2.57,0,.1,0,.14-.07.22-.22.26-.84.62-1.78.62-.38,0-.53-.24-.53-.48.07-.91.1-1.37.14-2.74v-1.61h-1.39c-.82.02-1.54.12-2.28.29-.12.02-.19.02-.24-.1l-.41-.84c-.07-.12,0-.22.14-.22.94.1,1.85.14,2.76.17h1.42v-2.78h-1.51v.62c0,.19-.79.6-1.56.6-.26,0-.43-.24-.43-.48.1-.96.12-1.44.17-2.88v-1.7c0-1.54-.07-3.34-.26-4.66-.02-.14.05-.19.19-.14l2.02.86h1.39v-2.09h-1.34c-.77.02-1.46.12-2.18.29-.12.02-.19.02-.24-.1l-.43-.84c-.07-.12,0-.22.17-.22.86.1,1.73.14,2.64.17h1.39c0-1.06-.07-2.35-.19-3.29,0-.14.07-.22.22-.17,2.09.5,2.62.74,2.62.96,0,.07-.07.14-.17.22l-.36.26v2.02h1.15l.55-.82c.29-.41.53-.84.72-.84.26,0,1.78,1.34,2.04,1.85.02.1.02.14-.02.24-.1.17-.29.26-.55.26h-3.89v2.09h1.25l.43-.53c.24-.26.41-.53.6-.53.26,0,1.66,1.01,1.92,1.49.05.07.02.14-.05.22-.17.14-.43.29-.77.34v2.38c.05,2.28.07,3.1.17,4.44,0,.1-.02.17-.1.24-.29.29-1.1.67-1.66.67h-.12c-.12,0-.19-.07-.19-.19v-.74h-1.49v2.78h1.42l.55-.79Zm-3.94-9.07h-1.66v2.74h1.66v-2.74Zm-1.66,3.43v2.95h1.66v-2.95h-1.66Zm5.11-3.43h-1.61v2.74h1.61v-2.74Zm-1.61,6.38h1.61v-2.95h-1.61v2.95Zm12.31-4.9c.31-.46.58-.91.77-.91.26,0,1.97,1.49,2.23,1.99.05.1.05.14,0,.24-.1.17-.29.26-.58.26h-4.54c-1.03,2.95-2.52,6.62-3.84,9,1.73-.12,3.84-.31,6-.5-.5-1.46-1.18-2.9-1.85-4.08-.07-.12-.02-.19.05-.24.07-.05.17-.05.26.02,3.26,2.14,4.37,4.56,4.37,6.14,0,1.06-.48,1.75-1.13,1.75-.29,0-.58-.12-.91-.38-.07-.07-.1-.14-.1-.24-.07-.82-.26-1.68-.55-2.57-1.73.67-4.13,1.51-7.54,2.59-.12.24-.26.38-.43.46-.1.05-.19-.02-.24-.12l-1.06-2.4c-.05-.12,0-.22.14-.22.58-.05,1.34-.07,2.26-.14.62-2.47,1.42-6.31,1.82-9.07h-1.03c-.55.02-1.06.12-1.56.29-.12.02-.19,0-.24-.12l-.43-.82c-.07-.12,0-.22.17-.22.96.1,1.92.14,2.9.17h4.44l.6-.89Zm-.6-6.53c.31-.43.58-.86.77-.86.26,0,1.92,1.39,2.18,1.9.05.1.05.14,0,.24-.1.17-.31.26-.58.26h-4.9c-1.2.02-2.3.14-3.43.31-.12.02-.19,0-.24-.12l-.43-.84c-.07-.12,0-.22.14-.22.98.1,1.94.14,2.93.17h2.98l.58-.84Z"/><path class="cls-1" d="m426.41,9.14c-.1.17-.29.26-.55.26h-4.03c.07,1.7.22,3.29.46,4.68.5-1.22.91-2.78.98-3.94.02-.14.12-.19.24-.14,1.87.58,2.4.86,2.4,1.06,0,.07-.1.12-.22.17l-.46.14c-.53,1.7-1.32,3.43-2.4,5.06.38,1.13.89,2.06,1.54,2.76.12.14.19.24.26.24.1,0,.17-.12.26-.36.26-.58.6-1.63.89-2.62.02-.1.12-.17.19-.14.07.02.1.1.1.22l-.34,3.6c.36.7.55,1.2.55,1.54,0,.17-.07.31-.17.41-.22.22-.46.31-.74.31-.72,0-1.61-.6-2.14-1.2-.72-.82-1.3-1.82-1.75-2.98-1.42,1.56-3.17,2.95-5.38,3.91-.12.05-.22.02-.26-.07-.05-.1-.05-.17.07-.24,2.16-1.34,3.79-3.14,5.04-5.18-.58-2.04-.84-4.49-.98-7.22h-4.37c-1.2.02-2.3.14-3.43.31-.12.02-.19,0-.24-.12l-.34-.7v7.13c.05,2.81.1,3.79.19,5.5,0,.1-.02.17-.07.24-.26.29-.82.62-1.66.62-.29,0-.46-.24-.46-.48.1-1.06.12-1.61.17-3.22v-1.87c-1.06.65-2.4,1.46-4.01,2.35-.07.24-.22.41-.36.5-.12.07-.22.02-.24-.1l-.65-2.21c-.02-.12.02-.19.14-.22.34-.07.82-.14,1.32-.26V2.49h-.43c-.12.02-.24.07-.36.17-.12.1-.22.07-.26-.05l-.38-.77c-.07-.12,0-.22.14-.22.98.1,1.94.14,2.93.17h2.81l.55-.77c.29-.38.53-.77.72-.77.26,0,1.78,1.25,2.04,1.73.02.1.02.14,0,.24-.1.17-.31.26-.58.26h-1.56v6.05c.98.1,1.99.14,3,.17h1.63c.43-1.37.7-3.14.65-4.37h-.82c-.94.02-1.85.1-2.74.22,1.46.91,1.97,1.92,1.97,2.71,0,.72-.43,1.2-.96,1.2-.24,0-.48-.1-.72-.34-.07-.07-.1-.14-.1-.24.02-1.03-.24-2.26-.5-3.12-.02-.12-.02-.17-.02-.17l-.36.05c-.1.02-.19,0-.24-.12l-.41-.82c-.07-.14,0-.24.17-.22.55.1,1.1.12,1.68.14h.91c0-1.01-.07-2.28-.19-3.19,0-.14.07-.22.22-.17,1.97.5,2.47.74,2.47.96,0,.07-.07.14-.17.22l-.38.24v1.94h.7l.86-1.25c.07-.12.17-.12.26-.02.26.24.84.77,1.3,1.27,0-1.06-.07-2.4-.19-3.38,0-.14.07-.22.22-.17,2.02.55,2.57.82,2.57,1.03,0,.1-.07.17-.19.24l-.41.26v7.08h1.39l.53-.79c.29-.38.53-.79.72-.79.26,0,1.73,1.3,1.99,1.78.02.1.02.14-.02.24Zm-16.63-2.64V2.49h-1.99v4.01h1.99Zm0,4.9v-4.2h-1.99v4.2h1.99Zm0,.67h-1.99v4.44c.62-.14,1.3-.29,1.99-.46v-3.98Zm4.9,6.48v.41c.02.29.02.46.05.58,0,.1.02.17-.02.24-.19.29-.84.6-1.49.6-.29,0-.46-.24-.46-.48.1-1.03.12-1.56.17-3.12v-1.8c0-1.54-.07-3.34-.26-4.66-.02-.14.05-.19.19-.14l1.92.82h2.18l.38-.55c.22-.26.38-.55.58-.55.26,0,1.49,1.01,1.7,1.49.05.07.02.14-.05.22-.14.12-.41.24-.7.29v2.3c.05,2.23.07,3.02.17,4.32,0,.1-.02.17-.1.24-.29.26-1.01.58-1.51.58h-.1c-.12,0-.19-.07-.19-.19v-.58h-2.47Zm0-6.86v2.59h2.47v-2.59h-2.47Zm0,3.29v2.9h2.47v-2.9h-2.47Zm5.26-6.26c-.07-1.39-.1-2.88-.1-4.42-.07.02-.17.05-.29.05h-2.57c1.94.43,2.5.67,2.5.84,0,.07-.1.14-.22.19l-.41.19c-.43.98-1.2,2.16-2.04,3.14h3.12Zm3.58-2.9c-.12-1.06-.6-2.33-1.03-3.24-.07-.1-.02-.22.05-.24.1-.05.17-.02.24.02,1.87.89,2.52,2.02,2.52,2.83,0,.67-.41,1.15-.96,1.15-.22,0-.46-.1-.72-.29-.07-.07-.1-.14-.1-.24Z"/><path class="cls-1" d="m436.9,14.82c0-6.67-1.18-8.42-1.18-10.56,0-1.13.58-1.87,1.58-1.87s1.58.74,1.58,1.87c0,2.14-1.18,3.89-1.18,10.56,0,.41-.22.58-.41.58s-.41-.17-.41-.58Zm-1.15,4.27c0-.86.7-1.56,1.56-1.56s1.56.7,1.56,1.56-.7,1.56-1.56,1.56-1.56-.7-1.56-1.56Z"/><path class="cls-1" d="m20.67,53.98l5.28,2.64c3.36,1.12,4.56,1.92,4.56,2.4,0,.24-.32.48-.88.64l-1.52.4c-6,11.92-14,20.8-23.2,26.48-.32.24-.56.24-.88-.08-.32-.32-.24-.56,0-.88,3.44-3.92,7.04-9.2,10.16-15.2,2.32-4.4,4.88-11.44,5.68-16,.08-.4.4-.64.8-.4Zm35.36,51.68c-2.96-5.2-6.72-10.32-10.08-14.32-.32-.32-.24-.64,0-.8h.08c.32-.24.56-.24.88-.08,16.32,8.16,21.76,18.4,21.76,24.48,0,3.2-1.6,5.28-3.76,5.28-.96,0-2-.32-3.2-1.2-.24-.16-.32-.4-.4-.64-.88-3.44-2.32-7.12-4.32-10.8-10,2.72-23.52,5.84-42.32,9.6-.4.72-1.04,1.28-1.76,1.6-.32.16-.64-.08-.8-.4l-3.44-8.96c-.16-.4.08-.72.56-.72,3.28-.08,7.68-.32,13.12-.64,2.32-6.16,4.64-13.36,6.64-20.4,1.28-4.88,2.4-10.64,2.72-15.04,0-.48.32-.64.72-.56,8.08,2.16,10.16,3.12,10.16,3.76,0,.24-.24.48-.64.64l-1.44.64c-3.36,8.88-9.12,20.96-15.52,30.8,8.88-.56,19.68-1.36,31.04-2.24Zm19.76-27.6c.4.16.56.4.48.64-.08.4-.24.56-.56.64-2.64,1.04-4.72,3.36-5.84,5.84-.16.4-.48.48-.8.24-10.48-7.76-18-19.52-21.28-33.28h-6.32c-3.84.08-7.52.48-11.28,1.04-.4.08-.64,0-.8-.4l-1.44-2.72c-.24-.4,0-.72.56-.72,3.2.32,6.4.48,9.68.56h7.68l2.32-3.76c.24-.32.56-.4.88-.16l6.32,4.48c.4.32.56.48.32.72-1.04.8-3.2,1.28-5.68,1.44,3.84,10.08,13.52,20.24,25.76,25.44Z"/><path class="cls-1" d="m93.63,64.39c-2.88.08-5.52.4-8.24,1.04-.4,0-.64,0-.8-.4l-1.44-2.72c-.24-.4,0-.72.56-.72,3.2.32,6.4.48,9.68.56h11.04l1.68-2.48c.88-1.2,1.6-2.48,2.24-2.48.88,0,5.68,3.92,6.48,5.52.08.32.08.48-.08.72-.32.64-1.04.96-1.84.96h-19.28Zm.08,50.48c.16,1.44.08,2.08.16,2.72.08.32.08.56-.08.8-.72.96-3.28,2.16-5.76,2.16-.96,0-1.44-.8-1.44-1.6.24-2.8.32-4.24.48-8.48v-5.04c0-4.72-.24-10.48-.8-14.64-.08-.48.16-.64.64-.48l7.04,3.04h8.32l1.44-1.84c.8-.96,1.44-1.92,2.08-1.92.88,0,5.76,3.6,6.72,5.2.16.32.08.56-.24.8-.56.48-1.52.96-2.72,1.12v6.24c.16,6,.24,8.16.48,11.68,0,.24-.08.48-.24.72-.96,1.04-3.68,2.24-5.68,2.24-.88,0-1.2-.56-1.36-1.2,0-.32.08-.48.08-.8.08-.24.16-.56.24-1.04v-1.52h-9.36v1.84Zm8.32-65.28c.88-1.2,1.6-2.48,2.24-2.48.88,0,5.6,3.92,6.4,5.52.08.32.08.48-.08.8-.32.56-.96.88-1.84.88h-8.32c-4,.08-7.68.48-11.44,1.04-.4.08-.64,0-.8-.4l-1.44-2.8c-.24-.4,0-.72.56-.72,2.8.32,5.6.48,8.48.56h4.56l1.68-2.4Zm.8,20.48c.88-1.12,1.52-2.32,2.16-2.32.88,0,5.28,3.76,6,5.28.08.32.08.48-.08.8-.24.56-.96.8-1.84.8h-8.64c-4,.08-7.68.48-11.44,1.04-.4.08-.64,0-.8-.4l-1.44-2.72c-.24-.4,0-.72.56-.72,3.04.32,6.08.48,9.12.56h4.8l1.6-2.32Zm0,10.32c.88-1.12,1.52-2.32,2.16-2.32.88,0,5.28,3.76,6,5.28.08.32.08.48,0,.8-.32.56-1.04.88-1.92.88h-8.64c-4,.08-7.68.48-11.44,1.04-.4.08-.64,0-.8-.4l-1.44-2.8c-.24-.4,0-.72.56-.72,3.04.32,6.08.48,9.12.56h4.8l1.6-2.32Zm-9.12,30.32h9.36v-15.04h-9.36v15.04Zm24.16-17.04h.08c.32,0,.64.16.72.56.88,2.88,1.2,5.52,1.2,7.84,0,4.16-1.2,7.28-2.8,9.04-.88.96-2.16,1.52-3.36,1.52s-2.32-.56-2.88-1.68c-.24-.56-.4-1.04-.4-1.6,0-1.44.96-2.8,2.32-3.76,2.24-1.92,4.56-6.72,4.48-11.28,0-.4.24-.64.64-.64Zm27.12-42.16l1.6-2.16c.88-1.04,1.6-2.16,2.24-2.16.88,0,5.6,4.24,6.4,5.92.16.24.08.48-.16.72-.48.56-1.36.88-2.64,1.04-.4,17.28-1.44,24.72-4.64,27.52-1.84,1.68-4.24,2.48-7.2,2.64-.4,0-.64-.24-.64-.64-.08-1.84-.24-3.36-1.12-4.24-.8-.96-2.72-1.76-4.88-2.24-.4-.16-.56-.32-.56-.72.08-.48.32-.64.72-.56,2.24.24,5.6.4,6.8.4.96,0,1.6-.16,2.16-.72,1.44-1.44,2.24-8.48,2.56-22.48h-11.36c-.48,3.28-1.12,6.4-1.92,9.36,4.72,2.24,6.64,5.36,6.64,7.68,0,1.84-1.2,3.2-3.28,3.2-.24,0-.4,0-.64-.08-.32-.08-.56-.16-.8-.4-1.04-1.36-2.56-2.64-4.24-4-3.12,6.64-8.08,12.08-16.56,16.16-.4.16-.72.08-.88-.24l-.08-.16c-.16-.32-.16-.64.16-.88,6.32-5.2,9.92-11.36,11.84-18.72-2.8-1.76-5.68-3.28-8.32-4.4-.4-.16-.48-.4-.32-.72.16-.32.4-.4.72-.4,3.52,0,6.48.24,9.04.8.4-2.32.8-4.72.96-7.2h-3.6c-2,.08-3.92.4-5.84.96-.4.08-.64.08-.8-.32l-1.44-2.8c-.24-.4-.08-.72.4-.72,3.28.32,6.48.48,9.76.56h19.92Zm-22.08,50.48c0-3.28-.24-7.52-.64-10.56,0-.48.24-.72.8-.56,6.32,1.68,7.92,2.48,7.92,3.2,0,.24-.16.4-.48.64l-1.12.8v15.68c0,.96.24,1.28,2,1.28h4.64c1.92,0,3.6,0,4.24-.08.64,0,1.04-.16,1.36-.72.56-.88,1.36-3.76,2.08-6.96.08-.4.32-.56.64-.56s.48.16.48.64l.24,7.04c1.84.8,2.24,1.52,2.24,2.88,0,2.8-2.56,4.24-11.84,4.24h-5.76c-5.76,0-6.8-1.44-6.8-6v-10.96Zm1.12-17.52c.16-.24.48-.4.8-.4,11.28-.08,15.36,4.8,15.36,8.32,0,1.92-1.28,3.44-3.28,3.44-.4,0-.8-.08-1.2-.16-.32-.08-.56-.24-.64-.56-2-3.76-6.64-7.84-10.72-9.92-.4-.24-.48-.48-.32-.72Zm19.92,8.4c.24-.16.56-.16.88,0,8.16,4.72,10.96,10.4,10.96,14.48,0,3.12-1.6,5.2-3.68,5.2-.88,0-1.84-.4-2.8-1.2-.24-.24-.32-.48-.32-.8,0-5.68-2.56-12.24-5.12-16.88-.24-.4-.16-.64.08-.8Z"/><path class="cls-1" d="m164.75,80.71c-.4.16-.64,0-.8-.32-.16-.32-.08-.56.24-.8,12.88-7.68,26.64-22.48,30.4-33.36.08-.4.4-.48.8-.4l10.88,2.88c.4.08.64.4.4.8-.48.56-1.44.88-3.28,1.04,6.8,9.2,20.16,16.48,32.08,20.24.4.08.56.4.56.72v.08c-.08.32-.24.56-.56.72-2.96,1.04-4.88,3.84-5.68,6.56-.08.48-.4.64-.8.4-11.76-5.84-22.08-16.24-26.88-27.84-6.96,11.28-22.32,23.2-37.36,29.28Zm51.6,27.52c-2.56-4.08-5.76-8-8.72-11.12-.32-.32-.32-.56-.08-.72.24-.16.56-.16.88-.08,15.2,5.6,20.24,14,20.24,19.28,0,2.96-1.52,4.96-3.76,4.96-.96,0-1.92-.32-2.96-1.04-.32-.16-.4-.32-.56-.64-.8-2.8-2.08-5.84-3.84-8.8-9.84,2.32-22.96,4.96-41.6,8.32-.32.72-.96,1.2-1.6,1.44-.4.16-.64,0-.8-.4l-3.84-8c-.16-.4-.08-.72.4-.72,3.04-.08,7.12-.24,12-.48,2.4-5.76,5.04-13.6,6.56-19.52h-7.6c-4,.08-7.68.48-11.44,1.04-.4.08-.64,0-.8-.4l-1.44-2.8c-.24-.4,0-.72.48-.72,3.28.32,6.48.48,9.76.56h41.52l2.16-2.96c1.12-1.52,2.08-3.04,2.72-3.04.88,0,7.2,4.96,8.16,6.72.16.24.16.4.08.72-.32.56-1.04.88-2,.88h-31.92c-3.6,6.4-8.48,13.84-12.8,19.36,8.72-.48,19.44-1.12,30.8-1.84Zm-23.36-31.68c-3.52.08-6.88.48-10.32,1.04-.4.08-.64,0-.8-.4l-1.44-2.8c-.24-.4,0-.72.48-.72,3.28.32,6.48.48,9.76.56h15.52l2-2.8c1.04-1.44,1.92-2.88,2.56-2.88.88,0,6.8,4.64,7.76,6.32.16.32.16.48.08.72-.32.64-1.04.96-2,.96h-23.6Z"/><path class="cls-1" d="m254.99,64.3c-3.2.08-6.16.4-9.2,1.04-.4.08-.64,0-.8-.4l-1.36-2.72c-.24-.4,0-.72.48-.72,3.28.32,6.48.48,9.76.56h13.92l1.68-2.48c.88-1.28,1.6-2.56,2.24-2.56.88,0,5.92,4,6.8,5.6.08.32.08.48-.08.72-.32.64-1.04.96-1.92.96h-21.52Zm-.48,54c0,.64-2.88,2.16-5.76,2.16-.96,0-1.44-.8-1.44-1.6.24-2.8.32-4.24.48-8.48v-5.04c0-4.72-.24-10.48-.8-14.64-.08-.48.16-.72.64-.56l7.2,3.12h10.08l1.6-2c.88-.96,1.52-2,2.16-2,.88,0,6,3.84,6.96,5.52.16.24.08.48-.16.72-.64.56-1.6,1.12-2.88,1.28v6.56c.16,6.32.24,8.56.48,12.16,0,.32-.08.56-.32.8-.96.96-3.92,2.24-5.92,2.24-.96,0-1.36-.56-1.44-1.2,0-.32.08-.48.08-.8.08-.16.08-.4.16-.72v-1.44h-11.12v3.92Zm10.64-68.8c.96-1.2,1.68-2.48,2.32-2.48.88,0,5.68,3.92,6.56,5.52.08.32.08.48-.08.8-.32.56-.96.88-1.84.88h-11.28c-4,.08-7.68.48-11.44,1.04-.4.08-.64,0-.8-.4l-1.36-2.8c-.24-.4,0-.72.48-.72,3.28.32,6.48.48,9.76.56h6l1.68-2.4Zm.72,20.48c.88-1.2,1.6-2.48,2.24-2.48.88,0,5.6,3.92,6.4,5.52.08.32.08.48-.08.8-.32.56-1.04.8-1.84.8h-11.76c-4,.08-7.68.48-11.44,1.04-.4.08-.64,0-.8-.4l-1.36-2.72c-.24-.4,0-.72.48-.72,3.28.32,6.48.48,9.76.56h6.72l1.68-2.4Zm0,10.32c.88-1.2,1.6-2.48,2.24-2.48.88,0,5.6,3.92,6.4,5.44.08.32.08.48-.08.8-.32.56-1.04.88-1.84.88h-11.76c-4,.08-7.68.48-11.44,1.04-.4.08-.64,0-.8-.4l-1.36-2.72c-.24-.4,0-.72.48-.72,3.28.32,6.48.48,9.76.56h6.72l1.68-2.4Zm-11.36,31.76h11.12v-16.48h-11.12v16.48Zm50.24-38.4l1.92-3.04c1.04-1.52,1.84-3.04,2.48-3.04.88,0,6.24,4.96,7.12,6.64.08.32.08.48-.08.8-.32.56-1.04.88-1.92.88h-15.76v22.72c.16,9.36.32,12.64.64,18.4,0,.32,0,.48-.24.72-.96,1.36-3.76,2.88-6.4,2.88-1.36,0-2.24-.8-2.24-1.6.48-6.88.72-10.4.88-20.8v-22.32h-4.88c-2.88.08-5.6.4-8.4,1.04-.4.08-.64,0-.8-.4l-1.44-2.72c-.24-.4,0-.72.56-.72,3.2.32,6.4.48,9.68.56h5.28v-11.2c0-5.12-.32-11.28-.88-15.6-.08-.48.16-.72.72-.56,7.68,1.84,9.76,2.72,9.76,3.52,0,.24-.32.56-.72.8l-1.52,1.04v22h6.24Z"/><path class="cls-1" d="m379.79,111.03c1.2-1.6,2.16-3.2,2.8-3.2.88,0,7.52,5.2,8.56,6.96.16.32.16.48,0,.8-.32.56-1.04.88-2,.88h-47.12c-4,.08-7.68.48-11.44,1.04-.4.08-.64-.08-.8-.4l-1.44-2.8c-.24-.4-.08-.72.48-.72,3.2.32,6.4.48,9.68.56h17.12v-36.72h-17.84c-4,.08-7.68.48-11.44,1.04-.4.08-.64,0-.8-.4l-1.44-2.8c-.24-.4,0-.72.48-.72,3.28.32,6.48.48,9.76.56h21.28v-11.68c0-5.12-.32-11.28-.96-15.6,0-.48.24-.72.72-.64,8.16,1.92,10.24,2.8,10.24,3.6,0,.24-.24.48-.64.72l-1.44.96v22.64h17.92l2.24-3.12c1.2-1.6,2.16-3.2,2.8-3.2.88,0,7.44,5.2,8.48,6.96.16.32.16.48,0,.8-.32.56-1.04.88-2,.88h-29.44v36.72h14.08l2.16-3.12Z"/><path class="cls-1" d="m449.61,95.84c0,16.3-17.02,20.61-27.38,20.61-.62,0-1.4-.06-1.4-.28,0-.28,1.34-.5,2.18-.67,11.31-1.85,21.11-8.06,21.11-19.99,0-14.28-10.92-17.14-16.13-17.14-.39,0-.78,0-1.18.06.84,1.79,1.68,5.1,1.68,7.73,0,2.24-.45,6.27-2.07,10.3-3.7,9.58-9.58,15.4-12.49,15.4-4.26,0-8.12-7.56-8.12-14.34,0-13.1,11.87-20.94,22.85-20.94,8.96,0,20.94,4.98,20.94,19.26Zm-23.74-17.36c-8.9,1.06-15.96,8.51-15.96,17.53,0,6.78,3.25,9.52,4.37,9.52,1.9,0,4.76-3.58,6.72-6.66,3.86-5.94,5.43-10.64,5.43-16.24,0-1.68-.28-3.08-.56-4.14Z"/><path class="cls-1" d="m24.85,182.97c.82-1.07,1.45-2.14,1.95-2.14.69,0,4.85,3.47,5.54,4.73.06.25.06.38-.06.63-.25.44-.76.69-1.45.69h-11.15v3.72c.13,3.53.13,4.79.31,6.74,0,.25,0,.38-.19.57-.57.69-2.21,1.64-4.66,1.64-1.01,0-1.39-.63-1.39-1.26.19-2.39.25-3.59.38-7.18v-4.22h-3.65c-2.14.06-4.03.32-5.99.76-.31.06-.5.06-.63-.25l-1.07-2.21c-.19-.32,0-.57.38-.57,2.46.25,4.85.38,7.25.44h3.72v-7.31h-3.97v1.64c0,.5-2.08,1.58-4.1,1.58-.69,0-1.13-.63-1.13-1.26.25-2.52.31-3.78.44-7.56v-4.47c0-4.03-.19-8.76-.69-12.22-.06-.38.13-.5.5-.38l5.29,2.27h3.65v-5.48h-3.53c-2.02.06-3.84.31-5.73.76-.32.06-.5.06-.63-.25l-1.13-2.21c-.19-.31,0-.57.44-.57,2.27.25,4.54.38,6.93.44h3.65c0-2.77-.19-6.17-.5-8.63,0-.38.19-.57.57-.44,5.48,1.32,6.87,1.95,6.87,2.52,0,.19-.19.38-.44.57l-.94.69v5.29h3.02l1.45-2.14c.76-1.07,1.39-2.21,1.89-2.21.69,0,4.66,3.53,5.36,4.85.06.25.06.38-.06.63-.25.44-.76.69-1.45.69h-10.21v5.48h3.28l1.13-1.39c.63-.69,1.07-1.39,1.58-1.39.69,0,4.35,2.65,5.04,3.91.13.19.06.38-.13.57-.44.38-1.13.76-2.02.88v6.24c.13,5.99.19,8.13.44,11.66,0,.25-.06.44-.25.63-.76.76-2.9,1.76-4.35,1.76h-.31c-.31,0-.5-.19-.5-.5v-1.95h-3.91v7.31h3.72l1.45-2.08Zm-10.33-23.82h-4.35v7.18h4.35v-7.18Zm-4.35,9.01v7.75h4.35v-7.75h-4.35Zm13.42-9.01h-4.22v7.18h4.22v-7.18Zm-4.22,16.76h4.22v-7.75h-4.22v7.75Zm32.32-12.85c.82-1.2,1.51-2.39,2.02-2.39.69,0,5.17,3.91,5.86,5.23.13.25.13.38,0,.63-.25.44-.76.69-1.51.69h-11.91c-2.71,7.75-6.62,17.39-10.08,23.63,4.54-.31,10.08-.82,15.75-1.32-1.32-3.84-3.09-7.62-4.85-10.71-.19-.31-.06-.5.13-.63.19-.13.44-.13.69.06,8.57,5.61,11.47,11.97,11.47,16.13,0,2.77-1.26,4.6-2.96,4.6-.76,0-1.51-.31-2.39-1.01-.19-.19-.25-.38-.25-.63-.19-2.14-.69-4.41-1.45-6.74-4.54,1.76-10.84,3.97-19.78,6.8-.31.63-.69,1.01-1.13,1.2-.25.13-.5-.06-.63-.32l-2.77-6.3c-.13-.32,0-.57.38-.57,1.51-.13,3.53-.19,5.92-.38,1.64-6.49,3.72-16.57,4.79-23.82h-2.71c-1.45.06-2.77.32-4.1.76-.31.06-.5,0-.63-.32l-1.13-2.14c-.19-.32,0-.57.44-.57,2.52.25,5.04.38,7.62.44h11.66l1.58-2.33Zm-1.58-17.14c.82-1.13,1.51-2.27,2.02-2.27.69,0,5.04,3.65,5.73,4.98.13.25.13.38,0,.63-.25.44-.82.69-1.51.69h-12.85c-3.15.06-6.05.38-9.01.82-.31.06-.5,0-.63-.32l-1.13-2.21c-.19-.32,0-.57.38-.57,2.58.25,5.1.38,7.69.44h7.81l1.51-2.21Z"/><path class="cls-1" d="m123.01,164.89c-.25.44-.76.69-1.45.69h-10.58c.19,4.47.57,8.63,1.2,12.29,1.32-3.21,2.39-7.31,2.58-10.33.06-.38.31-.5.63-.38,4.91,1.51,6.3,2.27,6.3,2.77,0,.19-.25.31-.57.44l-1.2.38c-1.39,4.47-3.46,9.01-6.3,13.29,1.01,2.96,2.33,5.42,4.03,7.25.31.38.5.63.69.63.25,0,.44-.31.69-.94.69-1.51,1.58-4.28,2.33-6.87.06-.25.31-.44.5-.38s.25.25.25.57l-.88,9.45c.94,1.83,1.45,3.15,1.45,4.03,0,.44-.19.82-.44,1.07-.57.57-1.2.82-1.95.82-1.89,0-4.22-1.58-5.61-3.15-1.89-2.14-3.4-4.79-4.6-7.81-3.72,4.1-8.32,7.75-14.11,10.27-.32.13-.57.06-.69-.19s-.13-.44.19-.63c5.67-3.53,9.95-8.25,13.23-13.61-1.51-5.36-2.21-11.78-2.58-18.96h-11.47c-3.15.06-6.05.38-9.01.82-.31.06-.5,0-.63-.32l-.88-1.83v18.71c.13,7.37.25,9.95.5,14.43,0,.25-.06.44-.19.63-.69.76-2.14,1.64-4.35,1.64-.76,0-1.2-.63-1.2-1.26.25-2.77.31-4.22.44-8.44v-4.91c-2.77,1.7-6.3,3.84-10.52,6.17-.19.63-.57,1.07-.94,1.32-.32.19-.57.06-.63-.25l-1.7-5.8c-.06-.32.06-.5.38-.57.88-.19,2.14-.38,3.46-.69v-37.8h-1.13c-.31.06-.63.19-.95.44s-.57.19-.69-.13l-1.01-2.02c-.19-.32,0-.57.38-.57,2.58.25,5.1.38,7.69.44h7.37l1.45-2.02c.76-1.01,1.39-2.02,1.89-2.02.69,0,4.66,3.28,5.35,4.54.06.25.06.38,0,.63-.25.44-.82.69-1.51.69h-4.1v15.88c2.58.25,5.23.38,7.88.44h4.28c1.13-3.59,1.83-8.25,1.7-11.47h-2.14c-2.46.06-4.85.25-7.18.57,3.84,2.39,5.17,5.04,5.17,7.12,0,1.89-1.13,3.15-2.52,3.15-.63,0-1.26-.25-1.89-.88-.19-.19-.25-.38-.25-.63.06-2.71-.63-5.92-1.32-8.19-.06-.32-.06-.44-.06-.44l-.94.13c-.25.06-.5,0-.63-.31l-1.07-2.14c-.19-.38,0-.63.44-.57,1.45.25,2.9.32,4.41.38h2.39c0-2.65-.19-5.99-.5-8.38,0-.38.19-.57.57-.44,5.17,1.32,6.49,1.95,6.49,2.52,0,.19-.19.38-.44.57l-1.01.63v5.1h1.83l2.27-3.28c.19-.32.44-.32.69-.06.69.63,2.21,2.02,3.4,3.34,0-2.77-.19-6.3-.5-8.88,0-.38.19-.57.57-.44,5.29,1.45,6.74,2.14,6.74,2.71,0,.25-.19.44-.5.63l-1.07.69v18.59h3.65l1.39-2.08c.76-1.01,1.39-2.08,1.89-2.08.69,0,4.54,3.4,5.23,4.66.06.25.06.38-.06.63Zm-43.66-6.93v-10.52h-5.23v10.52h5.23Zm0,12.85v-11.03h-5.23v11.03h5.23Zm0,1.76h-5.23v11.66c1.64-.38,3.4-.76,5.23-1.2v-10.46Zm12.85,17.01v1.07c.06.76.06,1.2.13,1.51,0,.25.06.44-.06.63-.5.76-2.21,1.58-3.91,1.58-.76,0-1.2-.63-1.2-1.26.25-2.71.31-4.1.44-8.19v-4.73c0-4.03-.19-8.76-.69-12.22-.06-.38.13-.5.5-.38l5.04,2.14h5.73l1.01-1.45c.57-.69,1.01-1.45,1.51-1.45.69,0,3.91,2.65,4.47,3.91.13.19.06.38-.13.57-.38.32-1.07.63-1.83.76v6.05c.13,5.86.19,7.94.44,11.34,0,.25-.06.44-.25.63-.76.69-2.65,1.51-3.97,1.51h-.25c-.31,0-.5-.19-.5-.5v-1.51h-6.49Zm0-18.02v6.8h6.49v-6.8h-6.49Zm0,8.63v7.62h6.49v-7.62h-6.49Zm13.8-16.44c-.19-3.65-.25-7.56-.25-11.59-.19.06-.44.13-.76.13h-6.74c5.1,1.13,6.55,1.76,6.55,2.21,0,.19-.25.38-.57.5l-1.07.5c-1.13,2.58-3.15,5.67-5.36,8.25h8.19Zm9.39-7.62c-.31-2.77-1.58-6.11-2.71-8.51-.19-.25-.06-.57.13-.63.25-.13.44-.06.63.06,4.91,2.33,6.62,5.29,6.62,7.43,0,1.76-1.07,3.02-2.52,3.02-.57,0-1.2-.25-1.89-.76-.19-.19-.25-.38-.25-.63Z"/><path class="cls-1" d="m175.67,149.45c.88-1.2,1.64-2.46,2.14-2.46.69,0,5.8,4.1,6.55,5.42.13.25.13.38,0,.63-.25.44-.82.69-1.51.69h-22.93v10.9h8.19l1.7-1.7c.94-.88,1.7-1.76,2.21-1.76.69,0,4.73,3.91,5.42,5.29.13.25.06.44-.13.63-.57.44-1.26.57-2.65.63-3.15,6.43-7.56,12.1-13.04,16.89,6.87,4.28,15.06,7.12,23.56,8.82.32.06.5.25.44.5-.06.25-.19.38-.5.44-2.27.5-3.97,2.21-4.85,4.6-.06.32-.31.44-.63.38-8.38-2.52-15.81-6.3-21.93-11.59-7.31,5.36-16.44,9.26-27.72,11.66-.31.13-.5-.06-.63-.31-.13-.32,0-.57.31-.69,9.7-3.21,18.08-7.94,24.82-13.73-4.54-4.91-8.13-10.9-10.46-18.21h-3.15c-1.76.06-3.34.32-4.98.76-.31.06-.5.06-.63-.25l-1.13-2.21c-.19-.32-.06-.57.38-.57,2.52.25,5.04.38,7.62.44h11.97v-10.9h-13.29c-3.15.06-6.05.38-9.01.82-.31.06-.5,0-.63-.31l-1.13-2.21c-.19-.31,0-.57.38-.57,2.58.25,5.1.38,7.69.44h16c0-3.34-.19-7.5-.57-10.46-.06-.38.13-.57.57-.5,5.86,1.45,7.43,2.08,7.43,2.65,0,.25-.19.44-.5.63l-1.13.69v6.99h14.11l1.64-2.46Zm-30.37,17.01c2.71,6.24,6.93,11.28,12.22,15.31,4.54-4.54,8.06-9.64,10.58-15.31h-22.81Z"/><path class="cls-1" d="m207.3,153.17c.69-1.01,1.26-2.08,1.76-2.08.69,0,4.03,3.4,4.6,4.66.06.25.06.38-.06.63-.25.44-.76.69-1.51.69h-6.87v10.9c2.33-.76,4.85-1.58,7.31-2.39.25-.13.57-.06.63.19.06.31,0,.5-.25.69-2.02,1.39-4.54,3.15-7.69,5.23v20.22c0,4.28-.76,6.8-6.68,7.62-.31.06-.5-.13-.57-.44-.19-1.7-.44-3.02-1.2-3.97-.69-.95-1.83-1.58-3.97-1.95-.25-.06-.44-.19-.44-.5v-.06c0-.32.19-.5.5-.44,1.32.06,4.79.31,5.67.31,1.01,0,1.26-.31,1.26-1.13v-16.25c-1.26.82-2.65,1.64-4.03,2.52-.19.63-.5,1.13-.94,1.45-.25.19-.5.06-.63-.25l-2.39-6.17c-.13-.32,0-.57.31-.63,1.76-.44,4.47-1.26,7.69-2.27v-12.66h-2.39c-1.32.06-2.52.32-3.72.69-.31.13-.5.06-.63-.25l-1.07-2.08c-.19-.38,0-.63.44-.57,1.58.25,3.15.31,4.79.38h2.58v-1.58c0-4.03-.25-8.88-.69-12.29-.06-.38.13-.57.57-.44,5.61,1.39,7.12,2.08,7.12,2.65,0,.25-.19.44-.5.63l-1.07.69v10.33h.82l1.26-2.08Zm33.58,14.24c.82-1.07,1.51-2.14,2.02-2.14.69,0,4.98,3.47,5.67,4.73.13.25.13.38,0,.63-.25.44-.76.69-1.51.69h-21.55c-.38,1.76-.82,3.47-1.39,5.1h11.78l1.51-1.64c.82-.82,1.45-1.64,1.95-1.64.69,0,4.54,3.34,5.23,4.73.13.19.06.38-.13.57-.44.44-1.07.57-2.33.69-1.76,3.65-4.22,6.93-7.25,9.77,4.1,2.21,8.76,3.72,13.67,4.66.31.06.5.19.5.38-.06.32-.19.38-.44.5-2.02.63-3.34,2.27-4.03,4.6-.06.31-.31.44-.63.31-4.98-1.76-9.32-4.16-12.79-7.37-4.73,3.34-10.58,5.86-17.58,7.5-.31.06-.5-.06-.63-.31-.13-.32,0-.57.31-.69,5.99-2.27,11.15-5.54,15.18-9.45-2.27-2.71-4.03-5.92-5.36-9.77-3.15,8.13-8.32,14.99-16.7,20.04-.31.19-.57.13-.69-.06-.13-.25-.13-.5.13-.69,7.94-7.31,12.1-16.76,13.86-27.22h-3.09c-1.7.06-3.28.32-4.85.76-.31.06-.5,0-.63-.32l-1.07-2.14c-.19-.38,0-.57.44-.5,2.02.19,4.03.32,6.17.38h3.34c.31-2.08.5-4.16.69-6.3h-3.09c-1.76.06-3.34.32-4.98.76-.31.06-.5.06-.63-.25l-1.13-2.14c-.19-.32,0-.57.44-.57,2.52.25,5.04.38,7.62.44h13.42c.25-.44.57-.95.82-1.51,1.76-3.53,3.4-8.25,3.78-11.72.06-.38.31-.5.63-.38,5.48,1.89,6.99,2.71,6.99,3.21,0,.19-.25.32-.57.44l-1.13.38c-2.14,2.96-5.48,6.74-9.07,9.58h5.61l1.39-2.14c.76-1.07,1.32-2.14,1.83-2.14.69,0,4.6,3.47,5.29,4.79.06.25.06.38-.06.63-.25.44-.82.63-1.51.63h-19.41c-.25,2.14-.63,4.22-1.07,6.3h13.42l1.58-2.08Zm-.38-26.9l2.46,3.02c1.58,1.2,2.27,1.95,2.27,2.33,0,.32-.44.38-1.2.38l-1.7-.13c-7.62,1.39-19.91,2.52-30.12,2.71-.32,0-.5-.19-.57-.5v-.06c-.06-.32.13-.5.44-.57,5.35-.82,11.59-2.14,17.07-3.47,3.84-.95,7.62-2.27,10.65-3.91.25-.13.5,0,.69.19Zm-25.89,9.77c.19-.13.44-.13.69-.06,5.17,1.95,6.93,4.79,6.93,6.93,0,1.76-1.2,3.09-2.65,3.09-.69,0-1.32-.25-2.02-.76-.19-.19-.25-.38-.31-.63-.31-2.65-1.58-5.73-2.77-7.94-.19-.32-.06-.5.13-.63Zm9.39-.82c.25-.13.44-.06.69,0,5.1,2.08,6.93,4.98,6.93,7.18,0,1.83-1.2,3.15-2.71,3.15-.69,0-1.39-.25-2.08-.76-.19-.19-.25-.38-.25-.63-.19-2.84-1.45-6.05-2.65-8.38-.19-.25-.13-.5.06-.57Zm0,28.79c1.64,3.28,4.03,5.92,6.87,8.13,2.08-2.52,3.72-5.23,4.98-8.13h-11.84Z"/></g></svg>