<?xml version="1.0" encoding="UTF-8"?><svg id="_レイヤー_2" xmlns="http://www.w3.org/2000/svg" viewBox="0 0 40.74 11.52"><defs><style>.cls-1{fill:#b29468;}</style></defs><g id="_レイヤー_1-2"><path class="cls-1" d="m2.5,3.66c.07.16.21.31.41.45.2.14.47.27.82.38.35.12.79.24,1.32.37.59.15,1.11.31,1.56.5.45.18.83.4,1.13.66.3.26.53.57.68.91.15.35.23.75.23,1.22,0,.53-.1,1.01-.29,1.42s-.47.77-.82,1.06c-.35.29-.77.51-1.26.66s-1.03.22-1.61.22c-.86,0-1.69-.15-2.48-.44-.79-.29-1.52-.74-2.19-1.35l1.18-1.41c.54.47,1.09.83,1.65,1.08.55.25,1.18.38,1.89.38.61,0,1.09-.13,1.45-.38.36-.26.54-.6.54-1.04,0-.2-.04-.38-.1-.54-.07-.16-.2-.31-.38-.44-.19-.13-.44-.26-.77-.38-.33-.12-.75-.24-1.28-.37-.6-.14-1.13-.29-1.6-.46-.47-.17-.86-.38-1.17-.64-.32-.26-.56-.57-.72-.93-.17-.36-.25-.81-.25-1.33,0-.49.09-.94.29-1.34s.45-.74.79-1.03c.33-.29.73-.51,1.2-.66.47-.15.98-.23,1.53-.23.82,0,1.56.12,2.22.36.66.24,1.27.59,1.85,1.05l-1.06,1.49c-.51-.37-1.02-.66-1.52-.86-.5-.2-1.01-.3-1.52-.3-.58,0-1.02.13-1.34.39-.32.26-.48.58-.48.95,0,.22.04.42.11.58Z"/><path class="cls-1" d="m15.71,11.36h-1.98V1.98h-3.55V.16h9.09v1.82h-3.55v9.38Z"/><path class="cls-1" d="m29.63,1.94h-6.34v2.88h5.62v1.78h-5.62v2.99h6.42v1.78h-8.37V.16h8.29v1.78Z"/><path class="cls-1" d="m40.38,5.58c-.23.48-.56.88-.96,1.2-.41.32-.88.56-1.43.73-.55.17-1.13.25-1.75.25h-2.23v3.6h-1.95V.16h4.42c.65,0,1.24.09,1.77.26.53.18.98.43,1.34.76.37.33.65.73.85,1.18.2.46.3.98.3,1.55,0,.63-.12,1.18-.35,1.66Zm-2.31-3.14c-.44-.34-1.03-.51-1.77-.51h-2.3v4.05h2.3c.75,0,1.34-.18,1.77-.55.43-.37.65-.86.65-1.47,0-.67-.22-1.18-.66-1.52Z"/></g></svg>