<?xml version="1.0" standalone="no"?>
<!DOCTYPE svg PUBLIC "-//W3C//DTD SVG 20010904//EN"
 "http://www.w3.org/TR/2001/REC-SVG-20010904/DTD/svg10.dtd">
<svg version="1.0" xmlns="http://www.w3.org/2000/svg"
 width="169.000000pt" height="169.000000pt" viewBox="0 0 169.000000 169.000000"
 preserveAspectRatio="xMidYMid meet">
<metadata>
Created by potrace 1.14, written by Peter Selinger 2001-2017
</metadata>
<g transform="translate(0.000000,169.000000) scale(0.100000,-0.100000)"
fill="#000000" stroke="none">
<path d="M1047 1645 c-8 -8 -12 -25 -10 -39 4 -21 8 -24 24 -15 11 5 19 6 20
2 0 -4 4 1 8 12 15 38 -16 67 -42 40z"/>
<path d="M835 1630 c3 -5 1 -10 -5 -10 -14 0 -3 -41 14 -52 16 -11 28 -10 21
2 -3 6 1 10 10 10 11 0 13 4 8 13 -8 12 -9 17 -12 37 0 6 -10 10 -22 10 -11 0
-17 -4 -14 -10z"/>
<path d="M1245 1590 c3 -5 1 -10 -6 -10 -7 0 -9 -3 -6 -7 4 -3 2 -12 -5 -20
-6 -8 -7 -13 -2 -12 23 4 36 -2 30 -16 -3 -8 -1 -15 3 -15 5 0 12 7 15 16 3 8
10 13 15 9 8 -5 9 13 2 58 0 4 -13 7 -27 7 -14 0 -23 -4 -19 -10z"/>
<path d="M642 1523 c-14 -25 14 -52 33 -32 8 9 10 21 5 34 -5 11 -9 14 -9 8
-1 -7 -6 -13 -12 -13 -5 0 -7 5 -4 10 3 6 4 10 1 10 -3 0 -9 -8 -14 -17z"/>
<path d="M1043 1534 c3 -3 -1 -24 -8 -45 -8 -22 -10 -37 -4 -34 5 4 16 2 23
-4 10 -9 15 -7 19 9 3 11 1 20 -5 20 -5 0 -6 5 -3 10 3 6 1 10 -4 10 -6 0 -11
5 -11 11 0 5 6 7 13 3 8 -5 8 -2 -2 9 -7 9 -16 17 -19 17 -3 0 -3 -3 1 -6z"/>
<path d="M869 1518 c-3 -10 -4 -74 -2 -80 2 -4 17 -2 34 4 29 10 30 11 10 25
-12 8 -21 20 -21 28 0 12 -18 32 -21 23z"/>
<path d="M1199 1461 c-12 -17 -27 -27 -33 -24 -6 3 -1 -4 11 -16 22 -21 60
-30 48 -11 -3 6 -2 10 3 10 10 0 10 55 0 65 -3 4 -16 -7 -29 -24z"/>
<path d="M1414 1459 c-3 -5 1 -19 7 -31 8 -14 14 -18 17 -10 2 6 8 12 13 12 6
0 7 -6 3 -12 -4 -7 -3 -9 2 -5 4 4 9 18 10 31 1 18 -4 24 -23 24 -13 0 -26 -4
-29 -9z"/>
<path d="M630 1411 c0 -6 -13 -9 -30 -7 -16 2 -30 0 -30 -3 0 -4 -10 -8 -22
-8 -32 -2 -49 -7 -75 -21 -13 -7 -23 -10 -23 -6 0 3 -7 0 -16 -7 -9 -7 -23
-14 -31 -15 -8 -1 -26 -10 -41 -20 -15 -10 -30 -17 -34 -16 -5 1 -8 -2 -8 -8
0 -5 -17 -18 -38 -29 -21 -11 -46 -31 -57 -45 -10 -13 -23 -22 -27 -20 -5 3
-7 2 -6 -3 2 -5 -7 -19 -19 -32 -24 -26 -76 -127 -76 -148 0 -7 -3 -13 -7 -13
-3 0 -12 -24 -20 -52 -18 -70 -20 -78 -24 -113 -2 -16 -5 -34 -6 -40 -1 -5 -1
-12 0 -15 7 -19 4 -100 -4 -100 -5 0 -2 -6 8 -13 10 -7 16 -20 15 -28 -2 -7 3
-25 10 -38 7 -13 8 -21 2 -17 -15 9 -3 -24 17 -46 8 -10 12 -18 8 -18 -4 0 0
-7 8 -16 9 -8 14 -20 11 -25 -4 -5 -2 -9 2 -9 5 0 9 -9 10 -20 2 -27 71 -120
89 -120 8 0 14 -4 14 -10 0 -5 5 -10 11 -10 7 0 31 -21 56 -47 24 -26 49 -48
56 -48 21 -2 47 -17 42 -25 -2 -4 7 -6 20 -4 14 1 25 -2 25 -7 0 -4 7 -5 17
-2 11 4 14 3 9 -5 -6 -11 12 -17 37 -13 4 0 7 -3 7 -7 0 -4 12 -7 28 -6 15 1
32 -3 39 -8 7 -5 14 -5 17 1 4 6 18 6 39 0 39 -11 40 -11 32 0 -3 6 6 6 24 1
16 -4 32 -6 35 -3 4 5 52 11 124 15 6 1 12 5 12 9 0 4 11 10 25 13 14 4 23 10
21 15 -3 5 0 9 7 8 34 -1 48 4 41 15 -5 7 -2 9 8 6 8 -4 26 4 39 16 13 12 29
21 34 20 21 -2 45 -16 40 -24 -3 -5 4 -11 15 -15 11 -3 20 -11 20 -16 0 -6 5
-7 12 -3 6 4 8 3 5 -3 -4 -6 7 -22 23 -37 17 -14 30 -24 30 -20 0 3 15 -9 33
-27 17 -18 31 -37 29 -41 -1 -5 5 -11 13 -14 8 -4 15 -12 15 -20 0 -14 11 -18
40 -15 19 3 52 40 44 52 -3 5 3 6 12 2 12 -4 15 -3 10 5 -4 7 -1 12 9 12 9 0
14 4 11 9 -3 5 1 12 10 15 13 5 13 9 -3 36 -11 20 -23 28 -32 25 -9 -3 -12 -3
-8 1 4 4 -1 13 -11 21 -11 10 -12 12 -2 8 8 -4 6 1 -4 9 -11 9 -23 16 -28 16
-4 0 -8 7 -8 16 0 8 -3 13 -7 11 -5 -3 -17 5 -28 16 -11 11 -14 16 -6 12 10
-6 12 -4 7 4 -5 7 -15 10 -23 7 -8 -3 -11 -1 -8 4 3 5 -3 18 -15 30 -11 11
-20 18 -20 15 0 -3 -8 3 -18 12 -19 19 -22 37 -7 50 4 4 5 2 0 -6 -5 -10 -4
-12 4 -7 6 4 9 11 6 16 -3 4 2 21 10 36 8 16 15 25 16 19 2 -16 21 58 21 82 0
13 4 21 8 18 4 -3 11 2 14 11 4 10 2 13 -7 8 -9 -6 -9 -5 0 8 7 8 10 18 6 21
-3 4 -1 7 5 7 6 0 9 6 6 14 -3 8 0 17 6 21 8 5 8 11 -1 21 -7 9 -8 14 -1 14 6
0 9 20 8 50 -2 30 1 47 6 44 6 -4 7 0 1 12 -5 11 -8 29 -7 42 0 12 -4 22 -10
22 -6 0 -4 5 4 10 11 7 11 10 2 10 -7 0 -11 4 -7 9 3 5 1 12 -4 16 -5 3 -8 14
-6 25 2 11 0 20 -4 20 -4 0 -8 6 -9 13 -2 21 -7 42 -15 54 -4 6 -8 23 -9 38
-2 15 -10 31 -20 36 -10 5 -18 17 -18 25 0 8 -4 12 -10 9 -5 -3 -10 0 -10 8 0
8 -15 29 -32 48 -18 19 -32 37 -30 42 1 4 -5 7 -13 7 -8 0 -15 5 -15 10 0 6
-5 10 -10 10 -10 0 -21 8 -54 37 -8 7 -16 9 -20 6 -3 -4 -6 -1 -6 5 0 7 -9 12
-19 12 -11 0 -21 5 -23 12 -2 6 -14 12 -26 13 -12 1 -29 10 -37 21 -11 14 -14
15 -15 4 0 -12 -2 -12 -9 -2 -4 7 -18 14 -29 15 -12 1 -22 4 -22 7 0 5 -48 11
-95 13 -11 0 -23 6 -27 11 -5 7 -8 6 -8 -3 0 -11 -3 -11 -17 0 -15 12 -16 12
-8 -1 8 -13 7 -13 -8 -1 -11 8 -17 9 -17 2z m14 -173 c-3 -4 0 -8 5 -8 6 0 11
6 11 13 0 9 2 9 9 -1 4 -8 12 -14 16 -14 4 0 12 6 16 14 5 8 9 9 9 2 0 -15 38
-25 46 -13 3 5 12 3 20 -5 8 -9 21 -13 29 -10 8 4 15 1 15 -5 0 -6 3 -10 8
-10 25 4 42 -3 42 -18 0 -9 3 -14 6 -10 4 3 13 -1 21 -9 8 -8 19 -12 24 -9 5
4 9 0 9 -8 0 -8 8 -21 18 -28 15 -12 16 -12 7 1 -5 9 -3 8 7 -2 9 -10 20 -18
25 -18 4 0 19 -10 33 -21 14 -11 19 -18 12 -14 -11 6 -12 3 -3 -13 6 -12 15
-23 20 -27 6 -3 8 -14 6 -25 -2 -12 0 -18 6 -15 5 4 9 1 9 -5 0 -5 10 -31 22
-56 11 -25 22 -60 22 -78 1 -17 5 -36 9 -43 4 -6 3 -14 -3 -18 -5 -3 -10 -11
-10 -16 0 -6 4 -8 9 -5 5 4 5 -11 0 -35 -5 -22 -7 -44 -4 -50 4 -5 -2 -9 -12
-9 -15 0 -16 -2 -3 -10 8 -5 10 -10 4 -10 -6 0 -11 -6 -11 -12 0 -7 -9 -33
-21 -57 -12 -24 -19 -48 -16 -53 3 -4 2 -7 -3 -6 -4 2 -9 -1 -10 -5 -1 -5 -11
-17 -22 -26 -11 -10 -17 -22 -13 -26 4 -5 -1 -5 -11 -2 -11 4 -16 3 -12 -3 3
-6 1 -10 -5 -10 -6 0 -9 -4 -6 -9 3 -4 -6 -13 -19 -19 -14 -7 -25 -16 -25 -22
0 -6 -4 -8 -10 -5 -5 3 -10 1 -10 -4 0 -6 -7 -11 -15 -11 -7 0 -19 -8 -24 -17
-6 -10 -11 -13 -11 -8 0 6 -4 4 -8 -3 -5 -7 -25 -13 -45 -14 -20 -1 -37 -6
-37 -11 0 -5 -6 -5 -13 2 -8 6 -17 8 -21 4 -10 -11 -126 -11 -132 -1 -3 5 -12
4 -20 -3 -10 -8 -14 -8 -14 0 0 6 -13 9 -30 7 -16 -2 -30 1 -30 5 0 5 -3 8 -7
7 -11 -3 -106 53 -119 71 -6 8 -16 11 -22 7 -8 -4 -12 0 -12 12 0 11 -9 22
-20 25 -13 3 -18 10 -14 21 4 10 1 16 -7 16 -7 0 -10 3 -6 6 3 3 -5 17 -19 30
-13 14 -27 37 -30 52 -4 15 -11 32 -16 39 -5 6 -11 22 -12 35 -2 13 -6 34 -10
48 -9 34 -13 129 -5 124 4 -2 10 3 13 12 4 11 2 15 -8 11 -11 -4 -8 7 9 39 13
24 21 44 19 44 -6 0 25 57 48 89 10 13 15 27 12 32 -3 5 3 9 13 9 15 0 16 2 3
10 -13 9 -7 14 13 11 4 0 7 4 7 9 0 5 4 9 9 7 5 -1 18 9 30 22 12 13 21 21 21
17 0 -4 10 2 22 13 11 11 25 18 30 15 4 -3 8 3 9 13 0 13 2 14 6 4 4 -11 10
-8 25 10 11 13 17 19 14 12 -4 -7 4 -6 24 3 16 9 34 13 40 9 5 -3 10 -2 10 3
0 5 12 7 26 4 16 -3 25 -1 21 5 -3 5 0 10 8 10 8 0 12 -4 9 -9z"/>
<path d="M647 1157 c-8 -12 -13 -30 -11 -39 1 -10 -2 -18 -8 -18 -6 0 -7 -7
-4 -16 3 -8 2 -13 -2 -10 -5 3 -8 -26 -8 -64 0 -39 4 -70 8 -70 4 0 8 -10 8
-23 0 -13 6 -29 13 -36 6 -8 7 -11 1 -8 -6 4 0 -15 13 -40 12 -26 23 -52 23
-59 0 -7 6 -14 13 -17 9 -3 8 -8 -3 -23 -14 -18 -14 -18 3 -5 12 9 17 10 17 2
0 -7 5 -9 10 -6 6 3 10 1 10 -5 0 -6 5 -8 10 -5 6 3 10 1 10 -4 0 -6 9 -11 20
-11 12 0 20 -7 20 -16 0 -10 5 -14 16 -10 8 3 12 2 9 -4 -3 -6 1 -10 9 -10 9
0 16 -4 16 -10 0 -5 11 -10 24 -10 13 0 26 -4 28 -10 2 -5 20 -10 41 -12 20
-1 37 -6 37 -10 0 -4 5 -8 11 -8 5 0 7 5 3 11 -4 7 1 7 15 -1 26 -13 49 0 50
28 0 9 3 42 6 72 4 30 6 60 6 65 -1 6 -2 40 -3 77 -2 36 -7 64 -12 60 -5 -3
-7 5 -4 16 4 12 1 25 -4 29 -7 4 -8 1 -3 -7 5 -8 4 -11 -3 -6 -6 4 -9 13 -5
21 3 8 0 15 -6 15 -6 0 -11 7 -11 15 0 8 -4 15 -10 15 -5 0 -10 7 -10 15 0 8
-4 15 -10 15 -5 0 -10 7 -10 16 0 8 -4 12 -10 9 -5 -3 -10 -1 -10 4 0 6 -7 11
-15 11 -8 0 -15 5 -15 10 0 6 -7 10 -15 10 -9 0 -28 12 -42 28 -15 15 -23 20
-19 12 7 -13 6 -13 -6 0 -7 8 -19 15 -25 16 -39 3 -44 5 -39 13 8 12 -27 8
-36 -4 -5 -6 -8 -6 -8 2 0 6 -15 11 -35 11 -24 0 -38 -6 -48 -21z"/>
<path d="M493 1145 c7 -5 16 -19 20 -29 4 -10 10 -16 13 -13 3 3 16 2 29 -3
20 -8 25 -5 33 20 12 33 5 45 -16 27 -13 -9 -14 -9 -8 1 4 6 3 12 -1 12 -5 0
-15 -6 -22 -12 -8 -7 -11 -8 -8 -3 3 6 -8 10 -24 10 -22 0 -26 -3 -16 -10z"/>
<path d="M544 1001 c3 -5 -1 -12 -10 -15 -10 -4 -13 -2 -8 6 4 6 -7 3 -25 -8
-17 -10 -31 -22 -31 -27 0 -4 5 -5 10 -2 6 3 10 2 10 -4 0 -6 7 -7 17 -4 10 4
14 2 10 -4 -3 -5 0 -10 8 -10 8 0 12 3 10 7 -2 4 2 7 10 7 8 0 12 -4 9 -9 -3
-4 0 -8 5 -8 11 0 14 7 14 35 0 28 -3 33 -19 39 -8 3 -13 2 -10 -3z"/>
<path d="M380 990 c-6 -4 -12 -11 -13 -16 -1 -5 -5 -8 -8 -7 -4 1 -2 -9 5 -22
6 -13 18 -26 27 -28 21 -6 47 15 41 32 -3 8 0 11 7 7 6 -4 9 -2 6 6 -7 18 -51
37 -65 28z"/>
<path d="M555 826 c-16 -19 -33 -32 -37 -29 -5 2 -8 -3 -8 -11 0 -10 7 -13 23
-10 12 3 38 6 57 8 23 2 36 9 38 20 2 9 -1 16 -7 16 -6 0 -11 7 -11 16 0 8 -4
13 -9 10 -5 -4 -11 -2 -13 3 -1 6 -16 -5 -33 -23z"/>
<path d="M447 782 c-9 -2 -15 -8 -12 -13 4 -5 2 -9 -3 -9 -6 0 -13 -8 -16 -17
-4 -10 -4 -14 0 -10 4 4 13 -1 20 -11 10 -12 13 -13 14 -3 0 10 3 11 13 2 18
-14 27 -4 27 30 0 28 -13 38 -43 31z"/>
<path d="M654 693 c-3 -10 -10 -26 -15 -35 -13 -25 -12 -26 15 -24 16 1 22 6
18 15 -4 11 -1 13 12 8 13 -5 17 -3 13 7 -3 8 -1 16 5 18 18 6 -1 28 -23 28
-11 0 -22 -8 -25 -17z"/>
<path d="M795 621 c-3 -6 -3 -15 0 -21 3 -5 -2 -10 -12 -11 -10 0 -13 -3 -5
-6 6 -2 12 -9 12 -14 0 -6 -6 -7 -12 -3 -10 5 -10 4 -1 -6 9 -9 9 -19 2 -32
-17 -32 -6 -27 37 19 37 38 40 44 27 60 -8 10 -11 12 -7 3 5 -11 1 -10 -13 3
-14 12 -23 15 -28 8z"/>
<path d="M560 600 c13 -9 13 -10 0 -10 -9 0 -16 -9 -16 -20 0 -12 5 -19 12
-16 7 3 15 0 17 -7 3 -9 8 -9 19 1 21 17 17 44 -8 53 -28 11 -41 10 -24 -1z"/>
<path d="M937 573 c-2 -5 -3 -16 -1 -25 2 -10 6 -26 7 -35 2 -10 13 -18 25
-19 15 -1 19 4 17 17 -2 11 1 19 6 19 6 0 7 5 4 10 -3 6 -1 10 5 10 7 0 6 5
-2 14 -7 8 -15 11 -18 7 -9 -11 -42 -13 -35 -2 3 6 4 11 1 11 -3 0 -7 -3 -9
-7z"/>
<path d="M825 550 c-3 -6 1 -7 9 -4 18 7 21 14 7 14 -6 0 -13 -4 -16 -10z"/>
<path d="M729 493 c-1 -5 -1 -12 0 -17 1 -5 -5 -6 -14 -3 -8 4 -15 2 -15 -3 0
-6 6 -10 13 -10 9 0 9 -2 -1 -9 -10 -6 -7 -12 11 -23 21 -15 24 -15 36 0 6 10
9 11 6 5 -3 -7 -2 -13 2 -13 5 0 14 14 20 30 6 17 8 28 3 25 -5 -3 -15 2 -23
10 -17 16 -36 20 -38 8z"/>
<path d="M950 469 c0 -5 5 -7 10 -4 6 3 10 8 10 11 0 2 -4 4 -10 4 -5 0 -10
-5 -10 -11z"/>
<path d="M1365 1382 c-16 -8 -36 -23 -45 -32 -11 -12 -13 -12 -5 0 9 13 8 13
-7 2 -14 -11 -15 -17 -5 -32 6 -11 13 -17 15 -15 3 2 13 0 23 -6 15 -8 20 -5
25 16 4 15 11 22 18 18 6 -4 4 2 -4 12 -8 10 -10 16 -5 13 6 -4 16 2 23 12 16
25 3 30 -33 12z"/>
<path d="M1552 1289 c-24 -9 -26 -16 -12 -39 17 -27 61 -17 67 16 3 17 -31 32
-55 23z"/>
<path d="M1430 1236 c-20 -9 -24 -16 -20 -36 3 -15 13 -26 25 -28 11 -2 17 -1
13 3 -7 7 27 45 41 45 5 0 11 6 14 13 6 16 -39 18 -73 3z"/>
<path d="M1600 1087 c0 -10 -4 -16 -9 -13 -5 4 -7 -3 -4 -14 3 -11 12 -20 20
-20 8 0 11 -5 8 -11 -4 -6 2 -5 14 3 25 15 27 34 6 54 -12 12 -15 12 -15 2 0
-10 -3 -9 -10 2 -8 13 -10 12 -10 -3z"/>
<path d="M1455 1080 c3 -6 0 -10 -7 -10 -8 0 -14 -9 -14 -20 0 -24 35 -38 47
-19 7 12 9 11 9 -1 1 -13 2 -13 13 0 7 9 20 15 30 15 9 0 17 3 17 8 0 4 0 12
0 19 0 9 -3 9 -12 0 -18 -18 -31 -15 -23 6 5 13 3 14 -6 5 -8 -8 -19 -9 -36
-2 -16 6 -22 5 -18 -1z"/>
<path d="M1423 895 c-6 -14 -7 -23 -3 -20 5 3 11 1 15 -4 3 -6 12 -8 20 -4 9
3 15 -1 15 -8 0 -11 2 -12 9 -1 4 7 12 12 17 11 5 -1 18 -1 29 0 l20 2 -20 11
c-11 7 -22 11 -24 9 -2 -1 -7 1 -10 7 -3 5 -17 12 -31 15 -20 5 -27 1 -37 -18z"/>
<path d="M1582 877 c-6 -7 -10 -23 -9 -35 1 -17 8 -22 30 -22 24 0 28 3 24 20
-3 11 -1 23 5 26 6 4 5 10 -3 15 -20 12 -35 11 -47 -4z"/>
<path d="M1367 755 c-17 -23 -17 -25 0 -33 10 -5 24 -7 31 -5 6 3 12 -1 12 -9
0 -8 4 -7 11 4 8 14 5 23 -13 42 l-23 25 -18 -24z"/>
<path d="M1430 710 c0 -5 5 -10 11 -10 5 0 7 5 4 10 -3 6 -8 10 -11 10 -2 0
-4 -4 -4 -10z"/>
<path d="M1500 688 c0 -5 -4 -7 -9 -3 -5 3 -13 0 -17 -6 -5 -8 -3 -9 6 -4 9 5
10 2 6 -12 -4 -12 -1 -25 9 -33 12 -10 15 -10 15 1 0 11 2 11 10 -1 9 -13 10
-13 11 0 0 8 2 23 4 33 2 9 -1 17 -6 17 -6 0 -8 4 -5 8 3 5 -1 9 -9 9 -8 0
-15 -4 -15 -9z"/>
<path d="M1341 527 c-1 -10 -6 -15 -12 -12 -6 4 -6 -1 2 -12 15 -24 51 -23 55
2 4 27 -6 38 -21 25 -10 -8 -14 -7 -18 2 -3 8 -6 6 -6 -5z"/>
</g>
</svg>
